  0
SECTION
  2
HEADER
  9
$ANGBASE
 50
0
  9
$ANGDIR
 70
1
  9
$AUNITS
 70
0
  9
$AUPREC
 70
0
  9
$ATTMODE
 70
1
  9
$DWGCODEPAGE
  3
ansi_1252
  9
$TDCREATE
 40
2461291.5468676272
  9
$CECOLOR
 62
256
  9
$CELTSCALE
 40
1
  9
$CELWEIGHT
370
31
  9
$CLAYER
  8
0
  9
$CELTYPE
  6
ByLayer
  9
$CMLJUST
 70
0
  9
$CMLSCALE
 40
20
  9
$CMLSTYLE
  2
Standard
  9
$DIMSTYLE
  2
Standard
  9
$LWDISPLAY
290
0
  9
$EXTNAMES
290
0
  9
$HANDSEED
  5
1F8
  9
$INSUNITS
 70
4
  9
$LUNITS
 70
2
  9
$LUPREC
 70
4
  9
$LTSCALE
 40
1
  9
$MEASUREMENT
 70
1
  9
$MIRRTEXT
 70
0
  9
$INSBASE
 10
0
 20
0
 30
0
  9
$SPLINESEGS
 70
8
  9
$PSLTSCALE
 70
1
  9
$PDMODE
 70
0
  9
$PDSIZE
 40
0
  9
$PLINEGEN
 70
0
  9
$SURFU
 70
6
  9
$SURFV
 70
6
  9
$TEXTSIZE
 40
2.5
  9
$TEXTSTYLE
  7
Standard
  9
$TDINDWG
 40
0
  9
$TDUCREATE
 40
2461291.1302050464
  9
$TDUUPDATE
 40
2461291.1302050464
  9
$TDUPDATE
 40
2461291.5468676272
  9
$ACADVER
  1
AC1027
  0
ENDSEC
  0
SECTION
  2
CLASSES
  0
CLASS
  1
ACDBDICTIONARYWDFLT
  2
AcDbDictionaryWithDefault
  3
ObjectDBX Classes
 90
32768
 91
0
280
0
281
0
  0
CLASS
  1
ACDBPLACEHOLDER
  2
AcDbPlaceHolder
  3
ObjectDBX Classes
 90
0
 91
0
280
0
281
0
  0
CLASS
  1
LAYOUT
  2
AcDbLayout
  3
ObjectDBX Classes
 90
0
 91
1
280
0
281
0
  0
CLASS
  1
DICTIONARYVAR
  2
AcDbDictionaryVar
  3
ObjectDBX Classes
 90
0
 91
6
280
0
281
0
  0
CLASS
  1
TABLESTYLE
  2
AcDbTableStyle
  3
ObjectDBX Classes
 90
4095
 91
1
280
0
281
0
  0
CLASS
  1
MATERIAL
  2
AcDbMaterial
  3
ObjectDBX Classes
 90
1153
 91
3
280
0
281
0
  0
CLASS
  1
VISUALSTYLE
  2
AcDbVisualStyle
  3
ObjectDBX Classes
 90
4095
 91
0
280
0
281
0
  0
CLASS
  1
SCALE
  2
AcDbScale
  3
ObjectDBX Classes
 90
1153
 91
17
280
0
281
0
  0
CLASS
  1
MLEADERSTYLE
  2
AcDbMLeaderStyle
  3
ObjectDBX Classes
 90
4095
 91
1
280
0
281
0
  0
CLASS
  1
CELLSTYLEMAP
  2
AcDbCellStyleMap
  3
ObjectDBX Classes
 90
1152
 91
0
280
0
281
0
  0
CLASS
  1
EXACXREFPANELOBJECT
  2
ExAcXREFPanelObject
  3
ObjectDBX Classes
 90
1025
 91
0
280
0
281
0
  0
CLASS
  1
NPOCOLLECTION
  2
AcDbImpNonPersistentObjectsCollection
  3
ObjectDBX Classes
 90
1153
 91
0
280
0
281
0
  0
CLASS
  1
LAYER_INDEX
  2
AcDbLayerIndex
  3
ObjectDBX Classes
 90
0
 91
0
280
0
281
0
  0
CLASS
  1
SPATIAL_INDEX
  2
AcDbSpatialIndex
  3
ObjectDBX Classes
 90
0
 91
0
280
0
281
0
  0
CLASS
  1
IDBUFFER
  2
AcDbIdBuffer
  3
ObjectDBX Classes
 90
32768
 91
0
280
0
281
0
  0
CLASS
  1
ACDBSECTIONVIEWSTYLE
  2
AcDbSectionViewStyle
  3
ObjectDBX Classes
 90
1025
 91
0
280
0
281
0
  0
CLASS
  1
ACDBDETAILVIEWSTYLE
  2
AcDbDetailViewStyle
  3
ObjectDBX Classes
 90
1025
 91
0
280
0
281
0
  0
CLASS
  1
MESH
  2
AcDbSubDMesh
  3
ObjectDBX Classes
 90
0
 91
0
280
0
281
1
  0
CLASS
  1
SORTENTSTABLE
  2
AcDbSortentsTable
  3
ObjectDBX Classes
 90
0
 91
0
280
0
281
0
  0
CLASS
  1
ACDB_TEXTOBJECTCONTEXTDATA_CLASS
  2
AcDbTextObjectContextData
  3
ObjectDBX Classes
 90
1153
 91
0
280
0
281
0
  0
CLASS
  1
WIPEOUT
  2
AcDbWipeout
  3
WipeOut
 90
32895
 91
0
280
0
281
1
  0
CLASS
  1
WIPEOUTVARIABLES
  2
AcDbWipeoutVariables
  3
WipeOut
 90
32768
 91
0
280
0
281
0
  0
CLASS
  1
DIMASSOC
  2
AcDbDimAssoc
  3
AcDbDimAssoc
 90
0
 91
0
280
0
281
0
  0
CLASS
  1
ARC_DIMENSION
  2
AcDbArcDimension
  3
ObjectDBX Classes
 90
1025
 91
0
280
0
281
1
  0
CLASS
  1
ACAD_TABLE
  2
AcDbTable
  3
ObjectDBX Classes
 90
1025
 91
0
280
0
281
1
  0
CLASS
  1
TABLECONTENT
  2
AcDbTableContent
  3
ObjectDBX Classes
 90
1152
 91
0
280
0
281
0
  0
CLASS
  1
TABLEGEOMETRY
  2
AcDbTableGeometry
  3
ObjectDBX Classes
 90
1152
 91
0
280
0
281
0
  0
CLASS
  1
IMAGE
  2
AcDbRasterImage
  3
ISM
 90
32895
 91
0
280
0
281
1
  0
CLASS
  1
IMAGEDEF
  2
AcDbRasterImageDef
  3
ISM
 90
0
 91
0
280
0
281
0
  0
CLASS
  1
IMAGEDEF_REACTOR
  2
AcDbRasterImageDefReactor
  3
ISM
 90
1
 91
0
280
0
281
0
  0
CLASS
  1
DBCOLOR
  2
AcDbColor
  3
ObjectDBX Classes
 90
0
 91
0
280
0
281
0
  0
CLASS
  1
GEODATA
  2
AcDbGeoData
  3
ObjectDBX Classes
 90
4095
 91
0
280
0
281
0
  0
CLASS
  1
MULTILEADER
  2
AcDbMLeader
  3
ObjectDBX Classes
 90
1025
 91
0
280
0
281
0
  0
CLASS
  1
PDFUNDERLAY
  2
AcDbPdfReference
  3
ObjectDBX Classes
 90
4095
 91
0
280
0
281
1
  0
CLASS
  1
PDFDEFINITION
  2
AcDbPdfDefinition
  3
ObjectDBX Classes
 90
1153
 91
0
280
0
281
0
  0
CLASS
  1
RASTERVARIABLES
  2
AcDbRasterVariables
  3
ISM
 90
0
 91
0
280
0
281
0
  0
CLASS
  1
SPATIAL_FILTER
  2
AcDbSpatialFilter
  3
ObjectDBX Classes
 90
0
 91
0
280
0
281
0
  0
CLASS
  1
ACDB_MLEADEROBJECTCONTEXTDATA_CLASS
  2
AcDbMLeaderObjectContextData
  3
ObjectDBX Classes
 90
1025
 91
0
280
0
281
0
  0
CLASS
  1
PLOTSETTINGS
  2
AcDbPlotSettings
  3
ObjectDBX Classes
 90
0
 91
0
280
0
281
0
  0
CLASS
  1
FIELD
  2
AcDbField
  3
ObjectDBX Classes
 90
1152
 91
0
280
0
281
0
  0
CLASS
  1
FIELDLIST
  2
AcDbFieldList
  3
ObjectDBX Classes
 90
1152
 91
0
280
0
281
0
  0
CLASS
  1
ACDB_MTEXTATTRIBUTEOBJECTCONTEXTDATA_CLASS
  2
AcDbMTextAttributeObjectContextData
  3
ObjectDBX Classes
 90
1153
 91
0
280
0
281
0
  0
CLASS
  1
ACDB_BLKREFOBJECTCONTEXTDATA_CLASS
  2
AcDbBlkRefObjectContextData
  3
ObjectDBX Classes
 90
1153
 91
0
280
0
281
0
  0
ENDSEC
  0
SECTION
  2
TABLES
  0
TABLE
  2
VPORT
  5
1BC
330
0
100
AcDbSymbolTable
 70
1
  0
VPORT
  5
1F2
330
1BC
100
AcDbSymbolTableRecord
100
AcDbViewportTableRecord
  2
*Active
 70
0
 10
0
 20
0
 11
1
 21
1
 12
0
 22
0
 13
0
 23
0
 14
0.5
 24
0.5
 15
10
 25
10
 16
0
 26
0
 36
1
 17
0
 27
0
 37
0
 40
10
 41
1
 75
0
 76
1
  0
ENDTAB
  0
TABLE
  2
LTYPE
  5
3
330
0
100
AcDbSymbolTable
 70
3
  0
LTYPE
  5
4
330
3
100
AcDbSymbolTableRecord
100
AcDbLinetypeTableRecord
  2
CONTINUOUS
 70
0
  3
Solid line
 72
65
 73
0
 40
0
  0
LTYPE
  5
1F0
330
3
100
AcDbSymbolTableRecord
100
AcDbLinetypeTableRecord
  2
ByBlock
 70
0
  3

 72
65
 73
0
 40
0
  0
LTYPE
  5
1B9
330
3
100
AcDbSymbolTableRecord
100
AcDbLinetypeTableRecord
  2
ByLayer
 70
0
  3

 72
65
 73
0
 40
0
  0
ENDTAB
  0
TABLE
  2
LAYER
  5
6
330
0
100
AcDbSymbolTable
 70
3
  0
LAYER
  5
7
330
6
100
AcDbSymbolTableRecord
100
AcDbLayerTableRecord
  2
LEVEL_Ground
 70
0
 62
7
  6
CONTINUOUS
290
1
370
-3
390
0
  0
LAYER
  5
5
330
6
100
AcDbSymbolTableRecord
100
AcDbLayerTableRecord
  2
LEVEL_Upper_proof
 70
0
 62
7
  6
CONTINUOUS
290
1
370
-3
390
0
  0
LAYER
  5
1B8
330
6
100
AcDbSymbolTableRecord
100
AcDbLayerTableRecord
  2
0
 70
0
 62
7
  6
CONTINUOUS
290
1
370
-3
390
0
  0
ENDTAB
  0
TABLE
  2
STYLE
  5
2
330
0
100
AcDbSymbolTable
 70
1
  0
STYLE
  5
1CF
330
2
100
AcDbSymbolTableRecord
100
AcDbTextStyleTableRecord
  2
Standard
 70
0
 40
0
 41
1
 42
0
 50
0
 71
0
  0
ENDTAB
  0
TABLE
  2
VIEW
  5
9
330
0
100
AcDbSymbolTable
 70
0
  0
ENDTAB
  0
TABLE
  2
UCS
  5
8
330
0
100
AcDbSymbolTable
 70
0
  0
ENDTAB
  0
TABLE
  2
APPID
  5
1
330
0
100
AcDbSymbolTable
 70
1
  0
APPID
  5
1EF
330
1
100
AcDbSymbolTableRecord
100
AcDbRegAppTableRecord
  2
ACAD
 70
0
  0
ENDTAB
  0
TABLE
  2
DIMSTYLE
  5
1BB
330
0
100
AcDbSymbolTable
 70
1
100
AcDbDimStyleTable
  0
DIMSTYLE
105
1F1
330
1BB
100
AcDbSymbolTableRecord
100
AcDbDimStyleTableRecord
  2
Standard
 70
0
  3
<>
  4
[]
 40
1
 41
0.18
 42
0.625
 43
3.75
 44
1.25
 45
0
 46
0
 47
0
 48
0
 49
1
 50
45
 70
0
 90
0
140
0.18
141
0.09
142
0
143
25.4
144
1
145
0
146
1
147
0.625
148
0
 71
0
 72
0
 73
0
 74
0
 75
0
 76
0
 77
1
 78
8
 79
0
170
0
171
3
172
0
173
0
174
0
175
0
176
0
177
0
178
0
179
0
271
2
272
2
273
2
274
3
275
0
276
0
277
2
278
46
279
0
280
0
281
0
282
0
283
0
284
8
285
0
286
0
287
3
288
0
289
3
290
0
340
1CF
371
-2
372
-2
  0
ENDTAB
  0
TABLE
  2
BLOCK_RECORD
  5
A
330
0
100
AcDbSymbolTable
 70
2
  0
BLOCK_RECORD
  5
1B6
330
A
100
AcDbSymbolTableRecord
100
AcDbBlockTableRecord
  2
*Model_Space
 70
0
280
0
281
1
  0
BLOCK_RECORD
  5
1F4
330
A
100
AcDbSymbolTableRecord
100
AcDbBlockTableRecord
  2
*Paper_Space
340
1F3
 70
0
280
0
281
1
  0
ENDTAB
  0
ENDSEC
  0
SECTION
  2
BLOCKS
  0
BLOCK
  5
1B7
330
1B6
100
AcDbEntity
  8
0
  6
ByLayer
 62
256
 48
1
 60
0
370
-1
100
AcDbBlockBegin
  2
*Model_Space
 70
0
 10
0
 20
0
 30
0
  3
*Model_Space
  4

  0
ENDBLK
  5
1BA
330
1B6
100
AcDbEntity
  8
0
100
AcDbBlockEnd
  0
BLOCK
  5
1F5
330
1F4
100
AcDbEntity
  8
0
  6
ByLayer
 62
256
 48
1
 60
0
 67
1
370
-1
100
AcDbBlockBegin
  2
*Paper_Space
 70
0
 10
0
 20
0
 30
0
  3
*Paper_Space
  4

  0
ENDBLK
  5
1F6
330
1F4
100
AcDbEntity
  8
0
100
AcDbBlockEnd
  0
ENDSEC
  0
SECTION
  2
ENTITIES
  0
LWPOLYLINE
  5
1CD
330
1B6
100
AcDbEntity
  8
LEVEL_Ground
  6
ByLayer
 62
256
 48
1
 60
0
370
-1
100
AcDbPolyline
 90
4
 70
1
 38
0
 39
0
 10
0
 20
0
 40
0
 41
0
 42
0
 10
9000
 20
0
 40
0
 41
0
 42
0
 10
9000
 20
-6000
 40
0
 41
0
 42
0
 10
0
 20
-6000
 40
0
 41
0
 42
0
210
0
220
0
230
1
  0
TEXT
  5
1CE
330
1B6
100
AcDbEntity
  8
LEVEL_Ground
  6
ByLayer
 62
256
 48
1
 60
0
370
-1
100
AcDbText
  1
Ground slab 
 10
0
 20
0
 30
0
 40
125
  7
Standard
 11
0
 21
0
 31
0
210
0
220
0
230
1
100
AcDbText
  0
LWPOLYLINE
  5
1D0
330
1B6
100
AcDbEntity
  8
LEVEL_Ground
  6
ByLayer
 62
256
 48
1
 60
0
370
-1
100
AcDbPolyline
 90
4
 70
1
 38
0
 39
0
 10
-130
 20
130
 40
0
 41
0
 42
0
 10
1800
 20
130
 40
0
 41
0
 42
0
 10
1800
 20
20
 40
0
 41
0
 42
0
 10
-20
 20
20
 40
0
 41
0
 42
0
210
0
220
0
230
1
  0
LINE
  5
1D1
330
1B6
100
AcDbEntity
  8
LEVEL_Ground
  6
ByLayer
 62
256
 48
1
 60
0
370
-1
100
AcDbLine
 10
-120
 20
120
 30
0
 11
1800
 21
120
 31
0
 39
0
210
0
220
0
230
1
  0
LWPOLYLINE
  5
B
330
1B6
100
AcDbEntity
  8
LEVEL_Ground
  6
ByLayer
 62
256
 48
1
 60
0
370
-1
100
AcDbPolyline
 90
4
 70
1
 38
0
 39
0
 10
4200
 20
130
 40
0
 41
0
 42
0
 10
9130
 20
130
 40
0
 41
0
 42
0
 10
9020
 20
20
 40
0
 41
0
 42
0
 10
4200
 20
20
 40
0
 41
0
 42
0
210
0
220
0
230
1
  0
LINE
  5
C
330
1B6
100
AcDbEntity
  8
LEVEL_Ground
  6
ByLayer
 62
256
 48
1
 60
0
370
-1
100
AcDbLine
 10
4200
 20
120
 30
0
 11
9120
 21
120
 31
0
 39
0
210
0
220
0
230
1
  0
LWPOLYLINE
  5
D
330
1B6
100
AcDbEntity
  8
LEVEL_Ground
  6
ByLayer
 62
256
 48
1
 60
0
370
-1
100
AcDbPolyline
 90
4
 70
1
 38
0
 39
0
 10
-20
 20
20
 40
0
 41
0
 42
0
 10
1800
 20
20
 40
0
 41
0
 42
0
 10
1800
 20
-30
 40
0
 41
0
 42
0
 10
30
 20
-30
 40
0
 41
0
 42
0
210
0
220
0
230
1
  0
LWPOLYLINE
  5
E
330
1B6
100
AcDbEntity
  8
LEVEL_Ground
  6
ByLayer
 62
256
 48
1
 60
0
370
-1
100
AcDbPolyline
 90
4
 70
1
 38
0
 39
0
 10
4200
 20
20
 40
0
 41
0
 42
0
 10
9020
 20
20
 40
0
 41
0
 42
0
 10
8970
 20
-30
 40
0
 41
0
 42
0
 10
4200
 20
-30
 40
0
 41
0
 42
0
210
0
220
0
230
1
  0
LWPOLYLINE
  5
F
330
1B6
100
AcDbEntity
  8
LEVEL_Ground
  6
ByLayer
 62
256
 48
1
 60
0
370
-1
100
AcDbPolyline
 90
4
 70
1
 38
0
 39
0
 10
30
 20
-30
 40
0
 41
0
 42
0
 10
1800
 20
-30
 40
0
 41
0
 42
0
 10
1800
 20
-120
 40
0
 41
0
 42
0
 10
120
 20
-120
 40
0
 41
0
 42
0
210
0
220
0
230
1
  0
LINE
  5
10
330
1B6
100
AcDbEntity
  8
LEVEL_Ground
  6
ByLayer
 62
256
 48
1
 60
0
370
-1
100
AcDbLine
 10
1710
 20
-30
 30
0
 11
1800
 21
-120
 31
0
 39
0
210
0
220
0
230
1
  0
LINE
  5
11
330
1B6
100
AcDbEntity
  8
LEVEL_Ground
  6
ByLayer
 62
256
 48
1
 60
0
370
-1
100
AcDbLine
 10
1590
 20
-30
 30
0
 11
1680
 21
-120
 31
0
 39
0
210
0
220
0
230
1
  0
LINE
  5
12
330
1B6
100
AcDbEntity
  8
LEVEL_Ground
  6
ByLayer
 62
256
 48
1
 60
0
370
-1
100
AcDbLine
 10
1470
 20
-30
 30
0
 11
1560
 21
-120
 31
0
 39
0
210
0
220
0
230
1
  0
LINE
  5
13
330
1B6
100
AcDbEntity
  8
LEVEL_Ground
  6
ByLayer
 62
256
 48
1
 60
0
370
-1
100
AcDbLine
 10
1350
 20
-30
 30
0
 11
1440
 21
-120
 31
0
 39
0
210
0
220
0
230
1
  0
LINE
  5
14
330
1B6
100
AcDbEntity
  8
LEVEL_Ground
  6
ByLayer
 62
256
 48
1
 60
0
370
-1
100
AcDbLine
 10
1230
 20
-30
 30
0
 11
1320
 21
-120
 31
0
 39
0
210
0
220
0
230
1
  0
LINE
  5
15
330
1B6
100
AcDbEntity
  8
LEVEL_Ground
  6
ByLayer
 62
256
 48
1
 60
0
370
-1
100
AcDbLine
 10
1110
 20
-30
 30
0
 11
1200
 21
-120
 31
0
 39
0
210
0
220
0
230
1
  0
LINE
  5
16
330
1B6
100
AcDbEntity
  8
LEVEL_Ground
  6
ByLayer
 62
256
 48
1
 60
0
370
-1
100
AcDbLine
 10
990
 20
-30
 30
0
 11
1080
 21
-120
 31
0
 39
0
210
0
220
0
230
1
  0
LINE
  5
17
330
1B6
100
AcDbEntity
  8
LEVEL_Ground
  6
ByLayer
 62
256
 48
1
 60
0
370
-1
100
AcDbLine
 10
870
 20
-30
 30
0
 11
960
 21
-120
 31
0
 39
0
210
0
220
0
230
1
  0
LINE
  5
18
330
1B6
100
AcDbEntity
  8
LEVEL_Ground
  6
ByLayer
 62
256
 48
1
 60
0
370
-1
100
AcDbLine
 10
750
 20
-30
 30
0
 11
840
 21
-120
 31
0
 39
0
210
0
220
0
230
1
  0
LINE
  5
19
330
1B6
100
AcDbEntity
  8
LEVEL_Ground
  6
ByLayer
 62
256
 48
1
 60
0
370
-1
100
AcDbLine
 10
630
 20
-30
 30
0
 11
720
 21
-120
 31
0
 39
0
210
0
220
0
230
1
  0
LINE
  5
1A
330
1B6
100
AcDbEntity
  8
LEVEL_Ground
  6
ByLayer
 62
256
 48
1
 60
0
370
-1
100
AcDbLine
 10
510
 20
-30
 30
0
 11
600
 21
-120
 31
0
 39
0
210
0
220
0
230
1
  0
LINE
  5
1B
330
1B6
100
AcDbEntity
  8
LEVEL_Ground
  6
ByLayer
 62
256
 48
1
 60
0
370
-1
100
AcDbLine
 10
390
 20
-30
 30
0
 11
480
 21
-120
 31
0
 39
0
210
0
220
0
230
1
  0
LINE
  5
1C
330
1B6
100
AcDbEntity
  8
LEVEL_Ground
  6
ByLayer
 62
256
 48
1
 60
0
370
-1
100
AcDbLine
 10
270
 20
-30
 30
0
 11
360
 21
-120
 31
0
 39
0
210
0
220
0
230
1
  0
LINE
  5
1D
330
1B6
100
AcDbEntity
  8
LEVEL_Ground
  6
ByLayer
 62
256
 48
1
 60
0
370
-1
100
AcDbLine
 10
150
 20
-30
 30
0
 11
240
 21
-120
 31
0
 39
0
210
0
220
0
230
1
  0
LINE
  5
1E
330
1B6
100
AcDbEntity
  8
LEVEL_Ground
  6
ByLayer
 62
256
 48
1
 60
0
370
-1
100
AcDbLine
 10
30
 20
-30
 30
0
 11
120
 21
-120
 31
0
 39
0
210
0
220
0
230
1
  0
LWPOLYLINE
  5
1F
330
1B6
100
AcDbEntity
  8
LEVEL_Ground
  6
ByLayer
 62
256
 48
1
 60
0
370
-1
100
AcDbPolyline
 90
4
 70
1
 38
0
 39
0
 10
4200
 20
-30
 40
0
 41
0
 42
0
 10
8970
 20
-30
 40
0
 41
0
 42
0
 10
8880
 20
-120
 40
0
 41
0
 42
0
 10
4200
 20
-120
 40
0
 41
0
 42
0
210
0
220
0
230
1
  0
LINE
  5
20
330
1B6
100
AcDbEntity
  8
LEVEL_Ground
  6
ByLayer
 62
256
 48
1
 60
0
370
-1
100
AcDbLine
 10
8910
 20
-30
 30
0
 11
8940
 21
-60
 31
0
 39
0
210
0
220
0
230
1
  0
LINE
  5
21
330
1B6
100
AcDbEntity
  8
LEVEL_Ground
  6
ByLayer
 62
256
 48
1
 60
0
370
-1
100
AcDbLine
 10
8790
 20
-30
 30
0
 11
8880
 21
-120
 31
0
 39
0
210
0
220
0
230
1
  0
LINE
  5
22
330
1B6
100
AcDbEntity
  8
LEVEL_Ground
  6
ByLayer
 62
256
 48
1
 60
0
370
-1
100
AcDbLine
 10
8670
 20
-30
 30
0
 11
8760
 21
-120
 31
0
 39
0
210
0
220
0
230
1
  0
LINE
  5
23
330
1B6
100
AcDbEntity
  8
LEVEL_Ground
  6
ByLayer
 62
256
 48
1
 60
0
370
-1
100
AcDbLine
 10
8550
 20
-30
 30
0
 11
8640
 21
-120
 31
0
 39
0
210
0
220
0
230
1
  0
LINE
  5
24
330
1B6
100
AcDbEntity
  8
LEVEL_Ground
  6
ByLayer
 62
256
 48
1
 60
0
370
-1
100
AcDbLine
 10
8430
 20
-30
 30
0
 11
8520
 21
-120
 31
0
 39
0
210
0
220
0
230
1
  0
LINE
  5
25
330
1B6
100
AcDbEntity
  8
LEVEL_Ground
  6
ByLayer
 62
256
 48
1
 60
0
370
-1
100
AcDbLine
 10
8310
 20
-30
 30
0
 11
8400
 21
-120
 31
0
 39
0
210
0
220
0
230
1
  0
LINE
  5
26
330
1B6
100
AcDbEntity
  8
LEVEL_Ground
  6
ByLayer
 62
256
 48
1
 60
0
370
-1
100
AcDbLine
 10
8190
 20
-30
 30
0
 11
8280
 21
-120
 31
0
 39
0
210
0
220
0
230
1
  0
LINE
  5
27
330
1B6
100
AcDbEntity
  8
LEVEL_Ground
  6
ByLayer
 62
256
 48
1
 60
0
370
-1
100
AcDbLine
 10
8070
 20
-30
 30
0
 11
8160
 21
-120
 31
0
 39
0
210
0
220
0
230
1
  0
LINE
  5
28
330
1B6
100
AcDbEntity
  8
LEVEL_Ground
  6
ByLayer
 62
256
 48
1
 60
0
370
-1
100
AcDbLine
 10
7950
 20
-30
 30
0
 11
8040
 21
-120
 31
0
 39
0
210
0
220
0
230
1
  0
LINE
  5
29
330
1B6
100
AcDbEntity
  8
LEVEL_Ground
  6
ByLayer
 62
256
 48
1
 60
0
370
-1
100
AcDbLine
 10
7830
 20
-30
 30
0
 11
7920
 21
-120
 31
0
 39
0
210
0
220
0
230
1
  0
LINE
  5
2A
330
1B6
100
AcDbEntity
  8
LEVEL_Ground
  6
ByLayer
 62
256
 48
1
 60
0
370
-1
100
AcDbLine
 10
7710
 20
-29.999999999999545
 30
0
 11
7800
 21
-120
 31
0
 39
0
210
0
220
0
230
1
  0
LINE
  5
2B
330
1B6
100
AcDbEntity
  8
LEVEL_Ground
  6
ByLayer
 62
256
 48
1
 60
0
370
-1
100
AcDbLine
 10
7590
 20
-30
 30
0
 11
7680
 21
-120
 31
0
 39
0
210
0
220
0
230
1
  0
LINE
  5
2C
330
1B6
100
AcDbEntity
  8
LEVEL_Ground
  6
ByLayer
 62
256
 48
1
 60
0
370
-1
100
AcDbLine
 10
7470
 20
-30
 30
0
 11
7560
 21
-120
 31
0
 39
0
210
0
220
0
230
1
  0
LINE
  5
2D
330
1B6
100
AcDbEntity
  8
LEVEL_Ground
  6
ByLayer
 62
256
 48
1
 60
0
370
-1
100
AcDbLine
 10
7350
 20
-30
 30
0
 11
7440
 21
-120
 31
0
 39
0
210
0
220
0
230
1
  0
LINE
  5
2E
330
1B6
100
AcDbEntity
  8
LEVEL_Ground
  6
ByLayer
 62
256
 48
1
 60
0
370
-1
100
AcDbLine
 10
7230
 20
-30
 30
0
 11
7320
 21
-120.00000000000045
 31
0
 39
0
210
0
220
0
230
1
  0
LINE
  5
2F
330
1B6
100
AcDbEntity
  8
LEVEL_Ground
  6
ByLayer
 62
256
 48
1
 60
0
370
-1
100
AcDbLine
 10
7110
 20
-30
 30
0
 11
7200
 21
-120
 31
0
 39
0
210
0
220
0
230
1
  0
LINE
  5
30
330
1B6
100
AcDbEntity
  8
LEVEL_Ground
  6
ByLayer
 62
256
 48
1
 60
0
370
-1
100
AcDbLine
 10
6990
 20
-30
 30
0
 11
7080
 21
-120
 31
0
 39
0
210
0
220
0
230
1
  0
LINE
  5
31
330
1B6
100
AcDbEntity
  8
LEVEL_Ground
  6
ByLayer
 62
256
 48
1
 60
0
370
-1
100
AcDbLine
 10
6870
 20
-30
 30
0
 11
6960
 21
-120
 31
0
 39
0
210
0
220
0
230
1
  0
LINE
  5
32
330
1B6
100
AcDbEntity
  8
LEVEL_Ground
  6
ByLayer
 62
256
 48
1
 60
0
370
-1
100
AcDbLine
 10
6750
 20
-30
 30
0
 11
6840
 21
-120
 31
0
 39
0
210
0
220
0
230
1
  0
LINE
  5
33
330
1B6
100
AcDbEntity
  8
LEVEL_Ground
  6
ByLayer
 62
256
 48
1
 60
0
370
-1
100
AcDbLine
 10
6630
 20
-30
 30
0
 11
6720
 21
-120
 31
0
 39
0
210
0
220
0
230
1
  0
LINE
  5
34
330
1B6
100
AcDbEntity
  8
LEVEL_Ground
  6
ByLayer
 62
256
 48
1
 60
0
370
-1
100
AcDbLine
 10
6510
 20
-30
 30
0
 11
6600
 21
-120
 31
0
 39
0
210
0
220
0
230
1
  0
LINE
  5
35
330
1B6
100
AcDbEntity
  8
LEVEL_Ground
  6
ByLayer
 62
256
 48
1
 60
0
370
-1
100
AcDbLine
 10
6390
 20
-30
 30
0
 11
6480
 21
-120
 31
0
 39
0
210
0
220
0
230
1
  0
LINE
  5
36
330
1B6
100
AcDbEntity
  8
LEVEL_Ground
  6
ByLayer
 62
256
 48
1
 60
0
370
-1
100
AcDbLine
 10
6270
 20
-30
 30
0
 11
6360
 21
-120
 31
0
 39
0
210
0
220
0
230
1
  0
LINE
  5
37
330
1B6
100
AcDbEntity
  8
LEVEL_Ground
  6
ByLayer
 62
256
 48
1
 60
0
370
-1
100
AcDbLine
 10
6150
 20
-30
 30
0
 11
6240
 21
-120
 31
0
 39
0
210
0
220
0
230
1
  0
LINE
  5
38
330
1B6
100
AcDbEntity
  8
LEVEL_Ground
  6
ByLayer
 62
256
 48
1
 60
0
370
-1
100
AcDbLine
 10
6030
 20
-30
 30
0
 11
6120
 21
-120
 31
0
 39
0
210
0
220
0
230
1
  0
LINE
  5
39
330
1B6
100
AcDbEntity
  8
LEVEL_Ground
  6
ByLayer
 62
256
 48
1
 60
0
370
-1
100
AcDbLine
 10
5910
 20
-30
 30
0
 11
6000
 21
-120
 31
0
 39
0
210
0
220
0
230
1
  0
LINE
  5
3A
330
1B6
100
AcDbEntity
  8
LEVEL_Ground
  6
ByLayer
 62
256
 48
1
 60
0
370
-1
100
AcDbLine
 10
5790
 20
-30.000000000000227
 30
0
 11
5880
 21
-120
 31
0
 39
0
210
0
220
0
230
1
  0
LINE
  5
3B
330
1B6
100
AcDbEntity
  8
LEVEL_Ground
  6
ByLayer
 62
256
 48
1
 60
0
370
-1
100
AcDbLine
 10
5670
 20
-30
 30
0
 11
5760
 21
-120
 31
0
 39
0
210
0
220
0
230
1
  0
LINE
  5
3C
330
1B6
100
AcDbEntity
  8
LEVEL_Ground
  6
ByLayer
 62
256
 48
1
 60
0
370
-1
100
AcDbLine
 10
5550
 20
-30
 30
0
 11
5640
 21
-120
 31
0
 39
0
210
0
220
0
230
1
  0
LINE
  5
3D
330
1B6
100
AcDbEntity
  8
LEVEL_Ground
  6
ByLayer
 62
256
 48
1
 60
0
370
-1
100
AcDbLine
 10
5430
 20
-30
 30
0
 11
5520
 21
-119.99999999999977
 31
0
 39
0
210
0
220
0
230
1
  0
LINE
  5
3E
330
1B6
100
AcDbEntity
  8
LEVEL_Ground
  6
ByLayer
 62
256
 48
1
 60
0
370
-1
100
AcDbLine
 10
5310
 20
-30
 30
0
 11
5400
 21
-120
 31
0
 39
0
210
0
220
0
230
1
  0
LINE
  5
3F
330
1B6
100
AcDbEntity
  8
LEVEL_Ground
  6
ByLayer
 62
256
 48
1
 60
0
370
-1
100
AcDbLine
 10
5190
 20
-30
 30
0
 11
5280
 21
-120
 31
0
 39
0
210
0
220
0
230
1
  0
LINE
  5
40
330
1B6
100
AcDbEntity
  8
LEVEL_Ground
  6
ByLayer
 62
256
 48
1
 60
0
370
-1
100
AcDbLine
 10
5070
 20
-30
 30
0
 11
5160
 21
-120
 31
0
 39
0
210
0
220
0
230
1
  0
LINE
  5
41
330
1B6
100
AcDbEntity
  8
LEVEL_Ground
  6
ByLayer
 62
256
 48
1
 60
0
370
-1
100
AcDbLine
 10
4950
 20
-30
 30
0
 11
5040
 21
-120
 31
0
 39
0
210
0
220
0
230
1
  0
LINE
  5
42
330
1B6
100
AcDbEntity
  8
LEVEL_Ground
  6
ByLayer
 62
256
 48
1
 60
0
370
-1
100
AcDbLine
 10
4830
 20
-30
 30
0
 11
4920
 21
-120
 31
0
 39
0
210
0
220
0
230
1
  0
LINE
  5
43
330
1B6
100
AcDbEntity
  8
LEVEL_Ground
  6
ByLayer
 62
256
 48
1
 60
0
370
-1
100
AcDbLine
 10
4710
 20
-30
 30
0
 11
4800
 21
-120
 31
0
 39
0
210
0
220
0
230
1
  0
LINE
  5
44
330
1B6
100
AcDbEntity
  8
LEVEL_Ground
  6
ByLayer
 62
256
 48
1
 60
0
370
-1
100
AcDbLine
 10
4590
 20
-30
 30
0
 11
4680
 21
-120
 31
0
 39
0
210
0
220
0
230
1
  0
LINE
  5
45
330
1B6
100
AcDbEntity
  8
LEVEL_Ground
  6
ByLayer
 62
256
 48
1
 60
0
370
-1
100
AcDbLine
 10
4470
 20
-30
 30
0
 11
4560
 21
-120
 31
0
 39
0
210
0
220
0
230
1
  0
LINE
  5
46
330
1B6
100
AcDbEntity
  8
LEVEL_Ground
  6
ByLayer
 62
256
 48
1
 60
0
370
-1
100
AcDbLine
 10
4350
 20
-30
 30
0
 11
4440
 21
-120
 31
0
 39
0
210
0
220
0
230
1
  0
LINE
  5
47
330
1B6
100
AcDbEntity
  8
LEVEL_Ground
  6
ByLayer
 62
256
 48
1
 60
0
370
-1
100
AcDbLine
 10
4230
 20
-30
 30
0
 11
4320
 21
-120
 31
0
 39
0
210
0
220
0
230
1
  0
LWPOLYLINE
  5
48
330
1B6
100
AcDbEntity
  8
LEVEL_Ground
  6
ByLayer
 62
256
 48
1
 60
0
370
-1
100
AcDbPolyline
 90
4
 70
1
 38
0
 39
0
 10
120
 20
-120
 40
0
 41
0
 42
0
 10
1800
 20
-120
 40
0
 41
0
 42
0
 10
1800
 20
-130
 40
0
 41
0
 42
0
 10
130
 20
-130
 40
0
 41
0
 42
0
210
0
220
0
230
1
  0
LWPOLYLINE
  5
49
330
1B6
100
AcDbEntity
  8
LEVEL_Ground
  6
ByLayer
 62
256
 48
1
 60
0
370
-1
100
AcDbPolyline
 90
4
 70
1
 38
0
 39
0
 10
4200
 20
-120
 40
0
 41
0
 42
0
 10
8880
 20
-120
 40
0
 41
0
 42
0
 10
8870
 20
-130
 40
0
 41
0
 42
0
 10
4200
 20
-130
 40
0
 41
0
 42
0
210
0
220
0
230
1
  0
LWPOLYLINE
  5
4A
330
1B6
100
AcDbEntity
  8
LEVEL_Ground
  6
ByLayer
 62
256
 48
1
 60
0
370
-1
100
AcDbPolyline
 90
4
 70
1
 38
0
 39
0
 10
9130
 20
130
 40
0
 41
0
 42
0
 10
9130
 20
-6130
 40
0
 41
0
 42
0
 10
9020
 20
-6020.0000000000009
 40
0
 41
0
 42
0
 10
9020
 20
20
 40
0
 41
0
 42
0
210
0
220
0
230
1
  0
LINE
  5
4B
330
1B6
100
AcDbEntity
  8
LEVEL_Ground
  6
ByLayer
 62
256
 48
1
 60
0
370
-1
100
AcDbLine
 10
9120
 20
120
 30
0
 11
9130
 21
120
 31
0
 39
0
210
0
220
0
230
1
  0
LINE
  5
4C
330
1B6
100
AcDbEntity
  8
LEVEL_Ground
  6
ByLayer
 62
256
 48
1
 60
0
370
-1
100
AcDbLine
 10
9020
 20
0
 30
0
 11
9130
 21
0
 31
0
 39
0
210
0
220
0
230
1
  0
LINE
  5
4D
330
1B6
100
AcDbEntity
  8
LEVEL_Ground
  6
ByLayer
 62
256
 48
1
 60
0
370
-1
100
AcDbLine
 10
9020
 20
-120
 30
0
 11
9130
 21
-120
 31
0
 39
0
210
0
220
0
230
1
  0
LINE
  5
4E
330
1B6
100
AcDbEntity
  8
LEVEL_Ground
  6
ByLayer
 62
256
 48
1
 60
0
370
-1
100
AcDbLine
 10
9020
 20
-240
 30
0
 11
9130
 21
-240
 31
0
 39
0
210
0
220
0
230
1
  0
LINE
  5
4F
330
1B6
100
AcDbEntity
  8
LEVEL_Ground
  6
ByLayer
 62
256
 48
1
 60
0
370
-1
100
AcDbLine
 10
9020
 20
-360
 30
0
 11
9130
 21
-360
 31
0
 39
0
210
0
220
0
230
1
  0
LINE
  5
50
330
1B6
100
AcDbEntity
  8
LEVEL_Ground
  6
ByLayer
 62
256
 48
1
 60
0
370
-1
100
AcDbLine
 10
9020
 20
-480
 30
0
 11
9130
 21
-480
 31
0
 39
0
210
0
220
0
230
1
  0
LINE
  5
51
330
1B6
100
AcDbEntity
  8
LEVEL_Ground
  6
ByLayer
 62
256
 48
1
 60
0
370
-1
100
AcDbLine
 10
9020
 20
-600
 30
0
 11
9130
 21
-600
 31
0
 39
0
210
0
220
0
230
1
  0
LINE
  5
52
330
1B6
100
AcDbEntity
  8
LEVEL_Ground
  6
ByLayer
 62
256
 48
1
 60
0
370
-1
100
AcDbLine
 10
9020
 20
-720
 30
0
 11
9130
 21
-720
 31
0
 39
0
210
0
220
0
230
1
  0
LINE
  5
53
330
1B6
100
AcDbEntity
  8
LEVEL_Ground
  6
ByLayer
 62
256
 48
1
 60
0
370
-1
100
AcDbLine
 10
9020
 20
-840
 30
0
 11
9130
 21
-840
 31
0
 39
0
210
0
220
0
230
1
  0
LINE
  5
54
330
1B6
100
AcDbEntity
  8
LEVEL_Ground
  6
ByLayer
 62
256
 48
1
 60
0
370
-1
100
AcDbLine
 10
9020
 20
-960
 30
0
 11
9130
 21
-960
 31
0
 39
0
210
0
220
0
230
1
  0
LINE
  5
55
330
1B6
100
AcDbEntity
  8
LEVEL_Ground
  6
ByLayer
 62
256
 48
1
 60
0
370
-1
100
AcDbLine
 10
9020
 20
-1080
 30
0
 11
9130
 21
-1080
 31
0
 39
0
210
0
220
0
230
1
  0
LINE
  5
56
330
1B6
100
AcDbEntity
  8
LEVEL_Ground
  6
ByLayer
 62
256
 48
1
 60
0
370
-1
100
AcDbLine
 10
9020
 20
-1200
 30
0
 11
9130
 21
-1200
 31
0
 39
0
210
0
220
0
230
1
  0
LINE
  5
57
330
1B6
100
AcDbEntity
  8
LEVEL_Ground
  6
ByLayer
 62
256
 48
1
 60
0
370
-1
100
AcDbLine
 10
9020
 20
-1320
 30
0
 11
9130
 21
-1320
 31
0
 39
0
210
0
220
0
230
1
  0
LINE
  5
58
330
1B6
100
AcDbEntity
  8
LEVEL_Ground
  6
ByLayer
 62
256
 48
1
 60
0
370
-1
100
AcDbLine
 10
9020
 20
-1440
 30
0
 11
9130
 21
-1440
 31
0
 39
0
210
0
220
0
230
1
  0
LINE
  5
59
330
1B6
100
AcDbEntity
  8
LEVEL_Ground
  6
ByLayer
 62
256
 48
1
 60
0
370
-1
100
AcDbLine
 10
9020
 20
-1560
 30
0
 11
9130
 21
-1560
 31
0
 39
0
210
0
220
0
230
1
  0
LINE
  5
5A
330
1B6
100
AcDbEntity
  8
LEVEL_Ground
  6
ByLayer
 62
256
 48
1
 60
0
370
-1
100
AcDbLine
 10
9020
 20
-1680
 30
0
 11
9130
 21
-1680
 31
0
 39
0
210
0
220
0
230
1
  0
LINE
  5
5B
330
1B6
100
AcDbEntity
  8
LEVEL_Ground
  6
ByLayer
 62
256
 48
1
 60
0
370
-1
100
AcDbLine
 10
9020
 20
-1800
 30
0
 11
9130
 21
-1800
 31
0
 39
0
210
0
220
0
230
1
  0
LINE
  5
5C
330
1B6
100
AcDbEntity
  8
LEVEL_Ground
  6
ByLayer
 62
256
 48
1
 60
0
370
-1
100
AcDbLine
 10
9020
 20
-1920
 30
0
 11
9130
 21
-1920
 31
0
 39
0
210
0
220
0
230
1
  0
LINE
  5
5D
330
1B6
100
AcDbEntity
  8
LEVEL_Ground
  6
ByLayer
 62
256
 48
1
 60
0
370
-1
100
AcDbLine
 10
9020
 20
-2040
 30
0
 11
9130
 21
-2040
 31
0
 39
0
210
0
220
0
230
1
  0
LINE
  5
5E
330
1B6
100
AcDbEntity
  8
LEVEL_Ground
  6
ByLayer
 62
256
 48
1
 60
0
370
-1
100
AcDbLine
 10
9020
 20
-2160
 30
0
 11
9130
 21
-2160
 31
0
 39
0
210
0
220
0
230
1
  0
LINE
  5
5F
330
1B6
100
AcDbEntity
  8
LEVEL_Ground
  6
ByLayer
 62
256
 48
1
 60
0
370
-1
100
AcDbLine
 10
9020
 20
-2280
 30
0
 11
9130
 21
-2280
 31
0
 39
0
210
0
220
0
230
1
  0
LINE
  5
60
330
1B6
100
AcDbEntity
  8
LEVEL_Ground
  6
ByLayer
 62
256
 48
1
 60
0
370
-1
100
AcDbLine
 10
9020
 20
-2400
 30
0
 11
9130
 21
-2400
 31
0
 39
0
210
0
220
0
230
1
  0
LINE
  5
61
330
1B6
100
AcDbEntity
  8
LEVEL_Ground
  6
ByLayer
 62
256
 48
1
 60
0
370
-1
100
AcDbLine
 10
9020
 20
-2520
 30
0
 11
9130
 21
-2520
 31
0
 39
0
210
0
220
0
230
1
  0
LINE
  5
62
330
1B6
100
AcDbEntity
  8
LEVEL_Ground
  6
ByLayer
 62
256
 48
1
 60
0
370
-1
100
AcDbLine
 10
9020
 20
-2640
 30
0
 11
9130
 21
-2640
 31
0
 39
0
210
0
220
0
230
1
  0
LINE
  5
63
330
1B6
100
AcDbEntity
  8
LEVEL_Ground
  6
ByLayer
 62
256
 48
1
 60
0
370
-1
100
AcDbLine
 10
9020
 20
-2760
 30
0
 11
9130
 21
-2760
 31
0
 39
0
210
0
220
0
230
1
  0
LINE
  5
64
330
1B6
100
AcDbEntity
  8
LEVEL_Ground
  6
ByLayer
 62
256
 48
1
 60
0
370
-1
100
AcDbLine
 10
9020
 20
-2880
 30
0
 11
9130
 21
-2880
 31
0
 39
0
210
0
220
0
230
1
  0
LINE
  5
65
330
1B6
100
AcDbEntity
  8
LEVEL_Ground
  6
ByLayer
 62
256
 48
1
 60
0
370
-1
100
AcDbLine
 10
9020
 20
-3000
 30
0
 11
9130
 21
-3000
 31
0
 39
0
210
0
220
0
230
1
  0
LINE
  5
66
330
1B6
100
AcDbEntity
  8
LEVEL_Ground
  6
ByLayer
 62
256
 48
1
 60
0
370
-1
100
AcDbLine
 10
9020
 20
-3120
 30
0
 11
9130
 21
-3120
 31
0
 39
0
210
0
220
0
230
1
  0
LINE
  5
67
330
1B6
100
AcDbEntity
  8
LEVEL_Ground
  6
ByLayer
 62
256
 48
1
 60
0
370
-1
100
AcDbLine
 10
9020
 20
-3240
 30
0
 11
9130
 21
-3240
 31
0
 39
0
210
0
220
0
230
1
  0
LINE
  5
68
330
1B6
100
AcDbEntity
  8
LEVEL_Ground
  6
ByLayer
 62
256
 48
1
 60
0
370
-1
100
AcDbLine
 10
9020
 20
-3360
 30
0
 11
9130
 21
-3360
 31
0
 39
0
210
0
220
0
230
1
  0
LINE
  5
69
330
1B6
100
AcDbEntity
  8
LEVEL_Ground
  6
ByLayer
 62
256
 48
1
 60
0
370
-1
100
AcDbLine
 10
9020
 20
-3480
 30
0
 11
9130
 21
-3480
 31
0
 39
0
210
0
220
0
230
1
  0
LINE
  5
6A
330
1B6
100
AcDbEntity
  8
LEVEL_Ground
  6
ByLayer
 62
256
 48
1
 60
0
370
-1
100
AcDbLine
 10
9020
 20
-3600
 30
0
 11
9130
 21
-3600
 31
0
 39
0
210
0
220
0
230
1
  0
LINE
  5
6B
330
1B6
100
AcDbEntity
  8
LEVEL_Ground
  6
ByLayer
 62
256
 48
1
 60
0
370
-1
100
AcDbLine
 10
9020
 20
-3720
 30
0
 11
9130
 21
-3720
 31
0
 39
0
210
0
220
0
230
1
  0
LINE
  5
6C
330
1B6
100
AcDbEntity
  8
LEVEL_Ground
  6
ByLayer
 62
256
 48
1
 60
0
370
-1
100
AcDbLine
 10
9020
 20
-3840
 30
0
 11
9130
 21
-3840
 31
0
 39
0
210
0
220
0
230
1
  0
LINE
  5
6D
330
1B6
100
AcDbEntity
  8
LEVEL_Ground
  6
ByLayer
 62
256
 48
1
 60
0
370
-1
100
AcDbLine
 10
9020
 20
-3960
 30
0
 11
9130
 21
-3960
 31
0
 39
0
210
0
220
0
230
1
  0
LINE
  5
6E
330
1B6
100
AcDbEntity
  8
LEVEL_Ground
  6
ByLayer
 62
256
 48
1
 60
0
370
-1
100
AcDbLine
 10
9020
 20
-4080
 30
0
 11
9130
 21
-4080
 31
0
 39
0
210
0
220
0
230
1
  0
LINE
  5
6F
330
1B6
100
AcDbEntity
  8
LEVEL_Ground
  6
ByLayer
 62
256
 48
1
 60
0
370
-1
100
AcDbLine
 10
9020
 20
-4200
 30
0
 11
9130
 21
-4200
 31
0
 39
0
210
0
220
0
230
1
  0
LINE
  5
70
330
1B6
100
AcDbEntity
  8
LEVEL_Ground
  6
ByLayer
 62
256
 48
1
 60
0
370
-1
100
AcDbLine
 10
9020
 20
-4320
 30
0
 11
9130
 21
-4320
 31
0
 39
0
210
0
220
0
230
1
  0
LINE
  5
71
330
1B6
100
AcDbEntity
  8
LEVEL_Ground
  6
ByLayer
 62
256
 48
1
 60
0
370
-1
100
AcDbLine
 10
9020
 20
-4440
 30
0
 11
9130
 21
-4440
 31
0
 39
0
210
0
220
0
230
1
  0
LINE
  5
72
330
1B6
100
AcDbEntity
  8
LEVEL_Ground
  6
ByLayer
 62
256
 48
1
 60
0
370
-1
100
AcDbLine
 10
9020
 20
-4560
 30
0
 11
9130
 21
-4560
 31
0
 39
0
210
0
220
0
230
1
  0
LINE
  5
73
330
1B6
100
AcDbEntity
  8
LEVEL_Ground
  6
ByLayer
 62
256
 48
1
 60
0
370
-1
100
AcDbLine
 10
9020
 20
-4680
 30
0
 11
9130
 21
-4680
 31
0
 39
0
210
0
220
0
230
1
  0
LINE
  5
74
330
1B6
100
AcDbEntity
  8
LEVEL_Ground
  6
ByLayer
 62
256
 48
1
 60
0
370
-1
100
AcDbLine
 10
9020
 20
-4800
 30
0
 11
9130
 21
-4800
 31
0
 39
0
210
0
220
0
230
1
  0
LINE
  5
75
330
1B6
100
AcDbEntity
  8
LEVEL_Ground
  6
ByLayer
 62
256
 48
1
 60
0
370
-1
100
AcDbLine
 10
9020
 20
-4920
 30
0
 11
9130
 21
-4920
 31
0
 39
0
210
0
220
0
230
1
  0
LINE
  5
76
330
1B6
100
AcDbEntity
  8
LEVEL_Ground
  6
ByLayer
 62
256
 48
1
 60
0
370
-1
100
AcDbLine
 10
9020
 20
-5040
 30
0
 11
9130
 21
-5040
 31
0
 39
0
210
0
220
0
230
1
  0
LINE
  5
77
330
1B6
100
AcDbEntity
  8
LEVEL_Ground
  6
ByLayer
 62
256
 48
1
 60
0
370
-1
100
AcDbLine
 10
9020
 20
-5160
 30
0
 11
9130
 21
-5160
 31
0
 39
0
210
0
220
0
230
1
  0
LINE
  5
78
330
1B6
100
AcDbEntity
  8
LEVEL_Ground
  6
ByLayer
 62
256
 48
1
 60
0
370
-1
100
AcDbLine
 10
9020
 20
-5280
 30
0
 11
9130
 21
-5280
 31
0
 39
0
210
0
220
0
230
1
  0
LINE
  5
79
330
1B6
100
AcDbEntity
  8
LEVEL_Ground
  6
ByLayer
 62
256
 48
1
 60
0
370
-1
100
AcDbLine
 10
9020
 20
-5400
 30
0
 11
9130
 21
-5400
 31
0
 39
0
210
0
220
0
230
1
  0
LINE
  5
7A
330
1B6
100
AcDbEntity
  8
LEVEL_Ground
  6
ByLayer
 62
256
 48
1
 60
0
370
-1
100
AcDbLine
 10
9020
 20
-5520
 30
0
 11
9130
 21
-5520
 31
0
 39
0
210
0
220
0
230
1
  0
LINE
  5
7B
330
1B6
100
AcDbEntity
  8
LEVEL_Ground
  6
ByLayer
 62
256
 48
1
 60
0
370
-1
100
AcDbLine
 10
9020
 20
-5640
 30
0
 11
9130
 21
-5640
 31
0
 39
0
210
0
220
0
230
1
  0
LINE
  5
7C
330
1B6
100
AcDbEntity
  8
LEVEL_Ground
  6
ByLayer
 62
256
 48
1
 60
0
370
-1
100
AcDbLine
 10
9020
 20
-5760
 30
0
 11
9130
 21
-5760
 31
0
 39
0
210
0
220
0
230
1
  0
LINE
  5
7D
330
1B6
100
AcDbEntity
  8
LEVEL_Ground
  6
ByLayer
 62
256
 48
1
 60
0
370
-1
100
AcDbLine
 10
9020
 20
-5880
 30
0
 11
9130
 21
-5880
 31
0
 39
0
210
0
220
0
230
1
  0
LINE
  5
7E
330
1B6
100
AcDbEntity
  8
LEVEL_Ground
  6
ByLayer
 62
256
 48
1
 60
0
370
-1
100
AcDbLine
 10
9020
 20
-6000
 30
0
 11
9130
 21
-6000
 31
0
 39
0
210
0
220
0
230
1
  0
LINE
  5
7F
330
1B6
100
AcDbEntity
  8
LEVEL_Ground
  6
ByLayer
 62
256
 48
1
 60
0
370
-1
100
AcDbLine
 10
9120
 20
-6120
 30
0
 11
9130
 21
-6120
 31
0
 39
0
210
0
220
0
230
1
  0
LWPOLYLINE
  5
80
330
1B6
100
AcDbEntity
  8
LEVEL_Ground
  6
ByLayer
 62
256
 48
1
 60
0
370
-1
100
AcDbPolyline
 90
4
 70
1
 38
0
 39
0
 10
9020
 20
20
 40
0
 41
0
 42
0
 10
9020
 20
-6020.0000000000009
 40
0
 41
0
 42
0
 10
8970
 20
-5970
 40
0
 41
0
 42
0
 10
8970
 20
-30
 40
0
 41
0
 42
0
210
0
220
0
230
1
  0
LWPOLYLINE
  5
81
330
1B6
100
AcDbEntity
  8
LEVEL_Ground
  6
ByLayer
 62
256
 48
1
 60
0
370
-1
100
AcDbPolyline
 90
4
 70
1
 38
0
 39
0
 10
8970
 20
-30
 40
0
 41
0
 42
0
 10
8970
 20
-5970
 40
0
 41
0
 42
0
 10
8880
 20
-5880
 40
0
 41
0
 42
0
 10
8880
 20
-120
 40
0
 41
0
 42
0
210
0
220
0
230
1
  0
LINE
  5
82
330
1B6
100
AcDbEntity
  8
LEVEL_Ground
  6
ByLayer
 62
256
 48
1
 60
0
370
-1
100
AcDbLine
 10
8940
 20
-59.999999999999993
 30
0
 11
8970
 21
-90
 31
0
 39
0
210
0
220
0
230
1
  0
LINE
  5
83
330
1B6
100
AcDbEntity
  8
LEVEL_Ground
  6
ByLayer
 62
256
 48
1
 60
0
370
-1
100
AcDbLine
 10
8880
 20
-120
 30
0
 11
8970
 21
-210
 31
0
 39
0
210
0
220
0
230
1
  0
LINE
  5
84
330
1B6
100
AcDbEntity
  8
LEVEL_Ground
  6
ByLayer
 62
256
 48
1
 60
0
370
-1
100
AcDbLine
 10
8880
 20
-240
 30
0
 11
8970
 21
-330
 31
0
 39
0
210
0
220
0
230
1
  0
LINE
  5
85
330
1B6
100
AcDbEntity
  8
LEVEL_Ground
  6
ByLayer
 62
256
 48
1
 60
0
370
-1
100
AcDbLine
 10
8880
 20
-360
 30
0
 11
8970
 21
-450
 31
0
 39
0
210
0
220
0
230
1
  0
LINE
  5
86
330
1B6
100
AcDbEntity
  8
LEVEL_Ground
  6
ByLayer
 62
256
 48
1
 60
0
370
-1
100
AcDbLine
 10
8880
 20
-480
 30
0
 11
8970
 21
-570
 31
0
 39
0
210
0
220
0
230
1
  0
LINE
  5
87
330
1B6
100
AcDbEntity
  8
LEVEL_Ground
  6
ByLayer
 62
256
 48
1
 60
0
370
-1
100
AcDbLine
 10
8880
 20
-600
 30
0
 11
8970
 21
-690
 31
0
 39
0
210
0
220
0
230
1
  0
LINE
  5
88
330
1B6
100
AcDbEntity
  8
LEVEL_Ground
  6
ByLayer
 62
256
 48
1
 60
0
370
-1
100
AcDbLine
 10
8880
 20
-720
 30
0
 11
8970
 21
-810
 31
0
 39
0
210
0
220
0
230
1
  0
LINE
  5
89
330
1B6
100
AcDbEntity
  8
LEVEL_Ground
  6
ByLayer
 62
256
 48
1
 60
0
370
-1
100
AcDbLine
 10
8880
 20
-840
 30
0
 11
8970
 21
-930
 31
0
 39
0
210
0
220
0
230
1
  0
LINE
  5
8A
330
1B6
100
AcDbEntity
  8
LEVEL_Ground
  6
ByLayer
 62
256
 48
1
 60
0
370
-1
100
AcDbLine
 10
8880
 20
-960
 30
0
 11
8970
 21
-1050
 31
0
 39
0
210
0
220
0
230
1
  0
LINE
  5
8B
330
1B6
100
AcDbEntity
  8
LEVEL_Ground
  6
ByLayer
 62
256
 48
1
 60
0
370
-1
100
AcDbLine
 10
8880
 20
-1080
 30
0
 11
8970
 21
-1170
 31
0
 39
0
210
0
220
0
230
1
  0
LINE
  5
8C
330
1B6
100
AcDbEntity
  8
LEVEL_Ground
  6
ByLayer
 62
256
 48
1
 60
0
370
-1
100
AcDbLine
 10
8880
 20
-1200
 30
0
 11
8970
 21
-1290
 31
0
 39
0
210
0
220
0
230
1
  0
LINE
  5
8D
330
1B6
100
AcDbEntity
  8
LEVEL_Ground
  6
ByLayer
 62
256
 48
1
 60
0
370
-1
100
AcDbLine
 10
8880
 20
-1320
 30
0
 11
8970
 21
-1410
 31
0
 39
0
210
0
220
0
230
1
  0
LINE
  5
8E
330
1B6
100
AcDbEntity
  8
LEVEL_Ground
  6
ByLayer
 62
256
 48
1
 60
0
370
-1
100
AcDbLine
 10
8880
 20
-1440
 30
0
 11
8970
 21
-1530
 31
0
 39
0
210
0
220
0
230
1
  0
LINE
  5
8F
330
1B6
100
AcDbEntity
  8
LEVEL_Ground
  6
ByLayer
 62
256
 48
1
 60
0
370
-1
100
AcDbLine
 10
8880
 20
-1560
 30
0
 11
8970
 21
-1650
 31
0
 39
0
210
0
220
0
230
1
  0
LINE
  5
90
330
1B6
100
AcDbEntity
  8
LEVEL_Ground
  6
ByLayer
 62
256
 48
1
 60
0
370
-1
100
AcDbLine
 10
8880
 20
-1680
 30
0
 11
8970
 21
-1770
 31
0
 39
0
210
0
220
0
230
1
  0
LINE
  5
91
330
1B6
100
AcDbEntity
  8
LEVEL_Ground
  6
ByLayer
 62
256
 48
1
 60
0
370
-1
100
AcDbLine
 10
8880
 20
-1800
 30
0
 11
8970
 21
-1890
 31
0
 39
0
210
0
220
0
230
1
  0
LINE
  5
92
330
1B6
100
AcDbEntity
  8
LEVEL_Ground
  6
ByLayer
 62
256
 48
1
 60
0
370
-1
100
AcDbLine
 10
8880
 20
-1920
 30
0
 11
8970
 21
-2010
 31
0
 39
0
210
0
220
0
230
1
  0
LINE
  5
93
330
1B6
100
AcDbEntity
  8
LEVEL_Ground
  6
ByLayer
 62
256
 48
1
 60
0
370
-1
100
AcDbLine
 10
8880
 20
-2040
 30
0
 11
8970
 21
-2130
 31
0
 39
0
210
0
220
0
230
1
  0
LINE
  5
94
330
1B6
100
AcDbEntity
  8
LEVEL_Ground
  6
ByLayer
 62
256
 48
1
 60
0
370
-1
100
AcDbLine
 10
8880
 20
-2160
 30
0
 11
8970
 21
-2250
 31
0
 39
0
210
0
220
0
230
1
  0
LINE
  5
95
330
1B6
100
AcDbEntity
  8
LEVEL_Ground
  6
ByLayer
 62
256
 48
1
 60
0
370
-1
100
AcDbLine
 10
8880
 20
-2280
 30
0
 11
8970
 21
-2370
 31
0
 39
0
210
0
220
0
230
1
  0
LINE
  5
96
330
1B6
100
AcDbEntity
  8
LEVEL_Ground
  6
ByLayer
 62
256
 48
1
 60
0
370
-1
100
AcDbLine
 10
8880
 20
-2400
 30
0
 11
8970
 21
-2490
 31
0
 39
0
210
0
220
0
230
1
  0
LINE
  5
97
330
1B6
100
AcDbEntity
  8
LEVEL_Ground
  6
ByLayer
 62
256
 48
1
 60
0
370
-1
100
AcDbLine
 10
8880
 20
-2520
 30
0
 11
8970
 21
-2610
 31
0
 39
0
210
0
220
0
230
1
  0
LINE
  5
98
330
1B6
100
AcDbEntity
  8
LEVEL_Ground
  6
ByLayer
 62
256
 48
1
 60
0
370
-1
100
AcDbLine
 10
8880
 20
-2640
 30
0
 11
8970
 21
-2730
 31
0
 39
0
210
0
220
0
230
1
  0
LINE
  5
99
330
1B6
100
AcDbEntity
  8
LEVEL_Ground
  6
ByLayer
 62
256
 48
1
 60
0
370
-1
100
AcDbLine
 10
8880
 20
-2760
 30
0
 11
8970
 21
-2850
 31
0
 39
0
210
0
220
0
230
1
  0
LINE
  5
9A
330
1B6
100
AcDbEntity
  8
LEVEL_Ground
  6
ByLayer
 62
256
 48
1
 60
0
370
-1
100
AcDbLine
 10
8880
 20
-2880
 30
0
 11
8970
 21
-2970
 31
0
 39
0
210
0
220
0
230
1
  0
LINE
  5
9B
330
1B6
100
AcDbEntity
  8
LEVEL_Ground
  6
ByLayer
 62
256
 48
1
 60
0
370
-1
100
AcDbLine
 10
8880
 20
-3000
 30
0
 11
8970
 21
-3090
 31
0
 39
0
210
0
220
0
230
1
  0
LINE
  5
9C
330
1B6
100
AcDbEntity
  8
LEVEL_Ground
  6
ByLayer
 62
256
 48
1
 60
0
370
-1
100
AcDbLine
 10
8880
 20
-3120
 30
0
 11
8970
 21
-3210
 31
0
 39
0
210
0
220
0
230
1
  0
LINE
  5
9D
330
1B6
100
AcDbEntity
  8
LEVEL_Ground
  6
ByLayer
 62
256
 48
1
 60
0
370
-1
100
AcDbLine
 10
8880
 20
-3240
 30
0
 11
8970
 21
-3330
 31
0
 39
0
210
0
220
0
230
1
  0
LINE
  5
9E
330
1B6
100
AcDbEntity
  8
LEVEL_Ground
  6
ByLayer
 62
256
 48
1
 60
0
370
-1
100
AcDbLine
 10
8880
 20
-3360
 30
0
 11
8970
 21
-3450
 31
0
 39
0
210
0
220
0
230
1
  0
LINE
  5
9F
330
1B6
100
AcDbEntity
  8
LEVEL_Ground
  6
ByLayer
 62
256
 48
1
 60
0
370
-1
100
AcDbLine
 10
8880
 20
-3480
 30
0
 11
8970
 21
-3570
 31
0
 39
0
210
0
220
0
230
1
  0
LINE
  5
A0
330
1B6
100
AcDbEntity
  8
LEVEL_Ground
  6
ByLayer
 62
256
 48
1
 60
0
370
-1
100
AcDbLine
 10
8880
 20
-3600
 30
0
 11
8970
 21
-3690
 31
0
 39
0
210
0
220
0
230
1
  0
LINE
  5
A1
330
1B6
100
AcDbEntity
  8
LEVEL_Ground
  6
ByLayer
 62
256
 48
1
 60
0
370
-1
100
AcDbLine
 10
8880
 20
-3720
 30
0
 11
8970
 21
-3810
 31
0
 39
0
210
0
220
0
230
1
  0
LINE
  5
A2
330
1B6
100
AcDbEntity
  8
LEVEL_Ground
  6
ByLayer
 62
256
 48
1
 60
0
370
-1
100
AcDbLine
 10
8880
 20
-3840
 30
0
 11
8970
 21
-3930
 31
0
 39
0
210
0
220
0
230
1
  0
LINE
  5
A3
330
1B6
100
AcDbEntity
  8
LEVEL_Ground
  6
ByLayer
 62
256
 48
1
 60
0
370
-1
100
AcDbLine
 10
8880
 20
-3960
 30
0
 11
8970
 21
-4050
 31
0
 39
0
210
0
220
0
230
1
  0
LINE
  5
A4
330
1B6
100
AcDbEntity
  8
LEVEL_Ground
  6
ByLayer
 62
256
 48
1
 60
0
370
-1
100
AcDbLine
 10
8880
 20
-4080
 30
0
 11
8970
 21
-4170
 31
0
 39
0
210
0
220
0
230
1
  0
LINE
  5
A5
330
1B6
100
AcDbEntity
  8
LEVEL_Ground
  6
ByLayer
 62
256
 48
1
 60
0
370
-1
100
AcDbLine
 10
8880
 20
-4200
 30
0
 11
8970
 21
-4290
 31
0
 39
0
210
0
220
0
230
1
  0
LINE
  5
A6
330
1B6
100
AcDbEntity
  8
LEVEL_Ground
  6
ByLayer
 62
256
 48
1
 60
0
370
-1
100
AcDbLine
 10
8880
 20
-4320
 30
0
 11
8970
 21
-4410
 31
0
 39
0
210
0
220
0
230
1
  0
LINE
  5
A7
330
1B6
100
AcDbEntity
  8
LEVEL_Ground
  6
ByLayer
 62
256
 48
1
 60
0
370
-1
100
AcDbLine
 10
8880
 20
-4440
 30
0
 11
8970
 21
-4530
 31
0
 39
0
210
0
220
0
230
1
  0
LINE
  5
A8
330
1B6
100
AcDbEntity
  8
LEVEL_Ground
  6
ByLayer
 62
256
 48
1
 60
0
370
-1
100
AcDbLine
 10
8880
 20
-4560
 30
0
 11
8970
 21
-4650
 31
0
 39
0
210
0
220
0
230
1
  0
LINE
  5
A9
330
1B6
100
AcDbEntity
  8
LEVEL_Ground
  6
ByLayer
 62
256
 48
1
 60
0
370
-1
100
AcDbLine
 10
8880
 20
-4680
 30
0
 11
8970
 21
-4770
 31
0
 39
0
210
0
220
0
230
1
  0
LINE
  5
AA
330
1B6
100
AcDbEntity
  8
LEVEL_Ground
  6
ByLayer
 62
256
 48
1
 60
0
370
-1
100
AcDbLine
 10
8880
 20
-4800
 30
0
 11
8970
 21
-4890
 31
0
 39
0
210
0
220
0
230
1
  0
LINE
  5
AB
330
1B6
100
AcDbEntity
  8
LEVEL_Ground
  6
ByLayer
 62
256
 48
1
 60
0
370
-1
100
AcDbLine
 10
8880
 20
-4920
 30
0
 11
8970
 21
-5010
 31
0
 39
0
210
0
220
0
230
1
  0
LINE
  5
AC
330
1B6
100
AcDbEntity
  8
LEVEL_Ground
  6
ByLayer
 62
256
 48
1
 60
0
370
-1
100
AcDbLine
 10
8880
 20
-5040
 30
0
 11
8970
 21
-5130
 31
0
 39
0
210
0
220
0
230
1
  0
LINE
  5
AD
330
1B6
100
AcDbEntity
  8
LEVEL_Ground
  6
ByLayer
 62
256
 48
1
 60
0
370
-1
100
AcDbLine
 10
8880
 20
-5160
 30
0
 11
8970
 21
-5250
 31
0
 39
0
210
0
220
0
230
1
  0
LINE
  5
AE
330
1B6
100
AcDbEntity
  8
LEVEL_Ground
  6
ByLayer
 62
256
 48
1
 60
0
370
-1
100
AcDbLine
 10
8880
 20
-5280
 30
0
 11
8970
 21
-5370
 31
0
 39
0
210
0
220
0
230
1
  0
LINE
  5
AF
330
1B6
100
AcDbEntity
  8
LEVEL_Ground
  6
ByLayer
 62
256
 48
1
 60
0
370
-1
100
AcDbLine
 10
8880
 20
-5400
 30
0
 11
8970
 21
-5490
 31
0
 39
0
210
0
220
0
230
1
  0
LINE
  5
B0
330
1B6
100
AcDbEntity
  8
LEVEL_Ground
  6
ByLayer
 62
256
 48
1
 60
0
370
-1
100
AcDbLine
 10
8880
 20
-5520
 30
0
 11
8970
 21
-5610
 31
0
 39
0
210
0
220
0
230
1
  0
LINE
  5
B1
330
1B6
100
AcDbEntity
  8
LEVEL_Ground
  6
ByLayer
 62
256
 48
1
 60
0
370
-1
100
AcDbLine
 10
8880
 20
-5640
 30
0
 11
8970
 21
-5730
 31
0
 39
0
210
0
220
0
230
1
  0
LINE
  5
B2
330
1B6
100
AcDbEntity
  8
LEVEL_Ground
  6
ByLayer
 62
256
 48
1
 60
0
370
-1
100
AcDbLine
 10
8880
 20
-5760
 30
0
 11
8970
 21
-5850
 31
0
 39
0
210
0
220
0
230
1
  0
LINE
  5
B3
330
1B6
100
AcDbEntity
  8
LEVEL_Ground
  6
ByLayer
 62
256
 48
1
 60
0
370
-1
100
AcDbLine
 10
8880
 20
-5880
 30
0
 11
8970
 21
-5970
 31
0
 39
0
210
0
220
0
230
1
  0
LWPOLYLINE
  5
B4
330
1B6
100
AcDbEntity
  8
LEVEL_Ground
  6
ByLayer
 62
256
 48
1
 60
0
370
-1
100
AcDbPolyline
 90
4
 70
1
 38
0
 39
0
 10
8880
 20
-120
 40
0
 41
0
 42
0
 10
8880
 20
-5880
 40
0
 41
0
 42
0
 10
8870
 20
-5870
 40
0
 41
0
 42
0
 10
8870
 20
-130
 40
0
 41
0
 42
0
210
0
220
0
230
1
  0
LWPOLYLINE
  5
B5
330
1B6
100
AcDbEntity
  8
LEVEL_Ground
  6
ByLayer
 62
256
 48
1
 60
0
370
-1
100
AcDbPolyline
 90
4
 70
1
 38
0
 39
0
 10
-130
 20
-6130
 40
0
 41
0
 42
0
 10
-20
 20
-6020
 40
0
 41
0
 42
0
 10
3600
 20
-6020
 40
0
 41
0
 42
0
 10
3600
 20
-6130
 40
0
 41
0
 42
0
210
0
220
0
230
1
  0
LINE
  5
B6
330
1B6
100
AcDbEntity
  8
LEVEL_Ground
  6
ByLayer
 62
256
 48
1
 60
0
370
-1
100
AcDbLine
 10
-120
 20
-6120
 30
0
 11
3600
 21
-6120
 31
0
 39
0
210
0
220
0
230
1
  0
LWPOLYLINE
  5
B7
330
1B6
100
AcDbEntity
  8
LEVEL_Ground
  6
ByLayer
 62
256
 48
1
 60
0
370
-1
100
AcDbPolyline
 90
4
 70
1
 38
0
 39
0
 10
5400
 20
-6020
 40
0
 41
0
 42
0
 10
9020
 20
-6020
 40
0
 41
0
 42
0
 10
9130
 20
-6130
 40
0
 41
0
 42
0
 10
5400
 20
-6130
 40
0
 41
0
 42
0
210
0
220
0
230
1
  0
LINE
  5
B8
330
1B6
100
AcDbEntity
  8
LEVEL_Ground
  6
ByLayer
 62
256
 48
1
 60
0
370
-1
100
AcDbLine
 10
5400
 20
-6120
 30
0
 11
9120
 21
-6120
 31
0
 39
0
210
0
220
0
230
1
  0
LWPOLYLINE
  5
B9
330
1B6
100
AcDbEntity
  8
LEVEL_Ground
  6
ByLayer
 62
256
 48
1
 60
0
370
-1
100
AcDbPolyline
 90
4
 70
1
 38
0
 39
0
 10
-20
 20
-6020
 40
0
 41
0
 42
0
 10
30
 20
-5970
 40
0
 41
0
 42
0
 10
3600
 20
-5970
 40
0
 41
0
 42
0
 10
3600
 20
-6020
 40
0
 41
0
 42
0
210
0
220
0
230
1
  0
LWPOLYLINE
  5
BA
330
1B6
100
AcDbEntity
  8
LEVEL_Ground
  6
ByLayer
 62
256
 48
1
 60
0
370
-1
100
AcDbPolyline
 90
4
 70
1
 38
0
 39
0
 10
5400
 20
-5970
 40
0
 41
0
 42
0
 10
8970
 20
-5970
 40
0
 41
0
 42
0
 10
9020
 20
-6020
 40
0
 41
0
 42
0
 10
5400
 20
-6020
 40
0
 41
0
 42
0
210
0
220
0
230
1
  0
LWPOLYLINE
  5
BB
330
1B6
100
AcDbEntity
  8
LEVEL_Ground
  6
ByLayer
 62
256
 48
1
 60
0
370
-1
100
AcDbPolyline
 90
4
 70
1
 38
0
 39
0
 10
30
 20
-5970
 40
0
 41
0
 42
0
 10
120
 20
-5880
 40
0
 41
0
 42
0
 10
3600
 20
-5880
 40
0
 41
0
 42
0
 10
3600
 20
-5970
 40
0
 41
0
 42
0
210
0
220
0
230
1
  0
LINE
  5
BC
330
1B6
100
AcDbEntity
  8
LEVEL_Ground
  6
ByLayer
 62
256
 48
1
 60
0
370
-1
100
AcDbLine
 10
3480
 20
-5880
 30
0
 11
3570
 21
-5970
 31
0
 39
0
210
0
220
0
230
1
  0
LINE
  5
BD
330
1B6
100
AcDbEntity
  8
LEVEL_Ground
  6
ByLayer
 62
256
 48
1
 60
0
370
-1
100
AcDbLine
 10
3360
 20
-5880
 30
0
 11
3450
 21
-5970
 31
0
 39
0
210
0
220
0
230
1
  0
LINE
  5
BE
330
1B6
100
AcDbEntity
  8
LEVEL_Ground
  6
ByLayer
 62
256
 48
1
 60
0
370
-1
100
AcDbLine
 10
3240
 20
-5880
 30
0
 11
3330
 21
-5970
 31
0
 39
0
210
0
220
0
230
1
  0
LINE
  5
BF
330
1B6
100
AcDbEntity
  8
LEVEL_Ground
  6
ByLayer
 62
256
 48
1
 60
0
370
-1
100
AcDbLine
 10
3120
 20
-5880
 30
0
 11
3210
 21
-5970
 31
0
 39
0
210
0
220
0
230
1
  0
LINE
  5
C0
330
1B6
100
AcDbEntity
  8
LEVEL_Ground
  6
ByLayer
 62
256
 48
1
 60
0
370
-1
100
AcDbLine
 10
3000
 20
-5880
 30
0
 11
3090
 21
-5970
 31
0
 39
0
210
0
220
0
230
1
  0
LINE
  5
C1
330
1B6
100
AcDbEntity
  8
LEVEL_Ground
  6
ByLayer
 62
256
 48
1
 60
0
370
-1
100
AcDbLine
 10
2880
 20
-5880
 30
0
 11
2970
 21
-5970
 31
0
 39
0
210
0
220
0
230
1
  0
LINE
  5
C2
330
1B6
100
AcDbEntity
  8
LEVEL_Ground
  6
ByLayer
 62
256
 48
1
 60
0
370
-1
100
AcDbLine
 10
2760
 20
-5880
 30
0
 11
2850
 21
-5970
 31
0
 39
0
210
0
220
0
230
1
  0
LINE
  5
C3
330
1B6
100
AcDbEntity
  8
LEVEL_Ground
  6
ByLayer
 62
256
 48
1
 60
0
370
-1
100
AcDbLine
 10
2640
 20
-5880
 30
0
 11
2730
 21
-5970
 31
0
 39
0
210
0
220
0
230
1
  0
LINE
  5
C4
330
1B6
100
AcDbEntity
  8
LEVEL_Ground
  6
ByLayer
 62
256
 48
1
 60
0
370
-1
100
AcDbLine
 10
2520
 20
-5880
 30
0
 11
2610
 21
-5970
 31
0
 39
0
210
0
220
0
230
1
  0
LINE
  5
C5
330
1B6
100
AcDbEntity
  8
LEVEL_Ground
  6
ByLayer
 62
256
 48
1
 60
0
370
-1
100
AcDbLine
 10
2400
 20
-5880
 30
0
 11
2490
 21
-5970
 31
0
 39
0
210
0
220
0
230
1
  0
LINE
  5
C6
330
1B6
100
AcDbEntity
  8
LEVEL_Ground
  6
ByLayer
 62
256
 48
1
 60
0
370
-1
100
AcDbLine
 10
2280
 20
-5880
 30
0
 11
2370
 21
-5970
 31
0
 39
0
210
0
220
0
230
1
  0
LINE
  5
C7
330
1B6
100
AcDbEntity
  8
LEVEL_Ground
  6
ByLayer
 62
256
 48
1
 60
0
370
-1
100
AcDbLine
 10
2160
 20
-5880
 30
0
 11
2250
 21
-5970
 31
0
 39
0
210
0
220
0
230
1
  0
LINE
  5
C8
330
1B6
100
AcDbEntity
  8
LEVEL_Ground
  6
ByLayer
 62
256
 48
1
 60
0
370
-1
100
AcDbLine
 10
2040
 20
-5880
 30
0
 11
2130
 21
-5970
 31
0
 39
0
210
0
220
0
230
1
  0
LINE
  5
C9
330
1B6
100
AcDbEntity
  8
LEVEL_Ground
  6
ByLayer
 62
256
 48
1
 60
0
370
-1
100
AcDbLine
 10
1920
 20
-5880
 30
0
 11
2010.0000000000002
 21
-5970
 31
0
 39
0
210
0
220
0
230
1
  0
LINE
  5
CA
330
1B6
100
AcDbEntity
  8
LEVEL_Ground
  6
ByLayer
 62
256
 48
1
 60
0
370
-1
100
AcDbLine
 10
1800
 20
-5880
 30
0
 11
1890.0000000000002
 21
-5970
 31
0
 39
0
210
0
220
0
230
1
  0
LINE
  5
CB
330
1B6
100
AcDbEntity
  8
LEVEL_Ground
  6
ByLayer
 62
256
 48
1
 60
0
370
-1
100
AcDbLine
 10
1680
 20
-5880
 30
0
 11
1770
 21
-5970
 31
0
 39
0
210
0
220
0
230
1
  0
LINE
  5
CC
330
1B6
100
AcDbEntity
  8
LEVEL_Ground
  6
ByLayer
 62
256
 48
1
 60
0
370
-1
100
AcDbLine
 10
1560
 20
-5880
 30
0
 11
1650
 21
-5970
 31
0
 39
0
210
0
220
0
230
1
  0
LINE
  5
CD
330
1B6
100
AcDbEntity
  8
LEVEL_Ground
  6
ByLayer
 62
256
 48
1
 60
0
370
-1
100
AcDbLine
 10
1440
 20
-5880
 30
0
 11
1530
 21
-5970
 31
0
 39
0
210
0
220
0
230
1
  0
LINE
  5
CE
330
1B6
100
AcDbEntity
  8
LEVEL_Ground
  6
ByLayer
 62
256
 48
1
 60
0
370
-1
100
AcDbLine
 10
1320
 20
-5880
 30
0
 11
1410
 21
-5970
 31
0
 39
0
210
0
220
0
230
1
  0
LINE
  5
CF
330
1B6
100
AcDbEntity
  8
LEVEL_Ground
  6
ByLayer
 62
256
 48
1
 60
0
370
-1
100
AcDbLine
 10
1200
 20
-5880
 30
0
 11
1290
 21
-5970
 31
0
 39
0
210
0
220
0
230
1
  0
LINE
  5
D0
330
1B6
100
AcDbEntity
  8
LEVEL_Ground
  6
ByLayer
 62
256
 48
1
 60
0
370
-1
100
AcDbLine
 10
1080
 20
-5880
 30
0
 11
1170
 21
-5970
 31
0
 39
0
210
0
220
0
230
1
  0
LINE
  5
D1
330
1B6
100
AcDbEntity
  8
LEVEL_Ground
  6
ByLayer
 62
256
 48
1
 60
0
370
-1
100
AcDbLine
 10
960
 20
-5880
 30
0
 11
1050
 21
-5970
 31
0
 39
0
210
0
220
0
230
1
  0
LINE
  5
D2
330
1B6
100
AcDbEntity
  8
LEVEL_Ground
  6
ByLayer
 62
256
 48
1
 60
0
370
-1
100
AcDbLine
 10
840
 20
-5880
 30
0
 11
930
 21
-5970
 31
0
 39
0
210
0
220
0
230
1
  0
LINE
  5
D3
330
1B6
100
AcDbEntity
  8
LEVEL_Ground
  6
ByLayer
 62
256
 48
1
 60
0
370
-1
100
AcDbLine
 10
720
 20
-5880
 30
0
 11
810
 21
-5970
 31
0
 39
0
210
0
220
0
230
1
  0
LINE
  5
D4
330
1B6
100
AcDbEntity
  8
LEVEL_Ground
  6
ByLayer
 62
256
 48
1
 60
0
370
-1
100
AcDbLine
 10
600
 20
-5880
 30
0
 11
690
 21
-5970
 31
0
 39
0
210
0
220
0
230
1
  0
LINE
  5
D5
330
1B6
100
AcDbEntity
  8
LEVEL_Ground
  6
ByLayer
 62
256
 48
1
 60
0
370
-1
100
AcDbLine
 10
480.00000000000006
 20
-5880
 30
0
 11
570
 21
-5970
 31
0
 39
0
210
0
220
0
230
1
  0
LINE
  5
D6
330
1B6
100
AcDbEntity
  8
LEVEL_Ground
  6
ByLayer
 62
256
 48
1
 60
0
370
-1
100
AcDbLine
 10
360
 20
-5880
 30
0
 11
450
 21
-5970
 31
0
 39
0
210
0
220
0
230
1
  0
LINE
  5
D7
330
1B6
100
AcDbEntity
  8
LEVEL_Ground
  6
ByLayer
 62
256
 48
1
 60
0
370
-1
100
AcDbLine
 10
240
 20
-5880
 30
0
 11
330
 21
-5970
 31
0
 39
0
210
0
220
0
230
1
  0
LINE
  5
D8
330
1B6
100
AcDbEntity
  8
LEVEL_Ground
  6
ByLayer
 62
256
 48
1
 60
0
370
-1
100
AcDbLine
 10
120
 20
-5880
 30
0
 11
210
 21
-5970
 31
0
 39
0
210
0
220
0
230
1
  0
LINE
  5
D9
330
1B6
100
AcDbEntity
  8
LEVEL_Ground
  6
ByLayer
 62
256
 48
1
 60
0
370
-1
100
AcDbLine
 10
60
 20
-5940
 30
0
 11
90
 21
-5970
 31
0
 39
0
210
0
220
0
230
1
  0
LWPOLYLINE
  5
DA
330
1B6
100
AcDbEntity
  8
LEVEL_Ground
  6
ByLayer
 62
256
 48
1
 60
0
370
-1
100
AcDbPolyline
 90
4
 70
1
 38
0
 39
0
 10
5400
 20
-5880
 40
0
 41
0
 42
0
 10
8880
 20
-5880
 40
0
 41
0
 42
0
 10
8970
 20
-5970
 40
0
 41
0
 42
0
 10
5400
 20
-5970
 40
0
 41
0
 42
0
210
0
220
0
230
1
  0
LINE
  5
DB
330
1B6
100
AcDbEntity
  8
LEVEL_Ground
  6
ByLayer
 62
256
 48
1
 60
0
370
-1
100
AcDbLine
 10
8760
 20
-5880
 30
0
 11
8850
 21
-5970
 31
0
 39
0
210
0
220
0
230
1
  0
LINE
  5
DC
330
1B6
100
AcDbEntity
  8
LEVEL_Ground
  6
ByLayer
 62
256
 48
1
 60
0
370
-1
100
AcDbLine
 10
8640
 20
-5880
 30
0
 11
8730
 21
-5970
 31
0
 39
0
210
0
220
0
230
1
  0
LINE
  5
DD
330
1B6
100
AcDbEntity
  8
LEVEL_Ground
  6
ByLayer
 62
256
 48
1
 60
0
370
-1
100
AcDbLine
 10
8520
 20
-5880
 30
0
 11
8610
 21
-5970
 31
0
 39
0
210
0
220
0
230
1
  0
LINE
  5
DE
330
1B6
100
AcDbEntity
  8
LEVEL_Ground
  6
ByLayer
 62
256
 48
1
 60
0
370
-1
100
AcDbLine
 10
8400
 20
-5880
 30
0
 11
8490
 21
-5970
 31
0
 39
0
210
0
220
0
230
1
  0
LINE
  5
DF
330
1B6
100
AcDbEntity
  8
LEVEL_Ground
  6
ByLayer
 62
256
 48
1
 60
0
370
-1
100
AcDbLine
 10
8280
 20
-5880
 30
0
 11
8370
 21
-5970
 31
0
 39
0
210
0
220
0
230
1
  0
LINE
  5
E0
330
1B6
100
AcDbEntity
  8
LEVEL_Ground
  6
ByLayer
 62
256
 48
1
 60
0
370
-1
100
AcDbLine
 10
8160
 20
-5880
 30
0
 11
8250
 21
-5970
 31
0
 39
0
210
0
220
0
230
1
  0
LINE
  5
E1
330
1B6
100
AcDbEntity
  8
LEVEL_Ground
  6
ByLayer
 62
256
 48
1
 60
0
370
-1
100
AcDbLine
 10
8040
 20
-5880
 30
0
 11
8130
 21
-5970
 31
0
 39
0
210
0
220
0
230
1
  0
LINE
  5
E2
330
1B6
100
AcDbEntity
  8
LEVEL_Ground
  6
ByLayer
 62
256
 48
1
 60
0
370
-1
100
AcDbLine
 10
7920
 20
-5880
 30
0
 11
8010
 21
-5970
 31
0
 39
0
210
0
220
0
230
1
  0
LINE
  5
E3
330
1B6
100
AcDbEntity
  8
LEVEL_Ground
  6
ByLayer
 62
256
 48
1
 60
0
370
-1
100
AcDbLine
 10
7800
 20
-5880
 30
0
 11
7890
 21
-5970
 31
0
 39
0
210
0
220
0
230
1
  0
LINE
  5
E4
330
1B6
100
AcDbEntity
  8
LEVEL_Ground
  6
ByLayer
 62
256
 48
1
 60
0
370
-1
100
AcDbLine
 10
7680
 20
-5880
 30
0
 11
7770
 21
-5970
 31
0
 39
0
210
0
220
0
230
1
  0
LINE
  5
E5
330
1B6
100
AcDbEntity
  8
LEVEL_Ground
  6
ByLayer
 62
256
 48
1
 60
0
370
-1
100
AcDbLine
 10
7560
 20
-5880
 30
0
 11
7650
 21
-5970
 31
0
 39
0
210
0
220
0
230
1
  0
LINE
  5
E6
330
1B6
100
AcDbEntity
  8
LEVEL_Ground
  6
ByLayer
 62
256
 48
1
 60
0
370
-1
100
AcDbLine
 10
7440
 20
-5880
 30
0
 11
7530
 21
-5970
 31
0
 39
0
210
0
220
0
230
1
  0
LINE
  5
E7
330
1B6
100
AcDbEntity
  8
LEVEL_Ground
  6
ByLayer
 62
256
 48
1
 60
0
370
-1
100
AcDbLine
 10
7320
 20
-5880
 30
0
 11
7410
 21
-5970
 31
0
 39
0
210
0
220
0
230
1
  0
LINE
  5
E8
330
1B6
100
AcDbEntity
  8
LEVEL_Ground
  6
ByLayer
 62
256
 48
1
 60
0
370
-1
100
AcDbLine
 10
7200
 20
-5880
 30
0
 11
7290
 21
-5970
 31
0
 39
0
210
0
220
0
230
1
  0
LINE
  5
E9
330
1B6
100
AcDbEntity
  8
LEVEL_Ground
  6
ByLayer
 62
256
 48
1
 60
0
370
-1
100
AcDbLine
 10
7080
 20
-5880
 30
0
 11
7170
 21
-5970
 31
0
 39
0
210
0
220
0
230
1
  0
LINE
  5
EA
330
1B6
100
AcDbEntity
  8
LEVEL_Ground
  6
ByLayer
 62
256
 48
1
 60
0
370
-1
100
AcDbLine
 10
6960
 20
-5880
 30
0
 11
7050
 21
-5970
 31
0
 39
0
210
0
220
0
230
1
  0
LINE
  5
EB
330
1B6
100
AcDbEntity
  8
LEVEL_Ground
  6
ByLayer
 62
256
 48
1
 60
0
370
-1
100
AcDbLine
 10
6840
 20
-5880
 30
0
 11
6930
 21
-5970
 31
0
 39
0
210
0
220
0
230
1
  0
LINE
  5
EC
330
1B6
100
AcDbEntity
  8
LEVEL_Ground
  6
ByLayer
 62
256
 48
1
 60
0
370
-1
100
AcDbLine
 10
6720
 20
-5880
 30
0
 11
6810
 21
-5970
 31
0
 39
0
210
0
220
0
230
1
  0
LINE
  5
ED
330
1B6
100
AcDbEntity
  8
LEVEL_Ground
  6
ByLayer
 62
256
 48
1
 60
0
370
-1
100
AcDbLine
 10
6600
 20
-5880
 30
0
 11
6690
 21
-5970
 31
0
 39
0
210
0
220
0
230
1
  0
LINE
  5
EE
330
1B6
100
AcDbEntity
  8
LEVEL_Ground
  6
ByLayer
 62
256
 48
1
 60
0
370
-1
100
AcDbLine
 10
6480
 20
-5880
 30
0
 11
6570
 21
-5970
 31
0
 39
0
210
0
220
0
230
1
  0
LINE
  5
EF
330
1B6
100
AcDbEntity
  8
LEVEL_Ground
  6
ByLayer
 62
256
 48
1
 60
0
370
-1
100
AcDbLine
 10
6360
 20
-5880
 30
0
 11
6450
 21
-5970
 31
0
 39
0
210
0
220
0
230
1
  0
LINE
  5
F0
330
1B6
100
AcDbEntity
  8
LEVEL_Ground
  6
ByLayer
 62
256
 48
1
 60
0
370
-1
100
AcDbLine
 10
6240
 20
-5880
 30
0
 11
6330
 21
-5970
 31
0
 39
0
210
0
220
0
230
1
  0
LINE
  5
F1
330
1B6
100
AcDbEntity
  8
LEVEL_Ground
  6
ByLayer
 62
256
 48
1
 60
0
370
-1
100
AcDbLine
 10
6120
 20
-5880
 30
0
 11
6210
 21
-5970
 31
0
 39
0
210
0
220
0
230
1
  0
LINE
  5
F2
330
1B6
100
AcDbEntity
  8
LEVEL_Ground
  6
ByLayer
 62
256
 48
1
 60
0
370
-1
100
AcDbLine
 10
6000
 20
-5880
 30
0
 11
6090
 21
-5970
 31
0
 39
0
210
0
220
0
230
1
  0
LINE
  5
F3
330
1B6
100
AcDbEntity
  8
LEVEL_Ground
  6
ByLayer
 62
256
 48
1
 60
0
370
-1
100
AcDbLine
 10
5880
 20
-5880
 30
0
 11
5970
 21
-5970
 31
0
 39
0
210
0
220
0
230
1
  0
LINE
  5
F4
330
1B6
100
AcDbEntity
  8
LEVEL_Ground
  6
ByLayer
 62
256
 48
1
 60
0
370
-1
100
AcDbLine
 10
5760
 20
-5880
 30
0
 11
5850
 21
-5970
 31
0
 39
0
210
0
220
0
230
1
  0
LINE
  5
F5
330
1B6
100
AcDbEntity
  8
LEVEL_Ground
  6
ByLayer
 62
256
 48
1
 60
0
370
-1
100
AcDbLine
 10
5640
 20
-5880
 30
0
 11
5730
 21
-5970
 31
0
 39
0
210
0
220
0
230
1
  0
LINE
  5
F6
330
1B6
100
AcDbEntity
  8
LEVEL_Ground
  6
ByLayer
 62
256
 48
1
 60
0
370
-1
100
AcDbLine
 10
5520
 20
-5880
 30
0
 11
5610
 21
-5970
 31
0
 39
0
210
0
220
0
230
1
  0
LINE
  5
F7
330
1B6
100
AcDbEntity
  8
LEVEL_Ground
  6
ByLayer
 62
256
 48
1
 60
0
370
-1
100
AcDbLine
 10
5400
 20
-5880
 30
0
 11
5490
 21
-5970
 31
0
 39
0
210
0
220
0
230
1
  0
LWPOLYLINE
  5
F8
330
1B6
100
AcDbEntity
  8
LEVEL_Ground
  6
ByLayer
 62
256
 48
1
 60
0
370
-1
100
AcDbPolyline
 90
4
 70
1
 38
0
 39
0
 10
120
 20
-5880
 40
0
 41
0
 42
0
 10
130
 20
-5870
 40
0
 41
0
 42
0
 10
3600
 20
-5870
 40
0
 41
0
 42
0
 10
3600
 20
-5880
 40
0
 41
0
 42
0
210
0
220
0
230
1
  0
LWPOLYLINE
  5
F9
330
1B6
100
AcDbEntity
  8
LEVEL_Ground
  6
ByLayer
 62
256
 48
1
 60
0
370
-1
100
AcDbPolyline
 90
4
 70
1
 38
0
 39
0
 10
5400
 20
-5870
 40
0
 41
0
 42
0
 10
8870
 20
-5870
 40
0
 41
0
 42
0
 10
8880
 20
-5880
 40
0
 41
0
 42
0
 10
5400
 20
-5880
 40
0
 41
0
 42
0
210
0
220
0
230
1
  0
LWPOLYLINE
  5
FA
330
1B6
100
AcDbEntity
  8
LEVEL_Ground
  6
ByLayer
 62
256
 48
1
 60
0
370
-1
100
AcDbPolyline
 90
4
 70
1
 38
0
 39
0
 10
-130
 20
-6130
 40
0
 41
0
 42
0
 10
-130
 20
130
 40
0
 41
0
 42
0
 10
-20
 20
20.000000000000909
 40
0
 41
0
 42
0
 10
-20
 20
-6020
 40
0
 41
0
 42
0
210
0
220
0
230
1
  0
LINE
  5
FB
330
1B6
100
AcDbEntity
  8
LEVEL_Ground
  6
ByLayer
 62
256
 48
1
 60
0
370
-1
100
AcDbLine
 10
-130
 20
120
 30
0
 11
-119.99999999999991
 21
120
 31
0
 39
0
210
0
220
0
230
1
  0
LINE
  5
FC
330
1B6
100
AcDbEntity
  8
LEVEL_Ground
  6
ByLayer
 62
256
 48
1
 60
0
370
-1
100
AcDbLine
 10
-130
 20
0
 30
0
 11
-20
 21
0
 31
0
 39
0
210
0
220
0
230
1
  0
LINE
  5
FD
330
1B6
100
AcDbEntity
  8
LEVEL_Ground
  6
ByLayer
 62
256
 48
1
 60
0
370
-1
100
AcDbLine
 10
-130
 20
-120
 30
0
 11
-20
 21
-120
 31
0
 39
0
210
0
220
0
230
1
  0
LINE
  5
FE
330
1B6
100
AcDbEntity
  8
LEVEL_Ground
  6
ByLayer
 62
256
 48
1
 60
0
370
-1
100
AcDbLine
 10
-130
 20
-240
 30
0
 11
-20
 21
-240
 31
0
 39
0
210
0
220
0
230
1
  0
LINE
  5
FF
330
1B6
100
AcDbEntity
  8
LEVEL_Ground
  6
ByLayer
 62
256
 48
1
 60
0
370
-1
100
AcDbLine
 10
-130
 20
-360
 30
0
 11
-20
 21
-360
 31
0
 39
0
210
0
220
0
230
1
  0
LINE
  5
100
330
1B6
100
AcDbEntity
  8
LEVEL_Ground
  6
ByLayer
 62
256
 48
1
 60
0
370
-1
100
AcDbLine
 10
-130
 20
-480
 30
0
 11
-20
 21
-480
 31
0
 39
0
210
0
220
0
230
1
  0
LINE
  5
101
330
1B6
100
AcDbEntity
  8
LEVEL_Ground
  6
ByLayer
 62
256
 48
1
 60
0
370
-1
100
AcDbLine
 10
-130
 20
-600
 30
0
 11
-20
 21
-600
 31
0
 39
0
210
0
220
0
230
1
  0
LINE
  5
102
330
1B6
100
AcDbEntity
  8
LEVEL_Ground
  6
ByLayer
 62
256
 48
1
 60
0
370
-1
100
AcDbLine
 10
-130
 20
-720
 30
0
 11
-20
 21
-720
 31
0
 39
0
210
0
220
0
230
1
  0
LINE
  5
103
330
1B6
100
AcDbEntity
  8
LEVEL_Ground
  6
ByLayer
 62
256
 48
1
 60
0
370
-1
100
AcDbLine
 10
-130
 20
-840
 30
0
 11
-20
 21
-840
 31
0
 39
0
210
0
220
0
230
1
  0
LINE
  5
104
330
1B6
100
AcDbEntity
  8
LEVEL_Ground
  6
ByLayer
 62
256
 48
1
 60
0
370
-1
100
AcDbLine
 10
-130
 20
-960
 30
0
 11
-20
 21
-960
 31
0
 39
0
210
0
220
0
230
1
  0
LINE
  5
105
330
1B6
100
AcDbEntity
  8
LEVEL_Ground
  6
ByLayer
 62
256
 48
1
 60
0
370
-1
100
AcDbLine
 10
-130
 20
-1080
 30
0
 11
-20
 21
-1080
 31
0
 39
0
210
0
220
0
230
1
  0
LINE
  5
106
330
1B6
100
AcDbEntity
  8
LEVEL_Ground
  6
ByLayer
 62
256
 48
1
 60
0
370
-1
100
AcDbLine
 10
-130
 20
-1200
 30
0
 11
-20
 21
-1200
 31
0
 39
0
210
0
220
0
230
1
  0
LINE
  5
107
330
1B6
100
AcDbEntity
  8
LEVEL_Ground
  6
ByLayer
 62
256
 48
1
 60
0
370
-1
100
AcDbLine
 10
-130
 20
-1320
 30
0
 11
-20
 21
-1320
 31
0
 39
0
210
0
220
0
230
1
  0
LINE
  5
108
330
1B6
100
AcDbEntity
  8
LEVEL_Ground
  6
ByLayer
 62
256
 48
1
 60
0
370
-1
100
AcDbLine
 10
-130
 20
-1440
 30
0
 11
-20
 21
-1440
 31
0
 39
0
210
0
220
0
230
1
  0
LINE
  5
109
330
1B6
100
AcDbEntity
  8
LEVEL_Ground
  6
ByLayer
 62
256
 48
1
 60
0
370
-1
100
AcDbLine
 10
-130
 20
-1560
 30
0
 11
-20
 21
-1560
 31
0
 39
0
210
0
220
0
230
1
  0
LINE
  5
10A
330
1B6
100
AcDbEntity
  8
LEVEL_Ground
  6
ByLayer
 62
256
 48
1
 60
0
370
-1
100
AcDbLine
 10
-130
 20
-1680
 30
0
 11
-20
 21
-1680
 31
0
 39
0
210
0
220
0
230
1
  0
LINE
  5
10B
330
1B6
100
AcDbEntity
  8
LEVEL_Ground
  6
ByLayer
 62
256
 48
1
 60
0
370
-1
100
AcDbLine
 10
-130
 20
-1800
 30
0
 11
-20
 21
-1800
 31
0
 39
0
210
0
220
0
230
1
  0
LINE
  5
10C
330
1B6
100
AcDbEntity
  8
LEVEL_Ground
  6
ByLayer
 62
256
 48
1
 60
0
370
-1
100
AcDbLine
 10
-130
 20
-1920
 30
0
 11
-20
 21
-1920
 31
0
 39
0
210
0
220
0
230
1
  0
LINE
  5
10D
330
1B6
100
AcDbEntity
  8
LEVEL_Ground
  6
ByLayer
 62
256
 48
1
 60
0
370
-1
100
AcDbLine
 10
-130
 20
-2040
 30
0
 11
-20
 21
-2040
 31
0
 39
0
210
0
220
0
230
1
  0
LINE
  5
10E
330
1B6
100
AcDbEntity
  8
LEVEL_Ground
  6
ByLayer
 62
256
 48
1
 60
0
370
-1
100
AcDbLine
 10
-130
 20
-2160
 30
0
 11
-20
 21
-2160
 31
0
 39
0
210
0
220
0
230
1
  0
LINE
  5
10F
330
1B6
100
AcDbEntity
  8
LEVEL_Ground
  6
ByLayer
 62
256
 48
1
 60
0
370
-1
100
AcDbLine
 10
-130
 20
-2280
 30
0
 11
-20
 21
-2280
 31
0
 39
0
210
0
220
0
230
1
  0
LINE
  5
110
330
1B6
100
AcDbEntity
  8
LEVEL_Ground
  6
ByLayer
 62
256
 48
1
 60
0
370
-1
100
AcDbLine
 10
-130
 20
-2400
 30
0
 11
-20
 21
-2400
 31
0
 39
0
210
0
220
0
230
1
  0
LINE
  5
111
330
1B6
100
AcDbEntity
  8
LEVEL_Ground
  6
ByLayer
 62
256
 48
1
 60
0
370
-1
100
AcDbLine
 10
-130
 20
-2520
 30
0
 11
-20
 21
-2520
 31
0
 39
0
210
0
220
0
230
1
  0
LINE
  5
112
330
1B6
100
AcDbEntity
  8
LEVEL_Ground
  6
ByLayer
 62
256
 48
1
 60
0
370
-1
100
AcDbLine
 10
-130
 20
-2640
 30
0
 11
-20
 21
-2640
 31
0
 39
0
210
0
220
0
230
1
  0
LINE
  5
113
330
1B6
100
AcDbEntity
  8
LEVEL_Ground
  6
ByLayer
 62
256
 48
1
 60
0
370
-1
100
AcDbLine
 10
-130
 20
-2760
 30
0
 11
-20
 21
-2760
 31
0
 39
0
210
0
220
0
230
1
  0
LINE
  5
114
330
1B6
100
AcDbEntity
  8
LEVEL_Ground
  6
ByLayer
 62
256
 48
1
 60
0
370
-1
100
AcDbLine
 10
-130
 20
-2880
 30
0
 11
-20
 21
-2880
 31
0
 39
0
210
0
220
0
230
1
  0
LINE
  5
115
330
1B6
100
AcDbEntity
  8
LEVEL_Ground
  6
ByLayer
 62
256
 48
1
 60
0
370
-1
100
AcDbLine
 10
-130
 20
-3000
 30
0
 11
-20
 21
-3000
 31
0
 39
0
210
0
220
0
230
1
  0
LINE
  5
116
330
1B6
100
AcDbEntity
  8
LEVEL_Ground
  6
ByLayer
 62
256
 48
1
 60
0
370
-1
100
AcDbLine
 10
-130
 20
-3120
 30
0
 11
-20
 21
-3120
 31
0
 39
0
210
0
220
0
230
1
  0
LINE
  5
117
330
1B6
100
AcDbEntity
  8
LEVEL_Ground
  6
ByLayer
 62
256
 48
1
 60
0
370
-1
100
AcDbLine
 10
-130
 20
-3240
 30
0
 11
-20
 21
-3240
 31
0
 39
0
210
0
220
0
230
1
  0
LINE
  5
118
330
1B6
100
AcDbEntity
  8
LEVEL_Ground
  6
ByLayer
 62
256
 48
1
 60
0
370
-1
100
AcDbLine
 10
-130
 20
-3360
 30
0
 11
-20
 21
-3360
 31
0
 39
0
210
0
220
0
230
1
  0
LINE
  5
119
330
1B6
100
AcDbEntity
  8
LEVEL_Ground
  6
ByLayer
 62
256
 48
1
 60
0
370
-1
100
AcDbLine
 10
-130
 20
-3480
 30
0
 11
-20
 21
-3480
 31
0
 39
0
210
0
220
0
230
1
  0
LINE
  5
11A
330
1B6
100
AcDbEntity
  8
LEVEL_Ground
  6
ByLayer
 62
256
 48
1
 60
0
370
-1
100
AcDbLine
 10
-130
 20
-3600
 30
0
 11
-20
 21
-3600
 31
0
 39
0
210
0
220
0
230
1
  0
LINE
  5
11B
330
1B6
100
AcDbEntity
  8
LEVEL_Ground
  6
ByLayer
 62
256
 48
1
 60
0
370
-1
100
AcDbLine
 10
-130
 20
-3720
 30
0
 11
-20
 21
-3720
 31
0
 39
0
210
0
220
0
230
1
  0
LINE
  5
11C
330
1B6
100
AcDbEntity
  8
LEVEL_Ground
  6
ByLayer
 62
256
 48
1
 60
0
370
-1
100
AcDbLine
 10
-130
 20
-3840
 30
0
 11
-20
 21
-3840
 31
0
 39
0
210
0
220
0
230
1
  0
LINE
  5
11D
330
1B6
100
AcDbEntity
  8
LEVEL_Ground
  6
ByLayer
 62
256
 48
1
 60
0
370
-1
100
AcDbLine
 10
-130
 20
-3960
 30
0
 11
-20
 21
-3960
 31
0
 39
0
210
0
220
0
230
1
  0
LINE
  5
11E
330
1B6
100
AcDbEntity
  8
LEVEL_Ground
  6
ByLayer
 62
256
 48
1
 60
0
370
-1
100
AcDbLine
 10
-130
 20
-4080
 30
0
 11
-20
 21
-4080
 31
0
 39
0
210
0
220
0
230
1
  0
LINE
  5
11F
330
1B6
100
AcDbEntity
  8
LEVEL_Ground
  6
ByLayer
 62
256
 48
1
 60
0
370
-1
100
AcDbLine
 10
-130
 20
-4200
 30
0
 11
-20
 21
-4200
 31
0
 39
0
210
0
220
0
230
1
  0
LINE
  5
120
330
1B6
100
AcDbEntity
  8
LEVEL_Ground
  6
ByLayer
 62
256
 48
1
 60
0
370
-1
100
AcDbLine
 10
-130
 20
-4320
 30
0
 11
-20
 21
-4320
 31
0
 39
0
210
0
220
0
230
1
  0
LINE
  5
121
330
1B6
100
AcDbEntity
  8
LEVEL_Ground
  6
ByLayer
 62
256
 48
1
 60
0
370
-1
100
AcDbLine
 10
-130
 20
-4440
 30
0
 11
-20
 21
-4440
 31
0
 39
0
210
0
220
0
230
1
  0
LINE
  5
122
330
1B6
100
AcDbEntity
  8
LEVEL_Ground
  6
ByLayer
 62
256
 48
1
 60
0
370
-1
100
AcDbLine
 10
-130
 20
-4560
 30
0
 11
-20
 21
-4560
 31
0
 39
0
210
0
220
0
230
1
  0
LINE
  5
123
330
1B6
100
AcDbEntity
  8
LEVEL_Ground
  6
ByLayer
 62
256
 48
1
 60
0
370
-1
100
AcDbLine
 10
-130
 20
-4680
 30
0
 11
-20
 21
-4680
 31
0
 39
0
210
0
220
0
230
1
  0
LINE
  5
124
330
1B6
100
AcDbEntity
  8
LEVEL_Ground
  6
ByLayer
 62
256
 48
1
 60
0
370
-1
100
AcDbLine
 10
-130
 20
-4800
 30
0
 11
-20
 21
-4800
 31
0
 39
0
210
0
220
0
230
1
  0
LINE
  5
125
330
1B6
100
AcDbEntity
  8
LEVEL_Ground
  6
ByLayer
 62
256
 48
1
 60
0
370
-1
100
AcDbLine
 10
-130
 20
-4920
 30
0
 11
-20
 21
-4920
 31
0
 39
0
210
0
220
0
230
1
  0
LINE
  5
126
330
1B6
100
AcDbEntity
  8
LEVEL_Ground
  6
ByLayer
 62
256
 48
1
 60
0
370
-1
100
AcDbLine
 10
-130
 20
-5040
 30
0
 11
-20
 21
-5040
 31
0
 39
0
210
0
220
0
230
1
  0
LINE
  5
127
330
1B6
100
AcDbEntity
  8
LEVEL_Ground
  6
ByLayer
 62
256
 48
1
 60
0
370
-1
100
AcDbLine
 10
-130
 20
-5160
 30
0
 11
-20
 21
-5160
 31
0
 39
0
210
0
220
0
230
1
  0
LINE
  5
128
330
1B6
100
AcDbEntity
  8
LEVEL_Ground
  6
ByLayer
 62
256
 48
1
 60
0
370
-1
100
AcDbLine
 10
-130
 20
-5280
 30
0
 11
-20
 21
-5280
 31
0
 39
0
210
0
220
0
230
1
  0
LINE
  5
129
330
1B6
100
AcDbEntity
  8
LEVEL_Ground
  6
ByLayer
 62
256
 48
1
 60
0
370
-1
100
AcDbLine
 10
-130
 20
-5400
 30
0
 11
-20
 21
-5400
 31
0
 39
0
210
0
220
0
230
1
  0
LINE
  5
12A
330
1B6
100
AcDbEntity
  8
LEVEL_Ground
  6
ByLayer
 62
256
 48
1
 60
0
370
-1
100
AcDbLine
 10
-130
 20
-5520
 30
0
 11
-20
 21
-5520
 31
0
 39
0
210
0
220
0
230
1
  0
LINE
  5
12B
330
1B6
100
AcDbEntity
  8
LEVEL_Ground
  6
ByLayer
 62
256
 48
1
 60
0
370
-1
100
AcDbLine
 10
-130
 20
-5640
 30
0
 11
-20
 21
-5640
 31
0
 39
0
210
0
220
0
230
1
  0
LINE
  5
12C
330
1B6
100
AcDbEntity
  8
LEVEL_Ground
  6
ByLayer
 62
256
 48
1
 60
0
370
-1
100
AcDbLine
 10
-130
 20
-5760
 30
0
 11
-20
 21
-5760
 31
0
 39
0
210
0
220
0
230
1
  0
LINE
  5
12D
330
1B6
100
AcDbEntity
  8
LEVEL_Ground
  6
ByLayer
 62
256
 48
1
 60
0
370
-1
100
AcDbLine
 10
-130
 20
-5880
 30
0
 11
-20
 21
-5880
 31
0
 39
0
210
0
220
0
230
1
  0
LINE
  5
12E
330
1B6
100
AcDbEntity
  8
LEVEL_Ground
  6
ByLayer
 62
256
 48
1
 60
0
370
-1
100
AcDbLine
 10
-130
 20
-6000
 30
0
 11
-20
 21
-6000
 31
0
 39
0
210
0
220
0
230
1
  0
LINE
  5
12F
330
1B6
100
AcDbEntity
  8
LEVEL_Ground
  6
ByLayer
 62
256
 48
1
 60
0
370
-1
100
AcDbLine
 10
-130
 20
-6120
 30
0
 11
-120
 21
-6120
 31
0
 39
0
210
0
220
0
230
1
  0
LWPOLYLINE
  5
130
330
1B6
100
AcDbEntity
  8
LEVEL_Ground
  6
ByLayer
 62
256
 48
1
 60
0
370
-1
100
AcDbPolyline
 90
4
 70
1
 38
0
 39
0
 10
-20
 20
-6020
 40
0
 41
0
 42
0
 10
-20
 20
20.000000000000909
 40
0
 41
0
 42
0
 10
30
 20
-30
 40
0
 41
0
 42
0
 10
30
 20
-5970
 40
0
 41
0
 42
0
210
0
220
0
230
1
  0
LWPOLYLINE
  5
131
330
1B6
100
AcDbEntity
  8
LEVEL_Ground
  6
ByLayer
 62
256
 48
1
 60
0
370
-1
100
AcDbPolyline
 90
4
 70
1
 38
0
 39
0
 10
30
 20
-5970
 40
0
 41
0
 42
0
 10
30
 20
-30
 40
0
 41
0
 42
0
 10
120
 20
-120
 40
0
 41
0
 42
0
 10
120
 20
-5880
 40
0
 41
0
 42
0
210
0
220
0
230
1
  0
LINE
  5
132
330
1B6
100
AcDbEntity
  8
LEVEL_Ground
  6
ByLayer
 62
256
 48
1
 60
0
370
-1
100
AcDbLine
 10
30
 20
-150
 30
0
 11
120
 21
-240
 31
0
 39
0
210
0
220
0
230
1
  0
LINE
  5
133
330
1B6
100
AcDbEntity
  8
LEVEL_Ground
  6
ByLayer
 62
256
 48
1
 60
0
370
-1
100
AcDbLine
 10
30
 20
-270
 30
0
 11
120
 21
-360
 31
0
 39
0
210
0
220
0
230
1
  0
LINE
  5
134
330
1B6
100
AcDbEntity
  8
LEVEL_Ground
  6
ByLayer
 62
256
 48
1
 60
0
370
-1
100
AcDbLine
 10
30
 20
-390
 30
0
 11
120
 21
-480
 31
0
 39
0
210
0
220
0
230
1
  0
LINE
  5
135
330
1B6
100
AcDbEntity
  8
LEVEL_Ground
  6
ByLayer
 62
256
 48
1
 60
0
370
-1
100
AcDbLine
 10
30
 20
-510
 30
0
 11
120
 21
-600
 31
0
 39
0
210
0
220
0
230
1
  0
LINE
  5
136
330
1B6
100
AcDbEntity
  8
LEVEL_Ground
  6
ByLayer
 62
256
 48
1
 60
0
370
-1
100
AcDbLine
 10
30
 20
-630
 30
0
 11
120
 21
-720
 31
0
 39
0
210
0
220
0
230
1
  0
LINE
  5
137
330
1B6
100
AcDbEntity
  8
LEVEL_Ground
  6
ByLayer
 62
256
 48
1
 60
0
370
-1
100
AcDbLine
 10
30
 20
-750
 30
0
 11
120
 21
-840
 31
0
 39
0
210
0
220
0
230
1
  0
LINE
  5
138
330
1B6
100
AcDbEntity
  8
LEVEL_Ground
  6
ByLayer
 62
256
 48
1
 60
0
370
-1
100
AcDbLine
 10
30
 20
-870
 30
0
 11
120
 21
-960
 31
0
 39
0
210
0
220
0
230
1
  0
LINE
  5
139
330
1B6
100
AcDbEntity
  8
LEVEL_Ground
  6
ByLayer
 62
256
 48
1
 60
0
370
-1
100
AcDbLine
 10
30
 20
-990
 30
0
 11
120
 21
-1080
 31
0
 39
0
210
0
220
0
230
1
  0
LINE
  5
13A
330
1B6
100
AcDbEntity
  8
LEVEL_Ground
  6
ByLayer
 62
256
 48
1
 60
0
370
-1
100
AcDbLine
 10
30
 20
-1110
 30
0
 11
120
 21
-1200
 31
0
 39
0
210
0
220
0
230
1
  0
LINE
  5
13B
330
1B6
100
AcDbEntity
  8
LEVEL_Ground
  6
ByLayer
 62
256
 48
1
 60
0
370
-1
100
AcDbLine
 10
30
 20
-1230
 30
0
 11
120
 21
-1320
 31
0
 39
0
210
0
220
0
230
1
  0
LINE
  5
13C
330
1B6
100
AcDbEntity
  8
LEVEL_Ground
  6
ByLayer
 62
256
 48
1
 60
0
370
-1
100
AcDbLine
 10
30
 20
-1350
 30
0
 11
120
 21
-1440
 31
0
 39
0
210
0
220
0
230
1
  0
LINE
  5
13D
330
1B6
100
AcDbEntity
  8
LEVEL_Ground
  6
ByLayer
 62
256
 48
1
 60
0
370
-1
100
AcDbLine
 10
30
 20
-1470
 30
0
 11
120
 21
-1560
 31
0
 39
0
210
0
220
0
230
1
  0
LINE
  5
13E
330
1B6
100
AcDbEntity
  8
LEVEL_Ground
  6
ByLayer
 62
256
 48
1
 60
0
370
-1
100
AcDbLine
 10
30
 20
-1590
 30
0
 11
120
 21
-1680
 31
0
 39
0
210
0
220
0
230
1
  0
LINE
  5
13F
330
1B6
100
AcDbEntity
  8
LEVEL_Ground
  6
ByLayer
 62
256
 48
1
 60
0
370
-1
100
AcDbLine
 10
30
 20
-1710
 30
0
 11
120
 21
-1800
 31
0
 39
0
210
0
220
0
230
1
  0
LINE
  5
140
330
1B6
100
AcDbEntity
  8
LEVEL_Ground
  6
ByLayer
 62
256
 48
1
 60
0
370
-1
100
AcDbLine
 10
30
 20
-1830
 30
0
 11
120
 21
-1920
 31
0
 39
0
210
0
220
0
230
1
  0
LINE
  5
141
330
1B6
100
AcDbEntity
  8
LEVEL_Ground
  6
ByLayer
 62
256
 48
1
 60
0
370
-1
100
AcDbLine
 10
30
 20
-1950
 30
0
 11
120
 21
-2040
 31
0
 39
0
210
0
220
0
230
1
  0
LINE
  5
142
330
1B6
100
AcDbEntity
  8
LEVEL_Ground
  6
ByLayer
 62
256
 48
1
 60
0
370
-1
100
AcDbLine
 10
30
 20
-2070
 30
0
 11
120
 21
-2160
 31
0
 39
0
210
0
220
0
230
1
  0
LINE
  5
143
330
1B6
100
AcDbEntity
  8
LEVEL_Ground
  6
ByLayer
 62
256
 48
1
 60
0
370
-1
100
AcDbLine
 10
30
 20
-2190
 30
0
 11
120
 21
-2280
 31
0
 39
0
210
0
220
0
230
1
  0
LINE
  5
144
330
1B6
100
AcDbEntity
  8
LEVEL_Ground
  6
ByLayer
 62
256
 48
1
 60
0
370
-1
100
AcDbLine
 10
30
 20
-2310
 30
0
 11
120
 21
-2400
 31
0
 39
0
210
0
220
0
230
1
  0
LINE
  5
145
330
1B6
100
AcDbEntity
  8
LEVEL_Ground
  6
ByLayer
 62
256
 48
1
 60
0
370
-1
100
AcDbLine
 10
30
 20
-2430
 30
0
 11
120
 21
-2520
 31
0
 39
0
210
0
220
0
230
1
  0
LINE
  5
146
330
1B6
100
AcDbEntity
  8
LEVEL_Ground
  6
ByLayer
 62
256
 48
1
 60
0
370
-1
100
AcDbLine
 10
30
 20
-2550
 30
0
 11
120
 21
-2640
 31
0
 39
0
210
0
220
0
230
1
  0
LINE
  5
147
330
1B6
100
AcDbEntity
  8
LEVEL_Ground
  6
ByLayer
 62
256
 48
1
 60
0
370
-1
100
AcDbLine
 10
30
 20
-2670
 30
0
 11
120
 21
-2760
 31
0
 39
0
210
0
220
0
230
1
  0
LINE
  5
148
330
1B6
100
AcDbEntity
  8
LEVEL_Ground
  6
ByLayer
 62
256
 48
1
 60
0
370
-1
100
AcDbLine
 10
30
 20
-2790
 30
0
 11
120
 21
-2880
 31
0
 39
0
210
0
220
0
230
1
  0
LINE
  5
149
330
1B6
100
AcDbEntity
  8
LEVEL_Ground
  6
ByLayer
 62
256
 48
1
 60
0
370
-1
100
AcDbLine
 10
30
 20
-2910
 30
0
 11
120
 21
-3000
 31
0
 39
0
210
0
220
0
230
1
  0
LINE
  5
14A
330
1B6
100
AcDbEntity
  8
LEVEL_Ground
  6
ByLayer
 62
256
 48
1
 60
0
370
-1
100
AcDbLine
 10
30
 20
-3030
 30
0
 11
120
 21
-3120
 31
0
 39
0
210
0
220
0
230
1
  0
LINE
  5
14B
330
1B6
100
AcDbEntity
  8
LEVEL_Ground
  6
ByLayer
 62
256
 48
1
 60
0
370
-1
100
AcDbLine
 10
30
 20
-3150
 30
0
 11
120
 21
-3240
 31
0
 39
0
210
0
220
0
230
1
  0
LINE
  5
14C
330
1B6
100
AcDbEntity
  8
LEVEL_Ground
  6
ByLayer
 62
256
 48
1
 60
0
370
-1
100
AcDbLine
 10
30
 20
-3270
 30
0
 11
120
 21
-3360
 31
0
 39
0
210
0
220
0
230
1
  0
LINE
  5
14D
330
1B6
100
AcDbEntity
  8
LEVEL_Ground
  6
ByLayer
 62
256
 48
1
 60
0
370
-1
100
AcDbLine
 10
30
 20
-3390
 30
0
 11
120
 21
-3480
 31
0
 39
0
210
0
220
0
230
1
  0
LINE
  5
14E
330
1B6
100
AcDbEntity
  8
LEVEL_Ground
  6
ByLayer
 62
256
 48
1
 60
0
370
-1
100
AcDbLine
 10
30
 20
-3510
 30
0
 11
120
 21
-3600
 31
0
 39
0
210
0
220
0
230
1
  0
LINE
  5
14F
330
1B6
100
AcDbEntity
  8
LEVEL_Ground
  6
ByLayer
 62
256
 48
1
 60
0
370
-1
100
AcDbLine
 10
30
 20
-3630
 30
0
 11
120
 21
-3720
 31
0
 39
0
210
0
220
0
230
1
  0
LINE
  5
150
330
1B6
100
AcDbEntity
  8
LEVEL_Ground
  6
ByLayer
 62
256
 48
1
 60
0
370
-1
100
AcDbLine
 10
30
 20
-3750
 30
0
 11
120
 21
-3840
 31
0
 39
0
210
0
220
0
230
1
  0
LINE
  5
151
330
1B6
100
AcDbEntity
  8
LEVEL_Ground
  6
ByLayer
 62
256
 48
1
 60
0
370
-1
100
AcDbLine
 10
30
 20
-3870
 30
0
 11
120
 21
-3960
 31
0
 39
0
210
0
220
0
230
1
  0
LINE
  5
152
330
1B6
100
AcDbEntity
  8
LEVEL_Ground
  6
ByLayer
 62
256
 48
1
 60
0
370
-1
100
AcDbLine
 10
30
 20
-3990
 30
0
 11
120
 21
-4080
 31
0
 39
0
210
0
220
0
230
1
  0
LINE
  5
153
330
1B6
100
AcDbEntity
  8
LEVEL_Ground
  6
ByLayer
 62
256
 48
1
 60
0
370
-1
100
AcDbLine
 10
30
 20
-4110
 30
0
 11
120
 21
-4200
 31
0
 39
0
210
0
220
0
230
1
  0
LINE
  5
154
330
1B6
100
AcDbEntity
  8
LEVEL_Ground
  6
ByLayer
 62
256
 48
1
 60
0
370
-1
100
AcDbLine
 10
30
 20
-4230
 30
0
 11
120
 21
-4320
 31
0
 39
0
210
0
220
0
230
1
  0
LINE
  5
155
330
1B6
100
AcDbEntity
  8
LEVEL_Ground
  6
ByLayer
 62
256
 48
1
 60
0
370
-1
100
AcDbLine
 10
30
 20
-4350
 30
0
 11
120
 21
-4440
 31
0
 39
0
210
0
220
0
230
1
  0
LINE
  5
156
330
1B6
100
AcDbEntity
  8
LEVEL_Ground
  6
ByLayer
 62
256
 48
1
 60
0
370
-1
100
AcDbLine
 10
30
 20
-4470
 30
0
 11
120
 21
-4560
 31
0
 39
0
210
0
220
0
230
1
  0
LINE
  5
157
330
1B6
100
AcDbEntity
  8
LEVEL_Ground
  6
ByLayer
 62
256
 48
1
 60
0
370
-1
100
AcDbLine
 10
30
 20
-4590
 30
0
 11
120
 21
-4680
 31
0
 39
0
210
0
220
0
230
1
  0
LINE
  5
158
330
1B6
100
AcDbEntity
  8
LEVEL_Ground
  6
ByLayer
 62
256
 48
1
 60
0
370
-1
100
AcDbLine
 10
30
 20
-4710
 30
0
 11
120
 21
-4800
 31
0
 39
0
210
0
220
0
230
1
  0
LINE
  5
159
330
1B6
100
AcDbEntity
  8
LEVEL_Ground
  6
ByLayer
 62
256
 48
1
 60
0
370
-1
100
AcDbLine
 10
30
 20
-4830
 30
0
 11
120
 21
-4920
 31
0
 39
0
210
0
220
0
230
1
  0
LINE
  5
15A
330
1B6
100
AcDbEntity
  8
LEVEL_Ground
  6
ByLayer
 62
256
 48
1
 60
0
370
-1
100
AcDbLine
 10
30
 20
-4950
 30
0
 11
120
 21
-5040
 31
0
 39
0
210
0
220
0
230
1
  0
LINE
  5
15B
330
1B6
100
AcDbEntity
  8
LEVEL_Ground
  6
ByLayer
 62
256
 48
1
 60
0
370
-1
100
AcDbLine
 10
30
 20
-5070
 30
0
 11
120
 21
-5160
 31
0
 39
0
210
0
220
0
230
1
  0
LINE
  5
15C
330
1B6
100
AcDbEntity
  8
LEVEL_Ground
  6
ByLayer
 62
256
 48
1
 60
0
370
-1
100
AcDbLine
 10
30
 20
-5190
 30
0
 11
120
 21
-5280
 31
0
 39
0
210
0
220
0
230
1
  0
LINE
  5
15D
330
1B6
100
AcDbEntity
  8
LEVEL_Ground
  6
ByLayer
 62
256
 48
1
 60
0
370
-1
100
AcDbLine
 10
30
 20
-5310
 30
0
 11
120
 21
-5400
 31
0
 39
0
210
0
220
0
230
1
  0
LINE
  5
15E
330
1B6
100
AcDbEntity
  8
LEVEL_Ground
  6
ByLayer
 62
256
 48
1
 60
0
370
-1
100
AcDbLine
 10
30
 20
-5430
 30
0
 11
120
 21
-5520
 31
0
 39
0
210
0
220
0
230
1
  0
LINE
  5
15F
330
1B6
100
AcDbEntity
  8
LEVEL_Ground
  6
ByLayer
 62
256
 48
1
 60
0
370
-1
100
AcDbLine
 10
30
 20
-5550
 30
0
 11
120
 21
-5640
 31
0
 39
0
210
0
220
0
230
1
  0
LINE
  5
160
330
1B6
100
AcDbEntity
  8
LEVEL_Ground
  6
ByLayer
 62
256
 48
1
 60
0
370
-1
100
AcDbLine
 10
30
 20
-5670
 30
0
 11
120
 21
-5760
 31
0
 39
0
210
0
220
0
230
1
  0
LINE
  5
161
330
1B6
100
AcDbEntity
  8
LEVEL_Ground
  6
ByLayer
 62
256
 48
1
 60
0
370
-1
100
AcDbLine
 10
30
 20
-5790
 30
0
 11
120
 21
-5880
 31
0
 39
0
210
0
220
0
230
1
  0
LINE
  5
162
330
1B6
100
AcDbEntity
  8
LEVEL_Ground
  6
ByLayer
 62
256
 48
1
 60
0
370
-1
100
AcDbLine
 10
30
 20
-5910
 30
0
 11
60
 21
-5940
 31
0
 39
0
210
0
220
0
230
1
  0
LWPOLYLINE
  5
163
330
1B6
100
AcDbEntity
  8
LEVEL_Ground
  6
ByLayer
 62
256
 48
1
 60
0
370
-1
100
AcDbPolyline
 90
4
 70
1
 38
0
 39
0
 10
120
 20
-5880
 40
0
 41
0
 42
0
 10
120
 20
-120
 40
0
 41
0
 42
0
 10
130
 20
-130
 40
0
 41
0
 42
0
 10
130
 20
-5870
 40
0
 41
0
 42
0
210
0
220
0
230
1
  0
LWPOLYLINE
  5
164
330
1B6
100
AcDbEntity
  8
LEVEL_Ground
  6
ByLayer
 62
256
 48
1
 60
0
370
-1
100
AcDbPolyline
 90
4
 70
1
 38
0
 39
0
 10
5955
 20
0
 40
0
 41
0
 42
0
 10
6045
 20
0
 40
0
 41
0
 42
0
 10
6045
 20
-2565
 40
0
 41
0
 42
0
 10
5955
 20
-2565
 40
0
 41
0
 42
0
210
0
220
0
230
1
  0
LWPOLYLINE
  5
165
330
1B6
100
AcDbEntity
  8
LEVEL_Ground
  6
ByLayer
 62
256
 48
1
 60
0
370
-1
100
AcDbPolyline
 90
4
 70
1
 38
0
 39
0
 10
5955
 20
-3435
 40
0
 41
0
 42
0
 10
6045
 20
-3435
 40
0
 41
0
 42
0
 10
6045
 20
-6000
 40
0
 41
0
 42
0
 10
5955
 20
-6000
 40
0
 41
0
 42
0
210
0
220
0
230
1
  0
LINE
  5
166
330
1B6
100
AcDbEntity
  8
LEVEL_Ground
  6
ByLayer
 62
256
 48
1
 60
0
370
-1
100
AcDbLine
 10
5400
 20
-6130
 30
0
 11
5400
 21
-5870
 31
0
 39
0
210
0
220
0
230
1
  0
LINE
  5
167
330
1B6
100
AcDbEntity
  8
LEVEL_Ground
  6
ByLayer
 62
256
 48
1
 60
0
370
-1
100
AcDbLine
 10
3600
 20
-6130
 30
0
 11
3600
 21
-5870
 31
0
 39
0
210
0
220
0
230
1
  0
LINE
  5
168
330
1B6
100
AcDbEntity
  8
LEVEL_Ground
  6
ByLayer
 62
256
 48
1
 60
0
370
-1
100
AcDbLine
 10
5400
 20
-6000
 30
0
 11
5400
 21
-4200
 31
0
 39
0
210
0
220
0
230
1
  0
ARC
  5
169
330
1B6
100
AcDbEntity
  8
LEVEL_Ground
  6
ByLayer
 62
256
 48
1
 60
0
370
-1
100
AcDbCircle
 10
5400
 20
-6000
 30
0
 39
0
 40
1800
210
0
220
0
230
1
100
AcDbArc
 50
90
 51
180
  0
TEXT
  5
16A
330
1B6
100
AcDbEntity
  8
LEVEL_Ground
  6
ByLayer
 62
256
 48
1
 60
0
370
-1
100
AcDbText
  1
D01
 10
4500
 20
-5660
 30
0
 40
130
  7
Standard
 11
0
 21
0
 31
0
210
0
220
0
230
1
100
AcDbText
  0
LINE
  5
16B
330
1B6
100
AcDbEntity
  8
LEVEL_Ground
  6
ByLayer
 62
256
 48
1
 60
0
370
-1
100
AcDbLine
 10
1800
 20
130
 30
0
 11
1800
 21
-130
 31
0
 39
0
210
0
220
0
230
1
  0
LINE
  5
16C
330
1B6
100
AcDbEntity
  8
LEVEL_Ground
  6
ByLayer
 62
256
 48
1
 60
0
370
-1
100
AcDbLine
 10
4200
 20
130
 30
0
 11
4200
 21
-130
 31
0
 39
0
210
0
220
0
230
1
  0
LINE
  5
16D
330
1B6
100
AcDbEntity
  8
LEVEL_Ground
  6
ByLayer
 62
256
 48
1
 60
0
370
-1
100
AcDbLine
 10
1800
 20
130
 30
0
 11
4200
 21
130
 31
0
 39
0
210
0
220
0
230
1
  0
LINE
  5
16E
330
1B6
100
AcDbEntity
  8
LEVEL_Ground
  6
ByLayer
 62
256
 48
1
 60
0
370
-1
100
AcDbLine
 10
1800
 20
0
 30
0
 11
4200
 21
0
 31
0
 39
0
210
0
220
0
230
1
  0
LINE
  5
16F
330
1B6
100
AcDbEntity
  8
LEVEL_Ground
  6
ByLayer
 62
256
 48
1
 60
0
370
-1
100
AcDbLine
 10
1800
 20
-130
 30
0
 11
4200
 21
-130
 31
0
 39
0
210
0
220
0
230
1
  0
TEXT
  5
170
330
1B6
100
AcDbEntity
  8
LEVEL_Ground
  6
ByLayer
 62
256
 48
1
 60
0
370
-1
100
AcDbText
  1
W01
 10
3000
 20
-340
 30
0
 40
130
  7
Standard
 11
0
 21
0
 31
0
210
0
220
0
230
1
100
AcDbText
  0
LINE
  5
171
330
1B6
100
AcDbEntity
  8
LEVEL_Ground
  6
ByLayer
 62
256
 48
1
 60
0
370
-1
100
AcDbLine
 10
6045
 20
-2565
 30
0
 11
5955
 21
-2565
 31
0
 39
0
210
0
220
0
230
1
  0
LINE
  5
172
330
1B6
100
AcDbEntity
  8
LEVEL_Ground
  6
ByLayer
 62
256
 48
1
 60
0
370
-1
100
AcDbLine
 10
6045
 20
-3435
 30
0
 11
5955
 21
-3435
 31
0
 39
0
210
0
220
0
230
1
  0
LINE
  5
173
330
1B6
100
AcDbEntity
  8
LEVEL_Ground
  6
ByLayer
 62
256
 48
1
 60
0
370
-1
100
AcDbLine
 10
6000
 20
-3435
 30
0
 11
6870
 21
-3435
 31
0
 39
0
210
0
220
0
230
1
  0
ARC
  5
174
330
1B6
100
AcDbEntity
  8
LEVEL_Ground
  6
ByLayer
 62
256
 48
1
 60
0
370
-1
100
AcDbCircle
 10
6000
 20
-3435
 30
0
 39
0
 40
870
210
0
220
0
230
1
100
AcDbArc
 50
0
 51
90
  0
TEXT
  5
175
330
1B6
100
AcDbEntity
  8
LEVEL_Ground
  6
ByLayer
 62
256
 48
1
 60
0
370
-1
100
AcDbText
  1
D02
 10
5745
 20
-3000
 30
0
 40
130
  7
Standard
 11
0
 21
0
 31
0
210
0
220
0
230
1
100
AcDbText
  0
TEXT
  5
176
330
1B6
100
AcDbEntity
  8
LEVEL_Ground
  6
ByLayer
 62
256
 48
1
 60
0
370
-1
100
AcDbText
  1
STUDIO
 10
3000
 20
-3000
 30
0
 40
190
  7
Standard
 11
0
 21
0
 31
0
210
0
220
0
230
1
100
AcDbText
  0
TEXT
  5
177
330
1B6
100
AcDbEntity
  8
LEVEL_Ground
  6
ByLayer
 62
256
 48
1
 60
0
370
-1
100
AcDbText
  1
33.44 m² | P 23.13 m
 10
3000
 20
-3210
 30
0
 40
125
  7
Standard
 11
0
 21
0
 31
0
210
0
220
0
230
1
100
AcDbText
  0
TEXT
  5
178
330
1B6
100
AcDbEntity
  8
LEVEL_Ground
  6
ByLayer
 62
256
 48
1
 60
0
370
-1
100
AcDbText
  1
CL 2.700 m
 10
3000
 20
-3390
 30
0
 40
115
  7
Standard
 11
0
 21
0
 31
0
210
0
220
0
230
1
100
AcDbText
  0
TEXT
  5
179
330
1B6
100
AcDbEntity
  8
LEVEL_Ground
  6
ByLayer
 62
256
 48
1
 60
0
370
-1
100
AcDbText
  1
WORKSHOP
 10
7500
 20
-3000
 30
0
 40
190
  7
Standard
 11
0
 21
0
 31
0
210
0
220
0
230
1
100
AcDbText
  0
TEXT
  5
17A
330
1B6
100
AcDbEntity
  8
LEVEL_Ground
  6
ByLayer
 62
256
 48
1
 60
0
370
-1
100
AcDbText
  1
16.22 m² | P 17.13 m
 10
7500
 20
-3210
 30
0
 40
125
  7
Standard
 11
0
 21
0
 31
0
210
0
220
0
230
1
100
AcDbText
  0
TEXT
  5
17B
330
1B6
100
AcDbEntity
  8
LEVEL_Ground
  6
ByLayer
 62
256
 48
1
 60
0
370
-1
100
AcDbText
  1
CL 2.700 m
 10
7500
 20
-3390
 30
0
 40
115
  7
Standard
 11
0
 21
0
 31
0
210
0
220
0
230
1
100
AcDbText
  0
LINE
  5
17C
330
1B6
100
AcDbEntity
  8
LEVEL_Ground
  6
ByLayer
 62
256
 48
1
 60
0
370
-1
100
AcDbLine
 10
0
 20
0
 30
0
 11
0
 21
550
 31
0
 39
0
210
0
220
0
230
1
  0
LINE
  5
17D
330
1B6
100
AcDbEntity
  8
LEVEL_Ground
  6
ByLayer
 62
256
 48
1
 60
0
370
-1
100
AcDbLine
 10
9000
 20
0
 30
0
 11
9000
 21
550
 31
0
 39
0
210
0
220
0
230
1
  0
LINE
  5
17E
330
1B6
100
AcDbEntity
  8
LEVEL_Ground
  6
ByLayer
 62
256
 48
1
 60
0
370
-1
100
AcDbLine
 10
0
 20
650
 30
0
 11
9000
 21
650
 31
0
 39
0
210
0
220
0
230
1
  0
LINE
  5
17F
330
1B6
100
AcDbEntity
  8
LEVEL_Ground
  6
ByLayer
 62
256
 48
1
 60
0
370
-1
100
AcDbLine
 10
-60
 20
590
 30
0
 11
60
 21
710
 31
0
 39
0
210
0
220
0
230
1
  0
LINE
  5
180
330
1B6
100
AcDbEntity
  8
LEVEL_Ground
  6
ByLayer
 62
256
 48
1
 60
0
370
-1
100
AcDbLine
 10
8940
 20
590
 30
0
 11
9060
 21
710
 31
0
 39
0
210
0
220
0
230
1
  0
TEXT
  5
181
330
1B6
100
AcDbEntity
  8
LEVEL_Ground
  6
ByLayer
 62
256
 48
1
 60
0
370
-1
100
AcDbText
  1
9000
 10
4500
 20
500
 30
0
 40
130
  7
Standard
 11
0
 21
0
 31
0
210
0
220
0
230
1
100
AcDbText
  0
LINE
  5
182
330
1B6
100
AcDbEntity
  8
LEVEL_Ground
  6
ByLayer
 62
256
 48
1
 60
0
370
-1
100
AcDbLine
 10
9000
 20
0
 30
0
 11
9550
 21
0
 31
0
 39
0
210
0
220
0
230
1
  0
LINE
  5
183
330
1B6
100
AcDbEntity
  8
LEVEL_Ground
  6
ByLayer
 62
256
 48
1
 60
0
370
-1
100
AcDbLine
 10
9000
 20
-6000
 30
0
 11
9550
 21
-6000
 31
0
 39
0
210
0
220
0
230
1
  0
LINE
  5
184
330
1B6
100
AcDbEntity
  8
LEVEL_Ground
  6
ByLayer
 62
256
 48
1
 60
0
370
-1
100
AcDbLine
 10
9650
 20
0
 30
0
 11
9650
 21
-6000
 31
0
 39
0
210
0
220
0
230
1
  0
LINE
  5
185
330
1B6
100
AcDbEntity
  8
LEVEL_Ground
  6
ByLayer
 62
256
 48
1
 60
0
370
-1
100
AcDbLine
 10
9590
 20
-60
 30
0
 11
9710
 21
60
 31
0
 39
0
210
0
220
0
230
1
  0
LINE
  5
186
330
1B6
100
AcDbEntity
  8
LEVEL_Ground
  6
ByLayer
 62
256
 48
1
 60
0
370
-1
100
AcDbLine
 10
9590
 20
-6060
 30
0
 11
9710
 21
-5940
 31
0
 39
0
210
0
220
0
230
1
  0
TEXT
  5
187
330
1B6
100
AcDbEntity
  8
LEVEL_Ground
  6
ByLayer
 62
256
 48
1
 60
0
370
-1
100
AcDbText
  1
6000
 10
9500
 20
-3000
 30
0
 40
130
  7
Standard
 11
0
 21
0
 31
0
210
0
220
0
230
1
100
AcDbText
  0
LINE
  5
188
330
1B6
100
AcDbEntity
  8
LEVEL_Ground
  6
ByLayer
 62
256
 48
1
 60
0
370
-1
100
AcDbLine
 10
9000
 20
-6000
 30
0
 11
9000
 21
-6550
 31
0
 39
0
210
0
220
0
230
1
  0
LINE
  5
189
330
1B6
100
AcDbEntity
  8
LEVEL_Ground
  6
ByLayer
 62
256
 48
1
 60
0
370
-1
100
AcDbLine
 10
0
 20
-6000
 30
0
 11
0
 21
-6550
 31
0
 39
0
210
0
220
0
230
1
  0
LINE
  5
18A
330
1B6
100
AcDbEntity
  8
LEVEL_Ground
  6
ByLayer
 62
256
 48
1
 60
0
370
-1
100
AcDbLine
 10
9000
 20
-6650
 30
0
 11
0
 21
-6650
 31
0
 39
0
210
0
220
0
230
1
  0
LINE
  5
18B
330
1B6
100
AcDbEntity
  8
LEVEL_Ground
  6
ByLayer
 62
256
 48
1
 60
0
370
-1
100
AcDbLine
 10
8940
 20
-6710
 30
0
 11
9060
 21
-6590
 31
0
 39
0
210
0
220
0
230
1
  0
LINE
  5
18C
330
1B6
100
AcDbEntity
  8
LEVEL_Ground
  6
ByLayer
 62
256
 48
1
 60
0
370
-1
100
AcDbLine
 10
-60
 20
-6710
 30
0
 11
60
 21
-6590
 31
0
 39
0
210
0
220
0
230
1
  0
TEXT
  5
18D
330
1B6
100
AcDbEntity
  8
LEVEL_Ground
  6
ByLayer
 62
256
 48
1
 60
0
370
-1
100
AcDbText
  1
9000
 10
4500
 20
-6500
 30
0
 40
130
  7
Standard
 11
0
 21
0
 31
0
210
0
220
0
230
1
100
AcDbText
  0
LINE
  5
18E
330
1B6
100
AcDbEntity
  8
LEVEL_Ground
  6
ByLayer
 62
256
 48
1
 60
0
370
-1
100
AcDbLine
 10
0
 20
-6000
 30
0
 11
-550
 21
-6000
 31
0
 39
0
210
0
220
0
230
1
  0
LINE
  5
18F
330
1B6
100
AcDbEntity
  8
LEVEL_Ground
  6
ByLayer
 62
256
 48
1
 60
0
370
-1
100
AcDbLine
 10
0
 20
0
 30
0
 11
-550
 21
0
 31
0
 39
0
210
0
220
0
230
1
  0
LINE
  5
190
330
1B6
100
AcDbEntity
  8
LEVEL_Ground
  6
ByLayer
 62
256
 48
1
 60
0
370
-1
100
AcDbLine
 10
-650
 20
-6000
 30
0
 11
-650
 21
0
 31
0
 39
0
210
0
220
0
230
1
  0
LINE
  5
191
330
1B6
100
AcDbEntity
  8
LEVEL_Ground
  6
ByLayer
 62
256
 48
1
 60
0
370
-1
100
AcDbLine
 10
-710
 20
-6060
 30
0
 11
-590
 21
-5940
 31
0
 39
0
210
0
220
0
230
1
  0
LINE
  5
192
330
1B6
100
AcDbEntity
  8
LEVEL_Ground
  6
ByLayer
 62
256
 48
1
 60
0
370
-1
100
AcDbLine
 10
-710
 20
-60
 30
0
 11
-590
 21
60
 31
0
 39
0
210
0
220
0
230
1
  0
TEXT
  5
193
330
1B6
100
AcDbEntity
  8
LEVEL_Ground
  6
ByLayer
 62
256
 48
1
 60
0
370
-1
100
AcDbText
  1
6000
 10
-500
 20
-3000
 30
0
 40
130
  7
Standard
 11
0
 21
0
 31
0
210
0
220
0
230
1
100
AcDbText
  0
LINE
  5
194
330
1B6
100
AcDbEntity
  8
LEVEL_Ground
  6
ByLayer
 62
256
 48
1
 60
0
370
-1
100
AcDbLine
 10
-2000
 20
-500
 30
0
 11
15000
 21
-500
 31
0
 39
0
210
0
220
0
230
1
  0
CIRCLE
  5
195
330
1B6
100
AcDbEntity
  8
LEVEL_Ground
  6
ByLayer
 62
256
 48
1
 60
0
370
-1
100
AcDbCircle
 10
13000
 20
-3000
 30
0
 39
0
 40
1234.5
210
0
220
0
230
1
  0
ARC
  5
196
330
1B6
100
AcDbEntity
  8
LEVEL_Ground
  6
ByLayer
 62
256
 48
1
 60
0
370
-1
100
AcDbCircle
 10
13000
 20
-3000
 30
0
 39
0
 40
2222
210
0
220
0
230
1
100
AcDbArc
 50
202.4366063390236
 51
345.67605512172941
  0
LINE
  5
197
330
1B6
100
AcDbEntity
  8
LEVEL_Ground
  6
ByLayer
 62
256
 48
1
 60
0
370
-1
100
AcDbLine
 10
0
 20
1000
 30
0
 11
0
 21
-7789.25
 31
0
 39
0
210
0
220
0
230
1
  0
CIRCLE
  5
198
330
1B6
100
AcDbEntity
  8
LEVEL_Ground
  6
ByLayer
 62
256
 48
1
 60
0
370
-1
100
AcDbCircle
 10
0
 20
1000
 30
0
 39
0
 40
160
210
0
220
0
230
1
  0
TEXT
  5
199
330
1B6
100
AcDbEntity
  8
LEVEL_Ground
  6
ByLayer
 62
256
 48
1
 60
0
370
-1
100
AcDbText
  1
A
 10
0
 20
955
 30
0
 40
140
  7
Standard
 11
0
 21
0
 31
0
210
0
220
0
230
1
100
AcDbText
  0
LINE
  5
19A
330
1B6
100
AcDbEntity
  8
LEVEL_Ground
  6
ByLayer
 62
256
 48
1
 60
0
370
-1
100
AcDbLine
 10
9000
 20
1000
 30
0
 11
9000
 21
-7789.25
 31
0
 39
0
210
0
220
0
230
1
  0
CIRCLE
  5
19B
330
1B6
100
AcDbEntity
  8
LEVEL_Ground
  6
ByLayer
 62
256
 48
1
 60
0
370
-1
100
AcDbCircle
 10
9000
 20
1000
 30
0
 39
0
 40
160
210
0
220
0
230
1
  0
TEXT
  5
19C
330
1B6
100
AcDbEntity
  8
LEVEL_Ground
  6
ByLayer
 62
256
 48
1
 60
0
370
-1
100
AcDbText
  1
B
 10
9000
 20
955
 30
0
 40
140
  7
Standard
 11
0
 21
0
 31
0
210
0
220
0
230
1
100
AcDbText
  0
LINE
  5
19D
330
1B6
100
AcDbEntity
  8
LEVEL_Ground
  6
ByLayer
 62
256
 48
1
 60
0
370
-1
100
AcDbLine
 10
-3000
 20
0
 30
0
 11
16222
 21
0
 31
0
 39
0
210
0
220
0
230
1
  0
CIRCLE
  5
19E
330
1B6
100
AcDbEntity
  8
LEVEL_Ground
  6
ByLayer
 62
256
 48
1
 60
0
370
-1
100
AcDbCircle
 10
-3000
 20
0
 30
0
 39
0
 40
160
210
0
220
0
230
1
  0
TEXT
  5
19F
330
1B6
100
AcDbEntity
  8
LEVEL_Ground
  6
ByLayer
 62
256
 48
1
 60
0
370
-1
100
AcDbText
  1
1
 10
-3000
 20
-45
 30
0
 40
140
  7
Standard
 11
0
 21
0
 31
0
210
0
220
0
230
1
100
AcDbText
  0
LINE
  5
1A0
330
1B6
100
AcDbEntity
  8
LEVEL_Ground
  6
ByLayer
 62
256
 48
1
 60
0
370
-1
100
AcDbLine
 10
-3000
 20
-6000
 30
0
 11
16222
 21
-6000
 31
0
 39
0
210
0
220
0
230
1
  0
CIRCLE
  5
1A1
330
1B6
100
AcDbEntity
  8
LEVEL_Ground
  6
ByLayer
 62
256
 48
1
 60
0
370
-1
100
AcDbCircle
 10
-3000
 20
-6000
 30
0
 39
0
 40
160
210
0
220
0
230
1
  0
TEXT
  5
1A2
330
1B6
100
AcDbEntity
  8
LEVEL_Ground
  6
ByLayer
 62
256
 48
1
 60
0
370
-1
100
AcDbText
  1
2
 10
-3000
 20
-6045
 30
0
 40
140
  7
Standard
 11
0
 21
0
 31
0
210
0
220
0
230
1
100
AcDbText
  0
LINE
  5
1A3
330
1B6
100
AcDbEntity
  8
LEVEL_Ground
  6
ByLayer
 62
256
 48
1
 60
0
370
-1
100
AcDbLine
 10
0
 20
-1800
 30
0
 11
9000
 21
-1800
 31
0
 39
0
210
0
220
0
230
1
  0
TEXT
  5
1A4
330
1B6
100
AcDbEntity
  8
LEVEL_Ground
  6
ByLayer
 62
256
 48
1
 60
0
370
-1
100
AcDbText
  1
A
 10
0
 20
-1620
 30
0
 40
170
  7
Standard
 11
0
 21
0
 31
0
210
0
220
0
230
1
100
AcDbText
  0
TEXT
  5
1A5
330
1B6
100
AcDbEntity
  8
LEVEL_Ground
  6
ByLayer
 62
256
 48
1
 60
0
370
-1
100
AcDbText
  1
A
 10
9000
 20
-1620
 30
0
 40
170
  7
Standard
 11
0
 21
0
 31
0
210
0
220
0
230
1
100
AcDbText
  0
LINE
  5
1A6
330
1B6
100
AcDbEntity
  8
LEVEL_Upper_proof
  6
ByLayer
 62
256
 48
1
 60
0
370
-1
100
AcDbLine
 10
1234.5
 20
-6789.25
 30
3200
 11
9999.125
 21
-6789.25
 31
3200
 39
0
210
0
220
0
230
1
  0
LINE
  5
1A7
330
1B6
100
AcDbEntity
  8
LEVEL_Upper_proof
  6
ByLayer
 62
256
 48
1
 60
0
370
-1
100
AcDbLine
 10
0
 20
1000
 30
3200
 11
0
 21
-7789.25
 31
3200
 39
0
210
0
220
0
230
1
  0
CIRCLE
  5
1A8
330
1B6
100
AcDbEntity
  8
LEVEL_Upper_proof
  6
ByLayer
 62
256
 48
1
 60
0
370
-1
100
AcDbCircle
 10
0
 20
1000
 30
3200
 39
0
 40
160
210
0
220
0
230
1
  0
TEXT
  5
1A9
330
1B6
100
AcDbEntity
  8
LEVEL_Upper_proof
  6
ByLayer
 62
256
 48
1
 60
0
370
-1
100
AcDbText
  1
A
 10
0
 20
955
 30
3200
 40
140
  7
Standard
 11
0
 21
0
 31
0
210
0
220
0
230
1
100
AcDbText
  0
LINE
  5
1AA
330
1B6
100
AcDbEntity
  8
LEVEL_Upper_proof
  6
ByLayer
 62
256
 48
1
 60
0
370
-1
100
AcDbLine
 10
9000
 20
1000
 30
3200
 11
9000
 21
-7789.25
 31
3200
 39
0
210
0
220
0
230
1
  0
CIRCLE
  5
1AB
330
1B6
100
AcDbEntity
  8
LEVEL_Upper_proof
  6
ByLayer
 62
256
 48
1
 60
0
370
-1
100
AcDbCircle
 10
9000
 20
1000
 30
3200
 39
0
 40
160
210
0
220
0
230
1
  0
TEXT
  5
1AC
330
1B6
100
AcDbEntity
  8
LEVEL_Upper_proof
  6
ByLayer
 62
256
 48
1
 60
0
370
-1
100
AcDbText
  1
B
 10
9000
 20
955
 30
3200
 40
140
  7
Standard
 11
0
 21
0
 31
0
210
0
220
0
230
1
100
AcDbText
  0
LINE
  5
1AD
330
1B6
100
AcDbEntity
  8
LEVEL_Upper_proof
  6
ByLayer
 62
256
 48
1
 60
0
370
-1
100
AcDbLine
 10
-3000
 20
0
 30
3200
 11
16222
 21
0
 31
3200
 39
0
210
0
220
0
230
1
  0
CIRCLE
  5
1AE
330
1B6
100
AcDbEntity
  8
LEVEL_Upper_proof
  6
ByLayer
 62
256
 48
1
 60
0
370
-1
100
AcDbCircle
 10
-3000
 20
0
 30
3200
 39
0
 40
160
210
0
220
0
230
1
  0
TEXT
  5
1AF
330
1B6
100
AcDbEntity
  8
LEVEL_Upper_proof
  6
ByLayer
 62
256
 48
1
 60
0
370
-1
100
AcDbText
  1
1
 10
-3000
 20
-45
 30
3200
 40
140
  7
Standard
 11
0
 21
0
 31
0
210
0
220
0
230
1
100
AcDbText
  0
LINE
  5
1B0
330
1B6
100
AcDbEntity
  8
LEVEL_Upper_proof
  6
ByLayer
 62
256
 48
1
 60
0
370
-1
100
AcDbLine
 10
-3000
 20
-6000
 30
3200
 11
16222
 21
-6000
 31
3200
 39
0
210
0
220
0
230
1
  0
CIRCLE
  5
1B1
330
1B6
100
AcDbEntity
  8
LEVEL_Upper_proof
  6
ByLayer
 62
256
 48
1
 60
0
370
-1
100
AcDbCircle
 10
-3000
 20
-6000
 30
3200
 39
0
 40
160
210
0
220
0
230
1
  0
TEXT
  5
1B2
330
1B6
100
AcDbEntity
  8
LEVEL_Upper_proof
  6
ByLayer
 62
256
 48
1
 60
0
370
-1
100
AcDbText
  1
2
 10
-3000
 20
-6045
 30
3200
 40
140
  7
Standard
 11
0
 21
0
 31
0
210
0
220
0
230
1
100
AcDbText
  0
LINE
  5
1B3
330
1B6
100
AcDbEntity
  8
LEVEL_Upper_proof
  6
ByLayer
 62
256
 48
1
 60
0
370
-1
100
AcDbLine
 10
0
 20
-1800
 30
3200
 11
9000
 21
-1800
 31
3200
 39
0
210
0
220
0
230
1
  0
TEXT
  5
1B4
330
1B6
100
AcDbEntity
  8
LEVEL_Upper_proof
  6
ByLayer
 62
256
 48
1
 60
0
370
-1
100
AcDbText
  1
A
 10
0
 20
-1620
 30
3200
 40
170
  7
Standard
 11
0
 21
0
 31
0
210
0
220
0
230
1
100
AcDbText
  0
TEXT
  5
1B5
330
1B6
100
AcDbEntity
  8
LEVEL_Upper_proof
  6
ByLayer
 62
256
 48
1
 60
0
370
-1
100
AcDbText
  1
A
 10
9000
 20
-1620
 30
3200
 40
170
  7
Standard
 11
0
 21
0
 31
0
210
0
220
0
230
1
100
AcDbText
  0
VIEWPORT
  5
1F7
330
1F4
100
AcDbEntity
  8
0
  6
ByLayer
 62
256
 48
1
 60
0
 67
1
370
-1
100
AcDbViewport
 10
148.5
 20
105
 30
0
 40
297
 41
210
 68
1
 69
1
 12
0
 22
0
 13
0
 23
0
 14
0
 24
0
 15
0
 25
0
 16
0
 26
0
 36
1
 17
0
 27
0
 37
0
 42
0
 43
0
 44
0
 45
0
 50
0
 51
0
 72
0
 90
0
110
0
120
0
130
0
111
1
121
0
131
0
112
0
122
1
132
0
  0
ENDSEC
  0
SECTION
  2
OBJECTS
  0
DICTIONARY
  5
1BD
330
0
100
AcDbDictionary
280
0
281
0
  3
ACAD_COLOR
350
1BE
  3
ACAD_GROUP
350
1BF
  3
ACAD_LAYOUT
350
1C0
  3
ACAD_SORTENTS
350
1C2
  3
ACAD_MLEADERSTYLE
350
1C3
  3
ACAD_MLINESTYLE
350
1C4
  3
ACAD_TABLESTYLE
350
1C5
  3
ACAD_PLOTSETTINGS
350
1C6
  3
AcDbVariableDictionary
350
1C7
  3
ACAD_SCALELIST
350
1C8
  3
ACAD_VISUALSTYLE
350
1C9
  3
ACAD_FIELDLIST
350
1CA
  3
ACAD_IMAGE_DICT
350
1CB
  3
ACAD_PDFDEFINITIONS
350
1CC
  0
DICTIONARY
  5
1BE
330
1BD
100
AcDbDictionary
280
0
281
0
  0
DICTIONARY
  5
1BF
330
1BD
100
AcDbDictionary
280
0
281
0
  0
DICTIONARY
  5
1C0
330
1BD
100
AcDbDictionary
280
0
281
0
  3
Layout1
350
1F3
  0
DICTIONARY
  5
1C2
330
1BD
100
AcDbDictionary
280
0
281
0
  0
DICTIONARY
  5
1C3
330
1BD
100
AcDbDictionary
280
0
281
0
  3
Standard
350
1E4
  0
DICTIONARY
  5
1C4
330
1BD
100
AcDbDictionary
280
0
281
0
  3
Standard
350
1E3
  0
DICTIONARY
  5
1C5
330
1BD
100
AcDbDictionary
280
0
281
0
  3
Standard
350
1E5
  0
DICTIONARY
  5
1C6
330
1BD
100
AcDbDictionary
280
0
281
0
  0
DICTIONARY
  5
1C7
330
1BD
100
AcDbDictionary
280
0
281
0
  3
CMLEADERSTYLE
350
1E6
  3
CANNOSCALE
350
1E7
  3
CTABLESTYLE
350
1E8
  3
WIPEOUTFRAME
350
1E9
  3
CVIEWDETAILSTYLE
350
1EA
  3
CVIEWSECTIONSTYLE
350
1EB
  0
DICTIONARY
  5
1C8
330
1BD
100
AcDbDictionary
280
0
281
0
  3
1:1
350
1D2
  3
1:2
350
1D3
  3
1:4
350
1D4
  3
1:5
350
1D5
  3
1:8
350
1D6
  3
1:10
350
1D7
  3
1:16
350
1D8
  3
1:20
350
1D9
  3
1:30
350
1DA
  3
1:40
350
1DB
  3
1:50
350
1DC
  3
1:100
350
1DD
  3
2:1
350
1DE
  3
4:1
350
1DF
  3
8:1
350
1E0
  3
10:1
350
1E1
  3
100:1
350
1E2
  0
DICTIONARY
  5
1C9
330
1BD
100
AcDbDictionary
280
0
281
0
  0
DICTIONARY
  5
1CA
330
1BD
100
AcDbDictionary
280
0
281
0
  0
DICTIONARY
  5
1CB
330
1BD
100
AcDbDictionary
280
0
281
0
  0
DICTIONARY
  5
1CC
330
1BD
100
AcDbDictionary
280
0
281
0
  0
LAYOUT
  5
1F3
330
1C0
100
AcDbPlotSettings
  1
none_device
  2

  4
ISO_A4_(210.00_x_297.00_MM)
  7

 40
0
 41
0
 42
0
 43
0
 44
297
 45
210
 46
0
 47
0
 48
0
 49
0
140
0
141
0
142
1
143
1
 70
688
 72
1
 73
0
 74
1
 75
0
 76
0
 77
0
 78
300
147
1
148
0
149
0
100
AcDbLayout
  1
Layout1
 71
1
 10
-20
 20
-7.5
 11
-20
 21
-7.5
 12
0
 22
0
 32
0
 13
0
 23
0
 33
0
 14
25.7
 24
19.5
 34
0
 15
231.3
 25
175.5
 35
0
 16
1
 26
0
 36
0
 17
0
 27
1
 37
0
146
0
 76
0
330
1F4
  0
MLEADERSTYLE
  5
1E4
330
1C3
100
AcDbMLeaderStyle
179
2
170
2
171
0
172
0
 90
2
 40
0
 41
0
173
0
 91
-1056964608
340
1B9
 92
-2
290
1
 42
0.09
291
1
 43
0.36
  3

 44
0.18
300

342
1CF
174
0
178
0
175
1
176
0
 93
-1056964608
 45
0.18
292
0
297
0
 46
0
 94
-1056964608
 47
1
 49
1
140
1
293
0
141
0
294
0
177
0
142
1
295
0
296
0
143
0.125
271
0
272
0
273
0
298
0
  0
MLINESTYLE
  5
1E3
330
1C4
100
AcDbMlineStyle
  2
Standard
 70
0
  3

 62
256
 51
90
 52
90
 71
2
 49
0.5
 62
256
  6
CONTINUOUS
 49
-0.5
 62
256
  6
CONTINUOUS
  0
TABLESTYLE
  5
1E5
330
1C5
100
AcDbTableStyle
  3

 70
0
 71
0
 40
0.06
 41
0.06
280
0
281
0
  7
Standard
140
0
170
0
 62
0
 63
0
283
0
 90
0
 91
0
274
-2
284
1
 64
0
275
-2
285
1
 65
0
276
-2
286
1
 66
0
277
-2
287
1
 67
0
278
-2
288
1
 68
0
279
-2
289
1
 69
0
  7
Standard
140
0
170
0
 62
0
 63
0
283
0
 90
0
 91
0
274
-2
284
1
 64
0
275
-2
285
1
 65
0
276
-2
286
1
 66
0
277
-2
287
1
 67
0
278
-2
288
1
 68
0
279
-2
289
1
 69
0
  7
Standard
140
0
170
0
 62
0
 63
0
283
0
 90
0
 91
0
274
-2
284
1
 64
0
275
-2
285
1
 65
0
276
-2
286
1
 66
0
277
-2
287
1
 67
0
278
-2
288
1
 68
0
279
-2
289
1
 69
0
  0
DICTIONARYVAR
  5
1E6
330
1C7
100
DictionaryVariables
  1
Standard
280
0
  0
DICTIONARYVAR
  5
1E7
330
1C7
100
DictionaryVariables
  1
1:1
280
0
  0
DICTIONARYVAR
  5
1E8
330
1C7
100
DictionaryVariables
  1
Standard
280
0
  0
DICTIONARYVAR
  5
1E9
330
1C7
100
DictionaryVariables
  1
1
280
0
  0
DICTIONARYVAR
  5
1EA
330
1C7
100
DictionaryVariables
  1
Metric50
280
0
  0
DICTIONARYVAR
  5
1EB
330
1C7
100
DictionaryVariables
  1
Metric50
280
0
  0
SCALE
  5
1D2
330
1C8
100
AcDbScale
 70
0
300
1:1
140
1
141
1
290
1
  0
SCALE
  5
1D3
330
1C8
100
AcDbScale
 70
0
300
1:2
140
1
141
2
290
0
  0
SCALE
  5
1D4
330
1C8
100
AcDbScale
 70
0
300
1:4
140
1
141
4
290
0
  0
SCALE
  5
1D5
330
1C8
100
AcDbScale
 70
0
300
1:5
140
1
141
5
290
0
  0
SCALE
  5
1D6
330
1C8
100
AcDbScale
 70
0
300
1:8
140
1
141
8
290
0
  0
SCALE
  5
1D7
330
1C8
100
AcDbScale
 70
0
300
1:10
140
1
141
10
290
0
  0
SCALE
  5
1D8
330
1C8
100
AcDbScale
 70
0
300
1:16
140
1
141
16
290
0
  0
SCALE
  5
1D9
330
1C8
100
AcDbScale
 70
0
300
1:20
140
1
141
20
290
0
  0
SCALE
  5
1DA
330
1C8
100
AcDbScale
 70
0
300
1:30
140
1
141
30
290
0
  0
SCALE
  5
1DB
330
1C8
100
AcDbScale
 70
0
300
1:40
140
1
141
40
290
0
  0
SCALE
  5
1DC
330
1C8
100
AcDbScale
 70
0
300
1:50
140
1
141
50
290
0
  0
SCALE
  5
1DD
330
1C8
100
AcDbScale
 70
0
300
1:100
140
1
141
100
290
0
  0
SCALE
  5
1DE
330
1C8
100
AcDbScale
 70
0
300
2:1
140
2
141
1
290
0
  0
SCALE
  5
1DF
330
1C8
100
AcDbScale
 70
0
300
4:1
140
4
141
1
290
0
  0
SCALE
  5
1E0
330
1C8
100
AcDbScale
 70
0
300
8:1
140
8
141
1
290
0
  0
SCALE
  5
1E1
330
1C8
100
AcDbScale
 70
0
300
10:1
140
10
141
1
290
0
  0
SCALE
  5
1E2
330
1C8
100
AcDbScale
 70
0
300
100:1
140
100
141
1
290
0
  0
ENDSEC
  0
EOF
