999
LibreDWG 0.14
  0
SECTION
  2
HEADER
  9
$ACADVER
  1
AC1027
  9
$ACADMAINTVER
 70
   125
  9
$DWGCODEPAGE
  3
ANSI_1252
  9
$REQUIREDVERSIONS
160
           0
  9
$INSBASE
 10
0.0
 20
0.0
 30
0.0
  9
$EXTMIN
 10
0.0
 20
0.0
 30
0.0
  9
$EXTMAX
 10
0.0
 20
0.0
 30
0.0
  9
$LIMMIN
 10
0.0
 20
0.0
  9
$LIMMAX
 10
0.0
 20
0.0
  9
$ORTHOMODE
 70
     0
  9
$REGENMODE
 70
     1
  9
$FILLMODE
 70
     1
  9
$QTEXTMODE
 70
     0
  9
$MIRRTEXT
 70
     0
  9
$LTSCALE
 40
1.0
  9
$ATTMODE
 70
     1
  9
$TEXTSIZE
 40
2.5
  9
$TRACEWID
 40
0.0
  9
$TEXTSTYLE
  7
Standard
  9
$CLAYER
  8
0
  9
$CELTYPE
  6
ByLayer
  9
$CECOLOR
 62
     0
  9
$CELTSCALE
 40
1.0
  9
$DISPSILH
 70
     0
  9
$DIMSCALE
 40
1.0
  9
$DIMASZ
 40
0.18
  9
$DIMEXO
 40
0.625
  9
$DIMDLI
 40
3.75
  9
$DIMRND
 40
0.0
  9
$DIMDLE
 40
0.0
  9
$DIMEXE
 40
1.25
  9
$DIMTP
 40
0.0
  9
$DIMTM
 40
0.0
  9
$DIMTXT
 40
0.18
  9
$DIMCEN
 40
0.09
  9
$DIMTSZ
 40
0.0
  9
$DIMTOL
 70
     0
  9
$DIMLIM
 70
     0
  9
$DIMTIH
 70
     0
  9
$DIMTOH
 70
     0
  9
$DIMSE1
 70
     0
  9
$DIMSE2
 70
     0
  9
$DIMTAD
 70
     1
  9
$DIMZIN
 70
     8
  9
$DIMBLK
  1

  9
$DIMASO
 70
     1
  9
$DIMSHO
 70
     1
  9
$DIMPOST
  1
<>
  9
$DIMAPOST
  1
[]
  9
$DIMALT
 70
     0
  9
$DIMALTD
 70
     3
  9
$DIMALTF
 40
25.4
  9
$DIMLFAC
 40
1.0
  9
$DIMTOFL
 70
     0
  9
$DIMTVP
 40
0.0
  9
$DIMTIX
 70
     0
  9
$DIMSOXD
 70
     0
  9
$DIMSAH
 70
     0
  9
$DIMBLK1
  1

  9
$DIMBLK2
  1

  9
$DIMSTYLE
  2
Standard
  9
$DIMCLRD
 70
     0
  9
$DIMCLRE
 70
     0
  9
$DIMCLRT
 70
     0
  9
$DIMTFAC
 40
1.0
  9
$DIMGAP
 40
0.625
  9
$DIMJUST
 70
     0
  9
$DIMSD1
 70
     0
  9
$DIMSD2
 70
     0
  9
$DIMTOLJ
 70
     0
  9
$DIMTZIN
 70
     8
  9
$DIMALTZ
 70
     0
  9
$DIMALTTZ
 70
     0
  9
$DIMUPT
 70
     0
  9
$DIMDEC
 70
     2
  9
$DIMTDEC
 70
     2
  9
$DIMALTU
 70
     2
  9
$DIMALTTD
 70
     3
  9
$DIMTXSTY
  7
Standard
  9
$DIMAUNIT
 70
     0
  9
$DIMADEC
 70
     0
  9
$DIMALTRND
 40
0.0
  9
$DIMAZIN
 70
     0
  9
$DIMDSEP
 70
    46
  9
$DIMATFIT
 70
     3
  9
$DIMFRAC
 70
     0
  9
$DIMLDRBLK
  1

  9
$DIMLUNIT
 70
     2
  9
$DIMLWD
 70
    -2
  9
$DIMLWE
 70
    -2
  9
$DIMTMOVE
 70
     0
  9
$DIMFXL
 40
1.0
  9
$DIMFXLON
 70
     0
  9
$DIMJOGANG
 40
0.7853981633974483
  9
$DIMTFILL
 70
     0
  9
$DIMTFILLCLR
 70
     0
  9
$DIMARCSYM
 70
     0
  9
$DIMLTYPE
  6

  9
$DIMLTEX1
  6

  9
$DIMLTEX2
  6

  9
$DIMTXTDIRECTION
 70
     0
  9
$LUNITS
 70
     2
  9
$LUPREC
 70
     4
  9
$AXISMODE
 70
     0
  9
$AXISUNIT
 10
0.0
 20
0.0
  9
$SKETCHINC
 40
1.0
  9
$FILLETRAD
 40
0.0
  9
$AUNITS
 70
     0
  9
$AUPREC
 70
     0
  9
$MENU
  1
.
  9
$ELEVATION
 40
0.0
  9
$PELEVATION
 40
0.0
  9
$THICKNESS
 40
0.0
  9
$LIMCHECK
 70
     0
  9
$CHAMFERA
 40
0.0
  9
$CHAMFERB
 40
0.0
  9
$CHAMFERC
 40
0.0
  9
$CHAMFERD
 40
0.0
  9
$SKPOLY
 70
     0
  9
$TDCREATE
 40
2461291.440638270
  9
$TDUCREATE
 40
2461291.080638270
  9
$TDUPDATE
 40
2461291.440638270
  9
$TDUUPDATE
 40
2461291.080638270
  9
$TDINDWG
 40
0.000000000
  9
$TDUSRTIMER
 40
0.000000000
  9
$USRTIMER
 70
     1
  9
$ANGBASE
 50
0.0
  9
$ANGDIR
 70
     1
  9
$PDMODE
 70
     0
  9
$PDSIZE
 40
0.0
  9
$PLINEWID
 40
0.0
  9
$SPLFRAME
 70
     0
  9
$SPLINETYPE
 70
     6
  9
$SPLINESEGS
 70
     8
  9
$HANDSEED
  5
1E4
  9
$SURFTAB1
 70
     6
  9
$SURFTAB2
 70
     6
  9
$SURFTYPE
 70
     6
  9
$SURFU
 70
     6
  9
$SURFV
 70
     6
  9
$UCSBASE
  2

  9
$UCSORG
 10
0.0
 20
0.0
 30
0.0
  9
$UCSXDIR
 10
1.0
 20
0.0
 30
0.0
  9
$UCSYDIR
 10
0.0
 20
1.0
 30
0.0
  9
$UCSORTHOREF
  2

  9
$UCSORTHOVIEW
 70
     0
  9
$UCSORGTOP
 10
0.0
 20
0.0
 30
0.0
  9
$UCSORGBOTTOM
 10
0.0
 20
0.0
 30
0.0
  9
$UCSORGLEFT
 10
0.0
 20
0.0
 30
0.0
  9
$UCSORGRIGHT
 10
0.0
 20
0.0
 30
0.0
  9
$UCSORGFRONT
 10
0.0
 20
0.0
 30
0.0
  9
$UCSORGBACK
 10
0.0
 20
0.0
 30
0.0
  9
$PUCSBASE
  2

  9
$PUCSORG
 10
0.0
 20
0.0
 30
0.0
  9
$PUCSXDIR
 10
1.0
 20
0.0
 30
0.0
  9
$PUCSYDIR
 10
0.0
 20
1.0
 30
0.0
  9
$PUCSORTHOREF
  2

  9
$PUCSORTHOVIEW
 70
     0
  9
$PUCSORGTOP
 10
0.0
 20
0.0
 30
0.0
  9
$PUCSORGBOTTOM
 10
0.0
 20
0.0
 30
0.0
  9
$PUCSORGLEFT
 10
0.0
 20
0.0
 30
0.0
  9
$PUCSORGRIGHT
 10
0.0
 20
0.0
 30
0.0
  9
$PUCSORGFRONT
 10
0.0
 20
0.0
 30
0.0
  9
$PUCSORGBACK
 10
0.0
 20
0.0
 30
0.0
  9
$USERI1
 70
     0
  9
$USERI2
 70
     0
  9
$USERI3
 70
     0
  9
$USERI4
 70
     0
  9
$USERI5
 70
     0
  9
$USERR1
 40
0.0
  9
$USERR2
 40
0.0
  9
$USERR3
 40
0.0
  9
$USERR4
 40
0.0
  9
$USERR5
 40
0.0
  9
$WORLDVIEW
 70
     1
  9
$SHADEDGE
 70
     3
  9
$SHADEDIF
 70
    70
  9
$TILEMODE
 70
     1
  9
$MAXACTVP
 70
    64
  9
$PINSBASE
 10
0.0
 20
0.0
 30
0.0
  9
$PLIMCHECK
 70
     0
  9
$PEXTMIN
 10
0.0
 20
0.0
 30
0.0
  9
$PEXTMAX
 10
0.0
 20
0.0
 30
0.0
  9
$PLIMMIN
 10
0.0
 20
0.0
  9
$PLIMMAX
 10
0.0
 20
0.0
  9
$UNITMODE
 70
     0
  9
$VISRETAIN
 70
     1
  9
$PLINEGEN
 70
     0
  9
$PSLTSCALE
 70
     1
  9
$TREEDEPTH
 70
  3020
  9
$CMLSTYLE
  2
S
  9
$CMLJUST
 70
     0
  9
$CMLSCALE
 40
20.0
  9
$PROXYGRAPHICS
 70
     1
  9
$MEASUREMENT
 70
     1
  9
$CELWEIGHT
370
    -3
  9
$ENDCAPS
280
     0
  9
$JOINSTYLE
280
     0
  9
$LWDISPLAY
290
     0
  9
$INSUNITS
 70
     4
  9
$HYPERLINKBASE
  1

  9
$STYLESHEET
  1

  9
$XEDIT
290
     0
  9
$CEPSNTYPE
380
     0
  9
$PSTYLEMODE
290
     0
  9
$FINGERPRINTGUID
  2
9c106341-1e28-4a42-b499-8a649bf0844b
  9
$VERSIONGUID
  2
0385e81e-e4fb-4dc8-83d2-7bdf90f55146
  9
$EXTNAMES
290
     1
  9
$PSVPSCALE
 40
0.0
  9
$OLESTARTUP
290
     0
  9
$SORTENTS
280
     0
  9
$INDEXCTL
280
     0
  9
$HIDETEXT
280
     0
  9
$XCLIPFRAME
280
     2
  9
$HALOGAP
280
     0
  9
$OBSCOLOR
 70
     0
  9
$OBSLTYPE
280
     0
  9
$INTERSECTIONDISPLAY
280
     0
  9
$INTERSECTIONCOLOR
 70
     1
  9
$DIMASSOC
280
     2
  9
$PROJECTNAME
  1

  9
$CAMERADISPLAY
290
     0
  9
$LENSLENGTH
 40
0.0
  9
$CAMERAHEIGHT
 40
0.0
  9
$STEPSPERSEC
 40
2.0
  9
$STEPSIZE
 40
6.0
  9
$3DDWFPREC
 40
0.0
  9
$PSOLWIDTH
 40
0.0
  9
$PSOLHEIGHT
 40
0.0
  9
$LOFTANG1
 40
0.0
  9
$LOFTANG2
 40
0.0
  9
$LOFTMAG1
 40
0.0
  9
$LOFTMAG2
 40
0.0
  9
$LOFTPARAM
 70
     0
  9
$LOFTNORMALS
280
     0
  9
$LATITUDE
 40
37.795
  9
$LONGITUDE
 40
-122.394
  9
$NORTHDIRECTION
 40
0.0
  9
$TIMEZONE
 70
     0
  9
$LIGHTGLYPHDISPLAY
280
     0
  9
$TILEMODELIGHTSYNCH
280
    48
  9
$SOLIDHIST
280
     0
  9
$SHOWHIST
280
     0
  9
$DWFFRAME
280
     0
  9
$DGNFRAME
280
     0
  9
$REALWORLDSCALE
290
     0
  9
$INTERFERECOLOR
 62
   256
  9
$CSHADOW
280
     0
  9
$SHADOWPLANELOCATION
 40
0.0
  0
ENDSEC
  0
SECTION
  2
CLASSES
  0
CLASS
  1
ACDBDICTIONARYWDFLT
  2
AcDbDictionaryWithDefault
  3
ObjectDBX Classes
 90
    32768
 91
        0
280
     0
281
     0
  0
CLASS
  1
DICTIONARYVAR
  2
AcDbDictionaryVar
  3
ObjectDBX Classes
 90
        0
 91
        6
280
     0
281
     0
  0
CLASS
  1
TABLESTYLE
  2
AcDbTableStyle
  3
ObjectDBX Classes
 90
     4095
 91
        1
280
     0
281
     0
  0
CLASS
  1
MATERIAL
  2
AcDbMaterial
  3
ObjectDBX Classes
 90
     1153
 91
        3
280
     0
281
     0
  0
CLASS
  1
VISUALSTYLE
  2
AcDbVisualStyle
  3
ObjectDBX Classes
 90
     4095
 91
        0
280
     0
281
     0
  0
CLASS
  1
SCALE
  2
AcDbScale
  3
ObjectDBX Classes
 90
     1153
 91
       17
280
     0
281
     0
  0
CLASS
  1
MLEADERSTYLE
  2
AcDbMLeaderStyle
  3
ObjectDBX Classes
 90
     4095
 91
        1
280
     0
281
     0
  0
CLASS
  1
CELLSTYLEMAP
  2
AcDbCellStyleMap
  3
ObjectDBX Classes
 90
     1152
 91
        0
280
     0
281
     0
  0
CLASS
  1
EXACXREFPANELOBJECT
  2
ExAcXREFPanelObject
  3
ObjectDBX Classes
 90
     1025
 91
        0
280
     0
281
     0
  0
CLASS
  1
NPOCOLLECTION
  2
AcDbImpNonPersistentObjectsCollection
  3
ObjectDBX Classes
 90
     1153
 91
        0
280
     0
281
     0
  0
CLASS
  1
LAYER_INDEX
  2
AcDbLayerIndex
  3
ObjectDBX Classes
 90
        0
 91
        0
280
     0
281
     0
  0
CLASS
  1
SPATIAL_INDEX
  2
AcDbSpatialIndex
  3
AutoCAD 2000
 90
        0
 91
        0
280
     0
281
     0
  0
CLASS
  1
IDBUFFER
  2
AcDbIdBuffer
  3
ObjectDBX Classes
 90
    32768
 91
        0
280
     0
281
     0
  0
CLASS
  1
ACDBSECTIONVIEWSTYLE
  2
AcDbSectionViewStyle
  3
ObjectDBX Classes
 90
     1025
 91
        0
280
     0
281
     0
  0
CLASS
  1
ACDBDETAILVIEWSTYLE
  2
AcDbDetailViewStyle
  3
ObjectDBX Classes
 90
     1025
 91
        0
280
     0
281
     0
  0
CLASS
  1
MESH
  2
AcDbSubDMesh
  3
ObjectDBX Classes
 90
        0
 91
        0
280
     0
281
     1
  0
CLASS
  1
SORTENTSTABLE
  2
AcDbSortentsTable
  3
ObjectDBX Classes
 90
        0
 91
        0
280
     0
281
     0
  0
CLASS
  1
ACDB_TEXTOBJECTCONTEXTDATA_CLASS
  2
AcDbTextObjectContextData
  3
ObjectDBX Classes
 90
     1153
 91
        0
280
     0
281
     0
  0
CLASS
  1
WIPEOUT
  2
AcDbWipeout
  3
WipeOut
 90
    32895
 91
        0
280
     0
281
     1
  0
CLASS
  1
WIPEOUTVARIABLES
  2
AcDbWipeoutVariables
  3
WipeOut
 90
    32768
 91
        0
280
     0
281
     0
  0
CLASS
  1
DIMASSOC
  2
AcDbDimAssoc
  3
AcDbDimAssoc
 90
        0
 91
        0
280
     0
281
     0
  0
CLASS
  1
ARC_DIMENSION
  2
AcDbArcDimension
  3
ObjectDBX Classes
 90
     1025
 91
        0
280
     0
281
     1
  0
CLASS
  1
ACAD_TABLE
  2
AcDbTable
  3
ObjectDBX Classes
 90
     1025
 91
        0
280
     0
281
     1
  0
CLASS
  1
TABLECONTENT
  2
AcDbTableContent
  3
ObjectDBX Classes
 90
     1152
 91
        0
280
     0
281
     0
  0
CLASS
  1
TABLEGEOMETRY
  2
AcDbTableGeometry
  3
ObjectDBX Classes
 90
     1152
 91
        0
280
     0
281
     0
  0
CLASS
  1
IMAGE
  2
AcDbRasterImage
  3
ISM
 90
    32895
 91
        0
280
     0
281
     1
  0
CLASS
  1
IMAGEDEF
  2
AcDbRasterImageDef
  3
ISM
 90
        0
 91
        0
280
     0
281
     0
  0
CLASS
  1
IMAGEDEF_REACTOR
  2
AcDbRasterImageDefReactor
  3
ISM
 90
        1
 91
        0
280
     0
281
     0
  0
CLASS
  1
DBCOLOR
  2
AcDbColor
  3
ObjectDBX Classes
 90
        0
 91
        0
280
     0
281
     0
  0
CLASS
  1
GEODATA
  2
AcDbGeoData
  3
ObjectDBX Classes
 90
     4095
 91
        0
280
     0
281
     0
  0
CLASS
  1
MULTILEADER
  2
AcDbMLeader
  3
ObjectDBX Classes
 90
     1025
 91
        0
280
     0
281
     0
  0
CLASS
  1
PDFUNDERLAY
  2
AcDbPdfReference
  3
ObjectDBX Classes
 90
     4095
 91
        0
280
     0
281
     1
  0
CLASS
  1
PDFDEFINITION
  2
AcDbPdfDefinition
  3
ObjectDBX Classes
 90
     1153
 91
        0
280
     0
281
     0
  0
CLASS
  1
RASTERVARIABLES
  2
AcDbRasterVariables
  3
ISM
 90
        0
 91
        0
280
     0
281
     0
  0
CLASS
  1
SPATIAL_FILTER
  2
AcDbSpatialFilter
  3
ObjectDBX Classes
 90
        0
 91
        0
280
     0
281
     0
  0
CLASS
  1
ACDB_MLEADEROBJECTCONTEXTDATA_CLASS
  2
AcDbMLeaderObjectContextData
  3
ObjectDBX Classes
 90
     1025
 91
        0
280
     0
281
     0
  0
CLASS
  1
PLOTSETTINGS
  2
AcDbPlotSettings
  3
ObjectDBX Classes
 90
        0
 91
        0
280
     0
281
     0
  0
CLASS
  1
FIELD
  2
AcDbField
  3
ObjectDBX Classes
 90
     1152
 91
        0
280
     0
281
     0
  0
CLASS
  1
FIELDLIST
  2
AcDbFieldList
  3
ObjectDBX Classes
 90
     1152
 91
        0
280
     0
281
     0
  0
CLASS
  1
ACDB_MTEXTATTRIBUTEOBJECTCONTEXTDATA_CLASS
  2
AcDbMTextAttributeObjectContextData
  3
ObjectDBX Classes
 90
     1153
 91
        0
280
     0
281
     0
  0
CLASS
  1
ACDB_BLKREFOBJECTCONTEXTDATA_CLASS
  2
AcDbBlkRefObjectContextData
  3
ObjectDBX Classes
 90
     1153
 91
        0
280
     0
281
     0
  0
ENDSEC
  0
SECTION
  2
TABLES
  0
TABLE
  2
VPORT
  5
1A8
330
0
100
AcDbSymbolTable
 70
     1
  0
VPORT
  5
1DE
330
1A8
100
AcDbSymbolTableRecord
100
AcDbViewportTableRecord
  2
*Active
 70
     0
 10
0.0
 20
0.0
 11
1.0
 21
1.0
 12
0.0
 22
0.0
 13
0.0
 23
0.0
 14
0.5
 24
0.5
 15
10.0
 25
10.0
 16
0.0
 26
0.0
 36
1.0
 17
0.0
 27
0.0
 37
0.0
 40
10.0
 41
1.0
 42
50.0
 43
0.0
 44
0.0
 50
0.0
 51
0.0
 71
     0
 72
  1000
 73
     1
 74
     3
 75
     0
 76
     1
 77
     0
 78
     0
281
     0
 65
     1
110
0.0
120
0.0
130
0.0
111
1.0
121
0.0
131
0.0
112
0.0
122
1.0
132
0.0
 79
     0
146
0.0
 60
     3
 61
     5
292
     1
282
     1
141
0.0
142
0.0
 63
   250
  0
ENDTAB
  0
TABLE
  2
LTYPE
  5
3
330
0
100
AcDbSymbolTable
 70
     1
  0
LTYPE
  5
1DC
330
3
100
AcDbSymbolTableRecord
100
AcDbLinetypeTableRecord
  2
ByBlock
 70
     0
  3

 72
    65
 73
     0
 40
0.0
  0
LTYPE
  5
1A5
330
3
100
AcDbSymbolTableRecord
100
AcDbLinetypeTableRecord
  2
ByLayer
 70
     0
  3

 72
    65
 73
     0
 40
0.0
  0
LTYPE
  5
4
330
3
100
AcDbSymbolTableRecord
100
AcDbLinetypeTableRecord
  2
CONTINUOUS
 70
     0
  3
Solid line
 72
    65
 73
     0
 40
0.0
  0
ENDTAB
  0
TABLE
  2
LAYER
  5
5
330
0
100
AcDbSymbolTable
 70
     2
  0
LAYER
  5
6
330
5
100
AcDbSymbolTableRecord
100
AcDbLayerTableRecord
  2
LEVEL_Ground
 70
     0
 62
     7
  6
CONTINUOUS
370
    -3
390
0
347
0
348
0
  0
LAYER
  5
1A4
330
5
100
AcDbSymbolTableRecord
100
AcDbLayerTableRecord
  2
0
 70
     0
 62
     7
  6
CONTINUOUS
370
    -3
390
0
347
0
348
0
  0
ENDTAB
  0
TABLE
  2
STYLE
  5
2
330
0
100
AcDbSymbolTable
 70
     1
  0
STYLE
  5
1BB
330
2
100
AcDbSymbolTableRecord
100
AcDbTextStyleTableRecord
  2
Standard
 70
     0
 40
0.0
 41
1.0
 50
0.0
 71
     0
 42
0.0
  3

  4

  0
ENDTAB
  0
TABLE
  2
VIEW
  5
8
330
0
100
AcDbSymbolTable
 70
     0
  0
ENDTAB
  0
TABLE
  2
UCS
  5
7
330
0
100
AcDbSymbolTable
 70
     0
  0
ENDTAB
  0
TABLE
  2
APPID
  5
1
330
0
100
AcDbSymbolTable
 70
     1
  0
APPID
  5
1DB
330
1
100
AcDbSymbolTableRecord
100
AcDbRegAppTableRecord
  2
ACAD
 70
     0
  0
ENDTAB
  0
TABLE
  2
DIMSTYLE
  5
1A7
330
0
100
AcDbSymbolTable
 70
     1
100
AcDbDimStyleTable
 71
     0
  0
DIMSTYLE
105
1DD
330
1A7
100
AcDbSymbolTableRecord
100
AcDbDimStyleTableRecord
  2
Standard
 70
     0
  3
<>
  4
[]
 41
0.18
 42
0.625
 43
3.75
 44
1.25
 49
1.0
 50
45.0
 70
     0
 73
     0
 74
     0
 77
     1
 78
     8
140
0.18
141
0.09
143
25.4
144
1.0
146
1.0
147
0.625
171
     3
176
-1023410176
177
-1023410176
178
-1023410176
271
     2
272
     2
273
     2
274
     3
277
     2
278
    46
283
     0
284
     8
289
     3
340
1BB
294
     0
371
    -2
372
    -2
341
0
342
0
343
0
344
0
345
0
346
0
347
0
  0
ENDTAB
  0
TABLE
  2
BLOCK_RECORD
  5
9
330
0
100
AcDbSymbolTable
 70
     0
  0
BLOCK_RECORD
  5
1A2
330
9
100
AcDbSymbolTableRecord
100
AcDbBlockTableRecord
  2
*Model_Space
340
0
310

 70
     0
280
     0
281
     1
  0
BLOCK_RECORD
  5
1E0
330
9
100
AcDbSymbolTableRecord
100
AcDbBlockTableRecord
  2
*Paper_Space
340
1DF
310

 70
     0
280
     0
281
     1
  0
ENDTAB
  0
ENDSEC
  0
SECTION
  2
BLOCKS
  0
BLOCK
  5
1A3
330
1A2
100
AcDbEntity
  8
0
100
AcDbBlockBegin
  2
*Model_Space
 70
     0
 10
0.0
 20
0.0
 30
0.0
  3
*Model_Space
  1

  0
ENDBLK
  5
1A6
330
1A2
100
AcDbEntity
  8
0
100
AcDbBlockEnd
  0
BLOCK
  5
1E1
330
1E0
100
AcDbEntity
 67
     1
  8
0
100
AcDbBlockBegin
  2
*Paper_Space
 70
     0
 10
0.0
 20
0.0
 30
0.0
  3
*Paper_Space
  1

  0
ENDBLK
  5
1E2
330
1E0
100
AcDbEntity
 67
     1
  8
0
100
AcDbBlockEnd
  0
ENDSEC
  0
SECTION
  2
ENTITIES
  0
LWPOLYLINE
  5
1B9
330
1A2
100
AcDbEntity
  8
LEVEL_Ground
100
AcDbPolyline
 90
        4
 70
     1
 43
0.0
 10
0.0
 20
0.0
 10
9000.0
 20
0.0
 10
9000.0
 20
-6000.0
 10
0.0
 20
-6000.0
  0
TEXT
  5
1BA
330
1A2
100
AcDbEntity
  8
LEVEL_Ground
100
AcDbText
 10
0.0
 20
0.0
 30
0.0
 40
125.0
  1
Ground slab 
  7
Standard
 11
0.0
 21
0.0
 31
0.0
100
AcDbText
  0
LWPOLYLINE
  5
1BC
330
1A2
100
AcDbEntity
  8
LEVEL_Ground
100
AcDbPolyline
 90
        4
 70
     1
 43
0.0
 10
-130.0
 20
130.0
 10
1800.0
 20
130.0
 10
1800.0
 20
20.0
 10
-20.0
 20
20.0
  0
LINE
  5
1BD
330
1A2
100
AcDbEntity
  8
LEVEL_Ground
100
AcDbLine
 10
-120.0
 20
120.0
 30
0.0
 11
1800.0
 21
120.0
 31
0.0
  0
LWPOLYLINE
  5
A
330
1A2
100
AcDbEntity
  8
LEVEL_Ground
100
AcDbPolyline
 90
        4
 70
     1
 43
0.0
 10
4200.0
 20
130.0
 10
9130.0
 20
130.0
 10
9020.0
 20
20.0
 10
4200.0
 20
20.0
  0
LINE
  5
B
330
1A2
100
AcDbEntity
  8
LEVEL_Ground
100
AcDbLine
 10
4200.0
 20
120.0
 30
0.0
 11
9120.0
 21
120.0
 31
0.0
  0
LWPOLYLINE
  5
C
330
1A2
100
AcDbEntity
  8
LEVEL_Ground
100
AcDbPolyline
 90
        4
 70
     1
 43
0.0
 10
-20.0
 20
20.0
 10
1800.0
 20
20.0
 10
1800.0
 20
-30.0
 10
30.0
 20
-30.0
  0
LWPOLYLINE
  5
D
330
1A2
100
AcDbEntity
  8
LEVEL_Ground
100
AcDbPolyline
 90
        4
 70
     1
 43
0.0
 10
4200.0
 20
20.0
 10
9020.0
 20
20.0
 10
8970.0
 20
-30.0
 10
4200.0
 20
-30.0
  0
LWPOLYLINE
  5
E
330
1A2
100
AcDbEntity
  8
LEVEL_Ground
100
AcDbPolyline
 90
        4
 70
     1
 43
0.0
 10
30.0
 20
-30.0
 10
1800.0
 20
-30.0
 10
1800.0
 20
-120.0
 10
120.0
 20
-120.0
  0
LINE
  5
F
330
1A2
100
AcDbEntity
  8
LEVEL_Ground
100
AcDbLine
 10
1710.0
 20
-30.0
 30
0.0
 11
1800.0
 21
-120.0
 31
0.0
  0
LINE
  5
10
330
1A2
100
AcDbEntity
  8
LEVEL_Ground
100
AcDbLine
 10
1590.0
 20
-30.0
 30
0.0
 11
1680.0
 21
-120.0
 31
0.0
  0
LINE
  5
11
330
1A2
100
AcDbEntity
  8
LEVEL_Ground
100
AcDbLine
 10
1470.0
 20
-30.0
 30
0.0
 11
1560.0
 21
-120.0
 31
0.0
  0
LINE
  5
12
330
1A2
100
AcDbEntity
  8
LEVEL_Ground
100
AcDbLine
 10
1350.0
 20
-30.0
 30
0.0
 11
1440.0
 21
-120.0
 31
0.0
  0
LINE
  5
13
330
1A2
100
AcDbEntity
  8
LEVEL_Ground
100
AcDbLine
 10
1230.0
 20
-30.0
 30
0.0
 11
1320.0
 21
-120.0
 31
0.0
  0
LINE
  5
14
330
1A2
100
AcDbEntity
  8
LEVEL_Ground
100
AcDbLine
 10
1110.0
 20
-30.0
 30
0.0
 11
1200.0
 21
-120.0
 31
0.0
  0
LINE
  5
15
330
1A2
100
AcDbEntity
  8
LEVEL_Ground
100
AcDbLine
 10
990.0
 20
-30.0
 30
0.0
 11
1080.0
 21
-120.0
 31
0.0
  0
LINE
  5
16
330
1A2
100
AcDbEntity
  8
LEVEL_Ground
100
AcDbLine
 10
870.0
 20
-30.0
 30
0.0
 11
960.0
 21
-120.0
 31
0.0
  0
LINE
  5
17
330
1A2
100
AcDbEntity
  8
LEVEL_Ground
100
AcDbLine
 10
750.0
 20
-30.0
 30
0.0
 11
840.0
 21
-120.0
 31
0.0
  0
LINE
  5
18
330
1A2
100
AcDbEntity
  8
LEVEL_Ground
100
AcDbLine
 10
630.0
 20
-30.0
 30
0.0
 11
720.0
 21
-120.0
 31
0.0
  0
LINE
  5
19
330
1A2
100
AcDbEntity
  8
LEVEL_Ground
100
AcDbLine
 10
510.0
 20
-30.0
 30
0.0
 11
600.0
 21
-120.0
 31
0.0
  0
LINE
  5
1A
330
1A2
100
AcDbEntity
  8
LEVEL_Ground
100
AcDbLine
 10
390.0
 20
-30.0
 30
0.0
 11
480.0
 21
-120.0
 31
0.0
  0
LINE
  5
1B
330
1A2
100
AcDbEntity
  8
LEVEL_Ground
100
AcDbLine
 10
270.0
 20
-30.0
 30
0.0
 11
360.0
 21
-120.0
 31
0.0
  0
LINE
  5
1C
330
1A2
100
AcDbEntity
  8
LEVEL_Ground
100
AcDbLine
 10
150.0
 20
-30.0
 30
0.0
 11
240.0
 21
-120.0
 31
0.0
  0
LINE
  5
1D
330
1A2
100
AcDbEntity
  8
LEVEL_Ground
100
AcDbLine
 10
30.0
 20
-30.0
 30
0.0
 11
120.0
 21
-120.0
 31
0.0
  0
LWPOLYLINE
  5
1E
330
1A2
100
AcDbEntity
  8
LEVEL_Ground
100
AcDbPolyline
 90
        4
 70
     1
 43
0.0
 10
4200.0
 20
-30.0
 10
8970.0
 20
-30.0
 10
8880.0
 20
-120.0
 10
4200.0
 20
-120.0
  0
LINE
  5
1F
330
1A2
100
AcDbEntity
  8
LEVEL_Ground
100
AcDbLine
 10
8910.0
 20
-30.0
 30
0.0
 11
8940.0
 21
-60.0
 31
0.0
  0
LINE
  5
20
330
1A2
100
AcDbEntity
  8
LEVEL_Ground
100
AcDbLine
 10
8790.0
 20
-30.0
 30
0.0
 11
8880.0
 21
-120.0
 31
0.0
  0
LINE
  5
21
330
1A2
100
AcDbEntity
  8
LEVEL_Ground
100
AcDbLine
 10
8670.0
 20
-30.0
 30
0.0
 11
8760.0
 21
-120.0
 31
0.0
  0
LINE
  5
22
330
1A2
100
AcDbEntity
  8
LEVEL_Ground
100
AcDbLine
 10
8550.0
 20
-30.0
 30
0.0
 11
8640.0
 21
-120.0
 31
0.0
  0
LINE
  5
23
330
1A2
100
AcDbEntity
  8
LEVEL_Ground
100
AcDbLine
 10
8430.0
 20
-30.0
 30
0.0
 11
8520.0
 21
-120.0
 31
0.0
  0
LINE
  5
24
330
1A2
100
AcDbEntity
  8
LEVEL_Ground
100
AcDbLine
 10
8310.0
 20
-30.0
 30
0.0
 11
8400.0
 21
-120.0
 31
0.0
  0
LINE
  5
25
330
1A2
100
AcDbEntity
  8
LEVEL_Ground
100
AcDbLine
 10
8190.0
 20
-30.0
 30
0.0
 11
8280.0
 21
-120.0
 31
0.0
  0
LINE
  5
26
330
1A2
100
AcDbEntity
  8
LEVEL_Ground
100
AcDbLine
 10
8070.0
 20
-30.0
 30
0.0
 11
8160.0
 21
-120.0
 31
0.0
  0
LINE
  5
27
330
1A2
100
AcDbEntity
  8
LEVEL_Ground
100
AcDbLine
 10
7950.0
 20
-30.0
 30
0.0
 11
8040.0
 21
-120.0
 31
0.0
  0
LINE
  5
28
330
1A2
100
AcDbEntity
  8
LEVEL_Ground
100
AcDbLine
 10
7830.0
 20
-30.0
 30
0.0
 11
7920.0
 21
-120.0
 31
0.0
  0
LINE
  5
29
330
1A2
100
AcDbEntity
  8
LEVEL_Ground
100
AcDbLine
 10
7710.0
 20
-29.99999999999955
 30
0.0
 11
7800.0
 21
-120.0
 31
0.0
  0
LINE
  5
2A
330
1A2
100
AcDbEntity
  8
LEVEL_Ground
100
AcDbLine
 10
7590.0
 20
-30.0
 30
0.0
 11
7680.0
 21
-120.0
 31
0.0
  0
LINE
  5
2B
330
1A2
100
AcDbEntity
  8
LEVEL_Ground
100
AcDbLine
 10
7470.0
 20
-30.0
 30
0.0
 11
7560.0
 21
-120.0
 31
0.0
  0
LINE
  5
2C
330
1A2
100
AcDbEntity
  8
LEVEL_Ground
100
AcDbLine
 10
7350.0
 20
-30.0
 30
0.0
 11
7440.0
 21
-120.0
 31
0.0
  0
LINE
  5
2D
330
1A2
100
AcDbEntity
  8
LEVEL_Ground
100
AcDbLine
 10
7230.0
 20
-30.0
 30
0.0
 11
7320.0
 21
-120.0000000000005
 31
0.0
  0
LINE
  5
2E
330
1A2
100
AcDbEntity
  8
LEVEL_Ground
100
AcDbLine
 10
7110.0
 20
-30.0
 30
0.0
 11
7200.0
 21
-120.0
 31
0.0
  0
LINE
  5
2F
330
1A2
100
AcDbEntity
  8
LEVEL_Ground
100
AcDbLine
 10
6990.0
 20
-30.0
 30
0.0
 11
7080.0
 21
-120.0
 31
0.0
  0
LINE
  5
30
330
1A2
100
AcDbEntity
  8
LEVEL_Ground
100
AcDbLine
 10
6870.0
 20
-30.0
 30
0.0
 11
6960.0
 21
-120.0
 31
0.0
  0
LINE
  5
31
330
1A2
100
AcDbEntity
  8
LEVEL_Ground
100
AcDbLine
 10
6750.0
 20
-30.0
 30
0.0
 11
6840.0
 21
-120.0
 31
0.0
  0
LINE
  5
32
330
1A2
100
AcDbEntity
  8
LEVEL_Ground
100
AcDbLine
 10
6630.0
 20
-30.0
 30
0.0
 11
6720.0
 21
-120.0
 31
0.0
  0
LINE
  5
33
330
1A2
100
AcDbEntity
  8
LEVEL_Ground
100
AcDbLine
 10
6510.0
 20
-30.0
 30
0.0
 11
6600.0
 21
-120.0
 31
0.0
  0
LINE
  5
34
330
1A2
100
AcDbEntity
  8
LEVEL_Ground
100
AcDbLine
 10
6390.0
 20
-30.0
 30
0.0
 11
6480.0
 21
-120.0
 31
0.0
  0
LINE
  5
35
330
1A2
100
AcDbEntity
  8
LEVEL_Ground
100
AcDbLine
 10
6270.0
 20
-30.0
 30
0.0
 11
6360.0
 21
-120.0
 31
0.0
  0
LINE
  5
36
330
1A2
100
AcDbEntity
  8
LEVEL_Ground
100
AcDbLine
 10
6150.0
 20
-30.0
 30
0.0
 11
6240.0
 21
-120.0
 31
0.0
  0
LINE
  5
37
330
1A2
100
AcDbEntity
  8
LEVEL_Ground
100
AcDbLine
 10
6030.0
 20
-30.0
 30
0.0
 11
6120.0
 21
-120.0
 31
0.0
  0
LINE
  5
38
330
1A2
100
AcDbEntity
  8
LEVEL_Ground
100
AcDbLine
 10
5910.0
 20
-30.0
 30
0.0
 11
6000.0
 21
-120.0
 31
0.0
  0
LINE
  5
39
330
1A2
100
AcDbEntity
  8
LEVEL_Ground
100
AcDbLine
 10
5790.0
 20
-30.00000000000023
 30
0.0
 11
5880.0
 21
-120.0
 31
0.0
  0
LINE
  5
3A
330
1A2
100
AcDbEntity
  8
LEVEL_Ground
100
AcDbLine
 10
5670.0
 20
-30.0
 30
0.0
 11
5760.0
 21
-120.0
 31
0.0
  0
LINE
  5
3B
330
1A2
100
AcDbEntity
  8
LEVEL_Ground
100
AcDbLine
 10
5550.0
 20
-30.0
 30
0.0
 11
5640.0
 21
-120.0
 31
0.0
  0
LINE
  5
3C
330
1A2
100
AcDbEntity
  8
LEVEL_Ground
100
AcDbLine
 10
5430.0
 20
-30.0
 30
0.0
 11
5520.0
 21
-119.9999999999998
 31
0.0
  0
LINE
  5
3D
330
1A2
100
AcDbEntity
  8
LEVEL_Ground
100
AcDbLine
 10
5310.0
 20
-30.0
 30
0.0
 11
5400.0
 21
-120.0
 31
0.0
  0
LINE
  5
3E
330
1A2
100
AcDbEntity
  8
LEVEL_Ground
100
AcDbLine
 10
5190.0
 20
-30.0
 30
0.0
 11
5280.0
 21
-120.0
 31
0.0
  0
LINE
  5
3F
330
1A2
100
AcDbEntity
  8
LEVEL_Ground
100
AcDbLine
 10
5070.0
 20
-30.0
 30
0.0
 11
5160.0
 21
-120.0
 31
0.0
  0
LINE
  5
40
330
1A2
100
AcDbEntity
  8
LEVEL_Ground
100
AcDbLine
 10
4950.0
 20
-30.0
 30
0.0
 11
5040.0
 21
-120.0
 31
0.0
  0
LINE
  5
41
330
1A2
100
AcDbEntity
  8
LEVEL_Ground
100
AcDbLine
 10
4830.0
 20
-30.0
 30
0.0
 11
4920.0
 21
-120.0
 31
0.0
  0
LINE
  5
42
330
1A2
100
AcDbEntity
  8
LEVEL_Ground
100
AcDbLine
 10
4710.0
 20
-30.0
 30
0.0
 11
4800.0
 21
-120.0
 31
0.0
  0
LINE
  5
43
330
1A2
100
AcDbEntity
  8
LEVEL_Ground
100
AcDbLine
 10
4590.0
 20
-30.0
 30
0.0
 11
4680.0
 21
-120.0
 31
0.0
  0
LINE
  5
44
330
1A2
100
AcDbEntity
  8
LEVEL_Ground
100
AcDbLine
 10
4470.0
 20
-30.0
 30
0.0
 11
4560.0
 21
-120.0
 31
0.0
  0
LINE
  5
45
330
1A2
100
AcDbEntity
  8
LEVEL_Ground
100
AcDbLine
 10
4350.0
 20
-30.0
 30
0.0
 11
4440.0
 21
-120.0
 31
0.0
  0
LINE
  5
46
330
1A2
100
AcDbEntity
  8
LEVEL_Ground
100
AcDbLine
 10
4230.0
 20
-30.0
 30
0.0
 11
4320.0
 21
-120.0
 31
0.0
  0
LWPOLYLINE
  5
47
330
1A2
100
AcDbEntity
  8
LEVEL_Ground
100
AcDbPolyline
 90
        4
 70
     1
 43
0.0
 10
120.0
 20
-120.0
 10
1800.0
 20
-120.0
 10
1800.0
 20
-130.0
 10
130.0
 20
-130.0
  0
LWPOLYLINE
  5
48
330
1A2
100
AcDbEntity
  8
LEVEL_Ground
100
AcDbPolyline
 90
        4
 70
     1
 43
0.0
 10
4200.0
 20
-120.0
 10
8880.0
 20
-120.0
 10
8870.0
 20
-130.0
 10
4200.0
 20
-130.0
  0
LWPOLYLINE
  5
49
330
1A2
100
AcDbEntity
  8
LEVEL_Ground
100
AcDbPolyline
 90
        4
 70
     1
 43
0.0
 10
9130.0
 20
130.0
 10
9130.0
 20
-6130.0
 10
9020.0
 20
-6020.000000000001
 10
9020.0
 20
20.0
  0
LINE
  5
4A
330
1A2
100
AcDbEntity
  8
LEVEL_Ground
100
AcDbLine
 10
9120.0
 20
120.0
 30
0.0
 11
9130.0
 21
120.0
 31
0.0
  0
LINE
  5
4B
330
1A2
100
AcDbEntity
  8
LEVEL_Ground
100
AcDbLine
 10
9020.0
 20
0.0
 30
0.0
 11
9130.0
 21
0.0
 31
0.0
  0
LINE
  5
4C
330
1A2
100
AcDbEntity
  8
LEVEL_Ground
100
AcDbLine
 10
9020.0
 20
-120.0
 30
0.0
 11
9130.0
 21
-120.0
 31
0.0
  0
LINE
  5
4D
330
1A2
100
AcDbEntity
  8
LEVEL_Ground
100
AcDbLine
 10
9020.0
 20
-240.0
 30
0.0
 11
9130.0
 21
-240.0
 31
0.0
  0
LINE
  5
4E
330
1A2
100
AcDbEntity
  8
LEVEL_Ground
100
AcDbLine
 10
9020.0
 20
-360.0
 30
0.0
 11
9130.0
 21
-360.0
 31
0.0
  0
LINE
  5
4F
330
1A2
100
AcDbEntity
  8
LEVEL_Ground
100
AcDbLine
 10
9020.0
 20
-480.0
 30
0.0
 11
9130.0
 21
-480.0
 31
0.0
  0
LINE
  5
50
330
1A2
100
AcDbEntity
  8
LEVEL_Ground
100
AcDbLine
 10
9020.0
 20
-600.0
 30
0.0
 11
9130.0
 21
-600.0
 31
0.0
  0
LINE
  5
51
330
1A2
100
AcDbEntity
  8
LEVEL_Ground
100
AcDbLine
 10
9020.0
 20
-720.0
 30
0.0
 11
9130.0
 21
-720.0
 31
0.0
  0
LINE
  5
52
330
1A2
100
AcDbEntity
  8
LEVEL_Ground
100
AcDbLine
 10
9020.0
 20
-840.0
 30
0.0
 11
9130.0
 21
-840.0
 31
0.0
  0
LINE
  5
53
330
1A2
100
AcDbEntity
  8
LEVEL_Ground
100
AcDbLine
 10
9020.0
 20
-960.0
 30
0.0
 11
9130.0
 21
-960.0
 31
0.0
  0
LINE
  5
54
330
1A2
100
AcDbEntity
  8
LEVEL_Ground
100
AcDbLine
 10
9020.0
 20
-1080.0
 30
0.0
 11
9130.0
 21
-1080.0
 31
0.0
  0
LINE
  5
55
330
1A2
100
AcDbEntity
  8
LEVEL_Ground
100
AcDbLine
 10
9020.0
 20
-1200.0
 30
0.0
 11
9130.0
 21
-1200.0
 31
0.0
  0
LINE
  5
56
330
1A2
100
AcDbEntity
  8
LEVEL_Ground
100
AcDbLine
 10
9020.0
 20
-1320.0
 30
0.0
 11
9130.0
 21
-1320.0
 31
0.0
  0
LINE
  5
57
330
1A2
100
AcDbEntity
  8
LEVEL_Ground
100
AcDbLine
 10
9020.0
 20
-1440.0
 30
0.0
 11
9130.0
 21
-1440.0
 31
0.0
  0
LINE
  5
58
330
1A2
100
AcDbEntity
  8
LEVEL_Ground
100
AcDbLine
 10
9020.0
 20
-1560.0
 30
0.0
 11
9130.0
 21
-1560.0
 31
0.0
  0
LINE
  5
59
330
1A2
100
AcDbEntity
  8
LEVEL_Ground
100
AcDbLine
 10
9020.0
 20
-1680.0
 30
0.0
 11
9130.0
 21
-1680.0
 31
0.0
  0
LINE
  5
5A
330
1A2
100
AcDbEntity
  8
LEVEL_Ground
100
AcDbLine
 10
9020.0
 20
-1800.0
 30
0.0
 11
9130.0
 21
-1800.0
 31
0.0
  0
LINE
  5
5B
330
1A2
100
AcDbEntity
  8
LEVEL_Ground
100
AcDbLine
 10
9020.0
 20
-1920.0
 30
0.0
 11
9130.0
 21
-1920.0
 31
0.0
  0
LINE
  5
5C
330
1A2
100
AcDbEntity
  8
LEVEL_Ground
100
AcDbLine
 10
9020.0
 20
-2040.0
 30
0.0
 11
9130.0
 21
-2040.0
 31
0.0
  0
LINE
  5
5D
330
1A2
100
AcDbEntity
  8
LEVEL_Ground
100
AcDbLine
 10
9020.0
 20
-2160.0
 30
0.0
 11
9130.0
 21
-2160.0
 31
0.0
  0
LINE
  5
5E
330
1A2
100
AcDbEntity
  8
LEVEL_Ground
100
AcDbLine
 10
9020.0
 20
-2280.0
 30
0.0
 11
9130.0
 21
-2280.0
 31
0.0
  0
LINE
  5
5F
330
1A2
100
AcDbEntity
  8
LEVEL_Ground
100
AcDbLine
 10
9020.0
 20
-2400.0
 30
0.0
 11
9130.0
 21
-2400.0
 31
0.0
  0
LINE
  5
60
330
1A2
100
AcDbEntity
  8
LEVEL_Ground
100
AcDbLine
 10
9020.0
 20
-2520.0
 30
0.0
 11
9130.0
 21
-2520.0
 31
0.0
  0
LINE
  5
61
330
1A2
100
AcDbEntity
  8
LEVEL_Ground
100
AcDbLine
 10
9020.0
 20
-2640.0
 30
0.0
 11
9130.0
 21
-2640.0
 31
0.0
  0
LINE
  5
62
330
1A2
100
AcDbEntity
  8
LEVEL_Ground
100
AcDbLine
 10
9020.0
 20
-2760.0
 30
0.0
 11
9130.0
 21
-2760.0
 31
0.0
  0
LINE
  5
63
330
1A2
100
AcDbEntity
  8
LEVEL_Ground
100
AcDbLine
 10
9020.0
 20
-2880.0
 30
0.0
 11
9130.0
 21
-2880.0
 31
0.0
  0
LINE
  5
64
330
1A2
100
AcDbEntity
  8
LEVEL_Ground
100
AcDbLine
 10
9020.0
 20
-3000.0
 30
0.0
 11
9130.0
 21
-3000.0
 31
0.0
  0
LINE
  5
65
330
1A2
100
AcDbEntity
  8
LEVEL_Ground
100
AcDbLine
 10
9020.0
 20
-3120.0
 30
0.0
 11
9130.0
 21
-3120.0
 31
0.0
  0
LINE
  5
66
330
1A2
100
AcDbEntity
  8
LEVEL_Ground
100
AcDbLine
 10
9020.0
 20
-3240.0
 30
0.0
 11
9130.0
 21
-3240.0
 31
0.0
  0
LINE
  5
67
330
1A2
100
AcDbEntity
  8
LEVEL_Ground
100
AcDbLine
 10
9020.0
 20
-3360.0
 30
0.0
 11
9130.0
 21
-3360.0
 31
0.0
  0
LINE
  5
68
330
1A2
100
AcDbEntity
  8
LEVEL_Ground
100
AcDbLine
 10
9020.0
 20
-3480.0
 30
0.0
 11
9130.0
 21
-3480.0
 31
0.0
  0
LINE
  5
69
330
1A2
100
AcDbEntity
  8
LEVEL_Ground
100
AcDbLine
 10
9020.0
 20
-3600.0
 30
0.0
 11
9130.0
 21
-3600.0
 31
0.0
  0
LINE
  5
6A
330
1A2
100
AcDbEntity
  8
LEVEL_Ground
100
AcDbLine
 10
9020.0
 20
-3720.0
 30
0.0
 11
9130.0
 21
-3720.0
 31
0.0
  0
LINE
  5
6B
330
1A2
100
AcDbEntity
  8
LEVEL_Ground
100
AcDbLine
 10
9020.0
 20
-3840.0
 30
0.0
 11
9130.0
 21
-3840.0
 31
0.0
  0
LINE
  5
6C
330
1A2
100
AcDbEntity
  8
LEVEL_Ground
100
AcDbLine
 10
9020.0
 20
-3960.0
 30
0.0
 11
9130.0
 21
-3960.0
 31
0.0
  0
LINE
  5
6D
330
1A2
100
AcDbEntity
  8
LEVEL_Ground
100
AcDbLine
 10
9020.0
 20
-4080.0
 30
0.0
 11
9130.0
 21
-4080.0
 31
0.0
  0
LINE
  5
6E
330
1A2
100
AcDbEntity
  8
LEVEL_Ground
100
AcDbLine
 10
9020.0
 20
-4200.0
 30
0.0
 11
9130.0
 21
-4200.0
 31
0.0
  0
LINE
  5
6F
330
1A2
100
AcDbEntity
  8
LEVEL_Ground
100
AcDbLine
 10
9020.0
 20
-4320.0
 30
0.0
 11
9130.0
 21
-4320.0
 31
0.0
  0
LINE
  5
70
330
1A2
100
AcDbEntity
  8
LEVEL_Ground
100
AcDbLine
 10
9020.0
 20
-4440.0
 30
0.0
 11
9130.0
 21
-4440.0
 31
0.0
  0
LINE
  5
71
330
1A2
100
AcDbEntity
  8
LEVEL_Ground
100
AcDbLine
 10
9020.0
 20
-4560.0
 30
0.0
 11
9130.0
 21
-4560.0
 31
0.0
  0
LINE
  5
72
330
1A2
100
AcDbEntity
  8
LEVEL_Ground
100
AcDbLine
 10
9020.0
 20
-4680.0
 30
0.0
 11
9130.0
 21
-4680.0
 31
0.0
  0
LINE
  5
73
330
1A2
100
AcDbEntity
  8
LEVEL_Ground
100
AcDbLine
 10
9020.0
 20
-4800.0
 30
0.0
 11
9130.0
 21
-4800.0
 31
0.0
  0
LINE
  5
74
330
1A2
100
AcDbEntity
  8
LEVEL_Ground
100
AcDbLine
 10
9020.0
 20
-4920.0
 30
0.0
 11
9130.0
 21
-4920.0
 31
0.0
  0
LINE
  5
75
330
1A2
100
AcDbEntity
  8
LEVEL_Ground
100
AcDbLine
 10
9020.0
 20
-5040.0
 30
0.0
 11
9130.0
 21
-5040.0
 31
0.0
  0
LINE
  5
76
330
1A2
100
AcDbEntity
  8
LEVEL_Ground
100
AcDbLine
 10
9020.0
 20
-5160.0
 30
0.0
 11
9130.0
 21
-5160.0
 31
0.0
  0
LINE
  5
77
330
1A2
100
AcDbEntity
  8
LEVEL_Ground
100
AcDbLine
 10
9020.0
 20
-5280.0
 30
0.0
 11
9130.0
 21
-5280.0
 31
0.0
  0
LINE
  5
78
330
1A2
100
AcDbEntity
  8
LEVEL_Ground
100
AcDbLine
 10
9020.0
 20
-5400.0
 30
0.0
 11
9130.0
 21
-5400.0
 31
0.0
  0
LINE
  5
79
330
1A2
100
AcDbEntity
  8
LEVEL_Ground
100
AcDbLine
 10
9020.0
 20
-5520.0
 30
0.0
 11
9130.0
 21
-5520.0
 31
0.0
  0
LINE
  5
7A
330
1A2
100
AcDbEntity
  8
LEVEL_Ground
100
AcDbLine
 10
9020.0
 20
-5640.0
 30
0.0
 11
9130.0
 21
-5640.0
 31
0.0
  0
LINE
  5
7B
330
1A2
100
AcDbEntity
  8
LEVEL_Ground
100
AcDbLine
 10
9020.0
 20
-5760.0
 30
0.0
 11
9130.0
 21
-5760.0
 31
0.0
  0
LINE
  5
7C
330
1A2
100
AcDbEntity
  8
LEVEL_Ground
100
AcDbLine
 10
9020.0
 20
-5880.0
 30
0.0
 11
9130.0
 21
-5880.0
 31
0.0
  0
LINE
  5
7D
330
1A2
100
AcDbEntity
  8
LEVEL_Ground
100
AcDbLine
 10
9020.0
 20
-6000.0
 30
0.0
 11
9130.0
 21
-6000.0
 31
0.0
  0
LINE
  5
7E
330
1A2
100
AcDbEntity
  8
LEVEL_Ground
100
AcDbLine
 10
9120.0
 20
-6120.0
 30
0.0
 11
9130.0
 21
-6120.0
 31
0.0
  0
LWPOLYLINE
  5
7F
330
1A2
100
AcDbEntity
  8
LEVEL_Ground
100
AcDbPolyline
 90
        4
 70
     1
 43
0.0
 10
9020.0
 20
20.0
 10
9020.0
 20
-6020.000000000001
 10
8970.0
 20
-5970.0
 10
8970.0
 20
-30.0
  0
LWPOLYLINE
  5
80
330
1A2
100
AcDbEntity
  8
LEVEL_Ground
100
AcDbPolyline
 90
        4
 70
     1
 43
0.0
 10
8970.0
 20
-30.0
 10
8970.0
 20
-5970.0
 10
8880.0
 20
-5880.0
 10
8880.0
 20
-120.0
  0
LINE
  5
81
330
1A2
100
AcDbEntity
  8
LEVEL_Ground
100
AcDbLine
 10
8940.0
 20
-59.99999999999999
 30
0.0
 11
8970.0
 21
-90.0
 31
0.0
  0
LINE
  5
82
330
1A2
100
AcDbEntity
  8
LEVEL_Ground
100
AcDbLine
 10
8880.0
 20
-120.0
 30
0.0
 11
8970.0
 21
-210.0
 31
0.0
  0
LINE
  5
83
330
1A2
100
AcDbEntity
  8
LEVEL_Ground
100
AcDbLine
 10
8880.0
 20
-240.0
 30
0.0
 11
8970.0
 21
-330.0
 31
0.0
  0
LINE
  5
84
330
1A2
100
AcDbEntity
  8
LEVEL_Ground
100
AcDbLine
 10
8880.0
 20
-360.0
 30
0.0
 11
8970.0
 21
-450.0
 31
0.0
  0
LINE
  5
85
330
1A2
100
AcDbEntity
  8
LEVEL_Ground
100
AcDbLine
 10
8880.0
 20
-480.0
 30
0.0
 11
8970.0
 21
-570.0
 31
0.0
  0
LINE
  5
86
330
1A2
100
AcDbEntity
  8
LEVEL_Ground
100
AcDbLine
 10
8880.0
 20
-600.0
 30
0.0
 11
8970.0
 21
-690.0
 31
0.0
  0
LINE
  5
87
330
1A2
100
AcDbEntity
  8
LEVEL_Ground
100
AcDbLine
 10
8880.0
 20
-720.0
 30
0.0
 11
8970.0
 21
-810.0
 31
0.0
  0
LINE
  5
88
330
1A2
100
AcDbEntity
  8
LEVEL_Ground
100
AcDbLine
 10
8880.0
 20
-840.0
 30
0.0
 11
8970.0
 21
-930.0
 31
0.0
  0
LINE
  5
89
330
1A2
100
AcDbEntity
  8
LEVEL_Ground
100
AcDbLine
 10
8880.0
 20
-960.0
 30
0.0
 11
8970.0
 21
-1050.0
 31
0.0
  0
LINE
  5
8A
330
1A2
100
AcDbEntity
  8
LEVEL_Ground
100
AcDbLine
 10
8880.0
 20
-1080.0
 30
0.0
 11
8970.0
 21
-1170.0
 31
0.0
  0
LINE
  5
8B
330
1A2
100
AcDbEntity
  8
LEVEL_Ground
100
AcDbLine
 10
8880.0
 20
-1200.0
 30
0.0
 11
8970.0
 21
-1290.0
 31
0.0
  0
LINE
  5
8C
330
1A2
100
AcDbEntity
  8
LEVEL_Ground
100
AcDbLine
 10
8880.0
 20
-1320.0
 30
0.0
 11
8970.0
 21
-1410.0
 31
0.0
  0
LINE
  5
8D
330
1A2
100
AcDbEntity
  8
LEVEL_Ground
100
AcDbLine
 10
8880.0
 20
-1440.0
 30
0.0
 11
8970.0
 21
-1530.0
 31
0.0
  0
LINE
  5
8E
330
1A2
100
AcDbEntity
  8
LEVEL_Ground
100
AcDbLine
 10
8880.0
 20
-1560.0
 30
0.0
 11
8970.0
 21
-1650.0
 31
0.0
  0
LINE
  5
8F
330
1A2
100
AcDbEntity
  8
LEVEL_Ground
100
AcDbLine
 10
8880.0
 20
-1680.0
 30
0.0
 11
8970.0
 21
-1770.0
 31
0.0
  0
LINE
  5
90
330
1A2
100
AcDbEntity
  8
LEVEL_Ground
100
AcDbLine
 10
8880.0
 20
-1800.0
 30
0.0
 11
8970.0
 21
-1890.0
 31
0.0
  0
LINE
  5
91
330
1A2
100
AcDbEntity
  8
LEVEL_Ground
100
AcDbLine
 10
8880.0
 20
-1920.0
 30
0.0
 11
8970.0
 21
-2010.0
 31
0.0
  0
LINE
  5
92
330
1A2
100
AcDbEntity
  8
LEVEL_Ground
100
AcDbLine
 10
8880.0
 20
-2040.0
 30
0.0
 11
8970.0
 21
-2130.0
 31
0.0
  0
LINE
  5
93
330
1A2
100
AcDbEntity
  8
LEVEL_Ground
100
AcDbLine
 10
8880.0
 20
-2160.0
 30
0.0
 11
8970.0
 21
-2250.0
 31
0.0
  0
LINE
  5
94
330
1A2
100
AcDbEntity
  8
LEVEL_Ground
100
AcDbLine
 10
8880.0
 20
-2280.0
 30
0.0
 11
8970.0
 21
-2370.0
 31
0.0
  0
LINE
  5
95
330
1A2
100
AcDbEntity
  8
LEVEL_Ground
100
AcDbLine
 10
8880.0
 20
-2400.0
 30
0.0
 11
8970.0
 21
-2490.0
 31
0.0
  0
LINE
  5
96
330
1A2
100
AcDbEntity
  8
LEVEL_Ground
100
AcDbLine
 10
8880.0
 20
-2520.0
 30
0.0
 11
8970.0
 21
-2610.0
 31
0.0
  0
LINE
  5
97
330
1A2
100
AcDbEntity
  8
LEVEL_Ground
100
AcDbLine
 10
8880.0
 20
-2640.0
 30
0.0
 11
8970.0
 21
-2730.0
 31
0.0
  0
LINE
  5
98
330
1A2
100
AcDbEntity
  8
LEVEL_Ground
100
AcDbLine
 10
8880.0
 20
-2760.0
 30
0.0
 11
8970.0
 21
-2850.0
 31
0.0
  0
LINE
  5
99
330
1A2
100
AcDbEntity
  8
LEVEL_Ground
100
AcDbLine
 10
8880.0
 20
-2880.0
 30
0.0
 11
8970.0
 21
-2970.0
 31
0.0
  0
LINE
  5
9A
330
1A2
100
AcDbEntity
  8
LEVEL_Ground
100
AcDbLine
 10
8880.0
 20
-3000.0
 30
0.0
 11
8970.0
 21
-3090.0
 31
0.0
  0
LINE
  5
9B
330
1A2
100
AcDbEntity
  8
LEVEL_Ground
100
AcDbLine
 10
8880.0
 20
-3120.0
 30
0.0
 11
8970.0
 21
-3210.0
 31
0.0
  0
LINE
  5
9C
330
1A2
100
AcDbEntity
  8
LEVEL_Ground
100
AcDbLine
 10
8880.0
 20
-3240.0
 30
0.0
 11
8970.0
 21
-3330.0
 31
0.0
  0
LINE
  5
9D
330
1A2
100
AcDbEntity
  8
LEVEL_Ground
100
AcDbLine
 10
8880.0
 20
-3360.0
 30
0.0
 11
8970.0
 21
-3450.0
 31
0.0
  0
LINE
  5
9E
330
1A2
100
AcDbEntity
  8
LEVEL_Ground
100
AcDbLine
 10
8880.0
 20
-3480.0
 30
0.0
 11
8970.0
 21
-3570.0
 31
0.0
  0
LINE
  5
9F
330
1A2
100
AcDbEntity
  8
LEVEL_Ground
100
AcDbLine
 10
8880.0
 20
-3600.0
 30
0.0
 11
8970.0
 21
-3690.0
 31
0.0
  0
LINE
  5
A0
330
1A2
100
AcDbEntity
  8
LEVEL_Ground
100
AcDbLine
 10
8880.0
 20
-3720.0
 30
0.0
 11
8970.0
 21
-3810.0
 31
0.0
  0
LINE
  5
A1
330
1A2
100
AcDbEntity
  8
LEVEL_Ground
100
AcDbLine
 10
8880.0
 20
-3840.0
 30
0.0
 11
8970.0
 21
-3930.0
 31
0.0
  0
LINE
  5
A2
330
1A2
100
AcDbEntity
  8
LEVEL_Ground
100
AcDbLine
 10
8880.0
 20
-3960.0
 30
0.0
 11
8970.0
 21
-4050.0
 31
0.0
  0
LINE
  5
A3
330
1A2
100
AcDbEntity
  8
LEVEL_Ground
100
AcDbLine
 10
8880.0
 20
-4080.0
 30
0.0
 11
8970.0
 21
-4170.0
 31
0.0
  0
LINE
  5
A4
330
1A2
100
AcDbEntity
  8
LEVEL_Ground
100
AcDbLine
 10
8880.0
 20
-4200.0
 30
0.0
 11
8970.0
 21
-4290.0
 31
0.0
  0
LINE
  5
A5
330
1A2
100
AcDbEntity
  8
LEVEL_Ground
100
AcDbLine
 10
8880.0
 20
-4320.0
 30
0.0
 11
8970.0
 21
-4410.0
 31
0.0
  0
LINE
  5
A6
330
1A2
100
AcDbEntity
  8
LEVEL_Ground
100
AcDbLine
 10
8880.0
 20
-4440.0
 30
0.0
 11
8970.0
 21
-4530.0
 31
0.0
  0
LINE
  5
A7
330
1A2
100
AcDbEntity
  8
LEVEL_Ground
100
AcDbLine
 10
8880.0
 20
-4560.0
 30
0.0
 11
8970.0
 21
-4650.0
 31
0.0
  0
LINE
  5
A8
330
1A2
100
AcDbEntity
  8
LEVEL_Ground
100
AcDbLine
 10
8880.0
 20
-4680.0
 30
0.0
 11
8970.0
 21
-4770.0
 31
0.0
  0
LINE
  5
A9
330
1A2
100
AcDbEntity
  8
LEVEL_Ground
100
AcDbLine
 10
8880.0
 20
-4800.0
 30
0.0
 11
8970.0
 21
-4890.0
 31
0.0
  0
LINE
  5
AA
330
1A2
100
AcDbEntity
  8
LEVEL_Ground
100
AcDbLine
 10
8880.0
 20
-4920.0
 30
0.0
 11
8970.0
 21
-5010.0
 31
0.0
  0
LINE
  5
AB
330
1A2
100
AcDbEntity
  8
LEVEL_Ground
100
AcDbLine
 10
8880.0
 20
-5040.0
 30
0.0
 11
8970.0
 21
-5130.0
 31
0.0
  0
LINE
  5
AC
330
1A2
100
AcDbEntity
  8
LEVEL_Ground
100
AcDbLine
 10
8880.0
 20
-5160.0
 30
0.0
 11
8970.0
 21
-5250.0
 31
0.0
  0
LINE
  5
AD
330
1A2
100
AcDbEntity
  8
LEVEL_Ground
100
AcDbLine
 10
8880.0
 20
-5280.0
 30
0.0
 11
8970.0
 21
-5370.0
 31
0.0
  0
LINE
  5
AE
330
1A2
100
AcDbEntity
  8
LEVEL_Ground
100
AcDbLine
 10
8880.0
 20
-5400.0
 30
0.0
 11
8970.0
 21
-5490.0
 31
0.0
  0
LINE
  5
AF
330
1A2
100
AcDbEntity
  8
LEVEL_Ground
100
AcDbLine
 10
8880.0
 20
-5520.0
 30
0.0
 11
8970.0
 21
-5610.0
 31
0.0
  0
LINE
  5
B0
330
1A2
100
AcDbEntity
  8
LEVEL_Ground
100
AcDbLine
 10
8880.0
 20
-5640.0
 30
0.0
 11
8970.0
 21
-5730.0
 31
0.0
  0
LINE
  5
B1
330
1A2
100
AcDbEntity
  8
LEVEL_Ground
100
AcDbLine
 10
8880.0
 20
-5760.0
 30
0.0
 11
8970.0
 21
-5850.0
 31
0.0
  0
LINE
  5
B2
330
1A2
100
AcDbEntity
  8
LEVEL_Ground
100
AcDbLine
 10
8880.0
 20
-5880.0
 30
0.0
 11
8970.0
 21
-5970.0
 31
0.0
  0
LWPOLYLINE
  5
B3
330
1A2
100
AcDbEntity
  8
LEVEL_Ground
100
AcDbPolyline
 90
        4
 70
     1
 43
0.0
 10
8880.0
 20
-120.0
 10
8880.0
 20
-5880.0
 10
8870.0
 20
-5870.0
 10
8870.0
 20
-130.0
  0
LWPOLYLINE
  5
B4
330
1A2
100
AcDbEntity
  8
LEVEL_Ground
100
AcDbPolyline
 90
        4
 70
     1
 43
0.0
 10
-130.0
 20
-6130.0
 10
-20.0
 20
-6020.0
 10
3600.0
 20
-6020.0
 10
3600.0
 20
-6130.0
  0
LINE
  5
B5
330
1A2
100
AcDbEntity
  8
LEVEL_Ground
100
AcDbLine
 10
-120.0
 20
-6120.0
 30
0.0
 11
3600.0
 21
-6120.0
 31
0.0
  0
LWPOLYLINE
  5
B6
330
1A2
100
AcDbEntity
  8
LEVEL_Ground
100
AcDbPolyline
 90
        4
 70
     1
 43
0.0
 10
5400.0
 20
-6020.0
 10
9020.0
 20
-6020.0
 10
9130.0
 20
-6130.0
 10
5400.0
 20
-6130.0
  0
LINE
  5
B7
330
1A2
100
AcDbEntity
  8
LEVEL_Ground
100
AcDbLine
 10
5400.0
 20
-6120.0
 30
0.0
 11
9120.0
 21
-6120.0
 31
0.0
  0
LWPOLYLINE
  5
B8
330
1A2
100
AcDbEntity
  8
LEVEL_Ground
100
AcDbPolyline
 90
        4
 70
     1
 43
0.0
 10
-20.0
 20
-6020.0
 10
30.0
 20
-5970.0
 10
3600.0
 20
-5970.0
 10
3600.0
 20
-6020.0
  0
LWPOLYLINE
  5
B9
330
1A2
100
AcDbEntity
  8
LEVEL_Ground
100
AcDbPolyline
 90
        4
 70
     1
 43
0.0
 10
5400.0
 20
-5970.0
 10
8970.0
 20
-5970.0
 10
9020.0
 20
-6020.0
 10
5400.0
 20
-6020.0
  0
LWPOLYLINE
  5
BA
330
1A2
100
AcDbEntity
  8
LEVEL_Ground
100
AcDbPolyline
 90
        4
 70
     1
 43
0.0
 10
30.0
 20
-5970.0
 10
120.0
 20
-5880.0
 10
3600.0
 20
-5880.0
 10
3600.0
 20
-5970.0
  0
LINE
  5
BB
330
1A2
100
AcDbEntity
  8
LEVEL_Ground
100
AcDbLine
 10
3480.0
 20
-5880.0
 30
0.0
 11
3570.0
 21
-5970.0
 31
0.0
  0
LINE
  5
BC
330
1A2
100
AcDbEntity
  8
LEVEL_Ground
100
AcDbLine
 10
3360.0
 20
-5880.0
 30
0.0
 11
3450.0
 21
-5970.0
 31
0.0
  0
LINE
  5
BD
330
1A2
100
AcDbEntity
  8
LEVEL_Ground
100
AcDbLine
 10
3240.0
 20
-5880.0
 30
0.0
 11
3330.0
 21
-5970.0
 31
0.0
  0
LINE
  5
BE
330
1A2
100
AcDbEntity
  8
LEVEL_Ground
100
AcDbLine
 10
3120.0
 20
-5880.0
 30
0.0
 11
3210.0
 21
-5970.0
 31
0.0
  0
LINE
  5
BF
330
1A2
100
AcDbEntity
  8
LEVEL_Ground
100
AcDbLine
 10
3000.0
 20
-5880.0
 30
0.0
 11
3090.0
 21
-5970.0
 31
0.0
  0
LINE
  5
C0
330
1A2
100
AcDbEntity
  8
LEVEL_Ground
100
AcDbLine
 10
2880.0
 20
-5880.0
 30
0.0
 11
2970.0
 21
-5970.0
 31
0.0
  0
LINE
  5
C1
330
1A2
100
AcDbEntity
  8
LEVEL_Ground
100
AcDbLine
 10
2760.0
 20
-5880.0
 30
0.0
 11
2850.0
 21
-5970.0
 31
0.0
  0
LINE
  5
C2
330
1A2
100
AcDbEntity
  8
LEVEL_Ground
100
AcDbLine
 10
2640.0
 20
-5880.0
 30
0.0
 11
2730.0
 21
-5970.0
 31
0.0
  0
LINE
  5
C3
330
1A2
100
AcDbEntity
  8
LEVEL_Ground
100
AcDbLine
 10
2520.0
 20
-5880.0
 30
0.0
 11
2610.0
 21
-5970.0
 31
0.0
  0
LINE
  5
C4
330
1A2
100
AcDbEntity
  8
LEVEL_Ground
100
AcDbLine
 10
2400.0
 20
-5880.0
 30
0.0
 11
2490.0
 21
-5970.0
 31
0.0
  0
LINE
  5
C5
330
1A2
100
AcDbEntity
  8
LEVEL_Ground
100
AcDbLine
 10
2280.0
 20
-5880.0
 30
0.0
 11
2370.0
 21
-5970.0
 31
0.0
  0
LINE
  5
C6
330
1A2
100
AcDbEntity
  8
LEVEL_Ground
100
AcDbLine
 10
2160.0
 20
-5880.0
 30
0.0
 11
2250.0
 21
-5970.0
 31
0.0
  0
LINE
  5
C7
330
1A2
100
AcDbEntity
  8
LEVEL_Ground
100
AcDbLine
 10
2040.0
 20
-5880.0
 30
0.0
 11
2130.0
 21
-5970.0
 31
0.0
  0
LINE
  5
C8
330
1A2
100
AcDbEntity
  8
LEVEL_Ground
100
AcDbLine
 10
1920.0
 20
-5880.0
 30
0.0
 11
2010.0
 21
-5970.0
 31
0.0
  0
LINE
  5
C9
330
1A2
100
AcDbEntity
  8
LEVEL_Ground
100
AcDbLine
 10
1800.0
 20
-5880.0
 30
0.0
 11
1890.0
 21
-5970.0
 31
0.0
  0
LINE
  5
CA
330
1A2
100
AcDbEntity
  8
LEVEL_Ground
100
AcDbLine
 10
1680.0
 20
-5880.0
 30
0.0
 11
1770.0
 21
-5970.0
 31
0.0
  0
LINE
  5
CB
330
1A2
100
AcDbEntity
  8
LEVEL_Ground
100
AcDbLine
 10
1560.0
 20
-5880.0
 30
0.0
 11
1650.0
 21
-5970.0
 31
0.0
  0
LINE
  5
CC
330
1A2
100
AcDbEntity
  8
LEVEL_Ground
100
AcDbLine
 10
1440.0
 20
-5880.0
 30
0.0
 11
1530.0
 21
-5970.0
 31
0.0
  0
LINE
  5
CD
330
1A2
100
AcDbEntity
  8
LEVEL_Ground
100
AcDbLine
 10
1320.0
 20
-5880.0
 30
0.0
 11
1410.0
 21
-5970.0
 31
0.0
  0
LINE
  5
CE
330
1A2
100
AcDbEntity
  8
LEVEL_Ground
100
AcDbLine
 10
1200.0
 20
-5880.0
 30
0.0
 11
1290.0
 21
-5970.0
 31
0.0
  0
LINE
  5
CF
330
1A2
100
AcDbEntity
  8
LEVEL_Ground
100
AcDbLine
 10
1080.0
 20
-5880.0
 30
0.0
 11
1170.0
 21
-5970.0
 31
0.0
  0
LINE
  5
D0
330
1A2
100
AcDbEntity
  8
LEVEL_Ground
100
AcDbLine
 10
960.0
 20
-5880.0
 30
0.0
 11
1050.0
 21
-5970.0
 31
0.0
  0
LINE
  5
D1
330
1A2
100
AcDbEntity
  8
LEVEL_Ground
100
AcDbLine
 10
840.0
 20
-5880.0
 30
0.0
 11
930.0
 21
-5970.0
 31
0.0
  0
LINE
  5
D2
330
1A2
100
AcDbEntity
  8
LEVEL_Ground
100
AcDbLine
 10
720.0
 20
-5880.0
 30
0.0
 11
810.0
 21
-5970.0
 31
0.0
  0
LINE
  5
D3
330
1A2
100
AcDbEntity
  8
LEVEL_Ground
100
AcDbLine
 10
600.0
 20
-5880.0
 30
0.0
 11
690.0
 21
-5970.0
 31
0.0
  0
LINE
  5
D4
330
1A2
100
AcDbEntity
  8
LEVEL_Ground
100
AcDbLine
 10
480.0000000000001
 20
-5880.0
 30
0.0
 11
570.0
 21
-5970.0
 31
0.0
  0
LINE
  5
D5
330
1A2
100
AcDbEntity
  8
LEVEL_Ground
100
AcDbLine
 10
360.0
 20
-5880.0
 30
0.0
 11
450.0
 21
-5970.0
 31
0.0
  0
LINE
  5
D6
330
1A2
100
AcDbEntity
  8
LEVEL_Ground
100
AcDbLine
 10
240.0
 20
-5880.0
 30
0.0
 11
330.0
 21
-5970.0
 31
0.0
  0
LINE
  5
D7
330
1A2
100
AcDbEntity
  8
LEVEL_Ground
100
AcDbLine
 10
120.0
 20
-5880.0
 30
0.0
 11
210.0
 21
-5970.0
 31
0.0
  0
LINE
  5
D8
330
1A2
100
AcDbEntity
  8
LEVEL_Ground
100
AcDbLine
 10
60.0
 20
-5940.0
 30
0.0
 11
90.0
 21
-5970.0
 31
0.0
  0
LWPOLYLINE
  5
D9
330
1A2
100
AcDbEntity
  8
LEVEL_Ground
100
AcDbPolyline
 90
        4
 70
     1
 43
0.0
 10
5400.0
 20
-5880.0
 10
8880.0
 20
-5880.0
 10
8970.0
 20
-5970.0
 10
5400.0
 20
-5970.0
  0
LINE
  5
DA
330
1A2
100
AcDbEntity
  8
LEVEL_Ground
100
AcDbLine
 10
8760.0
 20
-5880.0
 30
0.0
 11
8850.0
 21
-5970.0
 31
0.0
  0
LINE
  5
DB
330
1A2
100
AcDbEntity
  8
LEVEL_Ground
100
AcDbLine
 10
8640.0
 20
-5880.0
 30
0.0
 11
8730.0
 21
-5970.0
 31
0.0
  0
LINE
  5
DC
330
1A2
100
AcDbEntity
  8
LEVEL_Ground
100
AcDbLine
 10
8520.0
 20
-5880.0
 30
0.0
 11
8610.0
 21
-5970.0
 31
0.0
  0
LINE
  5
DD
330
1A2
100
AcDbEntity
  8
LEVEL_Ground
100
AcDbLine
 10
8400.0
 20
-5880.0
 30
0.0
 11
8490.0
 21
-5970.0
 31
0.0
  0
LINE
  5
DE
330
1A2
100
AcDbEntity
  8
LEVEL_Ground
100
AcDbLine
 10
8280.0
 20
-5880.0
 30
0.0
 11
8370.0
 21
-5970.0
 31
0.0
  0
LINE
  5
DF
330
1A2
100
AcDbEntity
  8
LEVEL_Ground
100
AcDbLine
 10
8160.0
 20
-5880.0
 30
0.0
 11
8250.0
 21
-5970.0
 31
0.0
  0
LINE
  5
E0
330
1A2
100
AcDbEntity
  8
LEVEL_Ground
100
AcDbLine
 10
8040.0
 20
-5880.0
 30
0.0
 11
8130.0
 21
-5970.0
 31
0.0
  0
LINE
  5
E1
330
1A2
100
AcDbEntity
  8
LEVEL_Ground
100
AcDbLine
 10
7920.0
 20
-5880.0
 30
0.0
 11
8010.0
 21
-5970.0
 31
0.0
  0
LINE
  5
E2
330
1A2
100
AcDbEntity
  8
LEVEL_Ground
100
AcDbLine
 10
7800.0
 20
-5880.0
 30
0.0
 11
7890.0
 21
-5970.0
 31
0.0
  0
LINE
  5
E3
330
1A2
100
AcDbEntity
  8
LEVEL_Ground
100
AcDbLine
 10
7680.0
 20
-5880.0
 30
0.0
 11
7770.0
 21
-5970.0
 31
0.0
  0
LINE
  5
E4
330
1A2
100
AcDbEntity
  8
LEVEL_Ground
100
AcDbLine
 10
7560.0
 20
-5880.0
 30
0.0
 11
7650.0
 21
-5970.0
 31
0.0
  0
LINE
  5
E5
330
1A2
100
AcDbEntity
  8
LEVEL_Ground
100
AcDbLine
 10
7440.0
 20
-5880.0
 30
0.0
 11
7530.0
 21
-5970.0
 31
0.0
  0
LINE
  5
E6
330
1A2
100
AcDbEntity
  8
LEVEL_Ground
100
AcDbLine
 10
7320.0
 20
-5880.0
 30
0.0
 11
7410.0
 21
-5970.0
 31
0.0
  0
LINE
  5
E7
330
1A2
100
AcDbEntity
  8
LEVEL_Ground
100
AcDbLine
 10
7200.0
 20
-5880.0
 30
0.0
 11
7290.0
 21
-5970.0
 31
0.0
  0
LINE
  5
E8
330
1A2
100
AcDbEntity
  8
LEVEL_Ground
100
AcDbLine
 10
7080.0
 20
-5880.0
 30
0.0
 11
7170.0
 21
-5970.0
 31
0.0
  0
LINE
  5
E9
330
1A2
100
AcDbEntity
  8
LEVEL_Ground
100
AcDbLine
 10
6960.0
 20
-5880.0
 30
0.0
 11
7050.0
 21
-5970.0
 31
0.0
  0
LINE
  5
EA
330
1A2
100
AcDbEntity
  8
LEVEL_Ground
100
AcDbLine
 10
6840.0
 20
-5880.0
 30
0.0
 11
6930.0
 21
-5970.0
 31
0.0
  0
LINE
  5
EB
330
1A2
100
AcDbEntity
  8
LEVEL_Ground
100
AcDbLine
 10
6720.0
 20
-5880.0
 30
0.0
 11
6810.0
 21
-5970.0
 31
0.0
  0
LINE
  5
EC
330
1A2
100
AcDbEntity
  8
LEVEL_Ground
100
AcDbLine
 10
6600.0
 20
-5880.0
 30
0.0
 11
6690.0
 21
-5970.0
 31
0.0
  0
LINE
  5
ED
330
1A2
100
AcDbEntity
  8
LEVEL_Ground
100
AcDbLine
 10
6480.0
 20
-5880.0
 30
0.0
 11
6570.0
 21
-5970.0
 31
0.0
  0
LINE
  5
EE
330
1A2
100
AcDbEntity
  8
LEVEL_Ground
100
AcDbLine
 10
6360.0
 20
-5880.0
 30
0.0
 11
6450.0
 21
-5970.0
 31
0.0
  0
LINE
  5
EF
330
1A2
100
AcDbEntity
  8
LEVEL_Ground
100
AcDbLine
 10
6240.0
 20
-5880.0
 30
0.0
 11
6330.0
 21
-5970.0
 31
0.0
  0
LINE
  5
F0
330
1A2
100
AcDbEntity
  8
LEVEL_Ground
100
AcDbLine
 10
6120.0
 20
-5880.0
 30
0.0
 11
6210.0
 21
-5970.0
 31
0.0
  0
LINE
  5
F1
330
1A2
100
AcDbEntity
  8
LEVEL_Ground
100
AcDbLine
 10
6000.0
 20
-5880.0
 30
0.0
 11
6090.0
 21
-5970.0
 31
0.0
  0
LINE
  5
F2
330
1A2
100
AcDbEntity
  8
LEVEL_Ground
100
AcDbLine
 10
5880.0
 20
-5880.0
 30
0.0
 11
5970.0
 21
-5970.0
 31
0.0
  0
LINE
  5
F3
330
1A2
100
AcDbEntity
  8
LEVEL_Ground
100
AcDbLine
 10
5760.0
 20
-5880.0
 30
0.0
 11
5850.0
 21
-5970.0
 31
0.0
  0
LINE
  5
F4
330
1A2
100
AcDbEntity
  8
LEVEL_Ground
100
AcDbLine
 10
5640.0
 20
-5880.0
 30
0.0
 11
5730.0
 21
-5970.0
 31
0.0
  0
LINE
  5
F5
330
1A2
100
AcDbEntity
  8
LEVEL_Ground
100
AcDbLine
 10
5520.0
 20
-5880.0
 30
0.0
 11
5610.0
 21
-5970.0
 31
0.0
  0
LINE
  5
F6
330
1A2
100
AcDbEntity
  8
LEVEL_Ground
100
AcDbLine
 10
5400.0
 20
-5880.0
 30
0.0
 11
5490.0
 21
-5970.0
 31
0.0
  0
LWPOLYLINE
  5
F7
330
1A2
100
AcDbEntity
  8
LEVEL_Ground
100
AcDbPolyline
 90
        4
 70
     1
 43
0.0
 10
120.0
 20
-5880.0
 10
130.0
 20
-5870.0
 10
3600.0
 20
-5870.0
 10
3600.0
 20
-5880.0
  0
LWPOLYLINE
  5
F8
330
1A2
100
AcDbEntity
  8
LEVEL_Ground
100
AcDbPolyline
 90
        4
 70
     1
 43
0.0
 10
5400.0
 20
-5870.0
 10
8870.0
 20
-5870.0
 10
8880.0
 20
-5880.0
 10
5400.0
 20
-5880.0
  0
LWPOLYLINE
  5
F9
330
1A2
100
AcDbEntity
  8
LEVEL_Ground
100
AcDbPolyline
 90
        4
 70
     1
 43
0.0
 10
-130.0
 20
-6130.0
 10
-130.0
 20
130.0
 10
-20.0
 20
20.00000000000091
 10
-20.0
 20
-6020.0
  0
LINE
  5
FA
330
1A2
100
AcDbEntity
  8
LEVEL_Ground
100
AcDbLine
 10
-130.0
 20
120.0
 30
0.0
 11
-119.9999999999999
 21
120.0
 31
0.0
  0
LINE
  5
FB
330
1A2
100
AcDbEntity
  8
LEVEL_Ground
100
AcDbLine
 10
-130.0
 20
0.0
 30
0.0
 11
-20.0
 21
0.0
 31
0.0
  0
LINE
  5
FC
330
1A2
100
AcDbEntity
  8
LEVEL_Ground
100
AcDbLine
 10
-130.0
 20
-120.0
 30
0.0
 11
-20.0
 21
-120.0
 31
0.0
  0
LINE
  5
FD
330
1A2
100
AcDbEntity
  8
LEVEL_Ground
100
AcDbLine
 10
-130.0
 20
-240.0
 30
0.0
 11
-20.0
 21
-240.0
 31
0.0
  0
LINE
  5
FE
330
1A2
100
AcDbEntity
  8
LEVEL_Ground
100
AcDbLine
 10
-130.0
 20
-360.0
 30
0.0
 11
-20.0
 21
-360.0
 31
0.0
  0
LINE
  5
FF
330
1A2
100
AcDbEntity
  8
LEVEL_Ground
100
AcDbLine
 10
-130.0
 20
-480.0
 30
0.0
 11
-20.0
 21
-480.0
 31
0.0
  0
LINE
  5
100
330
1A2
100
AcDbEntity
  8
LEVEL_Ground
100
AcDbLine
 10
-130.0
 20
-600.0
 30
0.0
 11
-20.0
 21
-600.0
 31
0.0
  0
LINE
  5
101
330
1A2
100
AcDbEntity
  8
LEVEL_Ground
100
AcDbLine
 10
-130.0
 20
-720.0
 30
0.0
 11
-20.0
 21
-720.0
 31
0.0
  0
LINE
  5
102
330
1A2
100
AcDbEntity
  8
LEVEL_Ground
100
AcDbLine
 10
-130.0
 20
-840.0
 30
0.0
 11
-20.0
 21
-840.0
 31
0.0
  0
LINE
  5
103
330
1A2
100
AcDbEntity
  8
LEVEL_Ground
100
AcDbLine
 10
-130.0
 20
-960.0
 30
0.0
 11
-20.0
 21
-960.0
 31
0.0
  0
LINE
  5
104
330
1A2
100
AcDbEntity
  8
LEVEL_Ground
100
AcDbLine
 10
-130.0
 20
-1080.0
 30
0.0
 11
-20.0
 21
-1080.0
 31
0.0
  0
LINE
  5
105
330
1A2
100
AcDbEntity
  8
LEVEL_Ground
100
AcDbLine
 10
-130.0
 20
-1200.0
 30
0.0
 11
-20.0
 21
-1200.0
 31
0.0
  0
LINE
  5
106
330
1A2
100
AcDbEntity
  8
LEVEL_Ground
100
AcDbLine
 10
-130.0
 20
-1320.0
 30
0.0
 11
-20.0
 21
-1320.0
 31
0.0
  0
LINE
  5
107
330
1A2
100
AcDbEntity
  8
LEVEL_Ground
100
AcDbLine
 10
-130.0
 20
-1440.0
 30
0.0
 11
-20.0
 21
-1440.0
 31
0.0
  0
LINE
  5
108
330
1A2
100
AcDbEntity
  8
LEVEL_Ground
100
AcDbLine
 10
-130.0
 20
-1560.0
 30
0.0
 11
-20.0
 21
-1560.0
 31
0.0
  0
LINE
  5
109
330
1A2
100
AcDbEntity
  8
LEVEL_Ground
100
AcDbLine
 10
-130.0
 20
-1680.0
 30
0.0
 11
-20.0
 21
-1680.0
 31
0.0
  0
LINE
  5
10A
330
1A2
100
AcDbEntity
  8
LEVEL_Ground
100
AcDbLine
 10
-130.0
 20
-1800.0
 30
0.0
 11
-20.0
 21
-1800.0
 31
0.0
  0
LINE
  5
10B
330
1A2
100
AcDbEntity
  8
LEVEL_Ground
100
AcDbLine
 10
-130.0
 20
-1920.0
 30
0.0
 11
-20.0
 21
-1920.0
 31
0.0
  0
LINE
  5
10C
330
1A2
100
AcDbEntity
  8
LEVEL_Ground
100
AcDbLine
 10
-130.0
 20
-2040.0
 30
0.0
 11
-20.0
 21
-2040.0
 31
0.0
  0
LINE
  5
10D
330
1A2
100
AcDbEntity
  8
LEVEL_Ground
100
AcDbLine
 10
-130.0
 20
-2160.0
 30
0.0
 11
-20.0
 21
-2160.0
 31
0.0
  0
LINE
  5
10E
330
1A2
100
AcDbEntity
  8
LEVEL_Ground
100
AcDbLine
 10
-130.0
 20
-2280.0
 30
0.0
 11
-20.0
 21
-2280.0
 31
0.0
  0
LINE
  5
10F
330
1A2
100
AcDbEntity
  8
LEVEL_Ground
100
AcDbLine
 10
-130.0
 20
-2400.0
 30
0.0
 11
-20.0
 21
-2400.0
 31
0.0
  0
LINE
  5
110
330
1A2
100
AcDbEntity
  8
LEVEL_Ground
100
AcDbLine
 10
-130.0
 20
-2520.0
 30
0.0
 11
-20.0
 21
-2520.0
 31
0.0
  0
LINE
  5
111
330
1A2
100
AcDbEntity
  8
LEVEL_Ground
100
AcDbLine
 10
-130.0
 20
-2640.0
 30
0.0
 11
-20.0
 21
-2640.0
 31
0.0
  0
LINE
  5
112
330
1A2
100
AcDbEntity
  8
LEVEL_Ground
100
AcDbLine
 10
-130.0
 20
-2760.0
 30
0.0
 11
-20.0
 21
-2760.0
 31
0.0
  0
LINE
  5
113
330
1A2
100
AcDbEntity
  8
LEVEL_Ground
100
AcDbLine
 10
-130.0
 20
-2880.0
 30
0.0
 11
-20.0
 21
-2880.0
 31
0.0
  0
LINE
  5
114
330
1A2
100
AcDbEntity
  8
LEVEL_Ground
100
AcDbLine
 10
-130.0
 20
-3000.0
 30
0.0
 11
-20.0
 21
-3000.0
 31
0.0
  0
LINE
  5
115
330
1A2
100
AcDbEntity
  8
LEVEL_Ground
100
AcDbLine
 10
-130.0
 20
-3120.0
 30
0.0
 11
-20.0
 21
-3120.0
 31
0.0
  0
LINE
  5
116
330
1A2
100
AcDbEntity
  8
LEVEL_Ground
100
AcDbLine
 10
-130.0
 20
-3240.0
 30
0.0
 11
-20.0
 21
-3240.0
 31
0.0
  0
LINE
  5
117
330
1A2
100
AcDbEntity
  8
LEVEL_Ground
100
AcDbLine
 10
-130.0
 20
-3360.0
 30
0.0
 11
-20.0
 21
-3360.0
 31
0.0
  0
LINE
  5
118
330
1A2
100
AcDbEntity
  8
LEVEL_Ground
100
AcDbLine
 10
-130.0
 20
-3480.0
 30
0.0
 11
-20.0
 21
-3480.0
 31
0.0
  0
LINE
  5
119
330
1A2
100
AcDbEntity
  8
LEVEL_Ground
100
AcDbLine
 10
-130.0
 20
-3600.0
 30
0.0
 11
-20.0
 21
-3600.0
 31
0.0
  0
LINE
  5
11A
330
1A2
100
AcDbEntity
  8
LEVEL_Ground
100
AcDbLine
 10
-130.0
 20
-3720.0
 30
0.0
 11
-20.0
 21
-3720.0
 31
0.0
  0
LINE
  5
11B
330
1A2
100
AcDbEntity
  8
LEVEL_Ground
100
AcDbLine
 10
-130.0
 20
-3840.0
 30
0.0
 11
-20.0
 21
-3840.0
 31
0.0
  0
LINE
  5
11C
330
1A2
100
AcDbEntity
  8
LEVEL_Ground
100
AcDbLine
 10
-130.0
 20
-3960.0
 30
0.0
 11
-20.0
 21
-3960.0
 31
0.0
  0
LINE
  5
11D
330
1A2
100
AcDbEntity
  8
LEVEL_Ground
100
AcDbLine
 10
-130.0
 20
-4080.0
 30
0.0
 11
-20.0
 21
-4080.0
 31
0.0
  0
LINE
  5
11E
330
1A2
100
AcDbEntity
  8
LEVEL_Ground
100
AcDbLine
 10
-130.0
 20
-4200.0
 30
0.0
 11
-20.0
 21
-4200.0
 31
0.0
  0
LINE
  5
11F
330
1A2
100
AcDbEntity
  8
LEVEL_Ground
100
AcDbLine
 10
-130.0
 20
-4320.0
 30
0.0
 11
-20.0
 21
-4320.0
 31
0.0
  0
LINE
  5
120
330
1A2
100
AcDbEntity
  8
LEVEL_Ground
100
AcDbLine
 10
-130.0
 20
-4440.0
 30
0.0
 11
-20.0
 21
-4440.0
 31
0.0
  0
LINE
  5
121
330
1A2
100
AcDbEntity
  8
LEVEL_Ground
100
AcDbLine
 10
-130.0
 20
-4560.0
 30
0.0
 11
-20.0
 21
-4560.0
 31
0.0
  0
LINE
  5
122
330
1A2
100
AcDbEntity
  8
LEVEL_Ground
100
AcDbLine
 10
-130.0
 20
-4680.0
 30
0.0
 11
-20.0
 21
-4680.0
 31
0.0
  0
LINE
  5
123
330
1A2
100
AcDbEntity
  8
LEVEL_Ground
100
AcDbLine
 10
-130.0
 20
-4800.0
 30
0.0
 11
-20.0
 21
-4800.0
 31
0.0
  0
LINE
  5
124
330
1A2
100
AcDbEntity
  8
LEVEL_Ground
100
AcDbLine
 10
-130.0
 20
-4920.0
 30
0.0
 11
-20.0
 21
-4920.0
 31
0.0
  0
LINE
  5
125
330
1A2
100
AcDbEntity
  8
LEVEL_Ground
100
AcDbLine
 10
-130.0
 20
-5040.0
 30
0.0
 11
-20.0
 21
-5040.0
 31
0.0
  0
LINE
  5
126
330
1A2
100
AcDbEntity
  8
LEVEL_Ground
100
AcDbLine
 10
-130.0
 20
-5160.0
 30
0.0
 11
-20.0
 21
-5160.0
 31
0.0
  0
LINE
  5
127
330
1A2
100
AcDbEntity
  8
LEVEL_Ground
100
AcDbLine
 10
-130.0
 20
-5280.0
 30
0.0
 11
-20.0
 21
-5280.0
 31
0.0
  0
LINE
  5
128
330
1A2
100
AcDbEntity
  8
LEVEL_Ground
100
AcDbLine
 10
-130.0
 20
-5400.0
 30
0.0
 11
-20.0
 21
-5400.0
 31
0.0
  0
LINE
  5
129
330
1A2
100
AcDbEntity
  8
LEVEL_Ground
100
AcDbLine
 10
-130.0
 20
-5520.0
 30
0.0
 11
-20.0
 21
-5520.0
 31
0.0
  0
LINE
  5
12A
330
1A2
100
AcDbEntity
  8
LEVEL_Ground
100
AcDbLine
 10
-130.0
 20
-5640.0
 30
0.0
 11
-20.0
 21
-5640.0
 31
0.0
  0
LINE
  5
12B
330
1A2
100
AcDbEntity
  8
LEVEL_Ground
100
AcDbLine
 10
-130.0
 20
-5760.0
 30
0.0
 11
-20.0
 21
-5760.0
 31
0.0
  0
LINE
  5
12C
330
1A2
100
AcDbEntity
  8
LEVEL_Ground
100
AcDbLine
 10
-130.0
 20
-5880.0
 30
0.0
 11
-20.0
 21
-5880.0
 31
0.0
  0
LINE
  5
12D
330
1A2
100
AcDbEntity
  8
LEVEL_Ground
100
AcDbLine
 10
-130.0
 20
-6000.0
 30
0.0
 11
-20.0
 21
-6000.0
 31
0.0
  0
LINE
  5
12E
330
1A2
100
AcDbEntity
  8
LEVEL_Ground
100
AcDbLine
 10
-130.0
 20
-6120.0
 30
0.0
 11
-120.0
 21
-6120.0
 31
0.0
  0
LWPOLYLINE
  5
12F
330
1A2
100
AcDbEntity
  8
LEVEL_Ground
100
AcDbPolyline
 90
        4
 70
     1
 43
0.0
 10
-20.0
 20
-6020.0
 10
-20.0
 20
20.00000000000091
 10
30.0
 20
-30.0
 10
30.0
 20
-5970.0
  0
LWPOLYLINE
  5
130
330
1A2
100
AcDbEntity
  8
LEVEL_Ground
100
AcDbPolyline
 90
        4
 70
     1
 43
0.0
 10
30.0
 20
-5970.0
 10
30.0
 20
-30.0
 10
120.0
 20
-120.0
 10
120.0
 20
-5880.0
  0
LINE
  5
131
330
1A2
100
AcDbEntity
  8
LEVEL_Ground
100
AcDbLine
 10
30.0
 20
-150.0
 30
0.0
 11
120.0
 21
-240.0
 31
0.0
  0
LINE
  5
132
330
1A2
100
AcDbEntity
  8
LEVEL_Ground
100
AcDbLine
 10
30.0
 20
-270.0
 30
0.0
 11
120.0
 21
-360.0
 31
0.0
  0
LINE
  5
133
330
1A2
100
AcDbEntity
  8
LEVEL_Ground
100
AcDbLine
 10
30.0
 20
-390.0
 30
0.0
 11
120.0
 21
-480.0
 31
0.0
  0
LINE
  5
134
330
1A2
100
AcDbEntity
  8
LEVEL_Ground
100
AcDbLine
 10
30.0
 20
-510.0
 30
0.0
 11
120.0
 21
-600.0
 31
0.0
  0
LINE
  5
135
330
1A2
100
AcDbEntity
  8
LEVEL_Ground
100
AcDbLine
 10
30.0
 20
-630.0
 30
0.0
 11
120.0
 21
-720.0
 31
0.0
  0
LINE
  5
136
330
1A2
100
AcDbEntity
  8
LEVEL_Ground
100
AcDbLine
 10
30.0
 20
-750.0
 30
0.0
 11
120.0
 21
-840.0
 31
0.0
  0
LINE
  5
137
330
1A2
100
AcDbEntity
  8
LEVEL_Ground
100
AcDbLine
 10
30.0
 20
-870.0
 30
0.0
 11
120.0
 21
-960.0
 31
0.0
  0
LINE
  5
138
330
1A2
100
AcDbEntity
  8
LEVEL_Ground
100
AcDbLine
 10
30.0
 20
-990.0
 30
0.0
 11
120.0
 21
-1080.0
 31
0.0
  0
LINE
  5
139
330
1A2
100
AcDbEntity
  8
LEVEL_Ground
100
AcDbLine
 10
30.0
 20
-1110.0
 30
0.0
 11
120.0
 21
-1200.0
 31
0.0
  0
LINE
  5
13A
330
1A2
100
AcDbEntity
  8
LEVEL_Ground
100
AcDbLine
 10
30.0
 20
-1230.0
 30
0.0
 11
120.0
 21
-1320.0
 31
0.0
  0
LINE
  5
13B
330
1A2
100
AcDbEntity
  8
LEVEL_Ground
100
AcDbLine
 10
30.0
 20
-1350.0
 30
0.0
 11
120.0
 21
-1440.0
 31
0.0
  0
LINE
  5
13C
330
1A2
100
AcDbEntity
  8
LEVEL_Ground
100
AcDbLine
 10
30.0
 20
-1470.0
 30
0.0
 11
120.0
 21
-1560.0
 31
0.0
  0
LINE
  5
13D
330
1A2
100
AcDbEntity
  8
LEVEL_Ground
100
AcDbLine
 10
30.0
 20
-1590.0
 30
0.0
 11
120.0
 21
-1680.0
 31
0.0
  0
LINE
  5
13E
330
1A2
100
AcDbEntity
  8
LEVEL_Ground
100
AcDbLine
 10
30.0
 20
-1710.0
 30
0.0
 11
120.0
 21
-1800.0
 31
0.0
  0
LINE
  5
13F
330
1A2
100
AcDbEntity
  8
LEVEL_Ground
100
AcDbLine
 10
30.0
 20
-1830.0
 30
0.0
 11
120.0
 21
-1920.0
 31
0.0
  0
LINE
  5
140
330
1A2
100
AcDbEntity
  8
LEVEL_Ground
100
AcDbLine
 10
30.0
 20
-1950.0
 30
0.0
 11
120.0
 21
-2040.0
 31
0.0
  0
LINE
  5
141
330
1A2
100
AcDbEntity
  8
LEVEL_Ground
100
AcDbLine
 10
30.0
 20
-2070.0
 30
0.0
 11
120.0
 21
-2160.0
 31
0.0
  0
LINE
  5
142
330
1A2
100
AcDbEntity
  8
LEVEL_Ground
100
AcDbLine
 10
30.0
 20
-2190.0
 30
0.0
 11
120.0
 21
-2280.0
 31
0.0
  0
LINE
  5
143
330
1A2
100
AcDbEntity
  8
LEVEL_Ground
100
AcDbLine
 10
30.0
 20
-2310.0
 30
0.0
 11
120.0
 21
-2400.0
 31
0.0
  0
LINE
  5
144
330
1A2
100
AcDbEntity
  8
LEVEL_Ground
100
AcDbLine
 10
30.0
 20
-2430.0
 30
0.0
 11
120.0
 21
-2520.0
 31
0.0
  0
LINE
  5
145
330
1A2
100
AcDbEntity
  8
LEVEL_Ground
100
AcDbLine
 10
30.0
 20
-2550.0
 30
0.0
 11
120.0
 21
-2640.0
 31
0.0
  0
LINE
  5
146
330
1A2
100
AcDbEntity
  8
LEVEL_Ground
100
AcDbLine
 10
30.0
 20
-2670.0
 30
0.0
 11
120.0
 21
-2760.0
 31
0.0
  0
LINE
  5
147
330
1A2
100
AcDbEntity
  8
LEVEL_Ground
100
AcDbLine
 10
30.0
 20
-2790.0
 30
0.0
 11
120.0
 21
-2880.0
 31
0.0
  0
LINE
  5
148
330
1A2
100
AcDbEntity
  8
LEVEL_Ground
100
AcDbLine
 10
30.0
 20
-2910.0
 30
0.0
 11
120.0
 21
-3000.0
 31
0.0
  0
LINE
  5
149
330
1A2
100
AcDbEntity
  8
LEVEL_Ground
100
AcDbLine
 10
30.0
 20
-3030.0
 30
0.0
 11
120.0
 21
-3120.0
 31
0.0
  0
LINE
  5
14A
330
1A2
100
AcDbEntity
  8
LEVEL_Ground
100
AcDbLine
 10
30.0
 20
-3150.0
 30
0.0
 11
120.0
 21
-3240.0
 31
0.0
  0
LINE
  5
14B
330
1A2
100
AcDbEntity
  8
LEVEL_Ground
100
AcDbLine
 10
30.0
 20
-3270.0
 30
0.0
 11
120.0
 21
-3360.0
 31
0.0
  0
LINE
  5
14C
330
1A2
100
AcDbEntity
  8
LEVEL_Ground
100
AcDbLine
 10
30.0
 20
-3390.0
 30
0.0
 11
120.0
 21
-3480.0
 31
0.0
  0
LINE
  5
14D
330
1A2
100
AcDbEntity
  8
LEVEL_Ground
100
AcDbLine
 10
30.0
 20
-3510.0
 30
0.0
 11
120.0
 21
-3600.0
 31
0.0
  0
LINE
  5
14E
330
1A2
100
AcDbEntity
  8
LEVEL_Ground
100
AcDbLine
 10
30.0
 20
-3630.0
 30
0.0
 11
120.0
 21
-3720.0
 31
0.0
  0
LINE
  5
14F
330
1A2
100
AcDbEntity
  8
LEVEL_Ground
100
AcDbLine
 10
30.0
 20
-3750.0
 30
0.0
 11
120.0
 21
-3840.0
 31
0.0
  0
LINE
  5
150
330
1A2
100
AcDbEntity
  8
LEVEL_Ground
100
AcDbLine
 10
30.0
 20
-3870.0
 30
0.0
 11
120.0
 21
-3960.0
 31
0.0
  0
LINE
  5
151
330
1A2
100
AcDbEntity
  8
LEVEL_Ground
100
AcDbLine
 10
30.0
 20
-3990.0
 30
0.0
 11
120.0
 21
-4080.0
 31
0.0
  0
LINE
  5
152
330
1A2
100
AcDbEntity
  8
LEVEL_Ground
100
AcDbLine
 10
30.0
 20
-4110.0
 30
0.0
 11
120.0
 21
-4200.0
 31
0.0
  0
LINE
  5
153
330
1A2
100
AcDbEntity
  8
LEVEL_Ground
100
AcDbLine
 10
30.0
 20
-4230.0
 30
0.0
 11
120.0
 21
-4320.0
 31
0.0
  0
LINE
  5
154
330
1A2
100
AcDbEntity
  8
LEVEL_Ground
100
AcDbLine
 10
30.0
 20
-4350.0
 30
0.0
 11
120.0
 21
-4440.0
 31
0.0
  0
LINE
  5
155
330
1A2
100
AcDbEntity
  8
LEVEL_Ground
100
AcDbLine
 10
30.0
 20
-4470.0
 30
0.0
 11
120.0
 21
-4560.0
 31
0.0
  0
LINE
  5
156
330
1A2
100
AcDbEntity
  8
LEVEL_Ground
100
AcDbLine
 10
30.0
 20
-4590.0
 30
0.0
 11
120.0
 21
-4680.0
 31
0.0
  0
LINE
  5
157
330
1A2
100
AcDbEntity
  8
LEVEL_Ground
100
AcDbLine
 10
30.0
 20
-4710.0
 30
0.0
 11
120.0
 21
-4800.0
 31
0.0
  0
LINE
  5
158
330
1A2
100
AcDbEntity
  8
LEVEL_Ground
100
AcDbLine
 10
30.0
 20
-4830.0
 30
0.0
 11
120.0
 21
-4920.0
 31
0.0
  0
LINE
  5
159
330
1A2
100
AcDbEntity
  8
LEVEL_Ground
100
AcDbLine
 10
30.0
 20
-4950.0
 30
0.0
 11
120.0
 21
-5040.0
 31
0.0
  0
LINE
  5
15A
330
1A2
100
AcDbEntity
  8
LEVEL_Ground
100
AcDbLine
 10
30.0
 20
-5070.0
 30
0.0
 11
120.0
 21
-5160.0
 31
0.0
  0
LINE
  5
15B
330
1A2
100
AcDbEntity
  8
LEVEL_Ground
100
AcDbLine
 10
30.0
 20
-5190.0
 30
0.0
 11
120.0
 21
-5280.0
 31
0.0
  0
LINE
  5
15C
330
1A2
100
AcDbEntity
  8
LEVEL_Ground
100
AcDbLine
 10
30.0
 20
-5310.0
 30
0.0
 11
120.0
 21
-5400.0
 31
0.0
  0
LINE
  5
15D
330
1A2
100
AcDbEntity
  8
LEVEL_Ground
100
AcDbLine
 10
30.0
 20
-5430.0
 30
0.0
 11
120.0
 21
-5520.0
 31
0.0
  0
LINE
  5
15E
330
1A2
100
AcDbEntity
  8
LEVEL_Ground
100
AcDbLine
 10
30.0
 20
-5550.0
 30
0.0
 11
120.0
 21
-5640.0
 31
0.0
  0
LINE
  5
15F
330
1A2
100
AcDbEntity
  8
LEVEL_Ground
100
AcDbLine
 10
30.0
 20
-5670.0
 30
0.0
 11
120.0
 21
-5760.0
 31
0.0
  0
LINE
  5
160
330
1A2
100
AcDbEntity
  8
LEVEL_Ground
100
AcDbLine
 10
30.0
 20
-5790.0
 30
0.0
 11
120.0
 21
-5880.0
 31
0.0
  0
LINE
  5
161
330
1A2
100
AcDbEntity
  8
LEVEL_Ground
100
AcDbLine
 10
30.0
 20
-5910.0
 30
0.0
 11
60.0
 21
-5940.0
 31
0.0
  0
LWPOLYLINE
  5
162
330
1A2
100
AcDbEntity
  8
LEVEL_Ground
100
AcDbPolyline
 90
        4
 70
     1
 43
0.0
 10
120.0
 20
-5880.0
 10
120.0
 20
-120.0
 10
130.0
 20
-130.0
 10
130.0
 20
-5870.0
  0
LWPOLYLINE
  5
163
330
1A2
100
AcDbEntity
  8
LEVEL_Ground
100
AcDbPolyline
 90
        4
 70
     1
 43
0.0
 10
5955.0
 20
0.0
 10
6045.0
 20
0.0
 10
6045.0
 20
-2565.0
 10
5955.0
 20
-2565.0
  0
LWPOLYLINE
  5
164
330
1A2
100
AcDbEntity
  8
LEVEL_Ground
100
AcDbPolyline
 90
        4
 70
     1
 43
0.0
 10
5955.0
 20
-3435.0
 10
6045.0
 20
-3435.0
 10
6045.0
 20
-6000.0
 10
5955.0
 20
-6000.0
  0
LINE
  5
165
330
1A2
100
AcDbEntity
  8
LEVEL_Ground
100
AcDbLine
 10
5400.0
 20
-6130.0
 30
0.0
 11
5400.0
 21
-5870.0
 31
0.0
  0
LINE
  5
166
330
1A2
100
AcDbEntity
  8
LEVEL_Ground
100
AcDbLine
 10
3600.0
 20
-6130.0
 30
0.0
 11
3600.0
 21
-5870.0
 31
0.0
  0
LINE
  5
167
330
1A2
100
AcDbEntity
  8
LEVEL_Ground
100
AcDbLine
 10
5400.0
 20
-6000.0
 30
0.0
 11
5400.0
 21
-4200.0
 31
0.0
  0
ARC
  5
168
330
1A2
100
AcDbEntity
  8
LEVEL_Ground
100
AcDbCircle
 10
5400.0
 20
-6000.0
 30
0.0
 40
1800.0
100
AcDbArc
 50
90.0
 51
180.0
  0
TEXT
  5
169
330
1A2
100
AcDbEntity
  8
LEVEL_Ground
100
AcDbText
 10
4500.0
 20
-5660.0
 30
0.0
 40
130.0
  1
D01
  7
Standard
 11
0.0
 21
0.0
 31
0.0
100
AcDbText
  0
LINE
  5
16A
330
1A2
100
AcDbEntity
  8
LEVEL_Ground
100
AcDbLine
 10
1800.0
 20
130.0
 30
0.0
 11
1800.0
 21
-130.0
 31
0.0
  0
LINE
  5
16B
330
1A2
100
AcDbEntity
  8
LEVEL_Ground
100
AcDbLine
 10
4200.0
 20
130.0
 30
0.0
 11
4200.0
 21
-130.0
 31
0.0
  0
LINE
  5
16C
330
1A2
100
AcDbEntity
  8
LEVEL_Ground
100
AcDbLine
 10
1800.0
 20
130.0
 30
0.0
 11
4200.0
 21
130.0
 31
0.0
  0
LINE
  5
16D
330
1A2
100
AcDbEntity
  8
LEVEL_Ground
100
AcDbLine
 10
1800.0
 20
0.0
 30
0.0
 11
4200.0
 21
0.0
 31
0.0
  0
LINE
  5
16E
330
1A2
100
AcDbEntity
  8
LEVEL_Ground
100
AcDbLine
 10
1800.0
 20
-130.0
 30
0.0
 11
4200.0
 21
-130.0
 31
0.0
  0
TEXT
  5
16F
330
1A2
100
AcDbEntity
  8
LEVEL_Ground
100
AcDbText
 10
3000.0
 20
-340.0
 30
0.0
 40
130.0
  1
W01
  7
Standard
 11
0.0
 21
0.0
 31
0.0
100
AcDbText
  0
LINE
  5
170
330
1A2
100
AcDbEntity
  8
LEVEL_Ground
100
AcDbLine
 10
6045.0
 20
-2565.0
 30
0.0
 11
5955.0
 21
-2565.0
 31
0.0
  0
LINE
  5
171
330
1A2
100
AcDbEntity
  8
LEVEL_Ground
100
AcDbLine
 10
6045.0
 20
-3435.0
 30
0.0
 11
5955.0
 21
-3435.0
 31
0.0
  0
LINE
  5
172
330
1A2
100
AcDbEntity
  8
LEVEL_Ground
100
AcDbLine
 10
6000.0
 20
-3435.0
 30
0.0
 11
6870.0
 21
-3435.0
 31
0.0
  0
ARC
  5
173
330
1A2
100
AcDbEntity
  8
LEVEL_Ground
100
AcDbCircle
 10
6000.0
 20
-3435.0
 30
0.0
 40
870.0
100
AcDbArc
 50
0.0
 51
90.0
  0
TEXT
  5
174
330
1A2
100
AcDbEntity
  8
LEVEL_Ground
100
AcDbText
 10
5745.0
 20
-3000.0
 30
0.0
 40
130.0
  1
D02
  7
Standard
 11
0.0
 21
0.0
 31
0.0
100
AcDbText
  0
TEXT
  5
175
330
1A2
100
AcDbEntity
  8
LEVEL_Ground
100
AcDbText
 10
3000.0
 20
-3000.0
 30
0.0
 40
190.0
  1
STUDIO
  7
Standard
 11
0.0
 21
0.0
 31
0.0
100
AcDbText
  0
TEXT
  5
176
330
1A2
100
AcDbEntity
  8
LEVEL_Ground
100
AcDbText
 10
3000.0
 20
-3210.0
 30
0.0
 40
125.0
  1
33.44 m² | P 23.13 m
  7
Standard
 11
0.0
 21
0.0
 31
0.0
100
AcDbText
  0
TEXT
  5
177
330
1A2
100
AcDbEntity
  8
LEVEL_Ground
100
AcDbText
 10
3000.0
 20
-3390.0
 30
0.0
 40
115.0
  1
CL 2.700 m
  7
Standard
 11
0.0
 21
0.0
 31
0.0
100
AcDbText
  0
TEXT
  5
178
330
1A2
100
AcDbEntity
  8
LEVEL_Ground
100
AcDbText
 10
7500.0
 20
-3000.0
 30
0.0
 40
190.0
  1
WORKSHOP
  7
Standard
 11
0.0
 21
0.0
 31
0.0
100
AcDbText
  0
TEXT
  5
179
330
1A2
100
AcDbEntity
  8
LEVEL_Ground
100
AcDbText
 10
7500.0
 20
-3210.0
 30
0.0
 40
125.0
  1
16.22 m² | P 17.13 m
  7
Standard
 11
0.0
 21
0.0
 31
0.0
100
AcDbText
  0
TEXT
  5
17A
330
1A2
100
AcDbEntity
  8
LEVEL_Ground
100
AcDbText
 10
7500.0
 20
-3390.0
 30
0.0
 40
115.0
  1
CL 2.700 m
  7
Standard
 11
0.0
 21
0.0
 31
0.0
100
AcDbText
  0
LINE
  5
17B
330
1A2
100
AcDbEntity
  8
LEVEL_Ground
100
AcDbLine
 10
0.0
 20
0.0
 30
0.0
 11
0.0
 21
550.0
 31
0.0
  0
LINE
  5
17C
330
1A2
100
AcDbEntity
  8
LEVEL_Ground
100
AcDbLine
 10
9000.0
 20
0.0
 30
0.0
 11
9000.0
 21
550.0
 31
0.0
  0
LINE
  5
17D
330
1A2
100
AcDbEntity
  8
LEVEL_Ground
100
AcDbLine
 10
0.0
 20
650.0
 30
0.0
 11
9000.0
 21
650.0
 31
0.0
  0
LINE
  5
17E
330
1A2
100
AcDbEntity
  8
LEVEL_Ground
100
AcDbLine
 10
-60.0
 20
590.0
 30
0.0
 11
60.0
 21
710.0
 31
0.0
  0
LINE
  5
17F
330
1A2
100
AcDbEntity
  8
LEVEL_Ground
100
AcDbLine
 10
8940.0
 20
590.0
 30
0.0
 11
9060.0
 21
710.0
 31
0.0
  0
TEXT
  5
180
330
1A2
100
AcDbEntity
  8
LEVEL_Ground
100
AcDbText
 10
4500.0
 20
500.0
 30
0.0
 40
130.0
  1
9000
  7
Standard
 11
0.0
 21
0.0
 31
0.0
100
AcDbText
  0
LINE
  5
181
330
1A2
100
AcDbEntity
  8
LEVEL_Ground
100
AcDbLine
 10
9000.0
 20
0.0
 30
0.0
 11
9550.0
 21
0.0
 31
0.0
  0
LINE
  5
182
330
1A2
100
AcDbEntity
  8
LEVEL_Ground
100
AcDbLine
 10
9000.0
 20
-6000.0
 30
0.0
 11
9550.0
 21
-6000.0
 31
0.0
  0
LINE
  5
183
330
1A2
100
AcDbEntity
  8
LEVEL_Ground
100
AcDbLine
 10
9650.0
 20
0.0
 30
0.0
 11
9650.0
 21
-6000.0
 31
0.0
  0
LINE
  5
184
330
1A2
100
AcDbEntity
  8
LEVEL_Ground
100
AcDbLine
 10
9590.0
 20
-60.0
 30
0.0
 11
9710.0
 21
60.0
 31
0.0
  0
LINE
  5
185
330
1A2
100
AcDbEntity
  8
LEVEL_Ground
100
AcDbLine
 10
9590.0
 20
-6060.0
 30
0.0
 11
9710.0
 21
-5940.0
 31
0.0
  0
TEXT
  5
186
330
1A2
100
AcDbEntity
  8
LEVEL_Ground
100
AcDbText
 10
9500.0
 20
-3000.0
 30
0.0
 40
130.0
  1
6000
  7
Standard
 11
0.0
 21
0.0
 31
0.0
100
AcDbText
  0
LINE
  5
187
330
1A2
100
AcDbEntity
  8
LEVEL_Ground
100
AcDbLine
 10
9000.0
 20
-6000.0
 30
0.0
 11
9000.0
 21
-6550.0
 31
0.0
  0
LINE
  5
188
330
1A2
100
AcDbEntity
  8
LEVEL_Ground
100
AcDbLine
 10
0.0
 20
-6000.0
 30
0.0
 11
0.0
 21
-6550.0
 31
0.0
  0
LINE
  5
189
330
1A2
100
AcDbEntity
  8
LEVEL_Ground
100
AcDbLine
 10
9000.0
 20
-6650.0
 30
0.0
 11
0.0
 21
-6650.0
 31
0.0
  0
LINE
  5
18A
330
1A2
100
AcDbEntity
  8
LEVEL_Ground
100
AcDbLine
 10
8940.0
 20
-6710.0
 30
0.0
 11
9060.0
 21
-6590.0
 31
0.0
  0
LINE
  5
18B
330
1A2
100
AcDbEntity
  8
LEVEL_Ground
100
AcDbLine
 10
-60.0
 20
-6710.0
 30
0.0
 11
60.0
 21
-6590.0
 31
0.0
  0
TEXT
  5
18C
330
1A2
100
AcDbEntity
  8
LEVEL_Ground
100
AcDbText
 10
4500.0
 20
-6500.0
 30
0.0
 40
130.0
  1
9000
  7
Standard
 11
0.0
 21
0.0
 31
0.0
100
AcDbText
  0
LINE
  5
18D
330
1A2
100
AcDbEntity
  8
LEVEL_Ground
100
AcDbLine
 10
0.0
 20
-6000.0
 30
0.0
 11
-550.0
 21
-6000.0
 31
0.0
  0
LINE
  5
18E
330
1A2
100
AcDbEntity
  8
LEVEL_Ground
100
AcDbLine
 10
0.0
 20
0.0
 30
0.0
 11
-550.0
 21
0.0
 31
0.0
  0
LINE
  5
18F
330
1A2
100
AcDbEntity
  8
LEVEL_Ground
100
AcDbLine
 10
-650.0
 20
-6000.0
 30
0.0
 11
-650.0
 21
0.0
 31
0.0
  0
LINE
  5
190
330
1A2
100
AcDbEntity
  8
LEVEL_Ground
100
AcDbLine
 10
-710.0
 20
-6060.0
 30
0.0
 11
-590.0
 21
-5940.0
 31
0.0
  0
LINE
  5
191
330
1A2
100
AcDbEntity
  8
LEVEL_Ground
100
AcDbLine
 10
-710.0
 20
-60.0
 30
0.0
 11
-590.0
 21
60.0
 31
0.0
  0
TEXT
  5
192
330
1A2
100
AcDbEntity
  8
LEVEL_Ground
100
AcDbText
 10
-500.0
 20
-3000.0
 30
0.0
 40
130.0
  1
6000
  7
Standard
 11
0.0
 21
0.0
 31
0.0
100
AcDbText
  0
LINE
  5
193
330
1A2
100
AcDbEntity
  8
LEVEL_Ground
100
AcDbLine
 10
0.0
 20
1000.0
 30
0.0
 11
0.0
 21
-7000.0
 31
0.0
  0
CIRCLE
  5
194
330
1A2
100
AcDbEntity
  8
LEVEL_Ground
100
AcDbCircle
 10
0.0
 20
1000.0
 30
0.0
 40
160.0
  0
TEXT
  5
195
330
1A2
100
AcDbEntity
  8
LEVEL_Ground
100
AcDbText
 10
0.0
 20
955.0
 30
0.0
 40
140.0
  1
A
  7
Standard
 11
0.0
 21
0.0
 31
0.0
100
AcDbText
  0
LINE
  5
196
330
1A2
100
AcDbEntity
  8
LEVEL_Ground
100
AcDbLine
 10
9000.0
 20
1000.0
 30
0.0
 11
9000.0
 21
-7000.0
 31
0.0
  0
CIRCLE
  5
197
330
1A2
100
AcDbEntity
  8
LEVEL_Ground
100
AcDbCircle
 10
9000.0
 20
1000.0
 30
0.0
 40
160.0
  0
TEXT
  5
198
330
1A2
100
AcDbEntity
  8
LEVEL_Ground
100
AcDbText
 10
9000.0
 20
955.0
 30
0.0
 40
140.0
  1
B
  7
Standard
 11
0.0
 21
0.0
 31
0.0
100
AcDbText
  0
LINE
  5
199
330
1A2
100
AcDbEntity
  8
LEVEL_Ground
100
AcDbLine
 10
-1000.0
 20
0.0
 30
0.0
 11
10000.0
 21
0.0
 31
0.0
  0
CIRCLE
  5
19A
330
1A2
100
AcDbEntity
  8
LEVEL_Ground
100
AcDbCircle
 10
-1000.0
 20
0.0
 30
0.0
 40
160.0
  0
TEXT
  5
19B
330
1A2
100
AcDbEntity
  8
LEVEL_Ground
100
AcDbText
 10
-1000.0
 20
-45.0
 30
0.0
 40
140.0
  1
1
  7
Standard
 11
0.0
 21
0.0
 31
0.0
100
AcDbText
  0
LINE
  5
19C
330
1A2
100
AcDbEntity
  8
LEVEL_Ground
100
AcDbLine
 10
-1000.0
 20
-6000.0
 30
0.0
 11
10000.0
 21
-6000.0
 31
0.0
  0
CIRCLE
  5
19D
330
1A2
100
AcDbEntity
  8
LEVEL_Ground
100
AcDbCircle
 10
-1000.0
 20
-6000.0
 30
0.0
 40
160.0
  0
TEXT
  5
19E
330
1A2
100
AcDbEntity
  8
LEVEL_Ground
100
AcDbText
 10
-1000.0
 20
-6045.0
 30
0.0
 40
140.0
  1
2
  7
Standard
 11
0.0
 21
0.0
 31
0.0
100
AcDbText
  0
LINE
  5
19F
330
1A2
100
AcDbEntity
  8
LEVEL_Ground
100
AcDbLine
 10
0.0
 20
-1800.0
 30
0.0
 11
9000.0
 21
-1800.0
 31
0.0
  0
TEXT
  5
1A0
330
1A2
100
AcDbEntity
  8
LEVEL_Ground
100
AcDbText
 10
0.0
 20
-1620.0
 30
0.0
 40
170.0
  1
A
  7
Standard
 11
0.0
 21
0.0
 31
0.0
100
AcDbText
  0
TEXT
  5
1A1
330
1A2
100
AcDbEntity
  8
LEVEL_Ground
100
AcDbText
 10
9000.0
 20
-1620.0
 30
0.0
 40
170.0
  1
A
  7
Standard
 11
0.0
 21
0.0
 31
0.0
100
AcDbText
  0
VIEWPORT
  5
1E3
330
1E0
100
AcDbEntity
 67
     1
  8
0
100
AcDbViewport
 10
148.5
 20
105.0
 30
0.0
 40
297.0
 41
210.0
 68
     1
 69
     1
 12
0.0
 22
0.0
 13
0.0
 23
0.0
 14
0.0
 24
0.0
 15
0.0
 25
0.0
 16
0.0
 26
0.0
 36
1.0
 17
0.0
 27
0.0
 37
0.0
 42
0.0
 43
0.0
 44
0.0
 45
0.0
 50
0.0
 51
0.0
 72
     0
 90
        0
  1

281
     0
 71
     0
 74
     0
110
0.0
120
0.0
130
0.0
111
1.0
121
0.0
131
0.0
112
0.0
122
1.0
132
0.0
 79
     0
146
0.0
170
     0
 61
     0
348
0
292
     0
282
     0
141
0.0
142
0.0
 63
     0
340
0
345
0
346
0
332
0
333
0
361
0
  0
ENDSEC
  0
SECTION
  2
OBJECTS
  0
DICTIONARY
  5
1A9
330
0
100
AcDbDictionary
  3
ACAD_COLOR
350
1AA
  3
ACAD_GROUP
350
1AB
  3
ACAD_LAYOUT
350
1AC
  3
ACAD_MATERIAL
350
1AD
  3
ACAD_SORTENTS
350
1AE
  3
ACAD_MLEADERSTYLE
350
1AF
  3
ACAD_MLINESTYLE
350
1B0
  3
ACAD_TABLESTYLE
350
1B1
  3
ACAD_PLOTSETTINGS
350
1B2
  3
AcDbVariableDictionary
350
1B3
  3
ACAD_SCALELIST
350
1B4
  3
ACAD_VISUALSTYLE
350
1B5
  3
ACAD_FIELDLIST
350
1B6
  3
ACAD_IMAGE_DICT
350
1B7
  3
ACAD_PDFDEFINITIONS
350
1B8
  0
DICTIONARY
  5
1AA
330
1A9
100
AcDbDictionary
  0
DICTIONARY
  5
1AB
330
1A9
100
AcDbDictionary
  0
DICTIONARY
  5
1AC
330
1A9
100
AcDbDictionary
  3
Layout1
350
1DF
  0
DICTIONARY
  5
1AD
330
1A9
100
AcDbDictionary
  3
Global
350
1D8
  3
ByLayer
350
1D9
  3
ByBlock
350
1DA
  0
DICTIONARY
  5
1AE
330
1A9
100
AcDbDictionary
  0
DICTIONARY
  5
1AF
330
1A9
100
AcDbDictionary
  3
Standard
350
1D0
  0
DICTIONARY
  5
1B0
330
1A9
100
AcDbDictionary
  3
Standard
350
1CF
  0
DICTIONARY
  5
1B1
330
1A9
100
AcDbDictionary
  3
Standard
350
1D1
  0
DICTIONARY
  5
1B2
330
1A9
100
AcDbDictionary
  0
DICTIONARY
  5
1B3
330
1A9
100
AcDbDictionary
  3
CMLEADERSTYLE
350
1D2
  3
CANNOSCALE
350
1D3
  3
CTABLESTYLE
350
1D4
  3
WIPEOUTFRAME
350
1D5
  3
CVIEWDETAILSTYLE
350
1D6
  3
CVIEWSECTIONSTYLE
350
1D7
  0
DICTIONARY
  5
1B4
330
1A9
100
AcDbDictionary
  3
1:1
350
1BE
  3
1:2
350
1BF
  3
1:4
350
1C0
  3
1:5
350
1C1
  3
1:8
350
1C2
  3
1:10
350
1C3
  3
1:16
350
1C4
  3
1:20
350
1C5
  3
1:30
350
1C6
  3
1:40
350
1C7
  3
1:50
350
1C8
  3
1:100
350
1C9
  3
2:1
350
1CA
  3
4:1
350
1CB
  3
8:1
350
1CC
  3
10:1
350
1CD
  3
100:1
350
1CE
  0
DICTIONARY
  5
1B5
330
1A9
100
AcDbDictionary
  0
DICTIONARY
  5
1B6
330
1A9
100
AcDbDictionary
  0
DICTIONARY
  5
1B7
330
1A9
100
AcDbDictionary
  0
DICTIONARY
  5
1B8
330
1A9
100
AcDbDictionary
  0
SCALE
  5
1BE
330
1B4
100
AcDbScale
 70
     0
300
1:1
140
1.0
141
1.0
290
     1
  0
SCALE
  5
1BF
330
1B4
100
AcDbScale
 70
     0
300
1:2
140
1.0
141
2.0
290
     0
  0
SCALE
  5
1C0
330
1B4
100
AcDbScale
 70
     0
300
1:4
140
1.0
141
4.0
290
     0
  0
SCALE
  5
1C1
330
1B4
100
AcDbScale
 70
     0
300
1:5
140
1.0
141
5.0
290
     0
  0
SCALE
  5
1C2
330
1B4
100
AcDbScale
 70
     0
300
1:8
140
1.0
141
8.0
290
     0
  0
SCALE
  5
1C3
330
1B4
100
AcDbScale
 70
     0
300
1:10
140
1.0
141
10.0
290
     0
  0
SCALE
  5
1C4
330
1B4
100
AcDbScale
 70
     0
300
1:16
140
1.0
141
16.0
290
     0
  0
SCALE
  5
1C5
330
1B4
100
AcDbScale
 70
     0
300
1:20
140
1.0
141
20.0
290
     0
  0
SCALE
  5
1C6
330
1B4
100
AcDbScale
 70
     0
300
1:30
140
1.0
141
30.0
290
     0
  0
SCALE
  5
1C7
330
1B4
100
AcDbScale
 70
     0
300
1:40
140
1.0
141
40.0
290
     0
  0
SCALE
  5
1C8
330
1B4
100
AcDbScale
 70
     0
300
1:50
140
1.0
141
50.0
290
     0
  0
SCALE
  5
1C9
330
1B4
100
AcDbScale
 70
     0
300
1:100
140
1.0
141
100.0
290
     0
  0
SCALE
  5
1CA
330
1B4
100
AcDbScale
 70
     0
300
2:1
140
2.0
141
1.0
290
     0
  0
SCALE
  5
1CB
330
1B4
100
AcDbScale
 70
     0
300
4:1
140
4.0
141
1.0
290
     0
  0
SCALE
  5
1CC
330
1B4
100
AcDbScale
 70
     0
300
8:1
140
8.0
141
1.0
290
     0
  0
SCALE
  5
1CD
330
1B4
100
AcDbScale
 70
     0
300
10:1
140
10.0
141
1.0
290
     0
  0
SCALE
  5
1CE
330
1B4
100
AcDbScale
 70
     0
300
100:1
140
100.0
141
1.0
290
     0
  0
MLINESTYLE
  5
1CF
330
1B0
100
AcDbMlineStyle
  2
Standard
 70
     0
  3

 62
     0
 51
90.0
 52
90.0
 71
     2
 49
0.5
 62
     0
  6
CONTINUOUS
 49
-0.5
 62
     0
  6
CONTINUOUS
  0
DICTIONARYVAR
  5
1D2
330
1B3
100
DictionaryVariables
280
     0
  1
Standard
  0
DICTIONARYVAR
  5
1D3
330
1B3
100
DictionaryVariables
280
     0
  1
1:1
  0
DICTIONARYVAR
  5
1D4
330
1B3
100
DictionaryVariables
280
     0
  1
Standard
  0
DICTIONARYVAR
  5
1D5
330
1B3
100
DictionaryVariables
280
     0
  1
1
  0
DICTIONARYVAR
  5
1D6
330
1B3
100
DictionaryVariables
280
     0
  1
Metric50
  0
DICTIONARYVAR
  5
1D7
330
1B3
100
DictionaryVariables
280
     0
  1
Metric50
  0
LAYOUT
  5
1DF
330
1AC
100
AcDbPlotSettings
  1
none_device
  2

  4
ISO_A4_(210.00_x_297.00_MM)
  6

 40
0.0
 41
0.0
 42
0.0
 43
0.0
 44
297.0
 45
210.0
 46
0.0
 47
0.0
 48
0.0
 49
0.0
140
0.0
141
0.0
142
1.0
143
1.0
 70
   688
 72
     1
 73
     0
 74
     1
  7

 75
     0
147
1.0
148
0.0
149
0.0
 76
     0
 77
     0
 78
   300
333
0
100
AcDbLayout
  1
Layout1
 70
     1
 71
     1
 10
-20.0
 20
-7.5
 11
-20.0
 21
-7.5
 12
0.0
 22
0.0
 32
0.0
 14
25.7
 24
19.5
 34
0.0
 15
231.3
 25
175.5
 35
0.0
146
0.0
 13
0.0
 23
0.0
 33
0.0
 16
1.0
 26
0.0
 36
0.0
 17
0.0
 27
1.0
 37
0.0
 76
     0
330
1E0
  0
ENDSEC
  0
SECTION
  2
THUMBNAILIMAGE
 90
        5
310
0100000000
  0
ENDSEC
  0
EOF
