0
SECTION
2
HEADER
9
$ACADVER
1
AC1027
9
$INSUNITS
70
4
0
ENDSEC
999
XRAY_MODEL:0:60:eyJoYXNoIjoiZjA4YmM4MGI1NDJhN2Y4YzAxYjc4OWFhZDk3OGE4NjY5MWRiZTljNWQ0NDRhMjU5OGQxMDdhOTgwM2MwMGJmYSIsInByb2plY3QiOnsic2NoZW1hIjoieHJheS5hcmNoaXRlY3QvdjEiLCJpZCI6ImR3Zy1wcm9vZiIsInJl
999
XRAY_MODEL:1:60:dmlzaW9uIjoxLCJuYW1lIjoiQ291cnR5YXJkIHN0dWRpbyAvIGRlbW9uc3RyYXRpb24iLCJhZGRyZXNzIjoiIiwiZGVzaWduUmV2aXNpb24iOiJBIiwidW5pdHMiOiJtbSIsImxldmVscyI6W3siaWQiOiIzZGE1NzVmMS1kZjJhLTQzNzMt
999
XRAY_MODEL:2:60:OTY1MC0zZGY0MDQ4ZTkwYTUiLCJuYW1lIjoiR3JvdW5kIiwiZWxldmF0aW9uIjowLCJoZWlnaHQiOjI3MDB9LHsiaWQiOiJ1cHBlci1wcm9vZiIsIm5hbWUiOiJVcHBlciBwcm9vZiIsImVsZXZhdGlvbiI6MzIwMCwiaGVpZ2h0IjoyNzAw
999
XRAY_MODEL:3:60:fV0sIndhbGxzIjpbeyJpZCI6IjM4NTFiNmEwLTM4MzMtNGFlMi05NGJmLTY0MzM1NjUxMDhhZCIsInJldmlzaW9uIjoxLCJsZXZlbElkIjoiM2RhNTc1ZjEtZGYyYS00MzczLTk2NTAtM2RmNDA0OGU5MGE1IiwibmFtZSI6IldhbGwgMSIs
999
XRAY_MODEL:4:60:ImEiOlswLDBdLCJiIjpbOTAwMCwwXSwiaGVpZ2h0IjoyNzAwLCJsYXllcnMiOlt7ImlkIjoiMGZmYmIxODQtMWEyNS00MTM2LWE4OWMtY2Q5YjRkYWIwYTk0IiwibmFtZSI6IkJyaWNrd29yayIsInRoaWNrbmVzcyI6MTEwLCJraW5kIjoi
999
XRAY_MODEL:5:60:c29saWQiLCJoYXRjaCI6ImJyaWNrIiwiZGVuc2l0eUtnTTMiOm51bGwsInJhdGVNMiI6bnVsbCwic3VwcGxpZXJSZWZlcmVuY2UiOiIiLCJyYXRlUmV2aXNpb24iOiIiLCJ3YXN0ZVBlcmNlbnQiOjB9LHsiaWQiOiJhOTBlNjhhMy1jMjQ3
999
XRAY_MODEL:6:60:LTQzMTUtYjY4Yi1hMzJkMDlmMDg5ZTQiLCJuYW1lIjoiQ2F2aXR5IiwidGhpY2tuZXNzIjo1MCwia2luZCI6InZvaWQiLCJoYXRjaCI6Im5vbmUiLCJkZW5zaXR5S2dNMyI6bnVsbCwicmF0ZU0yIjpudWxsLCJzdXBwbGllclJlZmVyZW5j
999
XRAY_MODEL:7:60:ZSI6IiIsInJhdGVSZXZpc2lvbiI6IiIsIndhc3RlUGVyY2VudCI6MH0seyJpZCI6Ijg0ZDc1MTI3LWJhNzEtNDBiNi05Njg5LWYyNjFiM2ViZDJmZCIsIm5hbWUiOiJTdHVkIGFzc2VtYmx5IiwidGhpY2tuZXNzIjo5MCwia2luZCI6ImFz
999
XRAY_MODEL:8:60:c2VtYmx5IiwiaGF0Y2giOiJ0aW1iZXIiLCJkZW5zaXR5S2dNMyI6bnVsbCwicmF0ZU0yIjpudWxsLCJzdXBwbGllclJlZmVyZW5jZSI6IiIsInJhdGVSZXZpc2lvbiI6IiIsIndhc3RlUGVyY2VudCI6MH0seyJpZCI6IjFiMTZmMjE2LTIy
999
XRAY_MODEL:9:60:NjAtNGQzNi1hMTk5LTExOTBkYjU4M2FiMCIsIm5hbWUiOiJQbGFzdGVyYm9hcmQiLCJ0aGlja25lc3MiOjEwLCJraW5kIjoic29saWQiLCJoYXRjaCI6Im5vbmUiLCJkZW5zaXR5S2dNMyI6bnVsbCwicmF0ZU0yIjpudWxsLCJzdXBwbGll
999
XRAY_MODEL:10:60:clJlZmVyZW5jZSI6IiIsInJhdGVSZXZpc2lvbiI6IiIsIndhc3RlUGVyY2VudCI6MH1dfSx7ImlkIjoiMjUzOGEyY2MtZGVmYS00YjBhLThkYjEtNzM2NTkxNzA5NGE4IiwicmV2aXNpb24iOjEsImxldmVsSWQiOiIzZGE1NzVmMS1kZjJh
999
XRAY_MODEL:11:60:LTQzNzMtOTY1MC0zZGY0MDQ4ZTkwYTUiLCJuYW1lIjoiV2FsbCAyIiwiYSI6WzkwMDAsMF0sImIiOls5MDAwLDYwMDBdLCJoZWlnaHQiOjI3MDAsImxheWVycyI6W3siaWQiOiI0MmQ2NDlkZC0yZjZhLTQyNmMtODI4ZC02ODIxMjZlMzAz
999
XRAY_MODEL:12:60:ZWIiLCJuYW1lIjoiQnJpY2t3b3JrIiwidGhpY2tuZXNzIjoxMTAsImtpbmQiOiJzb2xpZCIsImhhdGNoIjoiYnJpY2siLCJkZW5zaXR5S2dNMyI6bnVsbCwicmF0ZU0yIjpudWxsLCJzdXBwbGllclJlZmVyZW5jZSI6IiIsInJhdGVSZXZp
999
XRAY_MODEL:13:60:c2lvbiI6IiIsIndhc3RlUGVyY2VudCI6MH0seyJpZCI6ImY4OTU3MzJiLWNjMDMtNDY2MC04MGYyLTJmOTlmNDVmZWY5YiIsIm5hbWUiOiJDYXZpdHkiLCJ0aGlja25lc3MiOjUwLCJraW5kIjoidm9pZCIsImhhdGNoIjoibm9uZSIsImRl
999
XRAY_MODEL:14:60:bnNpdHlLZ00zIjpudWxsLCJyYXRlTTIiOm51bGwsInN1cHBsaWVyUmVmZXJlbmNlIjoiIiwicmF0ZVJldmlzaW9uIjoiIiwid2FzdGVQZXJjZW50IjowfSx7ImlkIjoiNWY0ZmU5MTctZWQ3Mi00NzExLWJhY2MtZGRlNTZkMmNhMWEwIiwi
999
XRAY_MODEL:15:60:bmFtZSI6IlN0dWQgYXNzZW1ibHkiLCJ0aGlja25lc3MiOjkwLCJraW5kIjoiYXNzZW1ibHkiLCJoYXRjaCI6InRpbWJlciIsImRlbnNpdHlLZ00zIjpudWxsLCJyYXRlTTIiOm51bGwsInN1cHBsaWVyUmVmZXJlbmNlIjoiIiwicmF0ZVJl
999
XRAY_MODEL:16:60:dmlzaW9uIjoiIiwid2FzdGVQZXJjZW50IjowfSx7ImlkIjoiMTVlNWJmMTEtNjViOS00NDYwLTg5MjMtNzMzMjNkOTQ4M2I5IiwibmFtZSI6IlBsYXN0ZXJib2FyZCIsInRoaWNrbmVzcyI6MTAsImtpbmQiOiJzb2xpZCIsImhhdGNoIjoi
999
XRAY_MODEL:17:60:bm9uZSIsImRlbnNpdHlLZ00zIjpudWxsLCJyYXRlTTIiOm51bGwsInN1cHBsaWVyUmVmZXJlbmNlIjoiIiwicmF0ZVJldmlzaW9uIjoiIiwid2FzdGVQZXJjZW50IjowfV19LHsiaWQiOiI4YThjODUyYS0xNTU5LTQyZDEtYThjOC1hMGI5
999
XRAY_MODEL:18:60:ZDExNTBmZWUiLCJyZXZpc2lvbiI6MSwibGV2ZWxJZCI6IjNkYTU3NWYxLWRmMmEtNDM3My05NjUwLTNkZjQwNDhlOTBhNSIsIm5hbWUiOiJXYWxsIDMiLCJhIjpbOTAwMCw2MDAwXSwiYiI6WzAsNjAwMF0sImhlaWdodCI6MjcwMCwibGF5
999
XRAY_MODEL:19:60:ZXJzIjpbeyJpZCI6ImViNTI5MmZmLWI0ZjgtNGM3NS05MDhiLTkxNmNiMWQ1ZDIzOCIsIm5hbWUiOiJCcmlja3dvcmsiLCJ0aGlja25lc3MiOjExMCwia2luZCI6InNvbGlkIiwiaGF0Y2giOiJicmljayIsImRlbnNpdHlLZ00zIjpudWxs
999
XRAY_MODEL:20:60:LCJyYXRlTTIiOm51bGwsInN1cHBsaWVyUmVmZXJlbmNlIjoiIiwicmF0ZVJldmlzaW9uIjoiIiwid2FzdGVQZXJjZW50IjowfSx7ImlkIjoiZTk2ZDY4ZjgtMmQ2ZS00YzFiLWE3NzItMWI2OTlmMzAzY2MxIiwibmFtZSI6IkNhdml0eSIs
999
XRAY_MODEL:21:60:InRoaWNrbmVzcyI6NTAsImtpbmQiOiJ2b2lkIiwiaGF0Y2giOiJub25lIiwiZGVuc2l0eUtnTTMiOm51bGwsInJhdGVNMiI6bnVsbCwic3VwcGxpZXJSZWZlcmVuY2UiOiIiLCJyYXRlUmV2aXNpb24iOiIiLCJ3YXN0ZVBlcmNlbnQiOjB9
999
XRAY_MODEL:22:60:LHsiaWQiOiIwZDJjNDU4Ni01ZTM3LTQzMWQtYmI1YS1iMWExOTY2OGMzZDIiLCJuYW1lIjoiU3R1ZCBhc3NlbWJseSIsInRoaWNrbmVzcyI6OTAsImtpbmQiOiJhc3NlbWJseSIsImhhdGNoIjoidGltYmVyIiwiZGVuc2l0eUtnTTMiOm51
999
XRAY_MODEL:23:60:bGwsInJhdGVNMiI6bnVsbCwic3VwcGxpZXJSZWZlcmVuY2UiOiIiLCJyYXRlUmV2aXNpb24iOiIiLCJ3YXN0ZVBlcmNlbnQiOjB9LHsiaWQiOiIyMGEyOTE4MS01M2YzLTQxYmQtOGM4OC1jYmRhMmJkZmViMDgiLCJuYW1lIjoiUGxhc3Rl
999
XRAY_MODEL:24:60:cmJvYXJkIiwidGhpY2tuZXNzIjoxMCwia2luZCI6InNvbGlkIiwiaGF0Y2giOiJub25lIiwiZGVuc2l0eUtnTTMiOm51bGwsInJhdGVNMiI6bnVsbCwic3VwcGxpZXJSZWZlcmVuY2UiOiIiLCJyYXRlUmV2aXNpb24iOiIiLCJ3YXN0ZVBl
999
XRAY_MODEL:25:60:cmNlbnQiOjB9XX0seyJpZCI6ImRhMmZjMzFkLWEyNzAtNDRiZC05NWMyLWI1ZTg4OGQzZWM5OCIsInJldmlzaW9uIjoxLCJsZXZlbElkIjoiM2RhNTc1ZjEtZGYyYS00MzczLTk2NTAtM2RmNDA0OGU5MGE1IiwibmFtZSI6IldhbGwgNCIs
999
XRAY_MODEL:26:60:ImEiOlswLDYwMDBdLCJiIjpbMCwwXSwiaGVpZ2h0IjoyNzAwLCJsYXllcnMiOlt7ImlkIjoiNDE4NDMwNzMtNGIyNC00ODI4LWFmOGMtMzVkYzM2ZGNmZDliIiwibmFtZSI6IkJyaWNrd29yayIsInRoaWNrbmVzcyI6MTEwLCJraW5kIjoi
999
XRAY_MODEL:27:60:c29saWQiLCJoYXRjaCI6ImJyaWNrIiwiZGVuc2l0eUtnTTMiOm51bGwsInJhdGVNMiI6bnVsbCwic3VwcGxpZXJSZWZlcmVuY2UiOiIiLCJyYXRlUmV2aXNpb24iOiIiLCJ3YXN0ZVBlcmNlbnQiOjB9LHsiaWQiOiIzZGQ2MzlhNy1mODIy
999
XRAY_MODEL:28:60:LTQ0NzktOWVjYy1lYjI5ZWI3MmY5NjAiLCJuYW1lIjoiQ2F2aXR5IiwidGhpY2tuZXNzIjo1MCwia2luZCI6InZvaWQiLCJoYXRjaCI6Im5vbmUiLCJkZW5zaXR5S2dNMyI6bnVsbCwicmF0ZU0yIjpudWxsLCJzdXBwbGllclJlZmVyZW5j
999
XRAY_MODEL:29:60:ZSI6IiIsInJhdGVSZXZpc2lvbiI6IiIsIndhc3RlUGVyY2VudCI6MH0seyJpZCI6IjkwNDAyNmY4LWNjMWMtNGE3Ni04YzBmLTBkYjdkN2RlMDljYiIsIm5hbWUiOiJTdHVkIGFzc2VtYmx5IiwidGhpY2tuZXNzIjo5MCwia2luZCI6ImFz
999
XRAY_MODEL:30:60:c2VtYmx5IiwiaGF0Y2giOiJ0aW1iZXIiLCJkZW5zaXR5S2dNMyI6bnVsbCwicmF0ZU0yIjpudWxsLCJzdXBwbGllclJlZmVyZW5jZSI6IiIsInJhdGVSZXZpc2lvbiI6IiIsIndhc3RlUGVyY2VudCI6MH0seyJpZCI6ImEwYzE4YTRkLTBk
999
XRAY_MODEL:31:60:YTQtNDBkOC04NDk1LTU2MWMzMzViZjA1YiIsIm5hbWUiOiJQbGFzdGVyYm9hcmQiLCJ0aGlja25lc3MiOjEwLCJraW5kIjoic29saWQiLCJoYXRjaCI6Im5vbmUiLCJkZW5zaXR5S2dNMyI6bnVsbCwicmF0ZU0yIjpudWxsLCJzdXBwbGll
999
XRAY_MODEL:32:60:clJlZmVyZW5jZSI6IiIsInJhdGVSZXZpc2lvbiI6IiIsIndhc3RlUGVyY2VudCI6MH1dfSx7ImlkIjoiMGVhZWRlZDctYjhkMy00YzE1LTk2NzEtYzhjNjQ5ZDQyNTY1IiwicmV2aXNpb24iOjEsImxldmVsSWQiOiIzZGE1NzVmMS1kZjJh
999
XRAY_MODEL:33:60:LTQzNzMtOTY1MC0zZGY0MDQ4ZTkwYTUiLCJuYW1lIjoiV2FsbCA1IiwiYSI6WzYwMDAsMF0sImIiOls2MDAwLDYwMDBdLCJoZWlnaHQiOjI3MDAsImxheWVycyI6W3siaWQiOiIwYTNiMDA4OC0xMDM5LTQ0MTItYWEzNS1jNmU4ZTM0ZTY1
999
XRAY_MODEL:34:60:N2UiLCJuYW1lIjoiSW50ZXJuYWwgbGluaW5nIiwidGhpY2tuZXNzIjo5MCwia2luZCI6ImFzc2VtYmx5IiwiaGF0Y2giOiJub25lIiwiZGVuc2l0eUtnTTMiOm51bGwsInJhdGVNMiI6bnVsbCwic3VwcGxpZXJSZWZlcmVuY2UiOiIiLCJy
999
XRAY_MODEL:35:60:YXRlUmV2aXNpb24iOiIiLCJ3YXN0ZVBlcmNlbnQiOjB9XX1dLCJvcGVuaW5ncyI6W3siaWQiOiI1MzllMGZhNi05MzFjLTRhN2EtYTQzNy04YzNjN2JjOGE2ODgiLCJyZXZpc2lvbiI6MSwid2FsbElkIjoiOGE4Yzg1MmEtMTU1OS00MmQx
999
XRAY_MODEL:36:60:LWE4YzgtYTBiOWQxMTUwZmVlIiwidGFnIjoiRDAxIiwia2luZCI6ImRvb3IiLCJvZmZzZXQiOjQ1MDAsIndpZHRoIjoxODAwLCJoZWlnaHQiOjI0MDAsInNpbGwiOjAsImhpbmdlIjoibGVmdCIsInN3aW5nIjoiaW4ifSx7ImlkIjoiOTBm
999
XRAY_MODEL:37:60:YzY2OWUtM2ExOC00ODEzLWJhYjAtNmM5ODFlNWVjZWRlIiwicmV2aXNpb24iOjEsIndhbGxJZCI6IjM4NTFiNmEwLTM4MzMtNGFlMi05NGJmLTY0MzM1NjUxMDhhZCIsInRhZyI6IlcwMSIsImtpbmQiOiJ3aW5kb3ciLCJvZmZzZXQiOjMw
999
XRAY_MODEL:38:60:MDAsIndpZHRoIjoyNDAwLCJoZWlnaHQiOjE0MDAsInNpbGwiOjEwMDAsImhpbmdlIjoibGVmdCIsInN3aW5nIjoiaW4ifSx7ImlkIjoiZWVjY2JhMjYtOTA3My00YWNkLTg4YTYtYzRkMTM3M2Y0ZjZlIiwicmV2aXNpb24iOjEsIndhbGxJ
999
XRAY_MODEL:39:60:ZCI6IjBlYWVkZWQ3LWI4ZDMtNGMxNS05NjcxLWM4YzY0OWQ0MjU2NSIsInRhZyI6IkQwMiIsImtpbmQiOiJkb29yIiwib2Zmc2V0IjozMDAwLCJ3aWR0aCI6ODcwLCJoZWlnaHQiOjIxMDAsInNpbGwiOjAsImhpbmdlIjoicmlnaHQiLCJz
999
XRAY_MODEL:40:60:d2luZyI6Im91dCJ9XSwic2xhYnMiOlt7ImlkIjoiNDM3NTg0NzgtNTI0Yi00NTQ0LTk5N2EtNjI3ZDYzMWRlMTVhIiwicmV2aXNpb24iOjEsImxldmVsSWQiOiIzZGE1NzVmMS1kZjJhLTQzNzMtOTY1MC0zZGY0MDQ4ZTkwYTUiLCJuYW1l
999
XRAY_MODEL:41:60:IjoiR3JvdW5kIHNsYWIiLCJwb2ludHMiOltbMCwwXSxbOTAwMCwwXSxbOTAwMCw2MDAwXSxbMCw2MDAwXV0sInRoaWNrbmVzcyI6MTUwLCJvZmZzZXQiOjAsIm1hdGVyaWFsIjoiQ29uY3JldGUifV0sInJvb2ZzIjpbeyJpZCI6ImRmMmQx
999
XRAY_MODEL:42:60:Y2FmLTQ4YzQtNDUwOC1iMjNhLTU3ZDgzNTZjYWEwOCIsInJldmlzaW9uIjoxLCJsZXZlbElkIjoiM2RhNTc1ZjEtZGYyYS00MzczLTk2NTAtM2RmNDA0OGU5MGE1IiwibmFtZSI6Ik1haW4gcm9vZiIsInBvaW50cyI6W1swLDBdLFs5MDAw
999
XRAY_MODEL:43:60:LDBdLFs5MDAwLDYwMDBdLFswLDYwMDBdXSwib2Zmc2V0IjoyNzAwLCJlYXZlcyI6NDUwLCJmYXNjaWFIZWlnaHQiOjE0MCwiZmFzY2lhVGhpY2tuZXNzIjoyMCwiZ3V0dGVyRW5hYmxlZCI6dHJ1ZSwiZ3V0dGVyV2lkdGgiOjEyNSwiZ3V0
999
XRAY_MODEL:44:60:dGVyRGVwdGgiOjkwLCJndXR0ZXJUaGlja25lc3MiOjEuMiwiZWRnZXMiOlt7InBpdGNoIjoyMi41LCJnYWJsZSI6ZmFsc2V9LHsicGl0Y2giOjIyLjUsImdhYmxlIjpmYWxzZX0seyJwaXRjaCI6MjIuNSwiZ2FibGUiOmZhbHNlfSx7InBp
999
XRAY_MODEL:45:60:dGNoIjoyMi41LCJnYWJsZSI6ZmFsc2V9XX1dLCJsaW5lcyI6W3siaWQiOiJsaW5lLXByb29mIiwicmV2aXNpb24iOjEsImEiOlstMjAwMCw1MDBdLCJiIjpbMTUwMDAsNTAwXSwibGV2ZWxJZCI6IjNkYTU3NWYxLWRmMmEtNDM3My05NjUw
999
XRAY_MODEL:46:60:LTNkZjQwNDhlOTBhNSJ9LHsiaWQiOiJ1cHBlci1saW5lIiwicmV2aXNpb24iOjEsImEiOlsxMjM0LjUsNjc4OS4yNV0sImIiOls5OTk5LjEyNSw2Nzg5LjI1XSwibGV2ZWxJZCI6InVwcGVyLXByb29mIn1dLCJjaXJjbGVzIjpbeyJpZCI6
999
XRAY_MODEL:47:60:ImNpcmNsZS1wcm9vZiIsInJldmlzaW9uIjoxLCJjZW50ZXIiOlsxMzAwMCwzMDAwXSwicmFkaXVzIjoxMjM0LjUsImxldmVsSWQiOiIzZGE1NzVmMS1kZjJhLTQzNzMtOTY1MC0zZGY0MDQ4ZTkwYTUifV0sImFyY3MiOlt7ImlkIjoiYXJj
999
XRAY_MODEL:48:60:LXByb29mIiwicmV2aXNpb24iOjEsImxldmVsSWQiOiIzZGE1NzVmMS1kZjJhLTQzNzMtOTY1MC0zZGY0MDQ4ZTkwYTUiLCJjZW50ZXIiOlsxMzAwMCwzMDAwXSwicmFkaXVzIjoyMjIyLCJzdGFydEFuZ2xlIjowLjI1LCJlbmRBbmdsZSI6
999
XRAY_MODEL:49:60:Mi43NSwiY2xvY2t3aXNlIjpmYWxzZX1dLCJncmlkcyI6W3siaWQiOiI1OGJlNGMyYy0wM2RiLTQzMTEtOWRjZC0xOGEyMDA3MmU2ZDIiLCJyZXZpc2lvbiI6MSwibGFiZWwiOiJBIiwiYXhpcyI6IngiLCJwb3NpdGlvbiI6MH0seyJpZCI6
999
XRAY_MODEL:50:60:IjRiNmM1NjRhLWQyODUtNDkzYS1iMjU4LTY4OTE0OTU1ODIyMiIsInJldmlzaW9uIjoxLCJsYWJlbCI6IkIiLCJheGlzIjoieCIsInBvc2l0aW9uIjo5MDAwfSx7ImlkIjoiMmRjNjAwYTQtMzdkMy00ZGExLTk3NjMtMDJjZDE2NGUxYTM1
999
XRAY_MODEL:51:60:IiwicmV2aXNpb24iOjEsImxhYmVsIjoiMSIsImF4aXMiOiJ5IiwicG9zaXRpb24iOjB9LHsiaWQiOiI5N2IwNDQzNS05MWZhLTQ3MGMtYjA3Zi1mNjY3NDNjNjUyY2UiLCJyZXZpc2lvbiI6MSwibGFiZWwiOiIyIiwiYXhpcyI6InkiLCJw
999
XRAY_MODEL:52:60:b3NpdGlvbiI6NjAwMH1dLCJyb29tVGFncyI6W3siaWQiOiIyNzg4NjNkZC1kNDY3LTRlNGItYjBlZC0wOGVkNjFlZGUwMGYiLCJyZXZpc2lvbiI6MSwicG9pbnQiOlszMDAwLDMwMDBdLCJsZXZlbElkIjoiM2RhNTc1ZjEtZGYyYS00Mzcz
999
XRAY_MODEL:53:60:LTk2NTAtM2RmNDA0OGU5MGE1IiwibmFtZSI6IlNUVURJTyJ9LHsiaWQiOiIyZmNhYmRhNS1iMjNiLTRlNWUtOTY2Yi00MjEwMTZhYzc1NjQiLCJyZXZpc2lvbiI6MSwicG9pbnQiOls3NTAwLDMwMDBdLCJsZXZlbElkIjoiM2RhNTc1ZjEt
999
XRAY_MODEL:54:60:ZGYyYS00MzczLTk2NTAtM2RmNDA0OGU5MGE1IiwibmFtZSI6IldPUktTSE9QIn1dLCJkaW1lbnNpb25zIjpbeyJpZCI6ImQyMThhZjc3LWZkMmUtNDk4Mi04Mjg1LWJlZWNjYjc5ODhhYiIsInJldmlzaW9uIjoxLCJ3YWxsSWQiOiIzODUx
999
XRAY_MODEL:55:60:YjZhMC0zODMzLTRhZTItOTRiZi02NDMzNTY1MTA4YWQiLCJvZmZzZXQiOi02NTB9LHsiaWQiOiI1MTNkNjI4MS05NzAyLTRkNmUtYTViYS04YTMzZTRiMmVmYWQiLCJyZXZpc2lvbiI6MSwid2FsbElkIjoiMjUzOGEyY2MtZGVmYS00YjBh
999
XRAY_MODEL:56:60:LThkYjEtNzM2NTkxNzA5NGE4Iiwib2Zmc2V0IjotNjUwfSx7ImlkIjoiZDZlODgyMTgtMmQ4MS00NjRiLWFmMWEtODEyY2MzNWU0MDJmIiwicmV2aXNpb24iOjEsIndhbGxJZCI6IjhhOGM4NTJhLTE1NTktNDJkMS1hOGM4LWEwYjlkMTE1
999
XRAY_MODEL:57:60:MGZlZSIsIm9mZnNldCI6LTY1MH0seyJpZCI6IjYwMmE0NThhLTA2ZTUtNDhhZi05ZGNkLTg5Zjk3ODJlYzViNyIsInJldmlzaW9uIjoxLCJ3YWxsSWQiOiJkYTJmYzMxZC1hMjcwLTQ0YmQtOTVjMi1iNWU4ODhkM2VjOTgiLCJvZmZzZXQi
999
XRAY_MODEL:58:60:Oi02NTB9XSwic2VjdGlvbiI6eyJhIjpbMCwxODAwXSwiYiI6WzkwMDAsMTgwMF19LCJzaGVldCI6eyJzaXplIjoiQTMiLCJzY2FsZSI6IjUwIiwibnVtYmVyIjoiQS0xMDEiLCJub3J0aEFuZ2xlIjowLCJ2aWV3cG9ydHMiOltdfSwibm90
999
XRAY_MODEL:59:60:ZXMiOiJBdXRob3JlZCBkZXNpZ24uIERpbWVuc2lvbnMgYW5kIGFzc2VtYmxpZXMgcmVxdWlyZSBkZXNpZ24gcmV2aWV3OyBubyBjb21wbGlhbmNlIGNlcnRpZmljYXRpb24uIn19
0
SECTION
2
TABLES
0
TABLE
2
LTYPE
100
AcDbSymbolTable
70
1
0
LTYPE
100
AcDbSymbolTableRecord
100
AcDbLinetypeTableRecord
2
CONTINUOUS
70
0
3
Solid line
72
65
73
0
40
0
0
ENDTAB
0
TABLE
2
LAYER
100
AcDbSymbolTable
70
2
0
LAYER
100
AcDbSymbolTableRecord
100
AcDbLayerTableRecord
2
LEVEL_Ground
70
0
62
7
6
CONTINUOUS
0
LAYER
100
AcDbSymbolTableRecord
100
AcDbLayerTableRecord
2
LEVEL_Upper_proof
70
0
62
7
6
CONTINUOUS
0
ENDTAB
0
ENDSEC
0
SECTION
2
ENTITIES
0
LWPOLYLINE
8
LEVEL_Ground
90
4
70
1
38
0
10
0
20
0
10
9000
20
0
10
9000
20
-6000
10
0
20
-6000
0
TEXT
8
LEVEL_Ground
10
0
20
0
30
0
40
125
1
Ground slab 
0
LWPOLYLINE
8
LEVEL_Ground
90
4
70
1
38
0
10
-130
20
130
10
1800
20
130
10
1800
20
20
10
-20
20
20
0
LINE
8
LEVEL_Ground
10
-120
20
120
30
0
11
1800
21
120
31
0
0
LWPOLYLINE
8
LEVEL_Ground
90
4
70
1
38
0
10
4200
20
130
10
9130
20
130
10
9020
20
20
10
4200
20
20
0
LINE
8
LEVEL_Ground
10
4200
20
120
30
0
11
9120
21
120
31
0
0
LWPOLYLINE
8
LEVEL_Ground
90
4
70
1
38
0
10
-20
20
20
10
1800
20
20
10
1800
20
-30
10
30
20
-30
0
LWPOLYLINE
8
LEVEL_Ground
90
4
70
1
38
0
10
4200
20
20
10
9020
20
20
10
8970
20
-30
10
4200
20
-30
0
LWPOLYLINE
8
LEVEL_Ground
90
4
70
1
38
0
10
30
20
-30
10
1800
20
-30
10
1800
20
-120
10
120
20
-120
0
LINE
8
LEVEL_Ground
10
1710
20
-30
30
0
11
1800
21
-120
31
0
0
LINE
8
LEVEL_Ground
10
1590
20
-30
30
0
11
1680
21
-120
31
0
0
LINE
8
LEVEL_Ground
10
1470
20
-30
30
0
11
1560
21
-120
31
0
0
LINE
8
LEVEL_Ground
10
1350
20
-30
30
0
11
1440
21
-120
31
0
0
LINE
8
LEVEL_Ground
10
1230
20
-30
30
0
11
1320
21
-120
31
0
0
LINE
8
LEVEL_Ground
10
1110
20
-30
30
0
11
1200
21
-120
31
0
0
LINE
8
LEVEL_Ground
10
990
20
-30
30
0
11
1080
21
-120
31
0
0
LINE
8
LEVEL_Ground
10
870
20
-30
30
0
11
960
21
-120
31
0
0
LINE
8
LEVEL_Ground
10
750
20
-30
30
0
11
840
21
-120
31
0
0
LINE
8
LEVEL_Ground
10
630
20
-30
30
0
11
720
21
-120
31
0
0
LINE
8
LEVEL_Ground
10
510
20
-30
30
0
11
600
21
-120
31
0
0
LINE
8
LEVEL_Ground
10
390
20
-30
30
0
11
480
21
-120
31
0
0
LINE
8
LEVEL_Ground
10
270
20
-30
30
0
11
360
21
-120
31
0
0
LINE
8
LEVEL_Ground
10
150
20
-30
30
0
11
240
21
-120
31
0
0
LINE
8
LEVEL_Ground
10
30
20
-30
30
0
11
120
21
-120
31
0
0
LWPOLYLINE
8
LEVEL_Ground
90
4
70
1
38
0
10
4200
20
-30
10
8970
20
-30
10
8880
20
-120
10
4200
20
-120
0
LINE
8
LEVEL_Ground
10
8910
20
-30
30
0
11
8940
21
-60
31
0
0
LINE
8
LEVEL_Ground
10
8790
20
-30
30
0
11
8880
21
-120
31
0
0
LINE
8
LEVEL_Ground
10
8670
20
-30
30
0
11
8760
21
-120
31
0
0
LINE
8
LEVEL_Ground
10
8550
20
-30
30
0
11
8640
21
-120
31
0
0
LINE
8
LEVEL_Ground
10
8430
20
-30
30
0
11
8520
21
-120
31
0
0
LINE
8
LEVEL_Ground
10
8310
20
-30
30
0
11
8400
21
-120
31
0
0
LINE
8
LEVEL_Ground
10
8190
20
-30
30
0
11
8280
21
-120
31
0
0
LINE
8
LEVEL_Ground
10
8070
20
-30
30
0
11
8160
21
-120
31
0
0
LINE
8
LEVEL_Ground
10
7950
20
-30
30
0
11
8040
21
-120
31
0
0
LINE
8
LEVEL_Ground
10
7830
20
-30
30
0
11
7920
21
-120
31
0
0
LINE
8
LEVEL_Ground
10
7710
20
-29.999999999999545
30
0
11
7800
21
-120
31
0
0
LINE
8
LEVEL_Ground
10
7590
20
-30
30
0
11
7680
21
-120
31
0
0
LINE
8
LEVEL_Ground
10
7470
20
-30
30
0
11
7560
21
-120
31
0
0
LINE
8
LEVEL_Ground
10
7350
20
-30
30
0
11
7440
21
-120
31
0
0
LINE
8
LEVEL_Ground
10
7230
20
-30
30
0
11
7320
21
-120.00000000000045
31
0
0
LINE
8
LEVEL_Ground
10
7110
20
-30
30
0
11
7200
21
-120
31
0
0
LINE
8
LEVEL_Ground
10
6990
20
-30
30
0
11
7080
21
-120
31
0
0
LINE
8
LEVEL_Ground
10
6870
20
-30
30
0
11
6960
21
-120
31
0
0
LINE
8
LEVEL_Ground
10
6750
20
-30
30
0
11
6840
21
-120
31
0
0
LINE
8
LEVEL_Ground
10
6630
20
-30
30
0
11
6720
21
-120
31
0
0
LINE
8
LEVEL_Ground
10
6510
20
-30
30
0
11
6600
21
-120
31
0
0
LINE
8
LEVEL_Ground
10
6390
20
-30
30
0
11
6480
21
-120
31
0
0
LINE
8
LEVEL_Ground
10
6270
20
-30
30
0
11
6360
21
-120
31
0
0
LINE
8
LEVEL_Ground
10
6150
20
-30
30
0
11
6240
21
-120
31
0
0
LINE
8
LEVEL_Ground
10
6030
20
-30
30
0
11
6120
21
-120
31
0
0
LINE
8
LEVEL_Ground
10
5910
20
-30
30
0
11
6000
21
-120
31
0
0
LINE
8
LEVEL_Ground
10
5790
20
-30.000000000000227
30
0
11
5880
21
-120
31
0
0
LINE
8
LEVEL_Ground
10
5670
20
-30
30
0
11
5760
21
-120
31
0
0
LINE
8
LEVEL_Ground
10
5550
20
-30
30
0
11
5640
21
-120
31
0
0
LINE
8
LEVEL_Ground
10
5430
20
-30
30
0
11
5520
21
-119.99999999999977
31
0
0
LINE
8
LEVEL_Ground
10
5310
20
-30
30
0
11
5400
21
-120
31
0
0
LINE
8
LEVEL_Ground
10
5190
20
-30
30
0
11
5280
21
-120
31
0
0
LINE
8
LEVEL_Ground
10
5070
20
-30
30
0
11
5160
21
-120
31
0
0
LINE
8
LEVEL_Ground
10
4950
20
-30
30
0
11
5040
21
-120
31
0
0
LINE
8
LEVEL_Ground
10
4830
20
-30
30
0
11
4920
21
-120
31
0
0
LINE
8
LEVEL_Ground
10
4710
20
-30
30
0
11
4800
21
-120
31
0
0
LINE
8
LEVEL_Ground
10
4590
20
-30
30
0
11
4680
21
-120
31
0
0
LINE
8
LEVEL_Ground
10
4470
20
-30
30
0
11
4560
21
-120
31
0
0
LINE
8
LEVEL_Ground
10
4350
20
-30
30
0
11
4440
21
-120
31
0
0
LINE
8
LEVEL_Ground
10
4230
20
-30
30
0
11
4320
21
-120
31
0
0
LWPOLYLINE
8
LEVEL_Ground
90
4
70
1
38
0
10
120
20
-120
10
1800
20
-120
10
1800
20
-130
10
130
20
-130
0
LWPOLYLINE
8
LEVEL_Ground
90
4
70
1
38
0
10
4200
20
-120
10
8880
20
-120
10
8870
20
-130
10
4200
20
-130
0
LWPOLYLINE
8
LEVEL_Ground
90
4
70
1
38
0
10
9130
20
130
10
9130
20
-6130
10
9020
20
-6020.000000000001
10
9020
20
20
0
LINE
8
LEVEL_Ground
10
9120
20
120
30
0
11
9130
21
120
31
0
0
LINE
8
LEVEL_Ground
10
9020
20
0
30
0
11
9130
21
0
31
0
0
LINE
8
LEVEL_Ground
10
9020
20
-120
30
0
11
9130
21
-120
31
0
0
LINE
8
LEVEL_Ground
10
9020
20
-240
30
0
11
9130
21
-240
31
0
0
LINE
8
LEVEL_Ground
10
9020
20
-360
30
0
11
9130
21
-360
31
0
0
LINE
8
LEVEL_Ground
10
9020
20
-480
30
0
11
9130
21
-480
31
0
0
LINE
8
LEVEL_Ground
10
9020
20
-600
30
0
11
9130
21
-600
31
0
0
LINE
8
LEVEL_Ground
10
9020
20
-720
30
0
11
9130
21
-720
31
0
0
LINE
8
LEVEL_Ground
10
9020
20
-840
30
0
11
9130
21
-840
31
0
0
LINE
8
LEVEL_Ground
10
9020
20
-960
30
0
11
9130
21
-960
31
0
0
LINE
8
LEVEL_Ground
10
9020
20
-1080
30
0
11
9130
21
-1080
31
0
0
LINE
8
LEVEL_Ground
10
9020
20
-1200
30
0
11
9130
21
-1200
31
0
0
LINE
8
LEVEL_Ground
10
9020
20
-1320
30
0
11
9130
21
-1320
31
0
0
LINE
8
LEVEL_Ground
10
9020
20
-1440
30
0
11
9130
21
-1440
31
0
0
LINE
8
LEVEL_Ground
10
9020
20
-1560
30
0
11
9130
21
-1560
31
0
0
LINE
8
LEVEL_Ground
10
9020
20
-1680
30
0
11
9130
21
-1680
31
0
0
LINE
8
LEVEL_Ground
10
9020
20
-1800
30
0
11
9130
21
-1800
31
0
0
LINE
8
LEVEL_Ground
10
9020
20
-1920
30
0
11
9130
21
-1920
31
0
0
LINE
8
LEVEL_Ground
10
9020
20
-2040
30
0
11
9130
21
-2040
31
0
0
LINE
8
LEVEL_Ground
10
9020
20
-2160
30
0
11
9130
21
-2160
31
0
0
LINE
8
LEVEL_Ground
10
9020
20
-2280
30
0
11
9130
21
-2280
31
0
0
LINE
8
LEVEL_Ground
10
9020
20
-2400
30
0
11
9130
21
-2400
31
0
0
LINE
8
LEVEL_Ground
10
9020
20
-2520
30
0
11
9130
21
-2520
31
0
0
LINE
8
LEVEL_Ground
10
9020
20
-2640
30
0
11
9130
21
-2640
31
0
0
LINE
8
LEVEL_Ground
10
9020
20
-2760
30
0
11
9130
21
-2760
31
0
0
LINE
8
LEVEL_Ground
10
9020
20
-2880
30
0
11
9130
21
-2880
31
0
0
LINE
8
LEVEL_Ground
10
9020
20
-3000
30
0
11
9130
21
-3000
31
0
0
LINE
8
LEVEL_Ground
10
9020
20
-3120
30
0
11
9130
21
-3120
31
0
0
LINE
8
LEVEL_Ground
10
9020
20
-3240
30
0
11
9130
21
-3240
31
0
0
LINE
8
LEVEL_Ground
10
9020
20
-3360
30
0
11
9130
21
-3360
31
0
0
LINE
8
LEVEL_Ground
10
9020
20
-3480
30
0
11
9130
21
-3480
31
0
0
LINE
8
LEVEL_Ground
10
9020
20
-3600
30
0
11
9130
21
-3600
31
0
0
LINE
8
LEVEL_Ground
10
9020
20
-3720
30
0
11
9130
21
-3720
31
0
0
LINE
8
LEVEL_Ground
10
9020
20
-3840
30
0
11
9130
21
-3840
31
0
0
LINE
8
LEVEL_Ground
10
9020
20
-3960
30
0
11
9130
21
-3960
31
0
0
LINE
8
LEVEL_Ground
10
9020
20
-4080
30
0
11
9130
21
-4080
31
0
0
LINE
8
LEVEL_Ground
10
9020
20
-4200
30
0
11
9130
21
-4200
31
0
0
LINE
8
LEVEL_Ground
10
9020
20
-4320
30
0
11
9130
21
-4320
31
0
0
LINE
8
LEVEL_Ground
10
9020
20
-4440
30
0
11
9130
21
-4440
31
0
0
LINE
8
LEVEL_Ground
10
9020
20
-4560
30
0
11
9130
21
-4560
31
0
0
LINE
8
LEVEL_Ground
10
9020
20
-4680
30
0
11
9130
21
-4680
31
0
0
LINE
8
LEVEL_Ground
10
9020
20
-4800
30
0
11
9130
21
-4800
31
0
0
LINE
8
LEVEL_Ground
10
9020
20
-4920
30
0
11
9130
21
-4920
31
0
0
LINE
8
LEVEL_Ground
10
9020
20
-5040
30
0
11
9130
21
-5040
31
0
0
LINE
8
LEVEL_Ground
10
9020
20
-5160
30
0
11
9130
21
-5160
31
0
0
LINE
8
LEVEL_Ground
10
9020
20
-5280
30
0
11
9130
21
-5280
31
0
0
LINE
8
LEVEL_Ground
10
9020
20
-5400
30
0
11
9130
21
-5400
31
0
0
LINE
8
LEVEL_Ground
10
9020
20
-5520
30
0
11
9130
21
-5520
31
0
0
LINE
8
LEVEL_Ground
10
9020
20
-5640
30
0
11
9130
21
-5640
31
0
0
LINE
8
LEVEL_Ground
10
9020
20
-5760
30
0
11
9130
21
-5760
31
0
0
LINE
8
LEVEL_Ground
10
9020
20
-5880
30
0
11
9130
21
-5880
31
0
0
LINE
8
LEVEL_Ground
10
9020
20
-6000
30
0
11
9130
21
-6000
31
0
0
LINE
8
LEVEL_Ground
10
9120
20
-6120
30
0
11
9130
21
-6120
31
0
0
LWPOLYLINE
8
LEVEL_Ground
90
4
70
1
38
0
10
9020
20
20
10
9020
20
-6020.000000000001
10
8970
20
-5970
10
8970
20
-30
0
LWPOLYLINE
8
LEVEL_Ground
90
4
70
1
38
0
10
8970
20
-30
10
8970
20
-5970
10
8880
20
-5880
10
8880
20
-120
0
LINE
8
LEVEL_Ground
10
8940
20
-59.99999999999999
30
0
11
8970
21
-90
31
0
0
LINE
8
LEVEL_Ground
10
8880
20
-120
30
0
11
8970
21
-210
31
0
0
LINE
8
LEVEL_Ground
10
8880
20
-240
30
0
11
8970
21
-330
31
0
0
LINE
8
LEVEL_Ground
10
8880
20
-360
30
0
11
8970
21
-450
31
0
0
LINE
8
LEVEL_Ground
10
8880
20
-480
30
0
11
8970
21
-570
31
0
0
LINE
8
LEVEL_Ground
10
8880
20
-600
30
0
11
8970
21
-690
31
0
0
LINE
8
LEVEL_Ground
10
8880
20
-720
30
0
11
8970
21
-810
31
0
0
LINE
8
LEVEL_Ground
10
8880
20
-840
30
0
11
8970
21
-930
31
0
0
LINE
8
LEVEL_Ground
10
8880
20
-960
30
0
11
8970
21
-1050
31
0
0
LINE
8
LEVEL_Ground
10
8880
20
-1080
30
0
11
8970
21
-1170
31
0
0
LINE
8
LEVEL_Ground
10
8880
20
-1200
30
0
11
8970
21
-1290
31
0
0
LINE
8
LEVEL_Ground
10
8880
20
-1320
30
0
11
8970
21
-1410
31
0
0
LINE
8
LEVEL_Ground
10
8880
20
-1440
30
0
11
8970
21
-1530
31
0
0
LINE
8
LEVEL_Ground
10
8880
20
-1560
30
0
11
8970
21
-1650
31
0
0
LINE
8
LEVEL_Ground
10
8880
20
-1680
30
0
11
8970
21
-1770
31
0
0
LINE
8
LEVEL_Ground
10
8880
20
-1800
30
0
11
8970
21
-1890
31
0
0
LINE
8
LEVEL_Ground
10
8880
20
-1920
30
0
11
8970
21
-2010
31
0
0
LINE
8
LEVEL_Ground
10
8880
20
-2040
30
0
11
8970
21
-2130
31
0
0
LINE
8
LEVEL_Ground
10
8880
20
-2160
30
0
11
8970
21
-2250
31
0
0
LINE
8
LEVEL_Ground
10
8880
20
-2280
30
0
11
8970
21
-2370
31
0
0
LINE
8
LEVEL_Ground
10
8880
20
-2400
30
0
11
8970
21
-2490
31
0
0
LINE
8
LEVEL_Ground
10
8880
20
-2520
30
0
11
8970
21
-2610
31
0
0
LINE
8
LEVEL_Ground
10
8880
20
-2640
30
0
11
8970
21
-2730
31
0
0
LINE
8
LEVEL_Ground
10
8880
20
-2760
30
0
11
8970
21
-2850
31
0
0
LINE
8
LEVEL_Ground
10
8880
20
-2880
30
0
11
8970
21
-2970
31
0
0
LINE
8
LEVEL_Ground
10
8880
20
-3000
30
0
11
8970
21
-3090
31
0
0
LINE
8
LEVEL_Ground
10
8880
20
-3120
30
0
11
8970
21
-3210
31
0
0
LINE
8
LEVEL_Ground
10
8880
20
-3240
30
0
11
8970
21
-3330
31
0
0
LINE
8
LEVEL_Ground
10
8880
20
-3360
30
0
11
8970
21
-3450
31
0
0
LINE
8
LEVEL_Ground
10
8880
20
-3480
30
0
11
8970
21
-3570
31
0
0
LINE
8
LEVEL_Ground
10
8880
20
-3600
30
0
11
8970
21
-3690
31
0
0
LINE
8
LEVEL_Ground
10
8880
20
-3720
30
0
11
8970
21
-3810
31
0
0
LINE
8
LEVEL_Ground
10
8880
20
-3840
30
0
11
8970
21
-3930
31
0
0
LINE
8
LEVEL_Ground
10
8880
20
-3960
30
0
11
8970
21
-4050
31
0
0
LINE
8
LEVEL_Ground
10
8880
20
-4080
30
0
11
8970
21
-4170
31
0
0
LINE
8
LEVEL_Ground
10
8880
20
-4200
30
0
11
8970
21
-4290
31
0
0
LINE
8
LEVEL_Ground
10
8880
20
-4320
30
0
11
8970
21
-4410
31
0
0
LINE
8
LEVEL_Ground
10
8880
20
-4440
30
0
11
8970
21
-4530
31
0
0
LINE
8
LEVEL_Ground
10
8880
20
-4560
30
0
11
8970
21
-4650
31
0
0
LINE
8
LEVEL_Ground
10
8880
20
-4680
30
0
11
8970
21
-4770
31
0
0
LINE
8
LEVEL_Ground
10
8880
20
-4800
30
0
11
8970
21
-4890
31
0
0
LINE
8
LEVEL_Ground
10
8880
20
-4920
30
0
11
8970
21
-5010
31
0
0
LINE
8
LEVEL_Ground
10
8880
20
-5040
30
0
11
8970
21
-5130
31
0
0
LINE
8
LEVEL_Ground
10
8880
20
-5160
30
0
11
8970
21
-5250
31
0
0
LINE
8
LEVEL_Ground
10
8880
20
-5280
30
0
11
8970
21
-5370
31
0
0
LINE
8
LEVEL_Ground
10
8880
20
-5400
30
0
11
8970
21
-5490
31
0
0
LINE
8
LEVEL_Ground
10
8880
20
-5520
30
0
11
8970
21
-5610
31
0
0
LINE
8
LEVEL_Ground
10
8880
20
-5640
30
0
11
8970
21
-5730
31
0
0
LINE
8
LEVEL_Ground
10
8880
20
-5760
30
0
11
8970
21
-5850
31
0
0
LINE
8
LEVEL_Ground
10
8880
20
-5880
30
0
11
8970
21
-5970
31
0
0
LWPOLYLINE
8
LEVEL_Ground
90
4
70
1
38
0
10
8880
20
-120
10
8880
20
-5880
10
8870
20
-5870
10
8870
20
-130
0
LWPOLYLINE
8
LEVEL_Ground
90
4
70
1
38
0
10
-130
20
-6130
10
-20
20
-6020
10
3600
20
-6020
10
3600
20
-6130
0
LINE
8
LEVEL_Ground
10
-120
20
-6120
30
0
11
3600
21
-6120
31
0
0
LWPOLYLINE
8
LEVEL_Ground
90
4
70
1
38
0
10
5400
20
-6020
10
9020
20
-6020
10
9130
20
-6130
10
5400
20
-6130
0
LINE
8
LEVEL_Ground
10
5400
20
-6120
30
0
11
9120
21
-6120
31
0
0
LWPOLYLINE
8
LEVEL_Ground
90
4
70
1
38
0
10
-20
20
-6020
10
30
20
-5970
10
3600
20
-5970
10
3600
20
-6020
0
LWPOLYLINE
8
LEVEL_Ground
90
4
70
1
38
0
10
5400
20
-5970
10
8970
20
-5970
10
9020
20
-6020
10
5400
20
-6020
0
LWPOLYLINE
8
LEVEL_Ground
90
4
70
1
38
0
10
30
20
-5970
10
120
20
-5880
10
3600
20
-5880
10
3600
20
-5970
0
LINE
8
LEVEL_Ground
10
3480
20
-5880
30
0
11
3570
21
-5970
31
0
0
LINE
8
LEVEL_Ground
10
3360
20
-5880
30
0
11
3450
21
-5970
31
0
0
LINE
8
LEVEL_Ground
10
3240
20
-5880
30
0
11
3330
21
-5970
31
0
0
LINE
8
LEVEL_Ground
10
3120
20
-5880
30
0
11
3210
21
-5970
31
0
0
LINE
8
LEVEL_Ground
10
3000
20
-5880
30
0
11
3090
21
-5970
31
0
0
LINE
8
LEVEL_Ground
10
2880
20
-5880
30
0
11
2970
21
-5970
31
0
0
LINE
8
LEVEL_Ground
10
2760
20
-5880
30
0
11
2850
21
-5970
31
0
0
LINE
8
LEVEL_Ground
10
2640
20
-5880
30
0
11
2730
21
-5970
31
0
0
LINE
8
LEVEL_Ground
10
2520
20
-5880
30
0
11
2610
21
-5970
31
0
0
LINE
8
LEVEL_Ground
10
2400
20
-5880
30
0
11
2490
21
-5970
31
0
0
LINE
8
LEVEL_Ground
10
2280
20
-5880
30
0
11
2370
21
-5970
31
0
0
LINE
8
LEVEL_Ground
10
2160
20
-5880
30
0
11
2250
21
-5970
31
0
0
LINE
8
LEVEL_Ground
10
2040
20
-5880
30
0
11
2130
21
-5970
31
0
0
LINE
8
LEVEL_Ground
10
1920
20
-5880
30
0
11
2010.0000000000002
21
-5970
31
0
0
LINE
8
LEVEL_Ground
10
1800
20
-5880
30
0
11
1890.0000000000002
21
-5970
31
0
0
LINE
8
LEVEL_Ground
10
1680
20
-5880
30
0
11
1770
21
-5970
31
0
0
LINE
8
LEVEL_Ground
10
1560
20
-5880
30
0
11
1650
21
-5970
31
0
0
LINE
8
LEVEL_Ground
10
1440
20
-5880
30
0
11
1530
21
-5970
31
0
0
LINE
8
LEVEL_Ground
10
1320
20
-5880
30
0
11
1410
21
-5970
31
0
0
LINE
8
LEVEL_Ground
10
1200
20
-5880
30
0
11
1290
21
-5970
31
0
0
LINE
8
LEVEL_Ground
10
1080
20
-5880
30
0
11
1170
21
-5970
31
0
0
LINE
8
LEVEL_Ground
10
960
20
-5880
30
0
11
1050
21
-5970
31
0
0
LINE
8
LEVEL_Ground
10
840
20
-5880
30
0
11
930
21
-5970
31
0
0
LINE
8
LEVEL_Ground
10
720
20
-5880
30
0
11
810
21
-5970
31
0
0
LINE
8
LEVEL_Ground
10
600
20
-5880
30
0
11
690
21
-5970
31
0
0
LINE
8
LEVEL_Ground
10
480.00000000000006
20
-5880
30
0
11
570
21
-5970
31
0
0
LINE
8
LEVEL_Ground
10
360
20
-5880
30
0
11
450
21
-5970
31
0
0
LINE
8
LEVEL_Ground
10
240
20
-5880
30
0
11
330
21
-5970
31
0
0
LINE
8
LEVEL_Ground
10
120
20
-5880
30
0
11
210
21
-5970
31
0
0
LINE
8
LEVEL_Ground
10
60
20
-5940
30
0
11
90
21
-5970
31
0
0
LWPOLYLINE
8
LEVEL_Ground
90
4
70
1
38
0
10
5400
20
-5880
10
8880
20
-5880
10
8970
20
-5970
10
5400
20
-5970
0
LINE
8
LEVEL_Ground
10
8760
20
-5880
30
0
11
8850
21
-5970
31
0
0
LINE
8
LEVEL_Ground
10
8640
20
-5880
30
0
11
8730
21
-5970
31
0
0
LINE
8
LEVEL_Ground
10
8520
20
-5880
30
0
11
8610
21
-5970
31
0
0
LINE
8
LEVEL_Ground
10
8400
20
-5880
30
0
11
8490
21
-5970
31
0
0
LINE
8
LEVEL_Ground
10
8280
20
-5880
30
0
11
8370
21
-5970
31
0
0
LINE
8
LEVEL_Ground
10
8160
20
-5880
30
0
11
8250
21
-5970
31
0
0
LINE
8
LEVEL_Ground
10
8040
20
-5880
30
0
11
8130
21
-5970
31
0
0
LINE
8
LEVEL_Ground
10
7920
20
-5880
30
0
11
8010
21
-5970
31
0
0
LINE
8
LEVEL_Ground
10
7800
20
-5880
30
0
11
7890
21
-5970
31
0
0
LINE
8
LEVEL_Ground
10
7680
20
-5880
30
0
11
7770
21
-5970
31
0
0
LINE
8
LEVEL_Ground
10
7560
20
-5880
30
0
11
7650
21
-5970
31
0
0
LINE
8
LEVEL_Ground
10
7440
20
-5880
30
0
11
7530
21
-5970
31
0
0
LINE
8
LEVEL_Ground
10
7320
20
-5880
30
0
11
7410
21
-5970
31
0
0
LINE
8
LEVEL_Ground
10
7200
20
-5880
30
0
11
7290
21
-5970
31
0
0
LINE
8
LEVEL_Ground
10
7080
20
-5880
30
0
11
7170
21
-5970
31
0
0
LINE
8
LEVEL_Ground
10
6960
20
-5880
30
0
11
7050
21
-5970
31
0
0
LINE
8
LEVEL_Ground
10
6840
20
-5880
30
0
11
6930
21
-5970
31
0
0
LINE
8
LEVEL_Ground
10
6720
20
-5880
30
0
11
6810
21
-5970
31
0
0
LINE
8
LEVEL_Ground
10
6600
20
-5880
30
0
11
6690
21
-5970
31
0
0
LINE
8
LEVEL_Ground
10
6480
20
-5880
30
0
11
6570
21
-5970
31
0
0
LINE
8
LEVEL_Ground
10
6360
20
-5880
30
0
11
6450
21
-5970
31
0
0
LINE
8
LEVEL_Ground
10
6240
20
-5880
30
0
11
6330
21
-5970
31
0
0
LINE
8
LEVEL_Ground
10
6120
20
-5880
30
0
11
6210
21
-5970
31
0
0
LINE
8
LEVEL_Ground
10
6000
20
-5880
30
0
11
6090
21
-5970
31
0
0
LINE
8
LEVEL_Ground
10
5880
20
-5880
30
0
11
5970
21
-5970
31
0
0
LINE
8
LEVEL_Ground
10
5760
20
-5880
30
0
11
5850
21
-5970
31
0
0
LINE
8
LEVEL_Ground
10
5640
20
-5880
30
0
11
5730
21
-5970
31
0
0
LINE
8
LEVEL_Ground
10
5520
20
-5880
30
0
11
5610
21
-5970
31
0
0
LINE
8
LEVEL_Ground
10
5400
20
-5880
30
0
11
5490
21
-5970
31
0
0
LWPOLYLINE
8
LEVEL_Ground
90
4
70
1
38
0
10
120
20
-5880
10
130
20
-5870
10
3600
20
-5870
10
3600
20
-5880
0
LWPOLYLINE
8
LEVEL_Ground
90
4
70
1
38
0
10
5400
20
-5870
10
8870
20
-5870
10
8880
20
-5880
10
5400
20
-5880
0
LWPOLYLINE
8
LEVEL_Ground
90
4
70
1
38
0
10
-130
20
-6130
10
-130
20
130
10
-20
20
20.00000000000091
10
-20
20
-6020
0
LINE
8
LEVEL_Ground
10
-130
20
120
30
0
11
-119.99999999999991
21
120
31
0
0
LINE
8
LEVEL_Ground
10
-130
20
0
30
0
11
-20
21
0
31
0
0
LINE
8
LEVEL_Ground
10
-130
20
-120
30
0
11
-20
21
-120
31
0
0
LINE
8
LEVEL_Ground
10
-130
20
-240
30
0
11
-20
21
-240
31
0
0
LINE
8
LEVEL_Ground
10
-130
20
-360
30
0
11
-20
21
-360
31
0
0
LINE
8
LEVEL_Ground
10
-130
20
-480
30
0
11
-20
21
-480
31
0
0
LINE
8
LEVEL_Ground
10
-130
20
-600
30
0
11
-20
21
-600
31
0
0
LINE
8
LEVEL_Ground
10
-130
20
-720
30
0
11
-20
21
-720
31
0
0
LINE
8
LEVEL_Ground
10
-130
20
-840
30
0
11
-20
21
-840
31
0
0
LINE
8
LEVEL_Ground
10
-130
20
-960
30
0
11
-20
21
-960
31
0
0
LINE
8
LEVEL_Ground
10
-130
20
-1080
30
0
11
-20
21
-1080
31
0
0
LINE
8
LEVEL_Ground
10
-130
20
-1200
30
0
11
-20
21
-1200
31
0
0
LINE
8
LEVEL_Ground
10
-130
20
-1320
30
0
11
-20
21
-1320
31
0
0
LINE
8
LEVEL_Ground
10
-130
20
-1440
30
0
11
-20
21
-1440
31
0
0
LINE
8
LEVEL_Ground
10
-130
20
-1560
30
0
11
-20
21
-1560
31
0
0
LINE
8
LEVEL_Ground
10
-130
20
-1680
30
0
11
-20
21
-1680
31
0
0
LINE
8
LEVEL_Ground
10
-130
20
-1800
30
0
11
-20
21
-1800
31
0
0
LINE
8
LEVEL_Ground
10
-130
20
-1920
30
0
11
-20
21
-1920
31
0
0
LINE
8
LEVEL_Ground
10
-130
20
-2040
30
0
11
-20
21
-2040
31
0
0
LINE
8
LEVEL_Ground
10
-130
20
-2160
30
0
11
-20
21
-2160
31
0
0
LINE
8
LEVEL_Ground
10
-130
20
-2280
30
0
11
-20
21
-2280
31
0
0
LINE
8
LEVEL_Ground
10
-130
20
-2400
30
0
11
-20
21
-2400
31
0
0
LINE
8
LEVEL_Ground
10
-130
20
-2520
30
0
11
-20
21
-2520
31
0
0
LINE
8
LEVEL_Ground
10
-130
20
-2640
30
0
11
-20
21
-2640
31
0
0
LINE
8
LEVEL_Ground
10
-130
20
-2760
30
0
11
-20
21
-2760
31
0
0
LINE
8
LEVEL_Ground
10
-130
20
-2880
30
0
11
-20
21
-2880
31
0
0
LINE
8
LEVEL_Ground
10
-130
20
-3000
30
0
11
-20
21
-3000
31
0
0
LINE
8
LEVEL_Ground
10
-130
20
-3120
30
0
11
-20
21
-3120
31
0
0
LINE
8
LEVEL_Ground
10
-130
20
-3240
30
0
11
-20
21
-3240
31
0
0
LINE
8
LEVEL_Ground
10
-130
20
-3360
30
0
11
-20
21
-3360
31
0
0
LINE
8
LEVEL_Ground
10
-130
20
-3480
30
0
11
-20
21
-3480
31
0
0
LINE
8
LEVEL_Ground
10
-130
20
-3600
30
0
11
-20
21
-3600
31
0
0
LINE
8
LEVEL_Ground
10
-130
20
-3720
30
0
11
-20
21
-3720
31
0
0
LINE
8
LEVEL_Ground
10
-130
20
-3840
30
0
11
-20
21
-3840
31
0
0
LINE
8
LEVEL_Ground
10
-130
20
-3960
30
0
11
-20
21
-3960
31
0
0
LINE
8
LEVEL_Ground
10
-130
20
-4080
30
0
11
-20
21
-4080
31
0
0
LINE
8
LEVEL_Ground
10
-130
20
-4200
30
0
11
-20
21
-4200
31
0
0
LINE
8
LEVEL_Ground
10
-130
20
-4320
30
0
11
-20
21
-4320
31
0
0
LINE
8
LEVEL_Ground
10
-130
20
-4440
30
0
11
-20
21
-4440
31
0
0
LINE
8
LEVEL_Ground
10
-130
20
-4560
30
0
11
-20
21
-4560
31
0
0
LINE
8
LEVEL_Ground
10
-130
20
-4680
30
0
11
-20
21
-4680
31
0
0
LINE
8
LEVEL_Ground
10
-130
20
-4800
30
0
11
-20
21
-4800
31
0
0
LINE
8
LEVEL_Ground
10
-130
20
-4920
30
0
11
-20
21
-4920
31
0
0
LINE
8
LEVEL_Ground
10
-130
20
-5040
30
0
11
-20
21
-5040
31
0
0
LINE
8
LEVEL_Ground
10
-130
20
-5160
30
0
11
-20
21
-5160
31
0
0
LINE
8
LEVEL_Ground
10
-130
20
-5280
30
0
11
-20
21
-5280
31
0
0
LINE
8
LEVEL_Ground
10
-130
20
-5400
30
0
11
-20
21
-5400
31
0
0
LINE
8
LEVEL_Ground
10
-130
20
-5520
30
0
11
-20
21
-5520
31
0
0
LINE
8
LEVEL_Ground
10
-130
20
-5640
30
0
11
-20
21
-5640
31
0
0
LINE
8
LEVEL_Ground
10
-130
20
-5760
30
0
11
-20
21
-5760
31
0
0
LINE
8
LEVEL_Ground
10
-130
20
-5880
30
0
11
-20
21
-5880
31
0
0
LINE
8
LEVEL_Ground
10
-130
20
-6000
30
0
11
-20
21
-6000
31
0
0
LINE
8
LEVEL_Ground
10
-130
20
-6120
30
0
11
-120
21
-6120
31
0
0
LWPOLYLINE
8
LEVEL_Ground
90
4
70
1
38
0
10
-20
20
-6020
10
-20
20
20.00000000000091
10
30
20
-30
10
30
20
-5970
0
LWPOLYLINE
8
LEVEL_Ground
90
4
70
1
38
0
10
30
20
-5970
10
30
20
-30
10
120
20
-120
10
120
20
-5880
0
LINE
8
LEVEL_Ground
10
30
20
-150
30
0
11
120
21
-240
31
0
0
LINE
8
LEVEL_Ground
10
30
20
-270
30
0
11
120
21
-360
31
0
0
LINE
8
LEVEL_Ground
10
30
20
-390
30
0
11
120
21
-480
31
0
0
LINE
8
LEVEL_Ground
10
30
20
-510
30
0
11
120
21
-600
31
0
0
LINE
8
LEVEL_Ground
10
30
20
-630
30
0
11
120
21
-720
31
0
0
LINE
8
LEVEL_Ground
10
30
20
-750
30
0
11
120
21
-840
31
0
0
LINE
8
LEVEL_Ground
10
30
20
-870
30
0
11
120
21
-960
31
0
0
LINE
8
LEVEL_Ground
10
30
20
-990
30
0
11
120
21
-1080
31
0
0
LINE
8
LEVEL_Ground
10
30
20
-1110
30
0
11
120
21
-1200
31
0
0
LINE
8
LEVEL_Ground
10
30
20
-1230
30
0
11
120
21
-1320
31
0
0
LINE
8
LEVEL_Ground
10
30
20
-1350
30
0
11
120
21
-1440
31
0
0
LINE
8
LEVEL_Ground
10
30
20
-1470
30
0
11
120
21
-1560
31
0
0
LINE
8
LEVEL_Ground
10
30
20
-1590
30
0
11
120
21
-1680
31
0
0
LINE
8
LEVEL_Ground
10
30
20
-1710
30
0
11
120
21
-1800
31
0
0
LINE
8
LEVEL_Ground
10
30
20
-1830
30
0
11
120
21
-1920
31
0
0
LINE
8
LEVEL_Ground
10
30
20
-1950
30
0
11
120
21
-2040
31
0
0
LINE
8
LEVEL_Ground
10
30
20
-2070
30
0
11
120
21
-2160
31
0
0
LINE
8
LEVEL_Ground
10
30
20
-2190
30
0
11
120
21
-2280
31
0
0
LINE
8
LEVEL_Ground
10
30
20
-2310
30
0
11
120
21
-2400
31
0
0
LINE
8
LEVEL_Ground
10
30
20
-2430
30
0
11
120
21
-2520
31
0
0
LINE
8
LEVEL_Ground
10
30
20
-2550
30
0
11
120
21
-2640
31
0
0
LINE
8
LEVEL_Ground
10
30
20
-2670
30
0
11
120
21
-2760
31
0
0
LINE
8
LEVEL_Ground
10
30
20
-2790
30
0
11
120
21
-2880
31
0
0
LINE
8
LEVEL_Ground
10
30
20
-2910
30
0
11
120
21
-3000
31
0
0
LINE
8
LEVEL_Ground
10
30
20
-3030
30
0
11
120
21
-3120
31
0
0
LINE
8
LEVEL_Ground
10
30
20
-3150
30
0
11
120
21
-3240
31
0
0
LINE
8
LEVEL_Ground
10
30
20
-3270
30
0
11
120
21
-3360
31
0
0
LINE
8
LEVEL_Ground
10
30
20
-3390
30
0
11
120
21
-3480
31
0
0
LINE
8
LEVEL_Ground
10
30
20
-3510
30
0
11
120
21
-3600
31
0
0
LINE
8
LEVEL_Ground
10
30
20
-3630
30
0
11
120
21
-3720
31
0
0
LINE
8
LEVEL_Ground
10
30
20
-3750
30
0
11
120
21
-3840
31
0
0
LINE
8
LEVEL_Ground
10
30
20
-3870
30
0
11
120
21
-3960
31
0
0
LINE
8
LEVEL_Ground
10
30
20
-3990
30
0
11
120
21
-4080
31
0
0
LINE
8
LEVEL_Ground
10
30
20
-4110
30
0
11
120
21
-4200
31
0
0
LINE
8
LEVEL_Ground
10
30
20
-4230
30
0
11
120
21
-4320
31
0
0
LINE
8
LEVEL_Ground
10
30
20
-4350
30
0
11
120
21
-4440
31
0
0
LINE
8
LEVEL_Ground
10
30
20
-4470
30
0
11
120
21
-4560
31
0
0
LINE
8
LEVEL_Ground
10
30
20
-4590
30
0
11
120
21
-4680
31
0
0
LINE
8
LEVEL_Ground
10
30
20
-4710
30
0
11
120
21
-4800
31
0
0
LINE
8
LEVEL_Ground
10
30
20
-4830
30
0
11
120
21
-4920
31
0
0
LINE
8
LEVEL_Ground
10
30
20
-4950
30
0
11
120
21
-5040
31
0
0
LINE
8
LEVEL_Ground
10
30
20
-5070
30
0
11
120
21
-5160
31
0
0
LINE
8
LEVEL_Ground
10
30
20
-5190
30
0
11
120
21
-5280
31
0
0
LINE
8
LEVEL_Ground
10
30
20
-5310
30
0
11
120
21
-5400
31
0
0
LINE
8
LEVEL_Ground
10
30
20
-5430
30
0
11
120
21
-5520
31
0
0
LINE
8
LEVEL_Ground
10
30
20
-5550
30
0
11
120
21
-5640
31
0
0
LINE
8
LEVEL_Ground
10
30
20
-5670
30
0
11
120
21
-5760
31
0
0
LINE
8
LEVEL_Ground
10
30
20
-5790
30
0
11
120
21
-5880
31
0
0
LINE
8
LEVEL_Ground
10
30
20
-5910
30
0
11
60
21
-5940
31
0
0
LWPOLYLINE
8
LEVEL_Ground
90
4
70
1
38
0
10
120
20
-5880
10
120
20
-120
10
130
20
-130
10
130
20
-5870
0
LWPOLYLINE
8
LEVEL_Ground
90
4
70
1
38
0
10
5955
20
0
10
6045
20
0
10
6045
20
-2565
10
5955
20
-2565
0
LWPOLYLINE
8
LEVEL_Ground
90
4
70
1
38
0
10
5955
20
-3435
10
6045
20
-3435
10
6045
20
-6000
10
5955
20
-6000
0
LINE
8
LEVEL_Ground
10
5400
20
-6130
30
0
11
5400
21
-5870
31
0
0
LINE
8
LEVEL_Ground
10
3600
20
-6130
30
0
11
3600
21
-5870
31
0
0
LINE
8
LEVEL_Ground
10
5400
20
-6000
30
0
11
5400
21
-4200
31
0
0
ARC
8
LEVEL_Ground
10
5400
20
-6000
30
0
40
1800
50
90
51
180
0
TEXT
8
LEVEL_Ground
10
4500
20
-5660
30
0
40
130
1
D01
0
LINE
8
LEVEL_Ground
10
1800
20
130
30
0
11
1800
21
-130
31
0
0
LINE
8
LEVEL_Ground
10
4200
20
130
30
0
11
4200
21
-130
31
0
0
LINE
8
LEVEL_Ground
10
1800
20
130
30
0
11
4200
21
130
31
0
0
LINE
8
LEVEL_Ground
10
1800
20
0
30
0
11
4200
21
0
31
0
0
LINE
8
LEVEL_Ground
10
1800
20
-130
30
0
11
4200
21
-130
31
0
0
TEXT
8
LEVEL_Ground
10
3000
20
-340
30
0
40
130
1
W01
0
LINE
8
LEVEL_Ground
10
6045
20
-2565
30
0
11
5955
21
-2565
31
0
0
LINE
8
LEVEL_Ground
10
6045
20
-3435
30
0
11
5955
21
-3435
31
0
0
LINE
8
LEVEL_Ground
10
6000
20
-3435
30
0
11
6870
21
-3435
31
0
0
ARC
8
LEVEL_Ground
10
6000
20
-3435
30
0
40
870
50
0
51
90
0
TEXT
8
LEVEL_Ground
10
5745
20
-3000
30
0
40
130
1
D02
0
TEXT
8
LEVEL_Ground
10
3000
20
-3000
30
0
40
190
1
STUDIO
0
TEXT
8
LEVEL_Ground
10
3000
20
-3210
30
0
40
125
1
33.44 m² | P 23.13 m
0
TEXT
8
LEVEL_Ground
10
3000
20
-3390
30
0
40
115
1
CL 2.700 m
0
TEXT
8
LEVEL_Ground
10
7500
20
-3000
30
0
40
190
1
WORKSHOP
0
TEXT
8
LEVEL_Ground
10
7500
20
-3210
30
0
40
125
1
16.22 m² | P 17.13 m
0
TEXT
8
LEVEL_Ground
10
7500
20
-3390
30
0
40
115
1
CL 2.700 m
0
LINE
8
LEVEL_Ground
10
0
20
0
30
0
11
0
21
550
31
0
0
LINE
8
LEVEL_Ground
10
9000
20
0
30
0
11
9000
21
550
31
0
0
LINE
8
LEVEL_Ground
10
0
20
650
30
0
11
9000
21
650
31
0
0
LINE
8
LEVEL_Ground
10
-60
20
590
30
0
11
60
21
710
31
0
0
LINE
8
LEVEL_Ground
10
8940
20
590
30
0
11
9060
21
710
31
0
0
TEXT
8
LEVEL_Ground
10
4500
20
500
30
0
40
130
1
9000
0
LINE
8
LEVEL_Ground
10
9000
20
0
30
0
11
9550
21
0
31
0
0
LINE
8
LEVEL_Ground
10
9000
20
-6000
30
0
11
9550
21
-6000
31
0
0
LINE
8
LEVEL_Ground
10
9650
20
0
30
0
11
9650
21
-6000
31
0
0
LINE
8
LEVEL_Ground
10
9590
20
-60
30
0
11
9710
21
60
31
0
0
LINE
8
LEVEL_Ground
10
9590
20
-6060
30
0
11
9710
21
-5940
31
0
0
TEXT
8
LEVEL_Ground
10
9500
20
-3000
30
0
40
130
1
6000
0
LINE
8
LEVEL_Ground
10
9000
20
-6000
30
0
11
9000
21
-6550
31
0
0
LINE
8
LEVEL_Ground
10
0
20
-6000
30
0
11
0
21
-6550
31
0
0
LINE
8
LEVEL_Ground
10
9000
20
-6650
30
0
11
0
21
-6650
31
0
0
LINE
8
LEVEL_Ground
10
8940
20
-6710
30
0
11
9060
21
-6590
31
0
0
LINE
8
LEVEL_Ground
10
-60
20
-6710
30
0
11
60
21
-6590
31
0
0
TEXT
8
LEVEL_Ground
10
4500
20
-6500
30
0
40
130
1
9000
0
LINE
8
LEVEL_Ground
10
0
20
-6000
30
0
11
-550
21
-6000
31
0
0
LINE
8
LEVEL_Ground
10
0
20
0
30
0
11
-550
21
0
31
0
0
LINE
8
LEVEL_Ground
10
-650
20
-6000
30
0
11
-650
21
0
31
0
0
LINE
8
LEVEL_Ground
10
-710
20
-6060
30
0
11
-590
21
-5940
31
0
0
LINE
8
LEVEL_Ground
10
-710
20
-60
30
0
11
-590
21
60
31
0
0
TEXT
8
LEVEL_Ground
10
-500
20
-3000
30
0
40
130
1
6000
0
LINE
8
LEVEL_Ground
10
-2000
20
-500
30
0
11
15000
21
-500
31
0
0
CIRCLE
8
LEVEL_Ground
10
13000
20
-3000
30
0
40
1234.5
0
ARC
8
LEVEL_Ground
10
13000
20
-3000
30
0
40
2222
50
202.4366063390236
51
345.6760551217294
0
LINE
8
LEVEL_Ground
10
0
20
1000
30
0
11
0
21
-7789.25
31
0
0
CIRCLE
8
LEVEL_Ground
10
0
20
1000
30
0
40
160
0
TEXT
8
LEVEL_Ground
10
0
20
955
30
0
40
140
1
A
0
LINE
8
LEVEL_Ground
10
9000
20
1000
30
0
11
9000
21
-7789.25
31
0
0
CIRCLE
8
LEVEL_Ground
10
9000
20
1000
30
0
40
160
0
TEXT
8
LEVEL_Ground
10
9000
20
955
30
0
40
140
1
B
0
LINE
8
LEVEL_Ground
10
-3000
20
0
30
0
11
16222
21
0
31
0
0
CIRCLE
8
LEVEL_Ground
10
-3000
20
0
30
0
40
160
0
TEXT
8
LEVEL_Ground
10
-3000
20
-45
30
0
40
140
1
1
0
LINE
8
LEVEL_Ground
10
-3000
20
-6000
30
0
11
16222
21
-6000
31
0
0
CIRCLE
8
LEVEL_Ground
10
-3000
20
-6000
30
0
40
160
0
TEXT
8
LEVEL_Ground
10
-3000
20
-6045
30
0
40
140
1
2
0
LINE
8
LEVEL_Ground
10
0
20
-1800
30
0
11
9000
21
-1800
31
0
0
TEXT
8
LEVEL_Ground
10
0
20
-1620
30
0
40
170
1
A
0
TEXT
8
LEVEL_Ground
10
9000
20
-1620
30
0
40
170
1
A
0
LINE
8
LEVEL_Upper_proof
10
1234.5
20
-6789.25
30
3200
11
9999.125
21
-6789.25
31
3200
0
LINE
8
LEVEL_Upper_proof
10
0
20
1000
30
3200
11
0
21
-7789.25
31
3200
0
CIRCLE
8
LEVEL_Upper_proof
10
0
20
1000
30
3200
40
160
0
TEXT
8
LEVEL_Upper_proof
10
0
20
955
30
3200
40
140
1
A
0
LINE
8
LEVEL_Upper_proof
10
9000
20
1000
30
3200
11
9000
21
-7789.25
31
3200
0
CIRCLE
8
LEVEL_Upper_proof
10
9000
20
1000
30
3200
40
160
0
TEXT
8
LEVEL_Upper_proof
10
9000
20
955
30
3200
40
140
1
B
0
LINE
8
LEVEL_Upper_proof
10
-3000
20
0
30
3200
11
16222
21
0
31
3200
0
CIRCLE
8
LEVEL_Upper_proof
10
-3000
20
0
30
3200
40
160
0
TEXT
8
LEVEL_Upper_proof
10
-3000
20
-45
30
3200
40
140
1
1
0
LINE
8
LEVEL_Upper_proof
10
-3000
20
-6000
30
3200
11
16222
21
-6000
31
3200
0
CIRCLE
8
LEVEL_Upper_proof
10
-3000
20
-6000
30
3200
40
160
0
TEXT
8
LEVEL_Upper_proof
10
-3000
20
-6045
30
3200
40
140
1
2
0
LINE
8
LEVEL_Upper_proof
10
0
20
-1800
30
3200
11
9000
21
-1800
31
3200
0
TEXT
8
LEVEL_Upper_proof
10
0
20
-1620
30
3200
40
170
1
A
0
TEXT
8
LEVEL_Upper_proof
10
9000
20
-1620
30
3200
40
170
1
A
0
ENDSEC
0
EOF
