0
SECTION
2
HEADER
9
$ACADVER
1
AC1027
9
$INSUNITS
70
4
0
ENDSEC
999
XRAY_MODEL:0:60:eyJoYXNoIjoiYjA1NmQxNjI1OTE2MDVmZDZlYWI0MWExMDRhYzNmNjQ2NTM2NjExM2E3ODY4ZTJmYzg4MWZmZWVjZDlkNzExNCIsInByb2plY3QiOnsic2NoZW1hIjoieHJheS5hcmNoaXRlY3QvdjEiLCJpZCI6ImpvYi0xNDA0ZDMwYy1k
999
XRAY_MODEL:1:60:ZmIyLTQxN2YtOTc5Yi03NDQwMmI1YmQ0NTEiLCJyZXZpc2lvbiI6MjIsIm5hbWUiOiJDb3VydHlhcmQgc3R1ZGlvIC8gZGVtb25zdHJhdGlvbiIsImFkZHJlc3MiOiIiLCJkZXNpZ25SZXZpc2lvbiI6IkEiLCJ1bml0cyI6Im1tIiwibGV2
999
XRAY_MODEL:2:60:ZWxzIjpbeyJpZCI6ImY4YWU1OTk1LTBmNDAtNGZiYS1hMmVjLTczMmU4OGY4ZGU5YiIsIm5hbWUiOiJHcm91bmQiLCJlbGV2YXRpb24iOjAsImhlaWdodCI6MjcwMH1dLCJ3YWxscyI6W3siaWQiOiI2NGY2MTQ5NS05ODBjLTQwNmQtYTVm
999
XRAY_MODEL:3:60:MC04NzlkMjM5ZTY5MDEiLCJyZXZpc2lvbiI6NiwibGV2ZWxJZCI6ImY4YWU1OTk1LTBmNDAtNGZiYS1hMmVjLTczMmU4OGY4ZGU5YiIsIm5hbWUiOiJXYWxsIDEiLCJhIjpbMCwwXSwiYiI6WzkwMDAsMF0sImhlaWdodCI6MjkwMCwibGF5
999
XRAY_MODEL:4:60:ZXJzIjpbeyJpZCI6IjgzOTkyY2I4LTI5NTItNGQ0ZC04MmU3LWEwMWIyMjQ2ZWFlNyIsIm5hbWUiOiJCcmlja3dvcmsiLCJ0aGlja25lc3MiOjExMCwia2luZCI6InNvbGlkIiwiaGF0Y2giOiJicmljayIsImRlbnNpdHlLZ00zIjoxODAw
999
XRAY_MODEL:5:60:LCJyYXRlTTIiOjQ1LCJzdXBwbGllclJlZmVyZW5jZSI6IlN1cHBsaWVyIHF1b3RlIFFBLTQyIiwicmF0ZVJldmlzaW9uIjoiMjAyNi1BIiwid2FzdGVQZXJjZW50IjowfSx7ImlkIjoiOTU3Y2ZjYTctZDNkMS00NDcyLTk5NTAtMTUwM2Vi
999
XRAY_MODEL:6:60:MTQ2ZmY3IiwibmFtZSI6IkNhdml0eSIsInRoaWNrbmVzcyI6NTAsImtpbmQiOiJ2b2lkIiwiaGF0Y2giOiJub25lIiwiZGVuc2l0eUtnTTMiOm51bGwsInJhdGVNMiI6bnVsbCwic3VwcGxpZXJSZWZlcmVuY2UiOiIiLCJyYXRlUmV2aXNp
999
XRAY_MODEL:7:60:b24iOiIiLCJ3YXN0ZVBlcmNlbnQiOjB9LHsiaWQiOiJmZmUyYTM2MS04OTJhLTQzNjMtOTg3ZC0yNjgxYjg4OTA3ZWUiLCJuYW1lIjoiU3R1ZCBhc3NlbWJseSIsInRoaWNrbmVzcyI6OTAsImtpbmQiOiJhc3NlbWJseSIsImhhdGNoIjoi
999
XRAY_MODEL:8:60:dGltYmVyIiwiZGVuc2l0eUtnTTMiOm51bGwsInJhdGVNMiI6bnVsbCwic3VwcGxpZXJSZWZlcmVuY2UiOiIiLCJyYXRlUmV2aXNpb24iOiIiLCJ3YXN0ZVBlcmNlbnQiOjB9LHsiaWQiOiJlOTVkYzc3YS0zNmRhLTQ0MWYtOWU1NC05MWNk
999
XRAY_MODEL:9:60:OWQyYTRlNDgiLCJuYW1lIjoiUGxhc3RlcmJvYXJkIiwidGhpY2tuZXNzIjoxMCwia2luZCI6InNvbGlkIiwiaGF0Y2giOiJub25lIiwiZGVuc2l0eUtnTTMiOm51bGwsInJhdGVNMiI6bnVsbCwic3VwcGxpZXJSZWZlcmVuY2UiOiIiLCJy
999
XRAY_MODEL:10:60:YXRlUmV2aXNpb24iOiIiLCJ3YXN0ZVBlcmNlbnQiOjB9XX0seyJpZCI6IjNlMjRkNzM4LTlkMjUtNDUwZC05NzM1LWMwMjQ0NmJjMzllMyIsInJldmlzaW9uIjoxLCJsZXZlbElkIjoiZjhhZTU5OTUtMGY0MC00ZmJhLWEyZWMtNzMyZTg4
999
XRAY_MODEL:11:60:ZjhkZTliIiwibmFtZSI6IldhbGwgMiIsImEiOls5MDAwLDBdLCJiIjpbOTAwMCw2MDAwXSwiaGVpZ2h0IjoyNzAwLCJsYXllcnMiOlt7ImlkIjoiOGMyZWI1NTYtYzljNi00MmE0LThhMzAtNmNlMzBlNDk3YWIyIiwibmFtZSI6IkJyaWNr
999
XRAY_MODEL:12:60:d29yayIsInRoaWNrbmVzcyI6MTEwLCJraW5kIjoic29saWQiLCJoYXRjaCI6ImJyaWNrIiwiZGVuc2l0eUtnTTMiOm51bGwsInJhdGVNMiI6bnVsbCwic3VwcGxpZXJSZWZlcmVuY2UiOiIiLCJyYXRlUmV2aXNpb24iOiIiLCJ3YXN0ZVBl
999
XRAY_MODEL:13:60:cmNlbnQiOjB9LHsiaWQiOiI4ZWY2Y2UxNC1mOGE5LTQ0ZWEtYjcyNi1mZWNmMmZkYjBiNDAiLCJuYW1lIjoiQ2F2aXR5IiwidGhpY2tuZXNzIjo1MCwia2luZCI6InZvaWQiLCJoYXRjaCI6Im5vbmUiLCJkZW5zaXR5S2dNMyI6bnVsbCwi
999
XRAY_MODEL:14:60:cmF0ZU0yIjpudWxsLCJzdXBwbGllclJlZmVyZW5jZSI6IiIsInJhdGVSZXZpc2lvbiI6IiIsIndhc3RlUGVyY2VudCI6MH0seyJpZCI6IjIxOWI0YTk1LTVlMTktNGIxNy05MGY0LTBmNDY1OTNmNTQ4YSIsIm5hbWUiOiJTdHVkIGFzc2Vt
999
XRAY_MODEL:15:60:Ymx5IiwidGhpY2tuZXNzIjo5MCwia2luZCI6ImFzc2VtYmx5IiwiaGF0Y2giOiJ0aW1iZXIiLCJkZW5zaXR5S2dNMyI6bnVsbCwicmF0ZU0yIjpudWxsLCJzdXBwbGllclJlZmVyZW5jZSI6IiIsInJhdGVSZXZpc2lvbiI6IiIsIndhc3Rl
999
XRAY_MODEL:16:60:UGVyY2VudCI6MH0seyJpZCI6IjYwOGEyZWE3LWRlMmEtNDA0Ny1hMTEzLTBhNTAyNDJmMDEwMiIsIm5hbWUiOiJQbGFzdGVyYm9hcmQiLCJ0aGlja25lc3MiOjEwLCJraW5kIjoic29saWQiLCJoYXRjaCI6Im5vbmUiLCJkZW5zaXR5S2dN
999
XRAY_MODEL:17:60:MyI6bnVsbCwicmF0ZU0yIjpudWxsLCJzdXBwbGllclJlZmVyZW5jZSI6IiIsInJhdGVSZXZpc2lvbiI6IiIsIndhc3RlUGVyY2VudCI6MH1dfSx7ImlkIjoiMjNmZmU0MTItZDRlNi00YjUwLWI4MzctZjY5MDBiYmFiZTRiIiwicmV2aXNp
999
XRAY_MODEL:18:60:b24iOjEsImxldmVsSWQiOiJmOGFlNTk5NS0wZjQwLTRmYmEtYTJlYy03MzJlODhmOGRlOWIiLCJuYW1lIjoiV2FsbCAzIiwiYSI6WzkwMDAsNjAwMF0sImIiOlswLDYwMDBdLCJoZWlnaHQiOjI3MDAsImxheWVycyI6W3siaWQiOiIyOGY4
999
XRAY_MODEL:19:60:MzAxNC1mN2NiLTRjNGEtOTc2Zi0yN2Y4NjJhMzBkYTMiLCJuYW1lIjoiQnJpY2t3b3JrIiwidGhpY2tuZXNzIjoxMTAsImtpbmQiOiJzb2xpZCIsImhhdGNoIjoiYnJpY2siLCJkZW5zaXR5S2dNMyI6bnVsbCwicmF0ZU0yIjpudWxsLCJz
999
XRAY_MODEL:20:60:dXBwbGllclJlZmVyZW5jZSI6IiIsInJhdGVSZXZpc2lvbiI6IiIsIndhc3RlUGVyY2VudCI6MH0seyJpZCI6IjdlYzhjM2E5LWRkMTQtNGRlMi1iZTIyLWQxNGNkMTQ0ZTg2MCIsIm5hbWUiOiJDYXZpdHkiLCJ0aGlja25lc3MiOjUwLCJr
999
XRAY_MODEL:21:60:aW5kIjoidm9pZCIsImhhdGNoIjoibm9uZSIsImRlbnNpdHlLZ00zIjpudWxsLCJyYXRlTTIiOm51bGwsInN1cHBsaWVyUmVmZXJlbmNlIjoiIiwicmF0ZVJldmlzaW9uIjoiIiwid2FzdGVQZXJjZW50IjowfSx7ImlkIjoiZTgwZjUyOTAt
999
XRAY_MODEL:22:60:OWU1YS00MzI5LTliZWUtZTllMDhmZjkwZWQ5IiwibmFtZSI6IlN0dWQgYXNzZW1ibHkiLCJ0aGlja25lc3MiOjkwLCJraW5kIjoiYXNzZW1ibHkiLCJoYXRjaCI6InRpbWJlciIsImRlbnNpdHlLZ00zIjpudWxsLCJyYXRlTTIiOm51bGws
999
XRAY_MODEL:23:60:InN1cHBsaWVyUmVmZXJlbmNlIjoiIiwicmF0ZVJldmlzaW9uIjoiIiwid2FzdGVQZXJjZW50IjowfSx7ImlkIjoiNmUzNTkxY2ItZDI0ZS00OTIzLWFiOTgtZTRjODIxODE1YmU5IiwibmFtZSI6IlBsYXN0ZXJib2FyZCIsInRoaWNrbmVz
999
XRAY_MODEL:24:60:cyI6MTAsImtpbmQiOiJzb2xpZCIsImhhdGNoIjoibm9uZSIsImRlbnNpdHlLZ00zIjpudWxsLCJyYXRlTTIiOm51bGwsInN1cHBsaWVyUmVmZXJlbmNlIjoiIiwicmF0ZVJldmlzaW9uIjoiIiwid2FzdGVQZXJjZW50IjowfV19LHsiaWQi
999
XRAY_MODEL:25:60:OiIwYTQ0NWRlOS01ZjllLTQyN2QtOWYxMS1iMWRiNjc2M2ZjMTIiLCJyZXZpc2lvbiI6MSwibGV2ZWxJZCI6ImY4YWU1OTk1LTBmNDAtNGZiYS1hMmVjLTczMmU4OGY4ZGU5YiIsIm5hbWUiOiJXYWxsIDQiLCJhIjpbMCw2MDAwXSwiYiI6
999
XRAY_MODEL:26:60:WzAsMF0sImhlaWdodCI6MjcwMCwibGF5ZXJzIjpbeyJpZCI6ImE3YWUxYjBlLWJlMTktNDExMi04ZDBkLWZmZDdmOThhYTA0ZCIsIm5hbWUiOiJCcmlja3dvcmsiLCJ0aGlja25lc3MiOjExMCwia2luZCI6InNvbGlkIiwiaGF0Y2giOiJi
999
XRAY_MODEL:27:60:cmljayIsImRlbnNpdHlLZ00zIjpudWxsLCJyYXRlTTIiOm51bGwsInN1cHBsaWVyUmVmZXJlbmNlIjoiIiwicmF0ZVJldmlzaW9uIjoiIiwid2FzdGVQZXJjZW50IjowfSx7ImlkIjoiMDBhMjI4OGYtYWJhZS00MzBlLWFkM2EtM2FlNTI0
999
XRAY_MODEL:28:60:YWQxY2Q2IiwibmFtZSI6IkNhdml0eSIsInRoaWNrbmVzcyI6NTAsImtpbmQiOiJ2b2lkIiwiaGF0Y2giOiJub25lIiwiZGVuc2l0eUtnTTMiOm51bGwsInJhdGVNMiI6bnVsbCwic3VwcGxpZXJSZWZlcmVuY2UiOiIiLCJyYXRlUmV2aXNp
999
XRAY_MODEL:29:60:b24iOiIiLCJ3YXN0ZVBlcmNlbnQiOjB9LHsiaWQiOiJlNjVkMjMwNS0zZTM0LTRlMzYtOTY5Zi1hZWUzYWM1Y2FkMDkiLCJuYW1lIjoiU3R1ZCBhc3NlbWJseSIsInRoaWNrbmVzcyI6OTAsImtpbmQiOiJhc3NlbWJseSIsImhhdGNoIjoi
999
XRAY_MODEL:30:60:dGltYmVyIiwiZGVuc2l0eUtnTTMiOm51bGwsInJhdGVNMiI6bnVsbCwic3VwcGxpZXJSZWZlcmVuY2UiOiIiLCJyYXRlUmV2aXNpb24iOiIiLCJ3YXN0ZVBlcmNlbnQiOjB9LHsiaWQiOiIzMmYxNjU3YS0xMzEwLTRiMTUtOWNlMS03MjA2
999
XRAY_MODEL:31:60:YmE1M2U5YmUiLCJuYW1lIjoiUGxhc3RlcmJvYXJkIiwidGhpY2tuZXNzIjoxMCwia2luZCI6InNvbGlkIiwiaGF0Y2giOiJub25lIiwiZGVuc2l0eUtnTTMiOm51bGwsInJhdGVNMiI6bnVsbCwic3VwcGxpZXJSZWZlcmVuY2UiOiIiLCJy
999
XRAY_MODEL:32:60:YXRlUmV2aXNpb24iOiIiLCJ3YXN0ZVBlcmNlbnQiOjB9XX0seyJpZCI6IjNkOGEzY2M0LTY3NDktNDk0ZC1hNjM0LWUzZGY2MDlhYWFlMCIsInJldmlzaW9uIjoxLCJsZXZlbElkIjoiZjhhZTU5OTUtMGY0MC00ZmJhLWEyZWMtNzMyZTg4
999
XRAY_MODEL:33:60:ZjhkZTliIiwibmFtZSI6IldhbGwgNSIsImEiOls2MDAwLDBdLCJiIjpbNjAwMCw2MDAwXSwiaGVpZ2h0IjoyNzAwLCJsYXllcnMiOlt7ImlkIjoiY2Q5ODNjNjItOTM1NS00MzM0LWJmMjItYjBjMjliNjg4NDUzIiwibmFtZSI6IkludGVy
999
XRAY_MODEL:34:60:bmFsIGxpbmluZyIsInRoaWNrbmVzcyI6OTAsImtpbmQiOiJhc3NlbWJseSIsImhhdGNoIjoibm9uZSIsImRlbnNpdHlLZ00zIjpudWxsLCJyYXRlTTIiOm51bGwsInN1cHBsaWVyUmVmZXJlbmNlIjoiIiwicmF0ZVJldmlzaW9uIjoiIiwi
999
XRAY_MODEL:35:60:d2FzdGVQZXJjZW50IjowfV19XSwib3BlbmluZ3MiOlt7ImlkIjoiMGRhNjczYWYtZjEyYi00ZGU0LTk5YmUtZGY4NmMyZmRiMTUyIiwicmV2aXNpb24iOjEsIndhbGxJZCI6IjIzZmZlNDEyLWQ0ZTYtNGI1MC1iODM3LWY2OTAwYmJhYmU0
999
XRAY_MODEL:36:60:YiIsInRhZyI6IkQwMSIsImtpbmQiOiJkb29yIiwib2Zmc2V0Ijo0NTAwLCJ3aWR0aCI6MTUwMCwiaGVpZ2h0IjoyNDAwLCJzaWxsIjowLCJoaW5nZSI6ImxlZnQiLCJzd2luZyI6ImluIn0seyJpZCI6ImVkY2VmNzVkLTAyMmMtNGY3Zi05
999
XRAY_MODEL:37:60:MWJkLTEzZGUyN2QwYzFlZCIsInJldmlzaW9uIjoxLCJ3YWxsSWQiOiI2NGY2MTQ5NS05ODBjLTQwNmQtYTVmMC04NzlkMjM5ZTY5MDEiLCJ0YWciOiJXMDEiLCJraW5kIjoid2luZG93Iiwib2Zmc2V0IjozMDAwLCJ3aWR0aCI6MjQwMCwi
999
XRAY_MODEL:38:60:aGVpZ2h0IjoxNDAwLCJzaWxsIjoxMDAwLCJoaW5nZSI6ImxlZnQiLCJzd2luZyI6ImluIn0seyJpZCI6ImU5MmZjMWI5LWFiMjAtNDEzYS04MGE1LTY2MzMyNzU1Nzc4ZCIsInJldmlzaW9uIjoxLCJ3YWxsSWQiOiIzZDhhM2NjNC02NzQ5
999
XRAY_MODEL:39:60:LTQ5NGQtYTYzNC1lM2RmNjA5YWFhZTAiLCJ0YWciOiJEMDIiLCJraW5kIjoiZG9vciIsIm9mZnNldCI6MzAwMCwid2lkdGgiOjg3MCwiaGVpZ2h0IjoyMTAwLCJzaWxsIjowLCJoaW5nZSI6InJpZ2h0Iiwic3dpbmciOiJvdXQifV0sInNs
999
XRAY_MODEL:40:60:YWJzIjpbeyJpZCI6IjU1YWY3YmZkLWFlOTctNDMxYS1hYmNmLThmMjExNzYyNDY0OCIsInJldmlzaW9uIjoxLCJsZXZlbElkIjoiZjhhZTU5OTUtMGY0MC00ZmJhLWEyZWMtNzMyZTg4ZjhkZTliIiwibmFtZSI6Ikdyb3VuZCBzbGFiIiwi
999
XRAY_MODEL:41:60:cG9pbnRzIjpbWzAsMF0sWzkwMDAsMF0sWzkwMDAsNjAwMF0sWzAsNjAwMF1dLCJ0aGlja25lc3MiOjE1MCwib2Zmc2V0IjowLCJtYXRlcmlhbCI6IkNvbmNyZXRlIn1dLCJyb29mcyI6W3siaWQiOiJmY2QyOWQ1Zi01Yzk5LTRjZTAtYWYz
999
XRAY_MODEL:42:60:Mi03M2QyODgzZDEwOWYiLCJyZXZpc2lvbiI6OCwibGV2ZWxJZCI6ImY4YWU1OTk1LTBmNDAtNGZiYS1hMmVjLTczMmU4OGY4ZGU5YiIsIm5hbWUiOiJNYWluIHJvb2YiLCJwb2ludHMiOltbMCwwXSxbOTAwMCwwXSxbOTAwMCw2MDAwXSxb
999
XRAY_MODEL:43:60:MCw2MDAwXV0sIm9mZnNldCI6MjcwMCwiZWF2ZXMiOjQ1MCwiZmFzY2lhSGVpZ2h0IjoxNDAsImZhc2NpYVRoaWNrbmVzcyI6MjAsImd1dHRlckVuYWJsZWQiOnRydWUsImd1dHRlcldpZHRoIjoxNTAsImd1dHRlckRlcHRoIjo5MCwiZ3V0
999
XRAY_MODEL:44:60:dGVyVGhpY2tuZXNzIjoxLjIsImVkZ2VzIjpbeyJwaXRjaCI6MjIuNSwiZ2FibGUiOmZhbHNlfSx7InBpdGNoIjoyMi41LCJnYWJsZSI6ZmFsc2V9LHsicGl0Y2giOjIyLjUsImdhYmxlIjpmYWxzZX0seyJwaXRjaCI6MjIuNSwiZ2FibGUi
999
XRAY_MODEL:45:60:OmZhbHNlfV19XSwibGluZXMiOltdLCJjaXJjbGVzIjpbXSwiYXJjcyI6W10sImdyaWRzIjpbeyJpZCI6IjMyOGZmNTBkLTk3MDgtNGI4My05ZDgzLTRkZjg5NWFjZjE3NCIsInJldmlzaW9uIjoxLCJsYWJlbCI6IkEiLCJheGlzIjoieCIs
999
XRAY_MODEL:46:60:InBvc2l0aW9uIjowfSx7ImlkIjoiOWIyYTlmNjctNjI5Ny00NTIxLTg1ZWQtNTk4NWNmYWZhOTNlIiwicmV2aXNpb24iOjEsImxhYmVsIjoiQiIsImF4aXMiOiJ4IiwicG9zaXRpb24iOjkwMDB9LHsiaWQiOiJiMDMyOTg3OS0wNzBhLTRl
999
XRAY_MODEL:47:60:NjYtOTIxNC04MTc4MDIxMzBhMDQiLCJyZXZpc2lvbiI6MSwibGFiZWwiOiIxIiwiYXhpcyI6InkiLCJwb3NpdGlvbiI6MH0seyJpZCI6IjFjNmRhMmU5LTQ2OTItNDk4MC1iMjU5LWVkMzYxNjgxYzE3NiIsInJldmlzaW9uIjoxLCJsYWJl
999
XRAY_MODEL:48:60:bCI6IjIiLCJheGlzIjoieSIsInBvc2l0aW9uIjo2MDAwfV0sInJvb21UYWdzIjpbeyJpZCI6IjA0NWY5NjI5LTU5MTEtNGU5Mi1hZThiLWJhM2U1ZTEzOTI2OSIsInJldmlzaW9uIjoxLCJwb2ludCI6WzMwMDAsMzAwMF0sImxldmVsSWQi
999
XRAY_MODEL:49:60:OiJmOGFlNTk5NS0wZjQwLTRmYmEtYTJlYy03MzJlODhmOGRlOWIiLCJuYW1lIjoiU1RVRElPIn0seyJpZCI6ImRmMDE3ODlkLTM2ZTMtNDMwNS1iZGQ1LWU3YmRjNDNmYzg4YiIsInJldmlzaW9uIjoxLCJwb2ludCI6Wzc1MDAsMzAwMF0s
999
XRAY_MODEL:50:60:ImxldmVsSWQiOiJmOGFlNTk5NS0wZjQwLTRmYmEtYTJlYy03MzJlODhmOGRlOWIiLCJuYW1lIjoiV09SS1NIT1AifV0sImRpbWVuc2lvbnMiOlt7ImlkIjoiYzg0ODFjMWYtMzg2MC00MjE4LWFjNTMtYTAxZGNlM2NhY2E4IiwicmV2aXNp
999
XRAY_MODEL:51:60:b24iOjEsIndhbGxJZCI6IjY0ZjYxNDk1LTk4MGMtNDA2ZC1hNWYwLTg3OWQyMzllNjkwMSIsIm9mZnNldCI6LTY1MH0seyJpZCI6ImJkODMxZjZjLTMzZTEtNDc5Zi04MTgzLWVjYzUzNDY0MmRmNiIsInJldmlzaW9uIjoxLCJ3YWxsSWQi
999
XRAY_MODEL:52:60:OiIzZTI0ZDczOC05ZDI1LTQ1MGQtOTczNS1jMDI0NDZiYzM5ZTMiLCJvZmZzZXQiOi02NTB9LHsiaWQiOiI1M2ZmN2I1Yi02YzQ2LTRjNjAtYjRkMC01MTc5Mjk1YThkNzgiLCJyZXZpc2lvbiI6MSwid2FsbElkIjoiMjNmZmU0MTItZDRl
999
XRAY_MODEL:53:60:Ni00YjUwLWI4MzctZjY5MDBiYmFiZTRiIiwib2Zmc2V0IjotNjUwfSx7ImlkIjoiNDQ4MWEyOGYtZGYzOS00OTg3LWIzN2ItZTljNmIyN2NjYzc0IiwicmV2aXNpb24iOjEsIndhbGxJZCI6IjBhNDQ1ZGU5LTVmOWUtNDI3ZC05ZjExLWIx
999
XRAY_MODEL:54:60:ZGI2NzYzZmMxMiIsIm9mZnNldCI6LTY1MH1dLCJzZWN0aW9uIjp7ImEiOlswLDE4MDBdLCJiIjpbOTAwMCwxODAwXX0sInNoZWV0Ijp7InNpemUiOiJBMSIsInNjYWxlIjoiNTAiLCJudW1iZXIiOiJBLTEwMSIsIm5vcnRoQW5nbGUiOjAs
999
XRAY_MODEL:55:60:InZpZXdwb3J0cyI6W3siaWQiOiJkZWZhdWx0LXBsYW4iLCJ2aWV3IjoicGxhbiIsImxldmVsSWQiOiJmOGFlNTk5NS0wZjQwLTRmYmEtYTJlYy03MzJlODhmOGRlOWIiLCJ4IjoxMiwieSI6MTIsIndpZHRoIjo0MDIuNSwiaGVpZ2h0Ijoy
999
XRAY_MODEL:56:60:NjIsInNjYWxlIjoiNTAifSx7ImlkIjoiMDgzNDM5ODItYjQzMy00OTNiLTllYjUtN2U5NTJhOWFjNDRjIiwidmlldyI6InNlY3Rpb24iLCJsZXZlbElkIjoiZjhhZTU5OTUtMGY0MC00ZmJhLWEyZWMtNzMyZTg4ZjhkZTliIiwieCI6NDIw
999
XRAY_MODEL:57:60:LjUsInkiOjEyLCJ3aWR0aCI6NDA0LjUsImhlaWdodCI6MjYyLCJzY2FsZSI6IjUwIn0seyJpZCI6ImNlMTk1YjA1LTQ2MjEtNDkwMC04N2Q5LTNmMzVlODhlOWRkMyIsInZpZXciOiJzb3V0aCIsImxldmVsSWQiOiJmOGFlNTk5NS0wZjQw
999
XRAY_MODEL:58:60:LTRmYmEtYTJlYy03MzJlODhmOGRlOWIiLCJ4IjoxMiwieSI6MjgyLCJ3aWR0aCI6NDA0LjUsImhlaWdodCI6MjYyLCJzY2FsZSI6IjUwIn1dfSwibm90ZXMiOiJBdXRob3JlZCBkZXNpZ24uIERpbWVuc2lvbnMgYW5kIGFzc2VtYmxpZXMg
999
XRAY_MODEL:59:60:cmVxdWlyZSBkZXNpZ24gcmV2aWV3OyBubyBjb21wbGlhbmNlIGNlcnRpZmljYXRpb24uIn19
0
SECTION
2
ENTITIES
0
LWPOLYLINE
8
LEVEL_Ground
90
4
70
1
38
0
10
0
20
0
10
9000
20
0
10
9000
20
-6000
10
0
20
-6000
0
TEXT
8
LEVEL_Ground
10
0
20
0
30
0
40
125
1
Ground slab 
0
LWPOLYLINE
8
LEVEL_Ground
90
4
70
1
38
0
10
-130
20
130
10
1800
20
130
10
1800
20
20
10
-20
20
20
0
LINE
8
LEVEL_Ground
10
-120
20
120
30
0
11
1800
21
120
31
0
0
LWPOLYLINE
8
LEVEL_Ground
90
4
70
1
38
0
10
4200
20
130
10
9130
20
130
10
9020
20
20
10
4200
20
20
0
LINE
8
LEVEL_Ground
10
4200
20
120
30
0
11
9120
21
120
31
0
0
LWPOLYLINE
8
LEVEL_Ground
90
4
70
1
38
0
10
-20
20
20
10
1800
20
20
10
1800
20
-30
10
30.000000000000004
20
-30
0
LWPOLYLINE
8
LEVEL_Ground
90
4
70
1
38
0
10
4200
20
20
10
9020
20
20
10
8970
20
-30
10
4200
20
-30
0
LWPOLYLINE
8
LEVEL_Ground
90
4
70
1
38
0
10
30.000000000000004
20
-30
10
1800
20
-30
10
1800
20
-120
10
120.00000000000001
20
-120
0
LINE
8
LEVEL_Ground
10
1710
20
-30
30
0
11
1800
21
-120
31
0
0
LINE
8
LEVEL_Ground
10
1590
20
-30
30
0
11
1680
21
-120
31
0
0
LINE
8
LEVEL_Ground
10
1470
20
-30
30
0
11
1560
21
-120
31
0
0
LINE
8
LEVEL_Ground
10
1350
20
-30
30
0
11
1440
21
-120
31
0
0
LINE
8
LEVEL_Ground
10
1230
20
-30
30
0
11
1320
21
-120
31
0
0
LINE
8
LEVEL_Ground
10
1110
20
-30
30
0
11
1200
21
-120
31
0
0
LINE
8
LEVEL_Ground
10
990
20
-30
30
0
11
1080
21
-120
31
0
0
LINE
8
LEVEL_Ground
10
870
20
-30
30
0
11
960
21
-120
31
0
0
LINE
8
LEVEL_Ground
10
750
20
-30
30
0
11
840
21
-120
31
0
0
LINE
8
LEVEL_Ground
10
630
20
-30
30
0
11
720
21
-120
31
0
0
LINE
8
LEVEL_Ground
10
510
20
-30
30
0
11
600
21
-120
31
0
0
LINE
8
LEVEL_Ground
10
390
20
-30
30
0
11
480
21
-120
31
0
0
LINE
8
LEVEL_Ground
10
270
20
-30
30
0
11
360
21
-120
31
0
0
LINE
8
LEVEL_Ground
10
150
20
-30
30
0
11
240
21
-120
31
0
0
LWPOLYLINE
8
LEVEL_Ground
90
4
70
1
38
0
10
4200
20
-30
10
8970
20
-30
10
8880
20
-120
10
4200
20
-120
0
LINE
8
LEVEL_Ground
10
8910
20
-30
30
0
11
8940
21
-60
31
0
0
LINE
8
LEVEL_Ground
10
8790
20
-30
30
0
11
8880
21
-120
31
0
0
LINE
8
LEVEL_Ground
10
8670
20
-30
30
0
11
8760
21
-120
31
0
0
LINE
8
LEVEL_Ground
10
8550
20
-30
30
0
11
8640
21
-120
31
0
0
LINE
8
LEVEL_Ground
10
8430
20
-30
30
0
11
8520
21
-120
31
0
0
LINE
8
LEVEL_Ground
10
8310
20
-30
30
0
11
8400
21
-120
31
0
0
LINE
8
LEVEL_Ground
10
8190
20
-30
30
0
11
8280
21
-120
31
0
0
LINE
8
LEVEL_Ground
10
8070
20
-30
30
0
11
8160
21
-120
31
0
0
LINE
8
LEVEL_Ground
10
7950
20
-30
30
0
11
8040
21
-120
31
0
0
LINE
8
LEVEL_Ground
10
7830
20
-30
30
0
11
7920
21
-120
31
0
0
LINE
8
LEVEL_Ground
10
7710
20
-29.999999999999545
30
0
11
7800
21
-120
31
0
0
LINE
8
LEVEL_Ground
10
7590
20
-30
30
0
11
7680
21
-120
31
0
0
LINE
8
LEVEL_Ground
10
7470
20
-30
30
0
11
7560
21
-120
31
0
0
LINE
8
LEVEL_Ground
10
7350
20
-30
30
0
11
7440
21
-120
31
0
0
LINE
8
LEVEL_Ground
10
7230
20
-30
30
0
11
7320
21
-120.00000000000045
31
0
0
LINE
8
LEVEL_Ground
10
7110
20
-30
30
0
11
7200
21
-120
31
0
0
LINE
8
LEVEL_Ground
10
6990
20
-30
30
0
11
7080
21
-120
31
0
0
LINE
8
LEVEL_Ground
10
6870
20
-30
30
0
11
6960
21
-120
31
0
0
LINE
8
LEVEL_Ground
10
6750
20
-30
30
0
11
6840
21
-120
31
0
0
LINE
8
LEVEL_Ground
10
6630
20
-30
30
0
11
6720
21
-120
31
0
0
LINE
8
LEVEL_Ground
10
6510
20
-30
30
0
11
6600
21
-120
31
0
0
LINE
8
LEVEL_Ground
10
6390
20
-30
30
0
11
6480
21
-120
31
0
0
LINE
8
LEVEL_Ground
10
6270
20
-30
30
0
11
6360
21
-120
31
0
0
LINE
8
LEVEL_Ground
10
6150
20
-30
30
0
11
6240
21
-120
31
0
0
LINE
8
LEVEL_Ground
10
6030
20
-30
30
0
11
6120
21
-120
31
0
0
LINE
8
LEVEL_Ground
10
5910
20
-30
30
0
11
6000
21
-120
31
0
0
LINE
8
LEVEL_Ground
10
5790
20
-30.000000000000227
30
0
11
5880
21
-120
31
0
0
LINE
8
LEVEL_Ground
10
5670
20
-30
30
0
11
5760
21
-120
31
0
0
LINE
8
LEVEL_Ground
10
5550
20
-30
30
0
11
5640
21
-120
31
0
0
LINE
8
LEVEL_Ground
10
5430
20
-30
30
0
11
5520
21
-119.99999999999977
31
0
0
LINE
8
LEVEL_Ground
10
5310
20
-30
30
0
11
5400
21
-120
31
0
0
LINE
8
LEVEL_Ground
10
5190
20
-30
30
0
11
5280
21
-120
31
0
0
LINE
8
LEVEL_Ground
10
5070
20
-30
30
0
11
5160
21
-120
31
0
0
LINE
8
LEVEL_Ground
10
4950
20
-30
30
0
11
5040
21
-120
31
0
0
LINE
8
LEVEL_Ground
10
4830
20
-30
30
0
11
4920
21
-120
31
0
0
LINE
8
LEVEL_Ground
10
4710
20
-30
30
0
11
4800
21
-120
31
0
0
LINE
8
LEVEL_Ground
10
4590
20
-30
30
0
11
4680
21
-120
31
0
0
LINE
8
LEVEL_Ground
10
4470
20
-30
30
0
11
4560
21
-120
31
0
0
LINE
8
LEVEL_Ground
10
4350
20
-30
30
0
11
4440
21
-120
31
0
0
LINE
8
LEVEL_Ground
10
4230
20
-30
30
0
11
4320
21
-120
31
0
0
LWPOLYLINE
8
LEVEL_Ground
90
4
70
1
38
0
10
120.00000000000001
20
-120
10
1800
20
-120
10
1800
20
-130
10
130
20
-130
0
LWPOLYLINE
8
LEVEL_Ground
90
4
70
1
38
0
10
4200
20
-120
10
8880
20
-120
10
8870
20
-130
10
4200
20
-130
0
LWPOLYLINE
8
LEVEL_Ground
90
4
70
1
38
0
10
9130
20
130
10
9130
20
-6130
10
9020
20
-6020.000000000001
10
9020
20
20
0
LINE
8
LEVEL_Ground
10
9120
20
120
30
0
11
9130
21
120
31
0
0
LINE
8
LEVEL_Ground
10
9020
20
0
30
0
11
9130
21
0
31
0
0
LINE
8
LEVEL_Ground
10
9020
20
-120
30
0
11
9130
21
-120
31
0
0
LINE
8
LEVEL_Ground
10
9020
20
-240
30
0
11
9130
21
-240
31
0
0
LINE
8
LEVEL_Ground
10
9020
20
-360
30
0
11
9130
21
-360
31
0
0
LINE
8
LEVEL_Ground
10
9020
20
-480
30
0
11
9130
21
-480
31
0
0
LINE
8
LEVEL_Ground
10
9020
20
-600
30
0
11
9130
21
-600
31
0
0
LINE
8
LEVEL_Ground
10
9020
20
-720
30
0
11
9130
21
-720
31
0
0
LINE
8
LEVEL_Ground
10
9020
20
-840
30
0
11
9130
21
-840
31
0
0
LINE
8
LEVEL_Ground
10
9020
20
-960
30
0
11
9130
21
-960
31
0
0
LINE
8
LEVEL_Ground
10
9020
20
-1080
30
0
11
9130
21
-1080
31
0
0
LINE
8
LEVEL_Ground
10
9020
20
-1200
30
0
11
9130
21
-1200
31
0
0
LINE
8
LEVEL_Ground
10
9020
20
-1320
30
0
11
9130
21
-1320
31
0
0
LINE
8
LEVEL_Ground
10
9020
20
-1440
30
0
11
9130
21
-1440
31
0
0
LINE
8
LEVEL_Ground
10
9020
20
-1560
30
0
11
9130
21
-1560
31
0
0
LINE
8
LEVEL_Ground
10
9020
20
-1680
30
0
11
9130
21
-1680
31
0
0
LINE
8
LEVEL_Ground
10
9020
20
-1800
30
0
11
9130
21
-1800
31
0
0
LINE
8
LEVEL_Ground
10
9020
20
-1920
30
0
11
9130
21
-1920
31
0
0
LINE
8
LEVEL_Ground
10
9020
20
-2040
30
0
11
9130
21
-2040
31
0
0
LINE
8
LEVEL_Ground
10
9020
20
-2160
30
0
11
9130
21
-2160
31
0
0
LINE
8
LEVEL_Ground
10
9020
20
-2280
30
0
11
9130
21
-2280
31
0
0
LINE
8
LEVEL_Ground
10
9020
20
-2400
30
0
11
9130
21
-2400
31
0
0
LINE
8
LEVEL_Ground
10
9020
20
-2520
30
0
11
9130
21
-2520
31
0
0
LINE
8
LEVEL_Ground
10
9020
20
-2640
30
0
11
9130
21
-2640
31
0
0
LINE
8
LEVEL_Ground
10
9020
20
-2760
30
0
11
9130
21
-2760
31
0
0
LINE
8
LEVEL_Ground
10
9020
20
-2880
30
0
11
9130
21
-2880
31
0
0
LINE
8
LEVEL_Ground
10
9020
20
-3000
30
0
11
9130
21
-3000
31
0
0
LINE
8
LEVEL_Ground
10
9020
20
-3120
30
0
11
9130
21
-3120
31
0
0
LINE
8
LEVEL_Ground
10
9020
20
-3240
30
0
11
9130
21
-3240
31
0
0
LINE
8
LEVEL_Ground
10
9020
20
-3360
30
0
11
9130
21
-3360
31
0
0
LINE
8
LEVEL_Ground
10
9020
20
-3480
30
0
11
9130
21
-3480
31
0
0
LINE
8
LEVEL_Ground
10
9020
20
-3600
30
0
11
9130
21
-3600
31
0
0
LINE
8
LEVEL_Ground
10
9020
20
-3720
30
0
11
9130
21
-3720
31
0
0
LINE
8
LEVEL_Ground
10
9020
20
-3840
30
0
11
9130
21
-3840
31
0
0
LINE
8
LEVEL_Ground
10
9020
20
-3960
30
0
11
9130
21
-3960
31
0
0
LINE
8
LEVEL_Ground
10
9020
20
-4080
30
0
11
9130
21
-4080
31
0
0
LINE
8
LEVEL_Ground
10
9020
20
-4200
30
0
11
9130
21
-4200
31
0
0
LINE
8
LEVEL_Ground
10
9020
20
-4320
30
0
11
9130
21
-4320
31
0
0
LINE
8
LEVEL_Ground
10
9020
20
-4440
30
0
11
9130
21
-4440
31
0
0
LINE
8
LEVEL_Ground
10
9020
20
-4560
30
0
11
9130
21
-4560
31
0
0
LINE
8
LEVEL_Ground
10
9020
20
-4680
30
0
11
9130
21
-4680
31
0
0
LINE
8
LEVEL_Ground
10
9020
20
-4800
30
0
11
9130
21
-4800
31
0
0
LINE
8
LEVEL_Ground
10
9020
20
-4920
30
0
11
9130
21
-4920
31
0
0
LINE
8
LEVEL_Ground
10
9020
20
-5040
30
0
11
9130
21
-5040
31
0
0
LINE
8
LEVEL_Ground
10
9020
20
-5160
30
0
11
9130
21
-5160
31
0
0
LINE
8
LEVEL_Ground
10
9020
20
-5280
30
0
11
9130
21
-5280
31
0
0
LINE
8
LEVEL_Ground
10
9020
20
-5400
30
0
11
9130
21
-5400
31
0
0
LINE
8
LEVEL_Ground
10
9020
20
-5520
30
0
11
9130
21
-5520
31
0
0
LINE
8
LEVEL_Ground
10
9020
20
-5640
30
0
11
9130
21
-5640
31
0
0
LINE
8
LEVEL_Ground
10
9020
20
-5760
30
0
11
9130
21
-5760
31
0
0
LINE
8
LEVEL_Ground
10
9020
20
-5880
30
0
11
9130
21
-5880
31
0
0
LINE
8
LEVEL_Ground
10
9020
20
-6000
30
0
11
9130
21
-6000
31
0
0
LINE
8
LEVEL_Ground
10
9120
20
-6120
30
0
11
9130
21
-6120
31
0
0
LWPOLYLINE
8
LEVEL_Ground
90
4
70
1
38
0
10
9020
20
20
10
9020
20
-6020.000000000001
10
8970
20
-5970
10
8970
20
-30
0
LWPOLYLINE
8
LEVEL_Ground
90
4
70
1
38
0
10
8970
20
-30
10
8970
20
-5970
10
8880
20
-5880
10
8880
20
-120
0
LINE
8
LEVEL_Ground
10
8940
20
-59.99999999999999
30
0
11
8970
21
-90
31
0
0
LINE
8
LEVEL_Ground
10
8880
20
-120
30
0
11
8970
21
-210
31
0
0
LINE
8
LEVEL_Ground
10
8880
20
-240
30
0
11
8970
21
-330
31
0
0
LINE
8
LEVEL_Ground
10
8880
20
-360
30
0
11
8970
21
-450
31
0
0
LINE
8
LEVEL_Ground
10
8880
20
-480
30
0
11
8970
21
-570
31
0
0
LINE
8
LEVEL_Ground
10
8880
20
-600
30
0
11
8970
21
-690
31
0
0
LINE
8
LEVEL_Ground
10
8880
20
-720
30
0
11
8970
21
-810
31
0
0
LINE
8
LEVEL_Ground
10
8880
20
-840
30
0
11
8970
21
-930
31
0
0
LINE
8
LEVEL_Ground
10
8880
20
-960
30
0
11
8970
21
-1050
31
0
0
LINE
8
LEVEL_Ground
10
8880
20
-1080
30
0
11
8970
21
-1170
31
0
0
LINE
8
LEVEL_Ground
10
8880
20
-1200
30
0
11
8970
21
-1290
31
0
0
LINE
8
LEVEL_Ground
10
8880
20
-1320
30
0
11
8970
21
-1410
31
0
0
LINE
8
LEVEL_Ground
10
8880
20
-1440
30
0
11
8970
21
-1530
31
0
0
LINE
8
LEVEL_Ground
10
8880
20
-1560
30
0
11
8970
21
-1650
31
0
0
LINE
8
LEVEL_Ground
10
8880
20
-1680
30
0
11
8970
21
-1770
31
0
0
LINE
8
LEVEL_Ground
10
8880
20
-1800
30
0
11
8970
21
-1890
31
0
0
LINE
8
LEVEL_Ground
10
8880
20
-1920
30
0
11
8970
21
-2010
31
0
0
LINE
8
LEVEL_Ground
10
8880
20
-2040
30
0
11
8970
21
-2130
31
0
0
LINE
8
LEVEL_Ground
10
8880
20
-2160
30
0
11
8970
21
-2250
31
0
0
LINE
8
LEVEL_Ground
10
8880
20
-2280
30
0
11
8970
21
-2370
31
0
0
LINE
8
LEVEL_Ground
10
8880
20
-2400
30
0
11
8970
21
-2490
31
0
0
LINE
8
LEVEL_Ground
10
8880
20
-2520
30
0
11
8970
21
-2610
31
0
0
LINE
8
LEVEL_Ground
10
8880
20
-2640
30
0
11
8970
21
-2730
31
0
0
LINE
8
LEVEL_Ground
10
8880
20
-2760
30
0
11
8970
21
-2850
31
0
0
LINE
8
LEVEL_Ground
10
8880
20
-2880
30
0
11
8970
21
-2970
31
0
0
LINE
8
LEVEL_Ground
10
8880
20
-3000
30
0
11
8970
21
-3090
31
0
0
LINE
8
LEVEL_Ground
10
8880
20
-3120
30
0
11
8970
21
-3210
31
0
0
LINE
8
LEVEL_Ground
10
8880
20
-3240
30
0
11
8970
21
-3330
31
0
0
LINE
8
LEVEL_Ground
10
8880
20
-3360
30
0
11
8970
21
-3450
31
0
0
LINE
8
LEVEL_Ground
10
8880
20
-3480
30
0
11
8970
21
-3570
31
0
0
LINE
8
LEVEL_Ground
10
8880
20
-3600
30
0
11
8970
21
-3690
31
0
0
LINE
8
LEVEL_Ground
10
8880
20
-3720
30
0
11
8970
21
-3810
31
0
0
LINE
8
LEVEL_Ground
10
8880
20
-3840
30
0
11
8970
21
-3930
31
0
0
LINE
8
LEVEL_Ground
10
8880
20
-3960
30
0
11
8970
21
-4050
31
0
0
LINE
8
LEVEL_Ground
10
8880
20
-4080
30
0
11
8970
21
-4170
31
0
0
LINE
8
LEVEL_Ground
10
8880
20
-4200
30
0
11
8970
21
-4290
31
0
0
LINE
8
LEVEL_Ground
10
8880
20
-4320
30
0
11
8970
21
-4410
31
0
0
LINE
8
LEVEL_Ground
10
8880
20
-4440
30
0
11
8970
21
-4530
31
0
0
LINE
8
LEVEL_Ground
10
8880
20
-4560
30
0
11
8970
21
-4650
31
0
0
LINE
8
LEVEL_Ground
10
8880
20
-4680
30
0
11
8970
21
-4770
31
0
0
LINE
8
LEVEL_Ground
10
8880
20
-4800
30
0
11
8970
21
-4890
31
0
0
LINE
8
LEVEL_Ground
10
8880
20
-4920
30
0
11
8970
21
-5010
31
0
0
LINE
8
LEVEL_Ground
10
8880
20
-5040
30
0
11
8970
21
-5130
31
0
0
LINE
8
LEVEL_Ground
10
8880
20
-5160
30
0
11
8970
21
-5250
31
0
0
LINE
8
LEVEL_Ground
10
8880
20
-5280
30
0
11
8970
21
-5370
31
0
0
LINE
8
LEVEL_Ground
10
8880
20
-5400
30
0
11
8970
21
-5490
31
0
0
LINE
8
LEVEL_Ground
10
8880
20
-5520
30
0
11
8970
21
-5610
31
0
0
LINE
8
LEVEL_Ground
10
8880
20
-5640
30
0
11
8970
21
-5730
31
0
0
LINE
8
LEVEL_Ground
10
8880
20
-5760
30
0
11
8970
21
-5850
31
0
0
LINE
8
LEVEL_Ground
10
8880
20
-5880
30
0
11
8970
21
-5970
31
0
0
LWPOLYLINE
8
LEVEL_Ground
90
4
70
1
38
0
10
8880
20
-120
10
8880
20
-5880
10
8870
20
-5870
10
8870
20
-130
0
LWPOLYLINE
8
LEVEL_Ground
90
4
70
1
38
0
10
-130
20
-6130
10
-20
20
-6020
10
3750
20
-6020
10
3750
20
-6130
0
LINE
8
LEVEL_Ground
10
-120
20
-6120
30
0
11
3750
21
-6120
31
0
0
LWPOLYLINE
8
LEVEL_Ground
90
4
70
1
38
0
10
5250
20
-6020
10
9020
20
-6020
10
9130
20
-6130
10
5250
20
-6130
0
LINE
8
LEVEL_Ground
10
5250
20
-6120
30
0
11
9120
21
-6120
31
0
0
LWPOLYLINE
8
LEVEL_Ground
90
4
70
1
38
0
10
-20
20
-6020
10
30
20
-5970
10
3750
20
-5970
10
3750
20
-6020
0
LWPOLYLINE
8
LEVEL_Ground
90
4
70
1
38
0
10
5250
20
-5970
10
8970
20
-5970
10
9020
20
-6020
10
5250
20
-6020
0
LWPOLYLINE
8
LEVEL_Ground
90
4
70
1
38
0
10
30
20
-5970
10
120
20
-5880
10
3750
20
-5880
10
3750
20
-5970
0
LINE
8
LEVEL_Ground
10
3720
20
-5880
30
0
11
3750
21
-5910
31
0
0
LINE
8
LEVEL_Ground
10
3600
20
-5880
30
0
11
3690
21
-5970
31
0
0
LINE
8
LEVEL_Ground
10
3480
20
-5880
30
0
11
3570
21
-5970
31
0
0
LINE
8
LEVEL_Ground
10
3360
20
-5880
30
0
11
3450
21
-5970
31
0
0
LINE
8
LEVEL_Ground
10
3240
20
-5880
30
0
11
3330
21
-5970
31
0
0
LINE
8
LEVEL_Ground
10
3120
20
-5880
30
0
11
3210
21
-5970
31
0
0
LINE
8
LEVEL_Ground
10
3000
20
-5880
30
0
11
3090
21
-5970
31
0
0
LINE
8
LEVEL_Ground
10
2880
20
-5880
30
0
11
2970
21
-5970
31
0
0
LINE
8
LEVEL_Ground
10
2760
20
-5880
30
0
11
2850
21
-5970
31
0
0
LINE
8
LEVEL_Ground
10
2640
20
-5880
30
0
11
2730
21
-5970
31
0
0
LINE
8
LEVEL_Ground
10
2520
20
-5880
30
0
11
2610
21
-5970
31
0
0
LINE
8
LEVEL_Ground
10
2400
20
-5880
30
0
11
2490
21
-5970
31
0
0
LINE
8
LEVEL_Ground
10
2280
20
-5880
30
0
11
2370
21
-5970
31
0
0
LINE
8
LEVEL_Ground
10
2160
20
-5880
30
0
11
2250
21
-5970
31
0
0
LINE
8
LEVEL_Ground
10
2040.0000000000002
20
-5880
30
0
11
2130
21
-5970
31
0
0
LINE
8
LEVEL_Ground
10
1919.9999999999998
20
-5880
30
0
11
2009.9999999999998
21
-5970
31
0
0
LINE
8
LEVEL_Ground
10
1800
20
-5880
30
0
11
1890
21
-5970
31
0
0
LINE
8
LEVEL_Ground
10
1680
20
-5880
30
0
11
1770
21
-5970
31
0
0
LINE
8
LEVEL_Ground
10
1560
20
-5880
30
0
11
1650
21
-5970
31
0
0
LINE
8
LEVEL_Ground
10
1440
20
-5880
30
0
11
1530
21
-5970
31
0
0
LINE
8
LEVEL_Ground
10
1320
20
-5880
30
0
11
1410
21
-5970
31
0
0
LINE
8
LEVEL_Ground
10
1200
20
-5880
30
0
11
1290
21
-5970
31
0
0
LINE
8
LEVEL_Ground
10
1080
20
-5880
30
0
11
1170
21
-5970
31
0
0
LINE
8
LEVEL_Ground
10
960
20
-5880
30
0
11
1050
21
-5970
31
0
0
LINE
8
LEVEL_Ground
10
840
20
-5880
30
0
11
930
21
-5970
31
0
0
LINE
8
LEVEL_Ground
10
720
20
-5880
30
0
11
810
21
-5970
31
0
0
LINE
8
LEVEL_Ground
10
600
20
-5880
30
0
11
690
21
-5970
31
0
0
LINE
8
LEVEL_Ground
10
480
20
-5880
30
0
11
570
21
-5970
31
0
0
LINE
8
LEVEL_Ground
10
360
20
-5880
30
0
11
450
21
-5970
31
0
0
LINE
8
LEVEL_Ground
10
240
20
-5880
30
0
11
330
21
-5970
31
0
0
LINE
8
LEVEL_Ground
10
120
20
-5880
30
0
11
210
21
-5970
31
0
0
LINE
8
LEVEL_Ground
10
60
20
-5940
30
0
11
90
21
-5970
31
0
0
LWPOLYLINE
8
LEVEL_Ground
90
4
70
1
38
0
10
5250
20
-5880
10
8880
20
-5880
10
8970
20
-5970
10
5250
20
-5970
0
LINE
8
LEVEL_Ground
10
8760
20
-5880
30
0
11
8850
21
-5970
31
0
0
LINE
8
LEVEL_Ground
10
8640
20
-5880
30
0
11
8730
21
-5970
31
0
0
LINE
8
LEVEL_Ground
10
8520
20
-5880
30
0
11
8610
21
-5970
31
0
0
LINE
8
LEVEL_Ground
10
8400
20
-5880
30
0
11
8490
21
-5970
31
0
0
LINE
8
LEVEL_Ground
10
8280
20
-5880
30
0
11
8370
21
-5970
31
0
0
LINE
8
LEVEL_Ground
10
8160
20
-5880
30
0
11
8250
21
-5970
31
0
0
LINE
8
LEVEL_Ground
10
8040
20
-5880
30
0
11
8130
21
-5970
31
0
0
LINE
8
LEVEL_Ground
10
7920
20
-5880
30
0
11
8010
21
-5970
31
0
0
LINE
8
LEVEL_Ground
10
7800
20
-5880
30
0
11
7890
21
-5970
31
0
0
LINE
8
LEVEL_Ground
10
7680
20
-5880
30
0
11
7770
21
-5970
31
0
0
LINE
8
LEVEL_Ground
10
7560
20
-5880
30
0
11
7650
21
-5970
31
0
0
LINE
8
LEVEL_Ground
10
7440
20
-5880
30
0
11
7530
21
-5970
31
0
0
LINE
8
LEVEL_Ground
10
7320
20
-5880
30
0
11
7410
21
-5970
31
0
0
LINE
8
LEVEL_Ground
10
7200
20
-5880
30
0
11
7290
21
-5970
31
0
0
LINE
8
LEVEL_Ground
10
7080
20
-5880
30
0
11
7170
21
-5970
31
0
0
LINE
8
LEVEL_Ground
10
6960
20
-5880
30
0
11
7050
21
-5970
31
0
0
LINE
8
LEVEL_Ground
10
6840
20
-5880
30
0
11
6930
21
-5970
31
0
0
LINE
8
LEVEL_Ground
10
6720
20
-5880
30
0
11
6810
21
-5970
31
0
0
LINE
8
LEVEL_Ground
10
6600
20
-5880
30
0
11
6690
21
-5970
31
0
0
LINE
8
LEVEL_Ground
10
6480
20
-5880
30
0
11
6570
21
-5970
31
0
0
LINE
8
LEVEL_Ground
10
6360
20
-5880
30
0
11
6450
21
-5970
31
0
0
LINE
8
LEVEL_Ground
10
6240
20
-5880
30
0
11
6330
21
-5970
31
0
0
LINE
8
LEVEL_Ground
10
6120
20
-5880
30
0
11
6210
21
-5970
31
0
0
LINE
8
LEVEL_Ground
10
6000
20
-5880
30
0
11
6090
21
-5970
31
0
0
LINE
8
LEVEL_Ground
10
5880
20
-5880
30
0
11
5970
21
-5970
31
0
0
LINE
8
LEVEL_Ground
10
5760
20
-5880
30
0
11
5850
21
-5970
31
0
0
LINE
8
LEVEL_Ground
10
5640
20
-5880
30
0
11
5730
21
-5970
31
0
0
LINE
8
LEVEL_Ground
10
5520
20
-5880
30
0
11
5610
21
-5970
31
0
0
LINE
8
LEVEL_Ground
10
5400
20
-5880
30
0
11
5490
21
-5970
31
0
0
LINE
8
LEVEL_Ground
10
5280
20
-5880
30
0
11
5370
21
-5970
31
0
0
LWPOLYLINE
8
LEVEL_Ground
90
4
70
1
38
0
10
120
20
-5880
10
130
20
-5870
10
3750
20
-5870
10
3750
20
-5880
0
LWPOLYLINE
8
LEVEL_Ground
90
4
70
1
38
0
10
5250
20
-5870
10
8870
20
-5870
10
8880
20
-5880
10
5250
20
-5880
0
LWPOLYLINE
8
LEVEL_Ground
90
4
70
1
38
0
10
-130
20
-6130
10
-130
20
130
10
-20
20
20.00000000000091
10
-20
20
-6020
0
LINE
8
LEVEL_Ground
10
-130
20
120
30
0
11
-119.99999999999991
21
120
31
0
0
LINE
8
LEVEL_Ground
10
-130
20
0
30
0
11
-20
21
0
31
0
0
LINE
8
LEVEL_Ground
10
-130
20
-120
30
0
11
-20
21
-120
31
0
0
LINE
8
LEVEL_Ground
10
-130
20
-240
30
0
11
-20
21
-240
31
0
0
LINE
8
LEVEL_Ground
10
-130
20
-360
30
0
11
-20
21
-360
31
0
0
LINE
8
LEVEL_Ground
10
-130
20
-480
30
0
11
-20
21
-480
31
0
0
LINE
8
LEVEL_Ground
10
-130
20
-600
30
0
11
-20
21
-600
31
0
0
LINE
8
LEVEL_Ground
10
-130
20
-720
30
0
11
-20
21
-720
31
0
0
LINE
8
LEVEL_Ground
10
-130
20
-840
30
0
11
-20
21
-840
31
0
0
LINE
8
LEVEL_Ground
10
-130
20
-960
30
0
11
-20
21
-960
31
0
0
LINE
8
LEVEL_Ground
10
-130
20
-1080
30
0
11
-20
21
-1080
31
0
0
LINE
8
LEVEL_Ground
10
-130
20
-1200
30
0
11
-20
21
-1200
31
0
0
LINE
8
LEVEL_Ground
10
-130
20
-1320
30
0
11
-20
21
-1320
31
0
0
LINE
8
LEVEL_Ground
10
-130
20
-1440
30
0
11
-20
21
-1440
31
0
0
LINE
8
LEVEL_Ground
10
-130
20
-1560
30
0
11
-20
21
-1560
31
0
0
LINE
8
LEVEL_Ground
10
-130
20
-1680
30
0
11
-20
21
-1680
31
0
0
LINE
8
LEVEL_Ground
10
-130
20
-1800
30
0
11
-20
21
-1800
31
0
0
LINE
8
LEVEL_Ground
10
-130
20
-1920
30
0
11
-20
21
-1920
31
0
0
LINE
8
LEVEL_Ground
10
-130
20
-2040
30
0
11
-20
21
-2040
31
0
0
LINE
8
LEVEL_Ground
10
-130
20
-2160
30
0
11
-20
21
-2160
31
0
0
LINE
8
LEVEL_Ground
10
-130
20
-2280
30
0
11
-20
21
-2280
31
0
0
LINE
8
LEVEL_Ground
10
-130
20
-2400
30
0
11
-20
21
-2400
31
0
0
LINE
8
LEVEL_Ground
10
-130
20
-2520
30
0
11
-20
21
-2520
31
0
0
LINE
8
LEVEL_Ground
10
-130
20
-2640
30
0
11
-20
21
-2640
31
0
0
LINE
8
LEVEL_Ground
10
-130
20
-2760
30
0
11
-20
21
-2760
31
0
0
LINE
8
LEVEL_Ground
10
-130
20
-2880
30
0
11
-20
21
-2880
31
0
0
LINE
8
LEVEL_Ground
10
-130
20
-3000
30
0
11
-20
21
-3000
31
0
0
LINE
8
LEVEL_Ground
10
-130
20
-3120
30
0
11
-20
21
-3120
31
0
0
LINE
8
LEVEL_Ground
10
-130
20
-3240
30
0
11
-20
21
-3240
31
0
0
LINE
8
LEVEL_Ground
10
-130
20
-3360
30
0
11
-20
21
-3360
31
0
0
LINE
8
LEVEL_Ground
10
-130
20
-3480
30
0
11
-20
21
-3480
31
0
0
LINE
8
LEVEL_Ground
10
-130
20
-3600
30
0
11
-20
21
-3600
31
0
0
LINE
8
LEVEL_Ground
10
-130
20
-3720
30
0
11
-20
21
-3720
31
0
0
LINE
8
LEVEL_Ground
10
-130
20
-3840
30
0
11
-20
21
-3840
31
0
0
LINE
8
LEVEL_Ground
10
-130
20
-3960
30
0
11
-20
21
-3960
31
0
0
LINE
8
LEVEL_Ground
10
-130
20
-4080
30
0
11
-20
21
-4080
31
0
0
LINE
8
LEVEL_Ground
10
-130
20
-4200
30
0
11
-20
21
-4200
31
0
0
LINE
8
LEVEL_Ground
10
-130
20
-4320
30
0
11
-20
21
-4320
31
0
0
LINE
8
LEVEL_Ground
10
-130
20
-4440
30
0
11
-20
21
-4440
31
0
0
LINE
8
LEVEL_Ground
10
-130
20
-4560
30
0
11
-20
21
-4560
31
0
0
LINE
8
LEVEL_Ground
10
-130
20
-4680
30
0
11
-20
21
-4680
31
0
0
LINE
8
LEVEL_Ground
10
-130
20
-4800
30
0
11
-20
21
-4800
31
0
0
LINE
8
LEVEL_Ground
10
-130
20
-4920
30
0
11
-20
21
-4920
31
0
0
LINE
8
LEVEL_Ground
10
-130
20
-5040
30
0
11
-20
21
-5040
31
0
0
LINE
8
LEVEL_Ground
10
-130
20
-5160
30
0
11
-20
21
-5160
31
0
0
LINE
8
LEVEL_Ground
10
-130
20
-5280
30
0
11
-20
21
-5280
31
0
0
LINE
8
LEVEL_Ground
10
-130
20
-5400
30
0
11
-20
21
-5400
31
0
0
LINE
8
LEVEL_Ground
10
-130
20
-5520
30
0
11
-20
21
-5520
31
0
0
LINE
8
LEVEL_Ground
10
-130
20
-5640
30
0
11
-20
21
-5640
31
0
0
LINE
8
LEVEL_Ground
10
-130
20
-5760
30
0
11
-20
21
-5760
31
0
0
LINE
8
LEVEL_Ground
10
-130
20
-5880
30
0
11
-20
21
-5880
31
0
0
LINE
8
LEVEL_Ground
10
-130
20
-6000
30
0
11
-20
21
-6000
31
0
0
LINE
8
LEVEL_Ground
10
-130
20
-6120
30
0
11
-120
21
-6120
31
0
0
LWPOLYLINE
8
LEVEL_Ground
90
4
70
1
38
0
10
-20
20
-6020
10
-20
20
20.00000000000091
10
30
20
-30
10
30
20
-5970
0
LWPOLYLINE
8
LEVEL_Ground
90
4
70
1
38
0
10
30
20
-5970
10
30
20
-30
10
120
20
-120
10
120
20
-5880
0
LINE
8
LEVEL_Ground
10
30
20
-150
30
0
11
120
21
-240
31
0
0
LINE
8
LEVEL_Ground
10
30
20
-270
30
0
11
120
21
-360
31
0
0
LINE
8
LEVEL_Ground
10
30
20
-390
30
0
11
120
21
-480
31
0
0
LINE
8
LEVEL_Ground
10
30
20
-510
30
0
11
120
21
-600
31
0
0
LINE
8
LEVEL_Ground
10
30
20
-630
30
0
11
120
21
-720
31
0
0
LINE
8
LEVEL_Ground
10
30
20
-750
30
0
11
120
21
-840
31
0
0
LINE
8
LEVEL_Ground
10
30
20
-870
30
0
11
120
21
-960
31
0
0
LINE
8
LEVEL_Ground
10
30
20
-990
30
0
11
120
21
-1080
31
0
0
LINE
8
LEVEL_Ground
10
30
20
-1110
30
0
11
120
21
-1200
31
0
0
LINE
8
LEVEL_Ground
10
30
20
-1230
30
0
11
120
21
-1320
31
0
0
LINE
8
LEVEL_Ground
10
30
20
-1350
30
0
11
120
21
-1440
31
0
0
LINE
8
LEVEL_Ground
10
30
20
-1470
30
0
11
120
21
-1560
31
0
0
LINE
8
LEVEL_Ground
10
30
20
-1590
30
0
11
120
21
-1680
31
0
0
LINE
8
LEVEL_Ground
10
30
20
-1710
30
0
11
120
21
-1800
31
0
0
LINE
8
LEVEL_Ground
10
30
20
-1830
30
0
11
120
21
-1920
31
0
0
LINE
8
LEVEL_Ground
10
30
20
-1950
30
0
11
120
21
-2040
31
0
0
LINE
8
LEVEL_Ground
10
30
20
-2070
30
0
11
120
21
-2160
31
0
0
LINE
8
LEVEL_Ground
10
30
20
-2190
30
0
11
120
21
-2280
31
0
0
LINE
8
LEVEL_Ground
10
30
20
-2310
30
0
11
120
21
-2400
31
0
0
LINE
8
LEVEL_Ground
10
30
20
-2430
30
0
11
120
21
-2520
31
0
0
LINE
8
LEVEL_Ground
10
30
20
-2550
30
0
11
120
21
-2640
31
0
0
LINE
8
LEVEL_Ground
10
30
20
-2670
30
0
11
120
21
-2760
31
0
0
LINE
8
LEVEL_Ground
10
30
20
-2790
30
0
11
120
21
-2880
31
0
0
LINE
8
LEVEL_Ground
10
30
20
-2910
30
0
11
120
21
-3000
31
0
0
LINE
8
LEVEL_Ground
10
30
20
-3030
30
0
11
120
21
-3120
31
0
0
LINE
8
LEVEL_Ground
10
30
20
-3150
30
0
11
120
21
-3240
31
0
0
LINE
8
LEVEL_Ground
10
30
20
-3270
30
0
11
120
21
-3360
31
0
0
LINE
8
LEVEL_Ground
10
30
20
-3390
30
0
11
120
21
-3480
31
0
0
LINE
8
LEVEL_Ground
10
30
20
-3510
30
0
11
120
21
-3600
31
0
0
LINE
8
LEVEL_Ground
10
30
20
-3630
30
0
11
120
21
-3720
31
0
0
LINE
8
LEVEL_Ground
10
30
20
-3750
30
0
11
120
21
-3840
31
0
0
LINE
8
LEVEL_Ground
10
30
20
-3870
30
0
11
120
21
-3960
31
0
0
LINE
8
LEVEL_Ground
10
30
20
-3990
30
0
11
120
21
-4080
31
0
0
LINE
8
LEVEL_Ground
10
30
20
-4110
30
0
11
120
21
-4200
31
0
0
LINE
8
LEVEL_Ground
10
30
20
-4230
30
0
11
120
21
-4320
31
0
0
LINE
8
LEVEL_Ground
10
30
20
-4350
30
0
11
120
21
-4440
31
0
0
LINE
8
LEVEL_Ground
10
30
20
-4470
30
0
11
120
21
-4560
31
0
0
LINE
8
LEVEL_Ground
10
30
20
-4590
30
0
11
120
21
-4680
31
0
0
LINE
8
LEVEL_Ground
10
30
20
-4710
30
0
11
120
21
-4800
31
0
0
LINE
8
LEVEL_Ground
10
30
20
-4830
30
0
11
120
21
-4920
31
0
0
LINE
8
LEVEL_Ground
10
30
20
-4950
30
0
11
120
21
-5040
31
0
0
LINE
8
LEVEL_Ground
10
30
20
-5070
30
0
11
120
21
-5160
31
0
0
LINE
8
LEVEL_Ground
10
30
20
-5190
30
0
11
120
21
-5280
31
0
0
LINE
8
LEVEL_Ground
10
30
20
-5310
30
0
11
120
21
-5400
31
0
0
LINE
8
LEVEL_Ground
10
30
20
-5430
30
0
11
120
21
-5520
31
0
0
LINE
8
LEVEL_Ground
10
30
20
-5550
30
0
11
120
21
-5640
31
0
0
LINE
8
LEVEL_Ground
10
30
20
-5670
30
0
11
120
21
-5760
31
0
0
LINE
8
LEVEL_Ground
10
30
20
-5790
30
0
11
120
21
-5880
31
0
0
LINE
8
LEVEL_Ground
10
30
20
-5910
30
0
11
60
21
-5940
31
0
0
LWPOLYLINE
8
LEVEL_Ground
90
4
70
1
38
0
10
120
20
-5880
10
120
20
-120
10
130
20
-130
10
130
20
-5870
0
LWPOLYLINE
8
LEVEL_Ground
90
4
70
1
38
0
10
5955
20
0
10
6045
20
0
10
6045
20
-2565
10
5955
20
-2565
0
LWPOLYLINE
8
LEVEL_Ground
90
4
70
1
38
0
10
5955
20
-3435
10
6045
20
-3435
10
6045
20
-6000
10
5955
20
-6000
0
LINE
8
LEVEL_Ground
10
5250
20
-6130
30
0
11
5250
21
-5870
31
0
0
LINE
8
LEVEL_Ground
10
3750
20
-6130
30
0
11
3750
21
-5870
31
0
0
LINE
8
LEVEL_Ground
10
5250
20
-6000
30
0
11
5250
21
-4500
31
0
0
ARC
8
LEVEL_Ground
10
5250
20
-6000
30
0
40
1500
50
90
51
180
0
TEXT
8
LEVEL_Ground
10
4500
20
-5660
30
0
40
130
1
D01
0
LINE
8
LEVEL_Ground
10
1800
20
130
30
0
11
1800
21
-130
31
0
0
LINE
8
LEVEL_Ground
10
4200
20
130
30
0
11
4200
21
-130
31
0
0
LINE
8
LEVEL_Ground
10
1800
20
130
30
0
11
4200
21
130
31
0
0
LINE
8
LEVEL_Ground
10
1800
20
0
30
0
11
4200
21
0
31
0
0
LINE
8
LEVEL_Ground
10
1800
20
-130
30
0
11
4200
21
-130
31
0
0
TEXT
8
LEVEL_Ground
10
3000
20
-340
30
0
40
130
1
W01
0
LINE
8
LEVEL_Ground
10
6045
20
-2565
30
0
11
5955
21
-2565
31
0
0
LINE
8
LEVEL_Ground
10
6045
20
-3435
30
0
11
5955
21
-3435
31
0
0
LINE
8
LEVEL_Ground
10
6000
20
-3435
30
0
11
6870
21
-3435
31
0
0
ARC
8
LEVEL_Ground
10
6000
20
-3435
30
0
40
870
50
0
51
90
0
TEXT
8
LEVEL_Ground
10
5745
20
-3000
30
0
40
130
1
D02
0
TEXT
8
LEVEL_Ground
10
3000
20
-3000
30
0
40
190
1
STUDIO
0
TEXT
8
LEVEL_Ground
10
3000
20
-3210
30
0
40
125
1
33.44 m² | P 23.13 m
0
TEXT
8
LEVEL_Ground
10
3000
20
-3390
30
0
40
115
1
CL 2.700 m
0
TEXT
8
LEVEL_Ground
10
7500
20
-3000
30
0
40
190
1
WORKSHOP
0
TEXT
8
LEVEL_Ground
10
7500
20
-3210
30
0
40
125
1
16.22 m² | P 17.13 m
0
TEXT
8
LEVEL_Ground
10
7500
20
-3390
30
0
40
115
1
CL 2.700 m
0
LINE
8
LEVEL_Ground
10
0
20
0
30
0
11
0
21
550
31
0
0
LINE
8
LEVEL_Ground
10
9000
20
0
30
0
11
9000
21
550
31
0
0
LINE
8
LEVEL_Ground
10
0
20
650
30
0
11
9000
21
650
31
0
0
LINE
8
LEVEL_Ground
10
-60
20
590
30
0
11
60
21
710
31
0
0
LINE
8
LEVEL_Ground
10
8940
20
590
30
0
11
9060
21
710
31
0
0
TEXT
8
LEVEL_Ground
10
4500
20
500
30
0
40
130
1
9000
0
LINE
8
LEVEL_Ground
10
9000
20
0
30
0
11
9550
21
0
31
0
0
LINE
8
LEVEL_Ground
10
9000
20
-6000
30
0
11
9550
21
-6000
31
0
0
LINE
8
LEVEL_Ground
10
9650
20
0
30
0
11
9650
21
-6000
31
0
0
LINE
8
LEVEL_Ground
10
9590
20
-60
30
0
11
9710
21
60
31
0
0
LINE
8
LEVEL_Ground
10
9590
20
-6060
30
0
11
9710
21
-5940
31
0
0
TEXT
8
LEVEL_Ground
10
9500
20
-3000
30
0
40
130
1
6000
0
LINE
8
LEVEL_Ground
10
9000
20
-6000
30
0
11
9000
21
-6550
31
0
0
LINE
8
LEVEL_Ground
10
0
20
-6000
30
0
11
0
21
-6550
31
0
0
LINE
8
LEVEL_Ground
10
9000
20
-6650
30
0
11
0
21
-6650
31
0
0
LINE
8
LEVEL_Ground
10
8940
20
-6710
30
0
11
9060
21
-6590
31
0
0
LINE
8
LEVEL_Ground
10
-60
20
-6710
30
0
11
60
21
-6590
31
0
0
TEXT
8
LEVEL_Ground
10
4500
20
-6500
30
0
40
130
1
9000
0
LINE
8
LEVEL_Ground
10
0
20
-6000
30
0
11
-550
21
-6000
31
0
0
LINE
8
LEVEL_Ground
10
0
20
0
30
0
11
-550
21
0
31
0
0
LINE
8
LEVEL_Ground
10
-650
20
-6000
30
0
11
-650
21
0
31
0
0
LINE
8
LEVEL_Ground
10
-710
20
-6060
30
0
11
-590
21
-5940
31
0
0
LINE
8
LEVEL_Ground
10
-710
20
-60
30
0
11
-590
21
60
31
0
0
TEXT
8
LEVEL_Ground
10
-500
20
-3000
30
0
40
130
1
6000
0
LINE
8
LEVEL_Ground
10
0
20
1000
30
0
11
0
21
-7000
31
0
0
CIRCLE
8
LEVEL_Ground
10
0
20
1000
30
0
40
160
0
TEXT
8
LEVEL_Ground
10
0
20
955
30
0
40
140
1
A
0
LINE
8
LEVEL_Ground
10
9000
20
1000
30
0
11
9000
21
-7000
31
0
0
CIRCLE
8
LEVEL_Ground
10
9000
20
1000
30
0
40
160
0
TEXT
8
LEVEL_Ground
10
9000
20
955
30
0
40
140
1
B
0
LINE
8
LEVEL_Ground
10
-1000
20
0
30
0
11
10000
21
0
31
0
0
CIRCLE
8
LEVEL_Ground
10
-1000
20
0
30
0
40
160
0
TEXT
8
LEVEL_Ground
10
-1000
20
-45
30
0
40
140
1
1
0
LINE
8
LEVEL_Ground
10
-1000
20
-6000
30
0
11
10000
21
-6000
31
0
0
CIRCLE
8
LEVEL_Ground
10
-1000
20
-6000
30
0
40
160
0
TEXT
8
LEVEL_Ground
10
-1000
20
-6045
30
0
40
140
1
2
0
LINE
8
LEVEL_Ground
10
0
20
-1800
30
0
11
9000
21
-1800
31
0
0
TEXT
8
LEVEL_Ground
10
0
20
-1620
30
0
40
170
1
A
0
TEXT
8
LEVEL_Ground
10
9000
20
-1620
30
0
40
170
1
A
0
ENDSEC
0
EOF
